<svg xmlns="http://www.w3.org/2000/svg" viewBox="0 0 900.14 744.04">
  <defs>
    <style>
      #squall-quistis,
      #squall-dialogues-alpha,
      #squall-quistis-dialogues {
        fill: #2c3e50;
      }
      .cls-1 {
        opacity: 0.75;
      }
    </style>
  </defs>
  <title>says-who</title>
  <g id="squall-quistis-dialogues">
    <g>
      <path d="M896.5.5v166H536.56V285H.5V.5Zm-7.61,4.16H8.45l.24,2.22h880.2ZM94.34,156.5a18.16,18.16,0,0,1,1.09-3.64c1-1.78-.08-2.77-1.35-3.22-1.08-.38-2.91-1.54-3.25,1.14a17.88,17.88,0,0,1-1.16,2.88c-1,3.14-1.19,3.24-4.76,2.49.31-.93.65-1.84.9-2.77s.47-2,.69-3c-4.27-2.25-4.85-2-6,2.63-.51,1.95-1.2,3.85-1.75,5.54-.89-.86-1.49-1.94-2.11-1.95-5.3-.14-10.61-.08-15.91-.08v4.6H76.91l.28.65c-.53.36-1.06,1-1.58,1-3.81,0-7.61-.1-11.41-.31-1.89-.1-2.59,1-2.65,2.49s1,2.51,2.65,2.53c2,0,4,0,6,0h4.72v.84c-.76,0-1.52.15-2.28.15-2.83,0-5.67,0-8.5,0-1.51,0-2.64.8-2.57,2.33s.94,2.28,2.66,2.2c3.08-.14,6.16,0,9.24-.07a4.5,4.5,0,0,0,2.29-.7,22.62,22.62,0,0,0,2.57-2.38,41.35,41.35,0,0,1,.59,5.06c-.05,4.13-.35,8.25-.35,12.38,0,.72,1,2,1.6,2,1.24.07,3.34-.19,3.62-.89.61-1.58,1.56-1.47,2.71-1.47,3.83,0,7.66,0,11.49,0,1.66,0,3.09.2,3.07-2.32s-1.66-2.17-3.19-2.19H96.63c-3.76,0-4.21-.61-3.23-4.5a10.73,10.73,0,0,0,1.7,0c1.87-.32,4.8,1.22,4.87-2.43s-2.86-2.27-4.75-2.55c-.71-.1-1.43-.1-2.1-.14V170h4.56c1.68,0,2.34-.9,2.33-2.51s-.69-2.5-2.36-2.49h-4.4c-.51-3.93-.46-4,3-4A17,17,0,0,1,98,161c1.72.18,2.57-.31,2.58-2.3s-1-2.33-2.66-2.22C96.83,156.56,95.76,156.5,94.34,156.5ZM530.69,128c5,0,9.69,0,14.35,0,1.63,0,2.44-.71,2.47-2.38S546.85,123,545,123c-1.33,0-2.67-.07-4,0-1.76.12-2.06-.8-2.07-2.29s.41-2.4,2.11-2.24c.75.07,1.5,0,2.25,0,1.55.08,2.71,0,2.73-2.15s-1-2.53-2.76-2.37a6.7,6.7,0,0,1-2.72-.06c-.64-.24-1.46-1.1-1.46-1.68a2.37,2.37,0,0,1,1.46-1.67,7.58,7.58,0,0,1,3-.06c1.82.17,2.52-.48,2.51-2.38s-.9-2.27-2.48-2.15a6.37,6.37,0,0,1-3-.08,3.35,3.35,0,0,1-1.51-2.25c-.07-.46.91-1.48,1.53-1.58,1.46-.24,3.07.2,4.45-.2a3.07,3.07,0,0,0,1.73-2.4,3.19,3.19,0,0,0-1.89-2.32c-1.35-.39-2.89-.1-4.64-.1.66-1.57,1.45-2.68,1.5-3.81,0-.89-.75-2.46-1.38-2.58-1-.19-2.81-2-3.49.8a46.37,46.37,0,0,1-2.32,6l-3.48-.72c.57-2.1,1.08-4,1.62-6l-1.11-.25c-3.53-.86-3.52-.85-4.76,2.78q-1.12,3.3-2.27,6.6c-.5-2.11-1.43-3-3.43-2.91a110.09,110.09,0,0,1-12.18.15c-2.46-.19-2.45.8-2.54,2.6-.11,2.3,1.19,2.31,2.84,2.29,4.62,0,9.24,0,13.85,0l.28.68c-.57.29-1.12.83-1.69.84-3.75.06-7.49.06-11.24,0-1.75,0-2.54.39-2.55,2.35,0,2.11,1.09,2.23,2.69,2.2,2.91-.07,5.83-.06,8.74,0a8.57,8.57,0,0,1,2.17.66l-.17.81c-3.79,0-7.58,0-11.36,0-1.54,0-2.06.59-2,2.07s.46,2,1.89,2c3.41-.05,6.83,0,10.24,0a3.47,3.47,0,0,0,1.75-.65c.94-.61,1.78-1.34,3.15-2.4,0,6.06,0,11.37,0,16.68,0,1.43-.18,3,1.7,3.34S530.43,130.65,530.69,128ZM7.34,277.39V8.1H4.63V277.39Zm166.3-150.25v31.92l2.36-.27c0-10.86,0-21.52,0-32.17a4.12,4.12,0,0,1,1-2.82c4-3.41,5.17-8.23,5.78-12.91.68-5.16.15-10.48.16-15.72,0-2.38-1.62-2.14-3.24-2.21-1.78-.07-2.33.63-2.29,2.35.09,4.08.12,8.16,0,12.24a52,52,0,0,1-.81,5.79l-.65-.11V110.5c0-19.58.07-39.16-.07-58.73,0-3.35.32-6.16,3.24-8.26A9.91,9.91,0,0,0,181,41c-2.19-2.54-2.82-2.78-5.05-1.83v-31H173.5V11c0,9.58-.1,19.17.06,28.74.05,2.79-1.2,4.26-3.45,5.33a4.13,4.13,0,0,0-1.2.82c-3.49,3.57-8.21,5-12.54,7-1.26.6-2.66.66-2.17,2.48a2.93,2.93,0,0,0,4.08,2.17c1.77-.78,3.55-1.55,5.31-2.37,1.2-.55,2.37-1.18,3.91-2,0,4.81,0,9.2,0,13.59,0,1.92.33,3.19,2.67,3.23s2.9-1.2,2.88-3.28C173,61,173,55.3,173,49.57h.5v2.6c0,20.58-.08,41.16.08,61.73,0,3.63-.41,6.64-3.52,8.9a3.3,3.3,0,0,0-.72,2.15C170.69,125.68,170.72,128.66,173.64,127.14ZM355.5,183c-5,0-9.72.08-14.44,0-1.84,0-2.53.65-2.57,2.39-.07,2.38.6,3.13,3.27,3.14,7.74,0,15.49,0,23.24,0,3.49,0,7,0,10.49,0,2.22,0,2.48-1.29,2.55-3.09s-.55-2.54-2.43-2.45c-2.74.12-5.5,0-8.25,0-5.95,0-5.86,0-5.91-5.94,0-2.06.88-2.59,2.65-2.57,2.83,0,5.67-.05,8.5,0,1.6,0,2.53-.29,2.43-2.18s-.3-3.1-2.59-2.87c-1.49.15-3,0-4.5,0-6.63,0-6.63,0-6.42-6.62a4.45,4.45,0,0,1,.25-.88c4.06,0,8.12-.08,12.18,0,2.26.06,2.05-1.33,2.06-2.79s.15-2.89-2.08-2.77c-2.41.13-4.83,0-7.25,0-5.07,0-5.15,0-5.14-5.13,0-1.9-.66-2.49-2.48-2.4s-3.64-.11-3.57,2.56c.05,1.62,0,3.25,0,5h-3.61c-3.12,0-3.49-.57-2.14-3.46.76-1.62.1-2.36-1.45-2.52a28.07,28.07,0,0,0-3,0c-2.19,4.4-4,8.64-6.4,12.56-1.1,1.81-.67,2.64.6,3.66.67.53,1.42,1,2.35,1.58,1.28-1.79,2.35-3.32,3.48-4.82.42-.54,1-1.37,1.48-1.4,2.87-.14,5.75-.07,8.71-.07,0,2-.07,3.71,0,5.36s-.61,2.19-2.21,2.15c-3.41-.08-6.83.06-10.24-.05-2-.06-2.1,1-2.1,2.52s.09,2.6,2.09,2.54c3.41-.11,6.83,0,10.24-.05,1.58,0,2.3.46,2.22,2.13C355.43,178.61,355.5,180.61,355.5,183ZM214,61.58l6.22,6.87c4.41-4.09,4.41-4.09.3-8.2a2,2,0,0,1-.35-.36c-.59-1-1.16-2-1.74-3a18,18,0,0,1,3.38,1.74c3.59,2.92,7.08,6,10.61,9-.19.41.41-.14,1-.72,2.32-2.3,2.35-2.42,0-4.73-2.91-2.82-5.83-5.65-8.87-8.34-1.44-1.27-1.61-2.22-.52-3.9a102,102,0,0,0,6-10.4c1.24-2.52-.49-4.95-3.37-5-11.33-.05-22.66,0-34-.05-2,0-2.09,1-2.09,2.53s.11,2.59,2.1,2.53c3.41-.11,6.83,0,10.24,0h9.88c-1.23,2.1-2.19,3.57-3,5.11-4.52,8.64-11.46,14.54-20.36,18.33a2.49,2.49,0,0,0-1.24,2c.49,3,3.43,4,6,2.22,1.63-1.15,3.35-2.18,5.12-3.32,1,4.8,2.38,5.37,6.31,2.91C208.28,65,211,63.37,214,61.58Zm13.44,55.31c-5.29-3.78-9.15-3.07-12.6,1.57-1.91,2.58-.93,7.17,1.94,9.55a7.68,7.68,0,0,0,6.07,1.47c3.25-.37,4.91-2.82,6.33-5.54,4.72,5.37,10.83,5.13,16.84,4.95.52,0,1.36-1.48,1.4-2.31s-.58-2.33-1.15-2.45a59,59,0,0,0-8.17-1.1c-3.32-.25-5.62-2.52-5-5.36a7.79,7.79,0,0,1,4.07-5.53c4.43-2.44,9.18-2.78,14.09-2.7,1.25,0,3.3-.46,3.6-1.24.51-1.34-.06-3.09-.14-4.16H235.11l15.31-8.67c-2.25-1.57-3.84-3.61-5.54-3.71-6.4-.4-12.83-.13-19.24-.18-2.13,0-2.7,1.07-2.67,3s.64,2.66,2.64,2.59c3.85-.14,7.71,0,11.56,0-5.78,4.47-11.57,8.57-18.92,8.6v4.29h15a30.24,30.24,0,0,0-3.37,3A32.83,32.83,0,0,0,227.42,116.89ZM652.33,99a5.75,5.75,0,0,1-.7-1.23c-.27-.93-.44-1.89-.63-2.85-.3-1.49-1.22-2.21-2.67-1.79-1.89.54-3.51,1.2-2.32,4.25,1.27,3.24,1.81,6.3-1.37,8.91-.76.63-1.08,1.77-1.66,2.64-2.3,3.46-1.37,7.36-1.45,11.1s2.74,6.77,6.45,6.39a13.52,13.52,0,0,0,6.71-2.5c5.77-4.54,9.21-10.76,11.32-17.74a39.11,39.11,0,0,1,1.52-3.62c1.14.73,2.3,1.45,3.43,2.2a4.21,4.21,0,0,1,.71.69c3.71,4.12,2.94,11.51-1.13,14.63-2.22,1.7-5.16,2.48-8,3.77-.05,2.78,1.18,4.74,3.25,4.08a30.36,30.36,0,0,0,8.24-3.83c5.2-3.65,5.48-9.38,4.8-14.92-.53-4.36-2.62-8.46-7.12-10-3.19-1.1-3.87-2.85-3.26-5.76a7.13,7.13,0,0,0-.08-1.71l-.81-.16c-3.77-.8-3.76-.8-4.65,3.12a15.67,15.67,0,0,1-.59,1.84ZM484.14,156l.05.71c-2.2,1.65-4.38,3.35-6.62,4.94-3.77,2.68-7.68,5.19-11.3,8-.62.5-.51,2.6,0,3.63.41.88,1.42,2.64,3.07,1.1a23.18,23.18,0,0,1,13.16-5.82c3.23-.44,6.58-.49,9.58,1.39,2.46,1.55,3.25,3.74,3,6.56a5.07,5.07,0,0,1-3.36,4.45c-.7.28-2.28,0-2.56-.52-3.14-5.92-7-7.71-13.54-6-4,1.06-7.15,6.53-3.26,10.61,2.21,2.33,5.07,3,7.91,3.27,2.45.21,5-.7,7.49-.86a13.81,13.81,0,0,0,11.68-7.26c3.33-5.65-.18-13.88-6.65-15.24-3.31-.7-6.72-1-10.32-1.5a9.36,9.36,0,0,1,1.18-1c3.37-2.14,6.79-4.21,10.11-6.43.61-.4,1.37-1.71,1.17-2-.95-1.37-1.39-3.22-3.85-3.15-6.66.2-13.32.13-20,0-2,0-2.61.55-2.62,2.55s.7,2.58,2.64,2.53C475.42,155.92,479.78,156,484.14,156ZM67.92,233.68l.58.2c0,3.72,0,7.44,0,11.16,0,2.23,1.37,2.42,3.14,2.5s2.43-.66,2.4-2.48q-.14-8.75,0-17.49a4.18,4.18,0,0,1,1.21-3,64.43,64.43,0,0,1,8.29-5.06c3.31-1.66,7.85.09,9.61,3.33,2,3.66,1.82,7.47.47,11.17a7.58,7.58,0,0,1-5.89,5c-2.25.47-4.46,1.17-6.75,1.78a29.8,29.8,0,0,0,1.51,3.48c.31.53,1.11,1.21,1.58,1.14,4.2-.65,8.3-1.79,11.46-4.78,3.84-3.63,5-8.4,4.42-13.45C99,218.37,93,212,83.33,214.46c-3.16.79-6.1,2.41-9.33,3.73,0-2.13-.09-4.43,0-6.72.09-1.78-.44-2.55-2.37-2.52s-3.3.16-3.17,2.55c.07,1.29,0,2.59,0,4H63.42c-1.83,0-2.43,1-2.44,2.67s.54,2.88,2.53,2.84c1.63,0,3.27,0,5.6,0a32.35,32.35,0,0,1-1.88,5.41,23.41,23.41,0,0,1-3.34,3.94c-4.17,4.51-4.44,6.59-1.17,10.15ZM624.76,113.5c3.86,0,7.08,0,10.29,0,1.33,0,2.52,0,2.48-1.87,0-1.71-.65-2.75-2.48-2.62s-2.12-.75-2.07-2.27c.08-2.42-.07-4.84,0-7.25s-.91-3.14-3.13-3c-2,.11-4.12,0-6.4,0,0-1.64-.06-3,0-4.43.12-2.11-1.28-2.55-2.85-2.52S617.88,90,618,92c.09,1.46,0,2.93,0,4.5-2.36,0-4.35,0-6.34,0-1.55,0-3.21-.27-3.2,2.24s1.39,2.72,3.2,2.74c2.06,0,4.11,0,6.16,0V109c-3.43,0-6.67,0-9.91,0-1.63,0-1.94.78-1.94,2.18s.18,2.43,2,2.36c2.41-.09,4.83,0,7.25,0,1.65,0,2.09.88,1.64,2.25a15.05,15.05,0,0,1-8.31,9.27c-3.38,1.6-3.35,1.66-1.14,4.72.28.38.51.81.9,1.43,2.56-1.78,5.27-3.23,7.41-5.28s3.79-4.74,5.84-7.4c3.22,4.81,7.17,9.25,12.87,11.74,4.15-3.79,4.05-3.76-.64-6.85A25.78,25.78,0,0,1,624.76,113.5ZM30.65,53.21c-.37,5.24-.7,4.95,4.7,4.73,3.52-.15,7-.69,10.54-.88.67,0,1.87.62,2,1.15.55,2.2.75,4.49,1.12,6.73.25,1.51.09,3.55,1,4.35s3,.76,4.38.32c.63-.2,1-2.27.9-3.4-.43-3.18-1.2-6.31-1.83-9.44L68.3,55.22c.44-4.14-.09-4.8-4.14-4.7-2.39.06-4.77.41-7.15.46-3.67.08-3.67,0-4.56-3.52a4.86,4.86,0,0,0-.5-1.12c-.91-1.6-.39-2.28,1.39-2.35,3.38-.13,6.76-.29,10.14-.52a2.59,2.59,0,0,0,1.86-.81A3,3,0,0,0,62.56,38c-3.94.15-7.88.42-11.73.64l-1.37-7.07c-1.13.18-1.84.37-2.56.4-3.42.15-3.59.39-2.53,3.7.83,2.58,0,3.67-2.6,3.82-3.2.19-6.4.48-9.89.75V45c2.44,0,4.51,0,6.59,0s4.94-1,6.39.06,1.43,3.89,2,6c0,.06,0,.14-.26.79Zm287.88,172a3.2,3.2,0,0,1,.15-1.12c2-3.72,4-7.45,6.08-11.14.72-1.28,1.22-2.59-.45-3.28-1.22-.51-2.72-1.7-3.83.63-2.12,4.47-4.56,8.79-6.76,13.22-3.13,6.33-6.18,12.7-9.24,19.07-.88,1.83,0,3.47,2.6,4.63,1.68.76,2.15-.74,2.67-1.8,1.47-3,2.58-6.22,4.36-9a29.23,29.23,0,0,1,5.69-6.28c1.63-1.42,3.12-.5,3.18,1.74s-.06,4.67,0,7c.15,3.57,1.44,6.6,5,8.06a8.88,8.88,0,0,0,8.66-1c3.68-2.57,5.35-6.6,6.3-10.81.75-3.37,2-7.24-3.49-8.35-.41,1.07-1,2.38-1.43,3.74-1,3.23-1.77,6.59-3.11,9.68-.41,1-2.37,1.71-3.63,1.73-1.85,0-2.85-1.31-2.79-3.32.08-2.66.06-5.33,0-8-.08-3.88-1.95-6-5.77-6.14A20,20,0,0,0,318.53,225.26ZM738.31,107.1a16.65,16.65,0,0,1,.82-2.38c1.9-3.51,3.84-7,5.81-10.5.65-1.16.88-2.38-.49-2.91-1.2-.46-2.84-1.93-3.89.08q-4.89,9.31-9.53,18.76c-2.27,4.63-4.3,9.38-6.51,14-.85,1.81-.24,3,2.39,4.46,1.71.92,2.19-.42,2.72-1.51,1.5-3.08,2.78-6.28,4.45-9.27,1.43-2.55,3.08-5,6-6.23,1.81-.73,2.83-.2,2.88,1.75,0,2.25-.15,4.52,0,6.75.32,3.68,1.26,7,5.31,8.5A9.9,9.9,0,0,0,758,126.2c3.13-3.15,4.41-7.11,5.09-11.4.77-4.92.75-4.17-4.16-6.4-.34,1.47-.57,2.9-1,4.27-.94,3.09-1.64,6.34-3.13,9.16-.57,1.07-3,1.51-4.67,1.54s-1.71-1.63-1.69-3a76.83,76.83,0,0,0,0-7.74c-.41-4.61-1.71-6.84-6.59-6.57A18.06,18.06,0,0,0,738.31,107.1Zm-461.24,3.77a12.63,12.63,0,0,1,.89,2.9c.13,2.24-.15,4.51.08,6.74.46,4.32,1.68,7,5.53,8.17a8.88,8.88,0,0,0,9.33-2.24,20,20,0,0,0,5-9.42c1.49-5.63,1.17-6-3.42-8.66-.51,1.28-1.06,2.49-1.47,3.75a99.23,99.23,0,0,1-3.11,9.68,4.47,4.47,0,0,1-3.7,1.91,3.11,3.11,0,0,1-2.73-3.52,64.73,64.73,0,0,0,0-8.24c-.35-4.61-3.41-7.39-8.33-5.29a13.06,13.06,0,0,1-2.13.4c2.5-4.59,4.61-8.71,7-12.7.86-1.45.64-2.57-.61-3.07-1.08-.44-2.59-2-3.72.31-1.3,2.61-2.92,5.06-4.2,7.68q-6.19,12.62-12.19,25.32a2.43,2.43,0,0,0,.2,2c2,3.07,4,2.93,5.6-.35.36-.73.6-1.51,1-2.23C268.65,119,270.25,113.2,277.07,110.87ZM193.5,120c0-8.66,0-17.14,0-25.62,0-1.77-.46-2.81-2.48-2.92s-3,.8-3,2.66c-.05,9.9-.09,19.81,0,29.72,0,3.07,3,4.61,5.77,3.19,3.07-1.57,6.13-3.18,9.17-4.8a2.17,2.17,0,0,0,.85-.9c1.51-3.12,2.77-6.38,4.53-9.36,1.38-2.33,1-3.73-1-5.42-1.5-1.32-2.39-1.42-3.4.82,0-3.8-.09-7.2.08-10.59a2.55,2.55,0,0,1,1.72-1.7,23,23,0,0,1,5-.06c1.82.13,2.35-.68,2.24-2.36-.1-1.51-.18-2.77-2.26-2.69-3.08.12-6.17.14-9.24,0-2-.09-2.59.62-2.56,2.58.1,7.08,0,14.15,0,21.23C199,116.89,197.09,119.18,193.5,120ZM394.36,244.87c.13.08.61.37,1.11.62,3.23,1.65,3.39,1.72,4.86-1.69,2.35-5.43,4.47-11,6.65-16.47.6-1.51.82-3.23,1.68-4.55,1.38-2.12,2.91.17,4.4.26,2.74.15,3.64,1,3.38,3.77a96,96,0,0,1-1.83,11.79c-.72,3.22-1.17,3.31-4.5,2.43-1.21-.32-2.38-.78-3.62-1.19-1.61,1.87-1.46,4.77.42,5.6a34.3,34.3,0,0,0,3.45,1.2,6.88,6.88,0,0,0,8.69-4.16c2.35-5.52,2.32-11.33,2.51-17.15.11-3.33-1.22-5.65-4.05-6.93a14.9,14.9,0,0,0-5.24-.87c-2.78-.14-3-.4-2.07-3,1.29-3.43.12-5.51-3.28-5.48a2.6,2.6,0,0,0-1.84,1.57c-.42,1.48-.17,3.16-.67,4.59a3.71,3.71,0,0,1-2.28,2.16,23.35,23.35,0,0,1-5.73.07c-2-.15-2.34.91-2.42,2.53-.1,1.78.85,2.1,2.33,2,1.16-.06,2.33,0,3.49,0,2.76.06,3.24.65,2.22,3.32C399.58,231.75,397,238.13,394.36,244.87Zm165.5-140.56c-1,3-1.76,6.07-3,9-1.48,3.59-3.27,7-5,10.52-1.15,2.32.22,3.25,2,4.2,2,1.09,2.37-.6,3-1.71a71.22,71.22,0,0,0,7.75-19.92c.4-1.74,1.38-3.31,3.69-2a1.69,1.69,0,0,0,1,.1c2.68-.34,3.4,1.28,3.18,3.45-.37,3.56-.8,7.13-1.48,10.64-1,5-2,5.45-6.86,3.45a4.28,4.28,0,0,0-.46-.17c-1.58-.6-2.3,0-2.16,1.68.27,3.16,2.54,4.06,5.06,4.78,3,.86,6,.09,7.46-2.66a30.19,30.19,0,0,0,3.05-8.56,46.07,46.07,0,0,0,.76-11.53,6.65,6.65,0,0,0-5.58-6.12c-1.87-.38-3.8-.48-5.79-.72a35.12,35.12,0,0,0,.92-5.16c0-.83-.65-2.37-1.16-2.43-1.43-.18-3.57-1.76-4.19,1.09-.48,2.19-.75,4.44-1.14,6.77-2.52,0-4.85.08-7.17,0-1.34-.06-2.08.49-2.17,1.7s-.57,2.65,1.41,2.86S557.19,104,559.86,104.31ZM52,128c5.55-2.76,10.42-5.71,14.36-10.06,2.45-2.69,3.11-2.49,5.82-.05,3.32,3,6.81,5.79,10.22,8.67-.21.44.4-.11,1-.68,2.35-2.35,2.41-2.45,0-4.72-3-2.76-6-5.4-9-8.07-1.25-1.11-1.76-2-.55-3.76,2.2-3.12,4.06-6.49,5.94-9.82,1.64-2.92-.29-6-3.71-6-7.07,0-14.15.07-21.23-.06-2.22,0-2.85.67-2.84,2.84S52.78,99,54.7,99c6.21,0,12.43,0,18.92,0-5.07,11.65-13.37,19.5-25,24.2Zm343.32-20.74c-2,1.54-3.91,3.11-5.9,4.58-3.42,2.52-3.33,6.23-2.8,9.7a6.55,6.55,0,0,0,5.25,5.45,49.33,49.33,0,0,0,8.38,1.45c4.9.24,9.82.07,14.74.07,3.69,0,4.51-.83,3.93-4.38a2.51,2.51,0,0,0-1.87-1.51c-1.87-.07-3.76.39-5.63.36-5.38-.08-10.76-.26-16.13-.49-3.16-.14-4.82-2.82-3.2-5.5a10.51,10.51,0,0,1,4.19-4.27c6.74-2.93,13.64-5.5,20.52-8.08,1.26-.47,2.72-.15,1.87-2.37-.68-1.78-1.08-3.57-3.53-2.72-4.1,1.42-8.19,2.89-12.22,4.51-1.91.77-2.89.41-3.47-1.59-.89-3-2-6-2.9-9-.51-1.79-1.78-2.44-3.13-1.76-1.15.57-3.59.59-2.45,3.35C392.6,99,393.87,103.11,395.32,107.25ZM74.61,39.72H96.12C91,51.56,82.42,59.17,71.26,64c.64,1.08,1,1.62,1.29,2.2.9,2,1.91,2.74,4.17,1.44,4.91-2.81,9.63-5.83,13.41-10.1,1-1.12,1.93-1.21,2.88-.28,3,3,6,6,8.92,9.07.92,1,1.49,2.56,3.09,1.31,3-2.31,3.18-3.27,1.33-5.06-3-2.94-6-5.9-9.22-8.68-1.63-1.42-1.68-2.53-.53-4.3a101.17,101.17,0,0,0,5.65-9.72c1.53-3.05-.14-5.37-3.63-5.42-2.08,0-4.16,0-6.24,0H74.61Zm166,27.78c9.85,0,19.42,0,29,0,1.38,0,1.93-.52,1.92-1.91,0-9.58,0-19.16-.09-28.74a2.45,2.45,0,0,0-1.63-1.78q-13.74-.16-27.49,0a2.49,2.49,0,0,0-1.72,1.69c-.43,2.9.38,3.7,3.61,3.72,6.67,0,13.33,0,20,0,1.45,0,2.27.5,2.28,1.87,0,6.48,0,12.95,0,19.69h-25.9ZM399,164c-5,0-9.7.07-14.44,0-2,0-2.1,1-2.1,2.52s.08,2.6,2.08,2.54c3.74-.11,7.51.18,11.23-.09,4-.28,6.52.62,8.49,4.7,2,4.25,1.44,3.63,5.45,2.93,2.46-.43,1.88-1.56,1.12-2.89s-1.66-2.55-2.75-4.19a22,22,0,0,1,2.76-.47c1.91-.06,3.83-.09,5.75,0,2.11.09,1.87-1.32,1.92-2.67s-.17-2.44-2-2.37c-2.41.09-4.82,0-7.24,0-4.53,0-5-.44-6-5.5,3.43,0,6.81-.07,10.18,0,1.77.05,2.56-.41,2.54-2.36s-.82-2.23-2.45-2.19c-3.41.08-6.83-.08-10.23.06a2.54,2.54,0,0,1-2.81-1.82c-1.57-3.81-2.52-4.08-6.11-1.68l1.06,3.46c-3.64,0-7.11.05-10.58,0-1.59,0-2,.71-2,2.14s.11,2.46,2,2.4c2.66-.09,5.32,0,8,0C397.71,158.45,397.25,158.27,399,164ZM90.61,126.32H121.5c0-10,0-19.8,0-29.62,0-2.12-.82-2.72-2.74-2.72-8.49,0-17,.06-25.47,0-2.21,0-2.82,1-2.88,3s1,2.51,2.72,2.5c3.66,0,7.32,0,11,0h11.67a14.33,14.33,0,0,1,.64,2.83c0,5.75,0,11.49,0,17.23,0,1.6-.73,2-2.15,2-3.49-.06-7,0-10.48,0H90.61ZM199.06,235.85c.81,2.07,1.06,4.37,3.9,3.61a32.18,32.18,0,0,0,4.86-1.5c4.35-1.94,5.64-5.38,5.11-9.85-.38-3.2-5.07-7.33-8.14-7s-4.9-.7-6.06-3.2c-.88-1.91-2-1.52-3.4-.83-1.54.8-1.54,1.93-.7,3.29a21.94,21.94,0,0,1,1,2.14c-3.79,2.21-4.55,2-6.39-1.48-.26-.51-.47-1-.77-1.54-.83-1.4-1.81-2.13-3.39-.86a8.62,8.62,0,0,1-2,.91l2.7,6.54a22.46,22.46,0,0,1-3.51,1.4c-2.15.39-2.1,1.82-1.66,3.32s1.5,2.26,3.21,1.29a7.9,7.9,0,0,1,2.78-.86,2,2,0,0,1,1.65.51A16.89,16.89,0,0,1,190,235.2c1.39,3.9,2.75,7.81,4,11.75.59,1.79,2,1.36,3,.93s1.9-1.49,1.9-2.27a13.24,13.24,0,0,0-1.2-4.18c-1.57-4.21-3.18-8.41-4.8-12.69.56-.14.8-.18,1-.25,3.54-1.19,3.52-1.18,5.12,2.12.24.51.87,1.32,1.14,1.25a33.25,33.25,0,0,0,3.78-1.36l-1-4.35c2.45-.41,4,.29,4.54,2.38a4.5,4.5,0,0,1-2.7,5.45C202.94,234.65,201.09,235.19,199.06,235.85ZM288.7,189.6l2.08-3.15c.91-1.38.87-2.24-.78-3.32-3.95-2.58-7.79-5.31-10.27-9.6-3.44-5.95-6.24-12-5.74-19.11.05-.58,0-1.17,0-1.75.18-2.15-.57-3.2-2.93-3.22s-3,1-3.14,3.3c-.26,4.66-.29,9.44-1.45,13.9-2,7.62-6.43,13.7-13.75,17.22-1.58.76-1.67,2.1-.94,3,.87,1.08,3.06,2.59,3.49,2.28,3.39-2.44,6.92-4.91,9.55-8.08,2.75-3.32,4.56-7.42,6.72-11.07C275,176.51,278.35,183.37,288.7,189.6ZM216,188.47c.48-1.22.73-1.9,1-2.56.92-2.2.49-2.86-1.87-3.46a39.39,39.39,0,0,1-7-2.16c-2.32-1.09-4.25-2.85-4.66-5.64-.73-5,2.4-11.17,6.88-13.4A34.05,34.05,0,0,1,222.33,158c2.1-.22,2.29-1.58,2.15-3.19s-1.23-2.08-2.78-1.72a15.07,15.07,0,0,1-2.91.38q-14.82.28-29.64.52c-.32,0-.63.09-1.15.16a26,26,0,0,0,.06,3.76c.09.56.72,1.41,1.2,1.48a17.58,17.58,0,0,0,4,0c4-.38,8.07-.82,12.54-1.29a9.07,9.07,0,0,1-.6,1.82c-1.79,2.38-3.78,4.62-5.4,7.11-4.21,6.42,0,15.75,5.44,18C208.63,186.38,212.25,187.28,216,188.47Zm226.23-29.66c-5.14,4.66-8.28,9.5-7.74,16.06a12.57,12.57,0,0,0,4.73,8.84c3.24,2.57,7.32,3.48,11.57,4,2.58.3,2.33-1.22,2.6-2.35s.55-2.52-1.58-2.93a37.1,37.1,0,0,1-8.07-2.61,8.32,8.32,0,0,1-3.21-3.16c-2.36-3.77-.6-7.29,1.26-10.57a13.91,13.91,0,0,1,3.7-4c3.84-2.93,8.46-3.62,13.11-4,1.38-.12,1.88-.58,1.92-2,.08-3-.06-3.14-3.14-2.62a9.37,9.37,0,0,1-1.5,0l-30.63.51a7.82,7.82,0,0,0-1.13.2c-.38,5.17.47,5.95,5.1,5.3,3.4-.47,6.83-.71,10.25-1A16.66,16.66,0,0,1,442.24,158.81Zm-128.1.17c-1.37,1.76-2.53,3.5-3.93,5-4.2,4.58-4.53,13.45.39,18.38,3.58,3.57,7.95,4.68,12.82,5.31,2.52.32,2.2-1.27,2.45-2.23s.74-2.63-1.42-3a31.2,31.2,0,0,1-6.75-2,10.55,10.55,0,0,1-4.37-3c-2.52-3.45-.28-12.4,3.43-14.83a26.69,26.69,0,0,1,13.76-4.49c2.91-.1,2.56-1.69,2.46-3.42-.13-2.43-1.61-1.64-3-1.24a9.27,9.27,0,0,1-2.24.06l-29.15.5c-.08,0-.19,0-.24,0-.62.56-1.69,1.11-1.74,1.73-.1,1.3-.9,3.23,1.3,3.64a16.54,16.54,0,0,0,4.22,0c3.68-.26,7.35-.62,11-.88C313.52,158.51,313.93,158.88,314.14,159ZM446.62,242.5c0,4,.94,5.06,4.37,5a30.68,30.68,0,0,0,6.37-.54c4-.94,8.17-2.14,10.72-5.45,3-3.92,3.67-8.59.85-13.05a10.49,10.49,0,0,0-9.62-4.78c-3.8.19-7.55,1.63-11.3,2.63a13.42,13.42,0,0,0-2.64,1.4l-.61-.43c.32-1.57.65-3.14,1-4.71.27-1.36.61-2.71.76-4.08.31-2.95-2.84-1.53-3.79-2.91-.57.7-1.45,1.32-1.64,2.1-.79,3.39-1.48,6.82-2,10.26-.74,4.78,0,6,3.61,7.47,4.76-4,9.77-7.2,16.29-6.89,2.92.13,5.35,1.71,6,4a6.38,6.38,0,0,1-2.92,7.21,20.11,20.11,0,0,1-11,2.82C449.6,242.46,448.11,242.5,446.62,242.5ZM694.13,90.12c-.43,1.8-.88,3.26-1.1,4.75s-.65,2.26-2.3,2.16c-2-.12-4,0-6,0s-2.29,1-2.28,2.68.51,2.45,2.3,2.35c2-.12,4.09,0,6.23,0a90.69,90.69,0,0,1-7.16,21c-.62,1.33-1.33,3-1,4.26.25.85,2.26,1.47,3.54,1.58.65.06,1.51-1.17,2.09-2a7.85,7.85,0,0,0,1-2.22c2.25-6.69,4.53-13.38,6.68-20.1.48-1.51,1.11-2.14,2.75-2.08,3.33.13,6.67-.06,10,.08,1.93.07,2.65-.5,2.63-2.53,0-2.29-.91-3.11-3.14-3-3.29.11-6.58,0-9.91,0,.09-2,.75-3.85.08-4.9S695.93,90.85,694.13,90.12ZM172.43,227.55c-.31.69-.64,1.4-.93,2.12-2,5-3.47,10.31-9.69,12.31-5.1,1.64-10.3-1.49-10.31-6.86,0-7.49,0-15,0-22.49,0-1.91-.85-2.59-2.71-2.67s-2.34.82-2.33,2.55c.06,8.33,0,16.66.05,25a7,7,0,0,0,.54,2.6c4,9.28,15.74,9.22,22.11,4,3.58-3,5.62-6.94,7.23-11.21A2.79,2.79,0,0,0,175,229Zm-38.7-4.05c1.87,0,3.61-.06,5.35,0s2-.75,1.95-2.16-.14-2.4-2-2.4-3.66-.33-5.55-.52v-5.09c0-4.08-.13-4.26-4.2-3.78a2.6,2.6,0,0,0-1.72,1.72,19.75,19.75,0,0,0,0,5c.24,2.28-.74,2.89-2.87,2.77-2.74-.16-5.49,0-8.24-.06-1.52,0-3,0-2.88,2s1.11,2.64,3.09,2.56c3.55-.15,7.11,0,10.87,0,0,3.34.2,6.42,0,9.46a12.23,12.23,0,0,1-6.53,9.8c-2.2,1.27-2.44,1.73-.75,3.67.49.57.92,1.19,1.17,1.52a3.5,3.5,0,0,0,.73,0c.88-.44,1.77-.85,2.62-1.33,5.11-2.93,8.33-7,8.35-13.2C133.05,230.21,133.47,227,133.73,223.5Zm223.74-3c-.72,2.22-1.26,4-1.9,5.83-2.05,5.7-4.07,11.4-6.25,17-.6,1.55-.36,2.52,1,3.2s2.92,1.75,4-.3a43.1,43.1,0,0,0,2.63-6c2.18-6.36,4.23-12.75,6.37-19.24,3.15,0,6.32-.12,9.47,0,2.14.11,2.7-.84,2.72-2.75s-.82-2.89-2.83-2.8c-1.67.07-3.33,0-5,0-3.34,0-3.43-.18-2.61-3.31.17-.65,0-1.9-.35-2.06a8.12,8.12,0,0,0-3.9-.91c-.52.05-.94,1.69-1.31,2.65-.14.36,0,.83,0,1.23-.25,1.55-.88,2.57-2.75,2.43s-3.67.06-5.49-.06-2.33.66-2.27,2.35,0,2.86,2.17,2.71C353,220.4,354.93,220.5,357.47,220.5Zm-23.65-98.64a26,26,0,0,1,3.4,2.09c2.18,1.8,3.64,1.55,5.15-.94.79-1.31.63-1.79-.52-2.43-2.29-1.26-4.52-2.62-6.85-3.8a3.06,3.06,0,0,1-2-3.25c.13-2.24,0-4.5,0-6.74S332,104,330,104s-2.59.77-2.48,2.66c.13,2.22,0,4.45,0,6.89a33.35,33.35,0,0,0-4.93,0,18.69,18.69,0,0,0-5.57,1.52,7.05,7.05,0,0,0-3.46,9c2.21,4.84,12.08,6.85,16,3.12A51.28,51.28,0,0,0,333.82,121.86ZM777,102c-1.33,8.2-4.52,15.47-7.56,22.78-.55,1.32-1,2.5.7,3.25,1.53.66,3.27,1.94,4.31-.52,1.6-3.81,3.15-7.65,4.5-11.55,1.54-4.46,2.85-9,4.24-13.46,3.56,0,6.8.07,10,0a2.72,2.72,0,0,0,2-1.16c1-2.25-.39-4.27-2.84-4.29-2.62,0-5.24,0-8.1,0a16.78,16.78,0,0,0,.59-3.76c-.07-.78-.81-1.49-1.25-2.23-1.15.72-3.32-2-3.8,1.23A32.17,32.17,0,0,1,778.44,97c-2.5,0-4.66.09-6.82,0-1.86-.11-2.66.37-2.69,2.46s.85,2.74,2.81,2.6C773.45,101.9,775.18,102,777,102ZM253.88,244.1c.55-.65.94-1.08,1.29-1.54,1.94-2.53,1.79-3.06-1.1-4.55-1.89-1-3.75-2-5.61-3a3.51,3.51,0,0,1-2-3.63c.14-2.24,0-4.5.05-6.75,0-1.44-.4-2.11-2-2.13-2.85,0-3,.06-3,3.05v7.07c-4.69-2.18-8.34-.73-11.68,1.44a6.3,6.3,0,0,0-2.45,7.62,8.22,8.22,0,0,0,8.13,5.85c6.33.08,9.07-1.43,10.64-5.77a9.17,9.17,0,0,1,1.11-1.76Zm-103-76.16c2.27-.25,3.9-.42,5.51-.61,5.2-.61,10.38-1.43,15.58-1.68,1.32-.06,3.16,1.39,4,2.65,2.81,4.15.23,10.17-5.39,11.65-3.92,1-7.94,1.66-12,2.48,0,3.93,1,4.77,5,4.1.4-.07.83,0,1.24,0,5.94-1,11.6-2.31,15.53-7.59,3.66-4.91,2.36-13.38-2.77-16.53a18.17,18.17,0,0,0-11.51-2.32c-1.36.13-2.66.73-4,.93-3.85.57-7.72,1.05-11.78,1.59ZM113.05,50h13.41c2.73,0,3.61,1.18,2.89,3.83-.28,1-.57,2-.87,3a11.2,11.2,0,0,1-6,7.06c-4.25,2-4.34,2-.88,5.37.29.27.61.51.85.7,2.32-1.33,4.71-2.3,6.62-3.87,3.7-3,5.44-7.27,6-12,.46-4.16.38-4.17,4.54-4.17,2.83,0,5.66-.08,8.49,0,1.91.07,3.09-.11,3.08-2.59s-1.19-2.47-3-2.46c-10.9,0-21.8,0-32.7,0h-2.38ZM105.6,161c2.23,0,4.22-.09,6.2.06.55.05,1.54.92,1.47,1.25a49.06,49.06,0,0,1-1.84,7.3c-1.71,4.74-3.7,9.38-5.46,14.1-1,2.84-.78,3,1.94,4a2.15,2.15,0,0,0,3-1.17,48.24,48.24,0,0,0,2.5-5.83c2.07-6.2,4-12.44,6-18.74,3.13,0,6.29.08,9.45-.05.85,0,2.15-.48,2.43-1.1,1.2-2.62-.11-4.35-3-4.35h-3.75c-3.67,0-3.59,0-3.17-3.62.08-.73-.69-1.57-1.07-2.36-1.31,1-3.65-2.34-4.38,1.07-.35,1.63-.76,3.25-1.18,5H105.6ZM343.5,61.3c0-9.17,0-17.75,0-26.33,0-1.78-.43-2.59-2.37-2.51-1.68.07-3.17,0-3.17,2.29,0,10,0,20,0,30A3.87,3.87,0,0,0,343.31,68c7.77-3.4,12.79-9.41,15.91-17.11a3.16,3.16,0,0,0-.76-2.58,19.74,19.74,0,0,0-3.26-2.53C353,52.19,350.16,57.9,343.5,61.3Zm474.15,39.79a12.61,12.61,0,0,1,11.55-4.55c2.23.28,4.76.7,5.62,3.2s-.92,3.94-2.88,5.1c-.42.25-.68.78-1.11,1-5.7,2.78-6.09,7.38-5.82,11.64.13,2.06,1.93,1.8,3.14,2s2-.76,1.89-2.21a11.48,11.48,0,0,1,.51-2.86c.83-3.72,4-5.14,6.82-6.85a8.11,8.11,0,0,0,4.14-6.3,6.78,6.78,0,0,0-3.26-7c-6.78-3.91-13.77-4.78-20.74-.21C812.69,97.16,812.67,97.73,817.65,101.09ZM244.5,169.38c0-5.16.05-10.33-.05-15.49,0-.79-.64-2.17-1.14-2.25a10.35,10.35,0,0,0-4.09.34c-2.82.74-5.57,1.75-8.39,2.5-2,.54-1.91,2-1.81,3.52s1.13,2.14,2.57,2a16.52,16.52,0,0,0,3.34-.69c3.08-1,3.07-1.06,3.07,2.23q0,11.49,0,23c0,3.1,2.26,2.37,4.07,2.53s2.5-.53,2.46-2.41C244.43,179.54,244.5,174.46,244.5,169.38ZM231.06,220c2,0,4.11.07,6.19,0,2.34-.1,3.28-2,2.42-4.16-.76-1.94-2.3-1.29-3.58-1.29-2.05,0-3.83.06-2.64-2.9a6.41,6.41,0,0,0,0-2.31l-4.64-1a12.28,12.28,0,0,0-.84,1.55c-1.71,4.62-1.7,4.63-6.85,4.68-.25,0-.57-.1-.74,0-.66.45-1.61.86-1.82,1.5-.73,2.21.23,3.61,2.58,3.94a33.76,33.76,0,0,0,3.84,0c-1.72,3.61-3.22,6.8-4.76,10-.57,1.17-1.35,2.24-1.88,3.43-.87,1.9-.08,3.86,1.85,3.87a4.48,4.48,0,0,0,3.17-2.16C226.06,230.22,228.46,225.19,231.06,220Zm79.78-118.5a17.64,17.64,0,0,1-.88,3c-1.66,3.33-3.44,6.6-5.15,9.9-1,1.94-.53,3.61,1.34,4.4s2.53-.63,3.33-1.79a20.08,20.08,0,0,0,2-3.08c1.89-4.08,3.69-8.21,5.58-12.45,1.85,0,3.85-.08,5.84,0,2.18.12,3.1-.66,3.2-3,.11-2.53-1.19-2.73-3.08-2.56-.58.05-1.16,0-1.75,0-1.77,0-2.81-.35-1.81-2.45a13.29,13.29,0,0,0,.65-2.84L314.83,90c-1.45,5.92-1.45,5.92-7.46,6-.41,0-.91-.12-1.22.06a2.25,2.25,0,0,0-1.09,1.13c-.88,3.17,0,4.29,3.27,4.31ZM276.29,231.71c-1.28,2.65-2.4,4.9-3.46,7.19-.66,1.43-1.46,1.44-2.34.29a4.64,4.64,0,0,1-1-1.95c-.72-4.16-1.51-8.32-2-12.52a73.37,73.37,0,0,1-.05-8c0-4.3,0-4.3-4.05-4.91a1.69,1.69,0,0,0-.45.08q0,9.51,0,19A23.52,23.52,0,0,0,267,244c2.39,3.68,5.45,4.16,8.25.79,2.28-2.76,3.79-6.16,5.69-9.36Zm79.12-118.56a15.81,15.81,0,0,0-2.46-1.58,2.14,2.14,0,0,0-1.89.2c-4.09,3.86-2.17,12.41,3.14,14.28,6.18,2.19,12.59,2.22,19,1.87,2.78-.16,5.51-1.08,8.5-1.7a39.76,39.76,0,0,0-.78-4.22c-.1-.35-.93-.7-1.43-.7-6.58,0-13.15.08-19.73.22-2.36,0-4.63-.76-5.41-2.71C353.79,117.43,354.92,115.37,355.41,113.15ZM485,244c-2.24,0-4.14.09-6,0s-2.51.46-2.52,2.38S477.16,249,479,249c2.66,0,5.33,0,8,0,2.82,0,3.49-.69,3.5-3.51,0-8.32,0-16.65,0-25a27.75,27.75,0,0,0-.56-3.93c-6-.29-4.86,0-4.9,4.39C485,228.54,485,236.11,485,244ZM848,125.49a14.88,14.88,0,0,1,0,1.81c-.39,2.48.51,3.47,3.12,3.25a73.79,73.79,0,0,1,7.73,0c1.89,0,2.68-.79,2.67-2.68,0-9.23-.07-18.46,0-27.68,0-2.41-1.42-2.11-2.95-2.17s-2.68.15-2.63,2.23c.12,4.9,0,9.81,0,14.72v10.56ZM328,34.14c-.5,6.45-.94,12.68-1.5,18.9a10.8,10.8,0,0,1-3.2,6.94c-1.25,1.22-2.5,2.44-3.7,3.71s-.37,2.42.69,3.31c.84.7,1.49,2.42,3,1a58.11,58.11,0,0,0,6.19-6.47c2.5-3.37,3.27-7.5,3.52-11.6.23-3.73.05-7.49.05-11.23C333,33.67,333,33.67,328,34.14ZM30.74,90a4.75,4.75,0,0,0-.22.93c0,9.83,0,19.66,0,29.5,0,1.47.46,2.11,2,2.1,2.33,0,3-.65,3-3.43,0-7,.13-14-.05-21-.07-2.62.81-3.44,3.28-3.13a25.92,25.92,0,0,0,3.74,0C44.31,95,44,93.6,44,92.47S44.24,90,42.41,90C38.52,90,34.63,90,30.74,90Zm97.37,22.5c11.44,0,22.59,0,33.74,0,1.94,0,3.16-.39,3.19-2.7s-1.25-2.85-3.31-2.84c-10.48,0-21,0-31.46,0-.71,0-1.43.08-2.16.13ZM507.5,122.69c0,1.67-.1,3.34,0,5,.07.85.43,2.28.9,2.39,1.17.26,3.11.4,3.62-.27,1.09-1.45,2.32-1.3,3.69-1.31,1.66,0,3.33-.09,5,0s2.23-.74,2.25-2.17c0-2.91.09-5.83,0-8.74-.06-1.31-.41-2.64-2.26-2.62-3.67,0-7.33,0-11,0-1.61,0-2.37.72-2.24,2.44S507.5,121,507.5,122.69ZM69,174.5c-1.82,0-3.66.11-5.48,0s-2.51.73-2.5,2.42c0,3.41-.09,6.82.07,10.21,0,.81.78,2.11,1.39,2.23,1.19.24,3.16.24,3.64-.46,1-1.41,2.07-1.38,3.38-1.37a37.83,37.83,0,0,0,5.22-.08,2.56,2.56,0,0,0,1.72-1.69,87.8,87.8,0,0,0,0-9.46,2.52,2.52,0,0,0-1.72-1.69A47.39,47.39,0,0,0,69,174.5Zm36.52,54.14c0,5.17,0,10.33,0,15.5,0,1.85,1,2.38,2.73,2.38s2.83-.47,2.75-2.34-.47-3.6-.45-5.39c.1-8.64.29-17.27.48-25.9,0-1.36-.17-2.54-1.71-2.85s-3,.19-3.5,1.93a8.34,8.34,0,0,0-.29,2.17C105.49,219,105.5,223.81,105.5,228.64ZM278.11,53c11.59,0,23,0,34.35,0,1.7,0,2.67-.28,2.58-2.3s-.56-2.79-2.71-2.77c-10.81.09-21.62,0-32.44,0-.56,0-1.12.06-1.78.09Zm125.4,136,.09-.47c1.67,0,3.34-.08,5,0,2.23.13,3-.74,3-3s-1.07-2.46-2.9-2.53c-4.93-.21-9.87-.46-14.77-1-2.93-.34-3.81-1.94-3.44-4.9.25-2.06-1.57-2.35-2.79-2.82-.46-.17-1.82.9-2.12,1.66a8.35,8.35,0,0,0,5.91,11C395.44,187.8,399.5,188.3,403.51,189ZM291,212.51c-6.39,1.44-5,2.35-3.33,6.24,2.53,5.81,3.67,11.92,4.76,18.06.63,3.61.49,3.39,4.16,2.8,2.25-.37,2-1.66,1.82-3-.23-2.1-.57-4.19-1-6.27A67.72,67.72,0,0,0,291,212.51ZM131.11,38.5c4,0,8-.08,12,0,1.87.06,2.51-.59,2.44-2.45S145.22,33,143,33c-8,0-16,.06-24,0-2.29,0-2,1.41-2,2.83s-.06,2.8,2.13,2.73C123.11,38.41,127.11,38.5,131.11,38.5Zm234.25,61c3.58,0,7.17-.08,10.74,0,1.88.06,2.51-.59,2.44-2.45S378.22,94,376,94c-7.16,0-14.32.06-21.48,0-2.29,0-2,1.42-2,2.84s-.06,2.8,2.13,2.72C358.2,99.41,361.78,99.5,365.36,99.5Zm333.8,17.24c-3.45,5.41-1.64,10.06,4,11.09,4.82.89,9.87.57,14.82.57.67,0,1.81-1.22,1.9-2a10,10,0,0,0-.49-3.24c-5.39-.24-10.12-.4-14.84-.76-.56,0-1.6-1.51-1.44-1.86.82-1.79-.46-2.17-1.52-2.72C700.82,117.43,700,117.11,699.16,116.74ZM369.7,237.35c-1.27-.68-2.31-1.28-3.4-1.78-.31-.14-1-.14-1.13.06-1.19,1.76-2.21,3.58-1.44,5.87a7.09,7.09,0,0,0,6,4.87,131.59,131.59,0,0,0,14.61.55c.55,0,1.39-.93,1.59-1.59a5.78,5.78,0,0,0,0-3,2,2,0,0,0-1.53-1c-4.28-.18-8.56-.24-12.84-.36C369.09,241,368.58,239.69,369.7,237.35ZM785.49,116.59c-1.06,2-2.66,3.87-1.67,6.5a7.11,7.11,0,0,0,6,4.82,121.57,121.57,0,0,0,12.38.57c4.05.08,4,0,3.86-3.95,0-1.33-.33-1.76-1.87-1.66a105.81,105.81,0,0,1-11,.09c-3.64-.14-4.32-1-3.74-4.17ZM121.9,175.94c-3.74,3.7-1.62,10.26,3,10.7a143.17,143.17,0,0,0,16.3.72c2.32-.05,1-2.55,1.14-3.92,0-.4-1.28-1.32-2-1.32-3.46,0-6.93.46-10.38.31-3.81-.16-4.77-1.37-4.17-4.46Zm302.93,36.89a17.52,17.52,0,0,1-2,1c-2.38.88-2.16,1.85-1,4.06,2.43,4.74,4.1,9.87,6.23,14.78a4.28,4.28,0,0,0,2.12,1.59c1.14-1.14,4.4-.5,3.56-3.14A70.09,70.09,0,0,0,424.83,212.83ZM579.39,102.59c2.13,5.53,4.13,10.79,6.21,16a2.27,2.27,0,0,0,1.37,1.28c2.21.42,4.76-2.77,3.82-4.78-1.86-4-3.82-8-5.77-12-1.16-2.38-2-2.68-4.35-1.47A8.88,8.88,0,0,0,579.39,102.59Zm-132,106.09a20.25,20.25,0,0,0-2.25,3.3c-.12.24,1,1.42,1.78,1.67,4.91,1.65,9.86,3.2,14.83,4.69a2.26,2.26,0,0,0,2-.45c2.29-2.74,1.58-4.54-2-5.41-.71-.17-1.39-.45-2.1-.64ZM126.62,171v-.5c3.87,0,7.74-.07,11.61,0,1.91.05,2.84-.31,2.84-2.57s-.84-3.11-3-3c-3.12.21-6.26.27-9.37.54-1.6.14-3.15.69-4.74.93-2.14.32-1.52,2-1.35,3.09.1.58,1.26,1.11,2,1.41A5.93,5.93,0,0,0,126.62,171Zm667.46-64.44a29.27,29.27,0,0,0-5.14.06c-1.58.31-3.25.84-3,3.17s1.87,2.29,3.46,2.19c4.34-.27,8.67-.77,13-.92,1.82-.07,2.53-.66,2.57-2.4,0-1.91-.81-2.78-2.69-2.66Zm-86.52,0,0-.24c-1.72.15-3.44.43-5.15.43-2.71,0-2.53,1.79-2.37,3.57.17,2,1.75,1.69,3,1.61,4.49-.26,9-.75,13.47-.92,2-.08,2-1.11,2-2.58s-.15-2.65-2.11-2.48C713.47,106.24,710.51,106.4,707.56,106.6ZM379.11,229.5c1.19,0,2.11,0,3,0,1.55.05,3,.21,2.92-2.17-.08-2-.57-3-2.86-2.87-4.19.3-8.39.36-12.59.56a3.26,3.26,0,0,0-2.06.56,5.29,5.29,0,0,0-1.43,2.83c-.09,1.2.89,1.69,2.18,1.61C372,229.79,375.69,229.66,379.11,229.5Zm222-98.92c2.06-3.88,4-7.43,5.85-11,1.2-2.31.3-4-1.62-5.5-1.19-.92-1.77-.7-2.37.66-1.26,2.88-2.69,5.68-4,8.51-.59,1.23-1.85,2.66-1.57,3.63C597.72,128.09,599.35,128.94,601.11,130.58ZM257.57,221.51c-1-.87-1.92-1.81-2.95-2.63-2.49-2-5-4-7.59-5.8a2.36,2.36,0,0,0-2.18.42c-1.65,1.51-1.39,3.06.33,4.43l9.11,7.35ZM343.72,103.3a6.66,6.66,0,0,0-.82-1.13c-3.06-2.44-6.08-4.92-9.26-7.18a3,3,0,0,0-2.71.44c-1.58,1.24-1,3.11,1,4.58,2.3,1.69,4.46,3.56,6.68,5.36a19,19,0,0,0,1.83,1.51C341.6,105.79,342.62,104.56,343.72,103.3ZM515.07,96c1.67,0,3.33,0,5,0,2,0,1.95-1.46,2-3S521.48,91,520,91c-3.08.07-6.16,0-9.24,0-1.47,0-2.74.06-2.78,2.17s1,2.69,2.63,2.8C512.07,96.08,513.58,96,515.07,96ZM68.9,155c1.66,0,3.33-.07,5,0s2.15-.61,2.16-2.2-.48-2.41-2.27-2.35c-3.32.11-6.65.1-10,0-1.61-.05-2.5.72-2.2,2.1a3.55,3.55,0,0,0,2.09,2.32A24.41,24.41,0,0,0,68.9,155Zm537.88-48c-2.15-2.13-4.06-4-5.93-5.88-1.16-1.19-2-.43-2.62.49s-1.75,2.8-1.42,3.17a85.76,85.76,0,0,0,6.55,6.28ZM605,100.12c3.81-3.1,3.81-3.1.35-6.55-4-3.95-4-3.95-6.93-.68ZM827.31,129c3.69,0,3.69,0,3.69-3.45s-.17-3.55-3.78-3.55-3.72,0-3.72,3.42C823.5,129,823.5,129,827.31,129Zm-345.1-15.5c3.79,0,3.79,0,3.79-3,0-3.37-.16-3.52-3.78-3.52s-3.73.22-3.72,3.34S478.51,113.5,482.21,113.5Zm-37.71,0c0-1.86.05-3.36,0-4.85,0-.5-.4-1.4-.65-1.42a23.17,23.17,0,0,0-5.65.11c-.4.08-.47,2-.66,3.13-.4,2.39.6,3.36,3,3.06A32.31,32.31,0,0,1,444.5,113.5Zm51.43,0c4.06,0,4.06,0,4.07-2.86,0-3.48-.14-3.64-3.43-3.64s-3.4.2-3.62,3.5C492.77,113.22,493.91,113.93,495.93,113.5ZM164.05,223l4.3-2.38c-1.18-1.78-2.18-3.35-3.25-4.87-2.27-3.25-2.75-3.29-5.39-.62ZM458.5,110.42c0-3.42,0-3.28-3.46-3.47-2.38-.13-3.23.61-3.09,3,.19,3.49,0,3.49,3.09,3.5C458.5,113.51,458.5,113.51,458.5,110.42ZM322,164.81c1.5,2.64,2.94,5.16,4.45,7.8l3.53-1.43C328.55,165.17,325.62,161.62,322,164.81ZM587.5,98.12a57.2,57.2,0,0,0-4.13-6.21c-.48-.57-2.1-.41-3.11-.17-.28.06-.52,1.69-.26,2.4a33.35,33.35,0,0,0,2,3.57C583.56,100.66,584.88,100.81,587.5,98.12Zm211-7.1c-2.22,0-3.33,1.19-2.67,2.54.89,1.82,1.88,3.6,2.9,5.36s2.51.66,3.62.26c.42-.15.69-1.85.38-2.58a19.71,19.71,0,0,0-2.56-4.13A8.32,8.32,0,0,0,798.49,91Zm-628,129.33c1.48.07,3.52-2.43,2.93-3.5a23.27,23.27,0,0,0-3.63-5.16c-.53-.53-2.17-.07-3.24.2a4,4,0,0,0,.12,2.31,45.85,45.85,0,0,0,2.58,4.71A10.33,10.33,0,0,0,170.45,220.35Zm209.29-1.79a13.15,13.15,0,0,0,2.51-1.06c.45-.32,1-1.28.86-1.55a39.87,39.87,0,0,0-4.05-5.94c-.41-.46-2,0-3,.33-.22.07-.42,1.24-.19,1.66C377,214.14,378.31,216.2,379.74,218.56ZM136.12,159.83c1.34-1.14,3.2-2,3.18-2.85,0-1.35-1.3-2.67-2.05-4-.08-.14-.15-.29-.24-.42-1.73-2.61-2.73-2.77-5.37-.86Zm457.2-63.29a78.71,78.71,0,0,0-5.07-6.37c-.41-.44-1.92.16-2.93.28a14.75,14.75,0,0,0,.51,2.11c.33.89.79,1.74,1.21,2.61,1.66,3.49,1.66,3.49,5.32,2.17C592.51,97.29,592.62,97.14,593.32,96.54Zm-452.08,52c-1.52.6-3.87.71-3.1,2.94s2.5,4.43,3.75,6.52l3.93-1.62Zm663.81-59c-4,1.2-4,1.21-2.27,4.55l.57,1.09c1.78,3.55,1.78,3.55,5.43,2.17.07,0,.11-.13.53-.65ZM423.77,113.37h6.46c-.27-2.17-.08-4.4-1-6-.39-.7-4.09-.69-4.48,0C423.85,109,424,111.21,423.77,113.37Zm41.84.51c2.15-.41,4.36-.25,5.58-1.28.76-.63.65-3.77-.19-4.51-1.21-1.07-3.44-1-5.39-1.44ZM389.44,215.17l-4.59-7.41a7.19,7.19,0,0,0-2.05.87c-.56.49-1.37,1.55-1.18,1.88,1.24,2.3,2.71,4.48,4.1,6.68Zm-61.61-52.52c1.45,2.71,2.84,5.32,4.22,7.89,3.83-1.57,3.92-1.84,1.82-5.84C332.45,162,330.39,160.21,327.83,162.65Z" transform="translate(-0.5 -0.5)"/>
      <path d="M87.84,182.41c-3.21.15-3.93-.36-3.84-2.58.12-3,2.32-1.43,3.84-1.87Z" transform="translate(-0.5 -0.5)"/>
      <path d="M87.8,165c-1.46-.42-3.6,1.15-3.81-1.82-.22-3.2,2.15-1.87,3.81-2.33Z" transform="translate(-0.5 -0.5)"/>
      <path d="M87.88,169.74v3.51a32.41,32.41,0,0,1-3.68-1,2.12,2.12,0,0,1,0-1.51A33.42,33.42,0,0,1,87.88,169.74Z" transform="translate(-0.5 -0.5)"/>
      <path d="M530.65,118.54c1.92.06,4-.83,3.9,2.38s-2.32,1.65-3.9,2.23Z" transform="translate(-0.5 -0.5)"/>
      <path d="M530.41,101.9c1.92.41,4.14-.93,4.12,2.18,0,1.8-1,2.06-2.35,1.91C529.34,105.69,530.9,103.62,530.41,101.9Z" transform="translate(-0.5 -0.5)"/>
      <path d="M530.56,110.45c1.55.46,3.64-1.13,3.93,1.73.15,1.4-.59,1.79-1.91,1.85C529.93,114.14,530.54,112.35,530.56,110.45Z" transform="translate(-0.5 -0.5)"/>
      <path d="M223.51,39.26c-2,5.83-6.58,12.38-10.14,14.77l-1.87-1.78c2.37-4.14,4.51-8.28,7.12-12.09C219.22,39.29,221.49,39.58,223.51,39.26Z" transform="translate(-0.5 -0.5)"/>
      <path d="M201.42,62c1.66-1.55,3.23-3.22,5-4.6.65-.5,1.84-.29,2.78-.41l.29,1-7.61,4.62Z" transform="translate(-0.5 -0.5)"/>
      <path d="M221.49,125.5A3.13,3.13,0,0,1,218,122a3.5,3.5,0,1,1,7,0A3.15,3.15,0,0,1,221.49,125.5Z" transform="translate(-0.5 -0.5)"/>
      <path d="M649.46,108.54c1.3,2.71,2.62,5.34,3.81,8,.62,1.38-1.1,3.69-3.61,4.42a3.16,3.16,0,0,1-2.68-1.35C645.46,117,646.94,110.76,649.46,108.54Z" transform="translate(-0.5 -0.5)"/>
      <path d="M656.81,112c-1.12-2.67-2.19-5.19-3.49-8.28l7.39-2.15C661.17,105.3,658.92,111.1,656.81,112Z" transform="translate(-0.5 -0.5)"/>
      <path d="M483.88,183.23a61.24,61.24,0,0,1-6.25-.82,2.55,2.55,0,0,1-1.51-1.86,2.65,2.65,0,0,1,1.51-1.84A4.67,4.67,0,0,1,483.88,183.23Z" transform="translate(-0.5 -0.5)"/>
      <path d="M623.5,101.54h4.31v7.13c-4,.89-4.31.63-4.31-3.23Z" transform="translate(-0.5 -0.5)"/>
      <path d="M327.39,119.74c-1.18,4.18-4.75,5.52-8.23,3.09-1.21-.85-.91-2.76.59-3.72C321.5,118,325.48,118.31,327.39,119.74Z" transform="translate(-0.5 -0.5)"/>
      <path d="M240.92,237.67c.25,2.63-1,4.26-3.06,4.54a8.32,8.32,0,0,1-5-1.26c-1.12-.68-1.23-2.11.41-3.07C235.84,236.39,238.31,236.93,240.92,237.67Z" transform="translate(-0.5 -0.5)"/>
      <path d="M517.86,123.82a46.52,46.52,0,0,1-5.09-.95,4,4,0,0,1,0-2.19,47.38,47.38,0,0,1,5.1-.94Z" transform="translate(-0.5 -0.5)"/>
      <path d="M69.75,179c1.48-.3,2.25.54,2.26,2.31,0,2.21-1.62,1.62-2.84,1.71-1.53.11-2.77.05-2.72-2.12C66.51,178.52,68.09,179.08,69.75,179Z" transform="translate(-0.5 -0.5)"/>
    </g>
  </g>
  <g id="squall-dialogues-alpha">
    <g>
      <path class="cls-1" d="M896.5.5V166.34h-727V.5Zm-7.6,4.17h-712l.25,2.2H888.9ZM524.41,110.78l.59.5c0,5.49-.07,11,.07,16.47,0,.92.93,2.52,1.54,2.57,1.2.12,3.14-.28,3.59-1.11a2,2,0,0,1,2.26-1.21c4.16,0,8.33,0,12.49,0,1.77,0,2.57-.77,2.56-2.55s-.9-2.53-2.63-2.47c-1.25,0-2.51-.06-3.75,0-1.65.12-2.16-.6-2.17-2.2s.49-2.53,2.28-2.33c.74.08,1.5,0,2.25,0,1.73.17,2.56-.32,2.57-2.31s-1-2.32-2.67-2.21a8.93,8.93,0,0,1-3-.07c-.58-.17-1.37-1.07-1.31-1.57a2.52,2.52,0,0,1,1.38-1.77,7.58,7.58,0,0,1,3-.06c1.7.13,2.6-.28,2.6-2.29s-1-2.38-2.64-2.24c-.74.06-1.51-.06-2.25,0-1.72.19-2.1-.83-2.17-2.24s.75-1.83,2-1.78a11.68,11.68,0,0,0,4-.1c.82-.27,1.91-1.59,1.82-2.3a3.53,3.53,0,0,0-2.05-2.42c-1.27-.42-2.78-.11-4.44-.11.56-1.41.92-2.48,1.4-3.51.68-1.47.11-2.69-1.22-2.91-1.12-.18-3-2-3.62,1a35,35,0,0,1-2.27,5.8l-3.52-.63c.57-2.06,1.1-4,1.69-6.15a11,11,0,0,1-1.32-.16c-3.39-.89-3.38-.89-4.56,2.72-.74,2.26-1.51,4.5-2.27,6.75-1-2.7-1.23-3-3.63-2.95-4,.06-8.14.55-12.15.16-2.55-.24-2.27.89-2.39,2.46-.14,1.92.67,2.44,2.48,2.4,4.72-.09,9.44,0,14.17,0l.26.7c-.6.27-1.2.78-1.8.79-3.83.07-7.66.08-11.49,0-1.7,0-2.14.7-2.12,2.25s.3,2.36,2.06,2.31c3.08-.1,6.17-.08,9.25,0a8.79,8.79,0,0,1,2.26.7l-.22.77h-5.47c-1.92,0-3.84,0-5.75,0-1.44,0-2.14.4-2.13,2s.52,2.09,2,2.06c3.33-.07,6.66,0,10,0a3.5,3.5,0,0,0,1.78-.59C522.71,112.26,523.54,111.49,524.41,110.78ZM652,99.05c-.36-1.43-.73-2.74-1-4.07-.35-1.56-1.18-2.3-2.82-1.83-2,.56-3.25,1.55-2.18,4.11,1.38,3.33,1.7,6.46-1.44,9.13a10,10,0,0,0-1.56,2.43c-2.42,3.88-1.44,8.19-1.42,12.33,0,2.76,3,5.11,5.82,5.37,2.94.28,5.36-1,7.44-2.69,5.52-4.47,8.81-10.48,11.07-17.11.48-1.4,1-2.79,1.53-4.18,1.45,1,3.15,1.77,4.3,3,3.68,4,2.83,11.36-1.13,14.42-2.22,1.71-5.15,2.52-8,3.85-.23,3.67,1.36,4.87,5.11,3.3.3-.12.66-.06,1-.15a14.35,14.35,0,0,0,8.22-5.88c2.45-3.85,2.58-8.25,1.82-12.58a12.81,12.81,0,0,0-7.26-9.77,30.83,30.83,0,0,0-3.21-1.16c.1-2.11.2-4,.3-5.88-.76-.15-1.32-.22-1.85-.37-2.76-.73-3.39-.29-3.73,2.44a22.37,22.37,0,0,1-.62,2.67Zm-44,31.79c6.07-2.52,10.61-6.36,13.12-13,3.61,5.52,7.64,9.86,13.36,12.44l2-2.11c1.52-1.61,1-2.56-.73-3.79a88.33,88.33,0,0,1-8.37-6.85c-1-.89-1.57-2.26-2.74-4h10.22c1.34,0,2.76.25,2.7-1.89,0-1.72-.69-2.73-2.5-2.6s-2.1-.8-2-2.29c.07-2.34-.08-4.68,0-7s-.73-3.4-3.16-3.25c-2,.13-4.11,0-6.37,0,0-1.67-.07-3.07,0-4.46.11-1.94-1.15-2.47-2.64-2.5s-3,.39-2.89,2.49c.06,1.46,0,2.92,0,4.47-2.38,0-4.38,0-6.37,0-1.58,0-3.18-.18-3.17,2.28s1.44,2.69,3.23,2.71c2.06,0,4.11,0,6.31,0V109c-2,0-3.67-.38-5.1.09-2.28.75-6-2.42-6.83,2.11-.42,2.24-.09,2.3,6.68,2.3.92,0,1.83,0,2.75,0,1.58.06,1.73,1.08,1.36,2.26a15.08,15.08,0,0,1-8.34,9.24c-3.34,1.6-3.31,1.65-1.09,4.74A11.1,11.1,0,0,1,608,130.84ZM237.1,97l.18.6c-5.92,3.84-11.71,8-19,8v4.29h15.1L231.85,111c-5.56,4.18-6.37,11.26.2,15.58,4.14,2.73,9.23,2.68,14.09,2.26.53-.05,1.2-1.73,1.26-2.68a2.54,2.54,0,0,0-1.28-2.09c-2.78-.54-5.62-.7-8.42-1.12-3.37-.5-5.48-2.85-4.34-6.35,1.25-3.84,4.32-5.23,7.47-6,3.7-.9,7.65-.7,11.47-1.21,1-.14,2.64-1,2.82-1.72.28-1.27-.38-2.76-.6-3.95l-19.16.77-.12-.56,15-8.49c-2-1.6-3.37-3.73-4.9-3.82-6.64-.37-13.31-.15-20-.16-2.1,0-2.37,1.33-2.33,3s.47,2.59,2.43,2.53C229.31,96.91,233.21,97,237.1,97Zm501.18,9.75c.39-.89.66-1.63,1-2.32,1.87-3.45,3.74-6.89,5.68-10.3.7-1.23.68-2.42-.62-2.87s-2.76-1.89-3.85.22c-3.16,6.08-6.37,12.14-9.39,18.29-2.35,4.77-4.37,9.71-6.69,14.5-1.35,2.76,1.06,3.2,2.39,4.25,1.54,1.22,2.16-.11,2.71-1.25,1.53-3.16,2.73-6.53,4.63-9.44a25.74,25.74,0,0,1,5.88-6c1.66-1.28,2.9-.43,2.94,1.68,0,2.33-.17,4.68,0,7,.36,3.61,1.41,7.06,5.41,8.14a9.37,9.37,0,0,0,9.53-2.28c2.76-2.65,4-6,4.9-9.46,1.5-5.82.89-6.75-3.83-8.51-.36,1.4-.65,2.78-1.06,4.13-.94,3.1-1.77,6.24-3,9.24-.86,2.16-3.09,1.93-4.92,1.65s-1.62-1.79-1.6-3.16c0-2.58.07-5.17,0-7.75-.1-3.7-1.64-6.08-4.47-6.39C742.3,105.92,740.52,106.47,738.28,106.75ZM277,110.93a11.16,11.16,0,0,1,.93,2.75c.13,2.24-.09,4.51.07,6.75.27,3.73,1.58,7.08,5.47,8.22,3.44,1,7.13.83,9.4-2.43,2-2.89,4.28-6.06,4.89-9.39,1.21-6.49,2.08-5.83-3.43-8.35-.46,1.28-.95,2.52-1.35,3.8a99.19,99.19,0,0,1-3.14,9.67,4.31,4.31,0,0,1-3.6,1.8,3.15,3.15,0,0,1-2.8-3.49,75.5,75.5,0,0,0,0-8.24c-.32-4.72-3.46-7.43-8.27-5.41a18.36,18.36,0,0,1-2.22.53c2.5-4.63,4.76-8.65,6.82-12.79.38-.76.24-2.58-.22-2.81-1-.52-3.18-.82-3.48-.35-2.38,3.88-4.56,7.89-6.56,12-3.41,6.94-6.6,14-10,21-.91,1.88-.49,2.87,2.26,4.47,1.7,1,2.19-.27,2.74-1.38,1.44-2.93,2.79-5.9,4.25-8.82C270.53,115,272.81,112.23,277,110.93ZM555.2,128.6a8.38,8.38,0,0,0,1.27-1.58c2.68-6.27,5.5-12.48,7.87-18.86,1.4-3.78,1.07-3.75,5.1-3.72,2.38,0,3.22,1.14,3,3.16A102.12,102.12,0,0,1,571,118.49c-1.05,5.06-2.12,5.5-7,3.5-.3-.12-.68-.5-.86-.41-.58.28-1.54.75-1.52,1.11.08,1.88.32,4,2.36,4.74,5.4,2.09,10.09,1.91,12-5.52a83.85,83.85,0,0,0,2-15c.29-4.44-3.43-7.85-7.94-7.9-1.13,0-2.26,0-3.54,0a39,39,0,0,0,.93-5.34c0-.86-.61-2.48-1-2.51-1.45-.1-3.59-1.8-4.27,1-.54,2.19-.77,4.46-1.17,6.87-2.43,0-4.75.08-7.06,0-1.43-.06-2.23.46-2.3,1.86-.07,1.21-.36,2.58,1.59,2.73s4.17.45,6.37.7a10.24,10.24,0,0,1-.33,2.78c-2.07,5-4.11,10-6.42,14.89C550.78,126.08,550.74,126.35,555.2,128.6ZM395.32,107.22c-1.82,1.46-3.53,2.91-5.31,4.27-3.23,2.45-4.83,6.88-3.41,10.59a9,9,0,0,0,8.06,5.82c7.1.5,14.25.48,21.38.54.94,0,2.48-.55,2.7-1.2a10.12,10.12,0,0,0,0-4.14c0-.25-1-.58-1.49-.56-3.29.11-6.59.44-9.88.42-4.05,0-8.09-.25-12.14-.48-3-.17-4.69-2.73-3.19-5.31,1-1.69,2.38-3.62,4.07-4.36,6.81-3,13.78-5.58,20.74-8.2,1.17-.44,2.7-.14,1.87-2.16-.63-1.56-.72-3.83-3.38-2.93-3.88,1.3-7.78,2.59-11.58,4.11-3.18,1.29-3.87,1-4.77-2.35-.73-2.74-1.66-5.43-2.51-8.14a2.08,2.08,0,0,0-3.11-1.46c-1.14.63-3.61.57-2.4,3.39C392.65,99,393.88,103.15,395.32,107.22ZM231.93,68.73a24.55,24.55,0,0,1,1.55-2c2.21-2.26,2.26-2.35,0-4.56-3-2.89-6-5.75-9-8.53-1.3-1.18-1.6-2-.48-3.69a92.36,92.36,0,0,0,5.87-10.16c1.44-2.87-.31-5.32-3.61-5.33-7.49,0-15,0-22.49,0a10.89,10.89,0,0,0-1.62.22c0,.5-.06.83-.07,1.16-.05,3.61-.05,3.61,3.46,3.61,5.16,0,10.33,0,15.49,0,.78,0,1.55.14,2.79.27-2.84,5.37-5.52,10.16-9.74,14.07-3.95,3.66-8.05,7-13.09,8.94-1.7.67-1.88,2-1.08,3.15s1.2,3.65,3.58,2.06c4.11-2.76,8.22-5.53,12.22-8.45a17.92,17.92,0,0,0,2.74-3.11C223,60.62,227.24,64.48,231.93,68.73Zm8.62-1.45a5.07,5.07,0,0,0,.9.2c9.33,0,18.66,0,28,0,2,0,2.08-1,2.08-2.54,0-9.16-.07-18.32,0-27.49,0-2-.66-2.56-2.6-2.54-8.5.09-17,0-25.49,0-2.93,0-3.08.23-3,3.12.1,2.51,2.1,2.29,3.57,2.33,5,.13,10,0,15,0,7.46,0,7.46,0,7.46,7.45V62.11H240.55ZM173.61,159l2.28-.17V8.13h-2.28ZM691.8,102c-2.83,7.38-5.45,14.16-8,21-.52,1.39-1.4,3.12-1,4.28.74,2.05,4.68,1.65,5.7-.39a18.53,18.53,0,0,0,1-2.24c2.26-6.69,4.54-13.37,6.69-20.1.48-1.52,1.14-2.12,2.76-2.06,3.24.12,6.5-.08,9.74.08,2.18.11,3-.56,2.86-2.8-.1-2-.92-2.8-2.9-2.76-3.37.07-6.74,0-9.91,0,0-2,.55-3.86-.16-4.91s-2.67-1.24-4.46-2c-.43,1.81-.88,3.27-1.09,4.76s-.69,2.23-2.32,2.14c-2-.12-4,0-6,0s-2.26,1-2.26,2.7.55,2.43,2.32,2.33C686.75,101.91,688.75,102,691.8,102ZM327.5,112.77c-3.76.8-7.18,1.06-10.2,2.29a6.74,6.74,0,0,0-3.77,9c2.24,5,12.13,6.94,16.11,3a52.06,52.06,0,0,0,4.16-5.2c1,.63,2.2,1.39,3.41,2.06,3.16,1.75,3.13,1.7,5.24-1.06.73-1,.74-1.46-.38-2.06-2.23-1.19-4.33-2.64-6.6-3.73-1.77-.85-2.7-1.87-2.51-4s0-4.49,0-6.74-1.57-2.29-3.26-2.36-2.34.64-2.27,2.35C327.58,108.62,327.5,110.94,327.5,112.77ZM777.83,102c-2.9,8-5.52,15.34-8.3,22.65-.56,1.48-1.13,2.61.71,3.43,1.57.69,3.24,1.84,4.26-.66,1.54-3.75,3.14-7.48,4.46-11.31,1.54-4.48,2.81-9,4.21-13.61,3.28,0,6.36-.1,9.43,0,1.95.09,3-.44,2.9-2.54-.09-1.87-.61-3.15-2.91-3-2.63.14-5.28,0-8.06,0a11.34,11.34,0,0,1,0-2c.67-3.53.66-3.42-2.7-4.14-2.84-.6-2,1.78-2.26,2.86-.53,2.17-1.18,3.63-3.83,3.29-1.63-.21-3.32,0-5-.05-2-.07-1.77,1.27-1.79,2.54s-.07,2.56,1.85,2.48S774.81,102,777.83,102ZM343.5,61.29V58.13c0-7.75,0-15.49,0-23.24,0-.78-.37-2-.92-2.26-2.6-1.23-4.53.1-4.54,2.95,0,9.17.13,18.34-.08,27.5-.06,2.47.89,4.31,2.72,5,1.28.52,3.45-.1,4.78-.93,6.19-3.84,11.1-8.91,13.57-15.94a3.44,3.44,0,0,0-.43-2.8,18.86,18.86,0,0,0-3.42-2.69C353.08,52.3,350.1,57.9,343.5,61.29ZM817.56,101c4.44-3.94,6.81-5,11.63-4.48,2.24.23,4.77.68,5.62,3.19s-.9,3.94-2.87,5.1c-.41.25-.68.78-1.1,1-5.73,2.78-6.09,7.4-5.83,11.63.12,2.07,1.93,1.81,3.14,2s2-.75,1.89-2.21a11.4,11.4,0,0,1,.51-2.85c.82-3.73,4-5.15,6.82-6.86a8.14,8.14,0,0,0,4.14-6.29,6.78,6.78,0,0,0-3.26-7c-6.77-3.91-13.77-4.79-20.74-.21C812.7,97.16,812.68,97.73,817.56,101Zm-500.24.47c1.52,0,3.6-.09,5.67,0,2.28.13,3-.88,3.08-3.09.1-2.43-1.19-2.55-2.95-2.44-.83.05-1.66,0-2.5,0-1.44,0-1.91-.66-1.34-2.1a24.83,24.83,0,0,0,.81-3.22L314.74,90c-1.25,6-1.25,6-7,6a4,4,0,0,1-.49,0c-1.77-.23-2.32.59-2.29,2.3,0,3,.14,3.18,3.23,3.2h2.64a18.76,18.76,0,0,1-.9,3.13c-1.68,3.33-3.29,6.71-5.26,9.85-1.43,2.27.05,3.32,1.39,4.23,1.62,1.08,2.73-.39,3.35-1.57C312.08,112.08,314.59,106.94,317.32,101.5ZM351.86,111c-2.45,2.47-4.2,8.4-2.7,10.67a11.12,11.12,0,0,0,7.67,5.3c1.59.25,3.16.84,4.75.94a68.06,68.06,0,0,0,20.09-1.68c-.24-1.46-.41-2.82-.72-4.14-.1-.4-.61-1-.9-1-2,.1-3.91.5-5.86.51-5.44,0-10.91.22-16.3-.31-3.74-.38-4.68-3.18-2.82-6.5.23-.4.53-.75.95-1.35ZM848,125.57a14.06,14.06,0,0,1,0,1.85c-.33,2.32.47,3.34,3,3.13a54.91,54.91,0,0,1,7.48,0c2.25.1,3.1-.8,3.08-3.06-.07-9-.11-18,0-26.94,0-2.28-.93-2.56-2.82-2.58s-2.82.41-2.78,2.62c.13,7.4,0,14.8,0,22.2v2.8ZM199,105.84c0,4.58,0,9.15,0,13.73,0,1.52-.05,3,2.23,3s2.81-1.09,2.79-3.1c-.06-7.25,0-14.49-.06-21.73,0-2,.46-3,2.64-2.74,1.4.16,2.84-.06,4.24,0,1.88.15,2.26-.81,2.18-2.42s-.29-2.71-2.32-2.63c-3.08.12-6.17.14-9.24,0-2.08-.1-2.54.76-2.49,2.64C199.07,97,199,101.43,199,105.84ZM328,34.09c-.51,6.44-1,12.67-1.51,18.88a10.9,10.9,0,0,1-3.33,7.14c-1.2,1.15-2.37,2.33-3.53,3.52s-.71,2.29.43,3.13c.92.67,1.5,2.75,3.13,1.24a47.86,47.86,0,0,0,6.23-6.43c2.48-3.38,3.29-7.49,3.54-11.6.23-3.73.05-7.48.05-11.23C333,33.78,333,33.78,328,34.09ZM507.5,122.7c0,1.66-.1,3.34,0,5,.07.85.43,2.28.9,2.39,1.18.26,3.12.39,3.62-.27,1.09-1.45,2.33-1.3,3.69-1.31,1.66,0,3.34-.09,5,0s2.23-.75,2.25-2.18c0-2.91.09-5.83,0-8.74-.06-1.31-.41-2.64-2.26-2.62-3.67,0-7.33,0-11,0-1.61,0-2.36.72-2.23,2.44S507.5,121,507.5,122.7ZM278.1,53c11.59,0,22.9,0,34.21,0,1.77,0,2.85-.21,2.74-2.4-.1-2-.75-2.69-2.81-2.67-10.65.09-21.3,0-31.95,0-.72,0-1.43.08-2.19.13Zm87.4,46.5c3.5,0,7-.07,10.49,0,1.74,0,2.62-.35,2.56-2.34S378.2,94,375.86,94c-7.08.06-14.16.09-21.24,0-2.45,0-2.06,1.49-2.14,3-.09,1.68.23,2.67,2.28,2.6C358.33,99.4,361.92,99.5,365.5,99.5Zm333.66,17.24c-3.45,5.44-1.62,10.07,4,11.1,4.75.86,9.71.59,14.58.55.74,0,1.94-1.38,2.1-2.27a6.91,6.91,0,0,0-.54-2.94c-5.36-.24-10.1-.4-14.82-.77-.55,0-1.56-1.51-1.39-1.89.69-1.61-.27-2.06-1.35-2.57Zm86.18-.22c-.86,2.15-2.49,4-1.6,6.46a7.14,7.14,0,0,0,5.9,4.93c4.17.5,8.42.48,12.63.57,3.87.08,3.83,0,3.75-3.81,0-1.41-.32-1.9-2-1.79a106.63,106.63,0,0,1-10.73.09c-3.71-.12-4.35-.91-3.95-4.23ZM579.42,102.6c2.15,5.6,4.11,10.78,6.15,15.94.22.56,1.06,1.42,1.29,1.32a14.1,14.1,0,0,0,4-2.13c.42-.36.28-1.81-.06-2.55-1.83-4-3.8-8-5.75-12-1.21-2.47-2.18-2.78-4.53-1.44A6.8,6.8,0,0,0,579.42,102.6Zm214.1,4v-.08a24,24,0,0,0-4.24,0c-1.65.3-3.52.65-3.28,3.13s1.94,2.39,3.62,2.28c4.25-.27,8.49-.78,12.75-.92,1.93-.06,2.67-.71,2.66-2.57s-.87-2.59-2.61-2.49C799.44,106.19,796.48,106.4,793.52,106.6Zm-85.91,0,0-.28a42.28,42.28,0,0,1-5.35.59c-2.73,0-2.29,1.81-2.21,3.42.11,2,1.68,1.74,2.93,1.67,4.66-.28,9.31-.68,14-1,2-.12,1.5-1.57,1.58-2.73s0-2.39-1.77-2.28ZM600.52,130.14c3.49-2.87,4.45-7.09,6.44-10.68,1.3-2.34.15-4-1.7-5.45-1.06-.83-1.71-.62-2.26.58-1.3,2.86-2.62,5.71-4,8.51C597,127,597,126.93,600.52,130.14ZM343.74,103.22a11.66,11.66,0,0,0-1.24-1.44c-2.52-2.07-5.09-4.08-7.61-6.15-1.54-1.26-3-1.76-4.4.14-.95,1.28-.23,3,1.51,4.26,2.29,1.7,4.45,3.58,6.66,5.38a16.21,16.21,0,0,0,1.85,1.47C341.64,105.77,342.64,104.52,343.74,103.22ZM515.26,96v0c1.67,0,3.33.08,5,0,2.11-.12,1.7-1.75,1.76-3.12S521.37,91,520,91c-3.08,0-6.16,0-9.24,0-1.44,0-2.77,0-2.83,2.11s1,2.8,2.81,2.88C512.26,96.05,513.76,96,515.26,96Zm91.58,11c-2.23-2.21-4.1-4-5.88-5.85-1.26-1.3-2-.43-2.85.47s-2.52,1.83-1.28,3.23c1.91,2.15,4.19,4,6.51,6.12Q604.9,109.21,606.84,107Zm-2.1-6.75c4.11-3.19,4.11-3.19.44-6.84s-3.78-3.75-7.37,0c-.08.09-.08.26-.12.4l1-1ZM827.28,129c3.72,0,3.72,0,3.72-3.42s-.14-3.58-3.75-3.58-3.74,0-3.75,3.39C823.49,129,823.49,129,827.28,129ZM482.2,113.5c3.8,0,3.8,0,3.8-3,0-3.36-.17-3.52-3.78-3.52s-3.73.22-3.72,3.33S478.51,113.5,482.2,113.5Zm-37.7,0c0-1.81,0-3.23,0-4.64,0-.47-.16-1.33-.32-1.35a27,27,0,0,0-5.59-.35c-.43,0-1,1.68-1,2.6-.14,3.74-.07,3.74,3.76,3.74Zm51.47,0c4,0,4,0,4-2.9,0-3.41-.17-3.6-3.47-3.6s-3.36.22-3.58,3.54C492.75,113.33,494,113.88,496,113.5Zm-40.35,0c2.12.49,3.08-.42,2.93-3-.2-3.45-.06-3.29-3.47-3.51-2.63-.18-3.28.81-3.13,3.26C452.15,113.49,452,113.5,455.62,113.5ZM587.51,98.13a60.56,60.56,0,0,0-4.13-6.19c-.48-.58-2.09-.45-3.09-.22-.29.07-.57,1.69-.31,2.4a31.9,31.9,0,0,0,2,3.56C583.59,100.66,584.82,100.81,587.51,98.13Zm216-.51c-1.68-2.32-3.1-4.48-4.8-6.4-.31-.35-1.83.17-2.65.57a1.79,1.79,0,0,0-.33,1.66A30.79,30.79,0,0,0,798.89,99c.45.58,2,.57,2.92.43C802.36,99.33,802.8,98.43,803.55,97.62ZM805,89.41c-3.91,1.41-3.9,1.41-2.25,4.57a31.4,31.4,0,0,1,1.39,2.86c.61,1.52,1.46,2.14,3,1.15a20.55,20.55,0,0,1,2.33-1.07ZM592.66,97l.62-.53a78.3,78.3,0,0,0-5-6.3c-.43-.45-1.93.1-2.93.2.19.76.32,1.54.58,2.28s.69,1.45,1,2.18c1.73,3.77,1.73,3.77,5.52,2.35C592.56,97.19,592.61,97.1,592.66,97ZM424.15,113.32h5.72c.45-6.33.45-6.33-3-6.32C423.66,107,423.63,107.07,424.15,113.32Zm41.47.42c2-.29,4.23,0,5.51-1,.78-.6.79-3.76,0-4.54-1.18-1.12-3.43-1.12-5.49-1.68Z" transform="translate(-0.5 -0.5)"/>
      <path d="M530.65,118.54c1.92.06,4-.83,3.9,2.38s-2.32,1.65-3.9,2.23Z" transform="translate(-0.5 -0.5)"/>
      <path d="M530.41,101.92c1.7.49,3.75-1.08,4.08,1.73.15,1.37-.07,2.36-1.89,2.38C529.49,106.07,530.79,103.85,530.41,101.92Z" transform="translate(-0.5 -0.5)"/>
      <path d="M530.52,110.39c1.65.52,3.8-1,4,1.87.09,1.47-.76,1.73-2,1.76C529.8,114.08,530.63,112.23,530.52,110.39Z" transform="translate(-0.5 -0.5)"/>
      <path d="M649.46,108.52c1.29,2.71,2.61,5.35,3.81,8,.61,1.38-1.13,3.51-3.57,4.53-1.63.68-2.39-.34-2.92-1.6C645.61,116.75,647.05,110.68,649.46,108.52Z" transform="translate(-0.5 -0.5)"/>
      <path d="M660.69,101.6c.49,3.67-1.74,9.47-3.85,10.44l-3.54-8.26Z" transform="translate(-0.5 -0.5)"/>
      <path d="M627.8,109a9.68,9.68,0,0,1-2.76-.06c-.61-.19-1.11-.91-1.5-1.49-.19-.29,0-.81,0-1.23v-4.57h4.3Z" transform="translate(-0.5 -0.5)"/>
      <path d="M327.4,119.75c-1.22,4.18-4.82,5.52-8.25,3.07-1.21-.86-.89-2.76.62-3.72C321.53,118,325.51,118.32,327.4,119.75Z" transform="translate(-0.5 -0.5)"/>
      <path d="M517.91,119.68v4.11a44,44,0,0,1-5.08-.87,3.83,3.83,0,0,1-.11-2.17A49.67,49.67,0,0,1,517.91,119.68Z" transform="translate(-0.5 -0.5)"/>
    </g>
  </g>
  <g id="squall-quistis">
    <g>
      <path d="M488.93,385.78l3.82,31.57c-3-1.34-4.51-3.28-5.05-5.62-1.62-7-3-14.06-4.41-21.09-1.3,1.41-2.56,2.86-3.91,4.22s-3,2.88-4.64,4.43l5.66,5.24-3.85,1.31c2.84,2.12,5.55,3.7,7.68,5.86,1.93,1.95,3.12,4.6,4.82,6.8a5.68,5.68,0,0,0,2.86,1.95c2.53.6,4.07,2.23,5.38,4.27q6.31,9.86,12.67,19.67a25.1,25.1,0,0,0,2.23,2.54l.93-2.95a36.41,36.41,0,0,1,4-1.36,2.81,2.81,0,0,1,2,.51c2.9,2.14,3.7,5.43,4.42,8.69a2.49,2.49,0,0,1-.83,1.95c-4.12,3.56-5.39,8.39-6.19,13.45-.13.82-.31,1.63-.51,2.43-1.09,4.32-1.32,4.41-5.75,3.29-3.87-1-7.76-1.85-11.66-2.72a12.58,12.58,0,0,0-2.06-.14c-2,4.51-.65,8.6.78,12.74,2.09,6,3.88,12.11,6,18.09,1.87,5.22,1.12,10.53.95,15.82-.13,4.2-.41,8.4-.79,12.59-.42,4.53-1,9-1.58,13.55-.9,6.54-2,13.07-2.88,19.61-1.2,8.51-2.46,17-3.46,25.55-.59,5-.68,10.08-1.06,15.12-.63,8.24-1.31,16.47-2,24.7a62.67,62.67,0,0,1-.61,7.15c-.19.94-1.46,1.65-2.2,2.5-.53.62-1.47,1.35-1.42,2q.72,8.67,1.74,17.32c.91,7.73,2,15.43,2.92,23.16.74,6.41,1.31,12.84,1.94,19.26a3.6,3.6,0,0,1,0,1.73c-1.39,2.76-.72,5.29.89,7.63,2.25,3.32.26,6.17-.89,9.08-1.28,3.24-3.56,4.57-7.1,3.39-.57-.19-2,.47-2,.76,0,1.49-.17,3.3.59,4.41,1.29,1.89,3.25,3.32,4.88,5,1.87,1.92,1.75,2.88-.79,3.7-5.27,1.69-10.57,3.41-16,4.6-1.8.4-3.95-.73-5.93-1.21-.8-.2-1.54-.64-2.34-.8-2.38-.48-4.44-1-5.53,2.45-.57,1.82-3.11,3-4.79,4.49a1,1,0,0,1-.71.12c-1.62-.12-5.69-4.69-5.66-6.4,0-1.41.22-2.83.17-4.24,0-1.06,0-2.46-.6-3.1-3.53-3.67-2.19-8-1.73-12.11,1-9,2.4-18,3.68-27.07,1.4-9.74,2.89-19.46,4.27-29.2.85-6.07,1.8-12.14,2.27-18.25.21-2.81-.53-5.73-1.1-8.55-.13-.65-1.25-1.4-2-1.56-3.41-.71-3.93-3.62-4-6.07-.18-5,.32-9.92.55-14.88,0-.17,0-.33,0-.5.17-4.06,0-8.16.58-12.16,1.66-11.79-1.57-22.8-4.7-33.89-3.59-12.71-7.21-25.43-10.37-38.25-.89-3.58-.31-7.54-.21-11.33.14-5.14.45-10.29.74-15.43.08-1.49.36-3,.52-4.23l1.94-1-1.5-1c3.45-6.45,7-13.06,10.51-19.73a4.75,4.75,0,0,0,.24-2.61c-.33-3-.79-6-1.17-9.07-.1-.72-.1-1.46-.18-2.69-1.38.64-2.43,1.23-3.55,1.62-2.08.74-4.21,1.88-6.31,1.84-1.15,0-2.28-2.07-3.37-3.25a7.74,7.74,0,0,1-.69-1.31c-3-4.94-3.07-5,1.57-8.72,1.94-1.54,3.42-3,3.07-5.72-.08-.63.92-1.67,1.66-2.06,1.54-.8,2.07-1.42,1.06-3.22-3.05-5.43-6.06-10.89-8.65-16.54-1.49-3.24-2.17-6.86-3.15-10.33a2,2,0,0,1,.29-1.58c2.24-2.59,9.5-3.74,12.59-2.09-2.78,10.09-3.62,16.39-2.29,17.7a27.1,27.1,0,0,0,2.94-12.21c0-2.34.75-4.68.82-7,0-1.27,1.32-2.9-.66-3.94-.25-.13-.24-.94-.19-1.41.46-4.26,1-8.51,1.42-12.77.14-1.45.63-1.92,2.06-1.52,1.91.54,3.85,1,6.25,1.56l-2.51.64,3.42.9c.88-3.73-2.24-5.13-4.19-7.92l13.14,1.78c-2.26-2.14-2.89-7.54-1.16-10.46-.27,2.72,1.14,4.1,3.25,4.75a10.25,10.25,0,0,1,5.83,4.4c.45.7,1,1.32,1.75,2.22.6-1,1-1.66,1.31-2.28l.43.13c-.17,1-.38,1.94-.51,2.92s-.19,1.93-.27,2.8c6.32-3.63,8-6,9.16-13.35.06-.39-.55-1.05-1-1.34-1.08-.69-2.66-.46-3.18-2.24-.25-.83-1.38-1.46-2.21-2a9.59,9.59,0,0,0-2-.78l-2.1,4.35L469.92,372c-1.32.92-2.57,1.79-3.84,2.69l-2-3.4-1.26,3.61L461.47,371c-.9,1.34-1.77,2.66-2.69,3.94-.28.39-.82,1-1.06,1-2.34-.67-3.32,1-4.44,2.89-.43-1.24-.71-2.07-1-3l-2.34,1.16c-.17-2.13-.32-4.18-.49-6.44l-1.33.61a67,67,0,0,1-.92-7.12,7.51,7.51,0,0,1,2.76-6.07,9.26,9.26,0,0,0,2.41-11.2L447.17,345c1.18-2.42,2.59-2.69,4.6-1.58,1.53.85,3,2.08,5.22,1.26.67-.25,2,1.2,3.08,1.93l1.12-3c.65,3.3,1.24,6.27,1.81,9.18,7.18.8,8.16.63,14.41-2.5,1.88,4,3.77,8,5.64,12a4.53,4.53,0,0,1,.43,1.6c.36,5.34.82,10.68.93,16a12.1,12.1,0,0,1-1.49,4.82c-1,2.26-.05,5.13,1.93,5.21,1.55.07,2.55-.45,2.67-2.18a11.29,11.29,0,0,1,.54-2Zm-4.76,57.8.33-.53c-1.29-1.57-3-3-3.78-4.75-1.83-4.24-3-8.79-4.91-13-1.16-2.51-.61-3.66,1.51-4.95a4.6,4.6,0,0,0,.83-7.44c-1.67-1.57-3.53-2.93-5.32-4.36s-4.74-1.56-6.35-.21a2.58,2.58,0,0,0-.73,2.05c.66,3.68,1.73,7.3,2.19,11a29.89,29.89,0,0,0,6.83,16.34C477.43,440.9,480.92,441.87,484.17,443.58Zm-20.45,67.14c1.3-3.78-1.51-5.66-2.87-8-.28-.49-1.29-.55-2-.81-.13.85-.68,2-.33,2.49C460,506.46,461.78,508.37,463.72,510.72ZM452.77,354c1.35,1,2.25,2.29,3.26,2.38,1.73.16,3.53-.41,5.52-.7l-1.46-3.09-2.69,2.1-1.29-1.57Zm15.77,161.36c-.41-2.86,1.12-5.89-1.91-7.95C465.43,511,465.93,513.32,468.54,515.31ZM456.4,391.58l-.27,1,5.49,1,.17-.87Z" transform="translate(-0.5 -0.5)"/>
      <path d="M828.64,383.78c.93,2.67,1.88,2.86,3.89,1.23a42.54,42.54,0,0,1,3.72-2.44c-.07-.35-.14-.7-.2-1.05l-6.48-.72c0-.29.18-1,.32-1.81h-3.34c.73-5.62,1.55-11.09,2.13-16.58.9-8.49,1.61-17,2.5-25.51a4.47,4.47,0,0,1,1.27-2.71,74.12,74.12,0,0,1,7.76-5.92,17.52,17.52,0,0,0-2.76,9.11c0,3.06-1.81,6.32,1.34,9.19,4-3.71,8.12-7.23,11.86-11.11,1.5-1.57,2.61-3.3,4.92-3.89.61-.16.79-1.62,1.41-2.25,1.3-1.31,2.73-2.51,4.15-3.68,1.82-1.5,3.69-2.92,5.34-4.23.84,2.48-.53,5.38-2,8.2l3.89.83c-2.4,3.34-5.62,1.53-8.11,2.55a14.47,14.47,0,0,1-1.84.59c-.92,4.39-1.72,8.23-2.54,12.12l9.5,1.29c.16,0,.43.06.49,0,1.69-2.33,5.11-.94,6.7-2.9s4.49-3.4,4.6-6.74c0-1.16,1.36-2.27,2.19-3.54,1,.86,1.89,1.57,2.74,2.26.4-1.91.77-3.67,1.13-5.43l.88-.15,4.29,8.47c.29-2.75.38-5.49-1.13-7.9a18.12,18.12,0,0,0-3.06-3.54c-.59-.54-1.6-.61-2.35-1a10.37,10.37,0,0,1-2.67-1.88c-.18-.19.52-1.41,1-2,3.59-4.09,3.55-4,6.45.63,5.21,8.41,10.32,16.88,13.63,26.26a7.18,7.18,0,0,1,.21,4c-1.56,5.85-2.86,11.83-5.14,17.4-3.18,7.79-2.31,15.59-1.6,23.51a18,18,0,0,1-.36,6.13c-3.49,12.8-7.22,25.53-10.65,38.34a21.27,21.27,0,0,0-.13,7.13c.87,10.44,1.89,20.87,2.81,31.31.59,6.54.9,13.12,1.7,19.64.84,6.92,2.09,13.78,3.19,20.67.89,5.57,2.2,11.11,2.61,16.72.36,4.77-.2,9.62-.54,14.42-.71,9.8-1.46,19.59-2.36,29.36a48.65,48.65,0,0,0,1.21,16c1.12,4.7.06,9.93-.15,14.92,0,.61-.69,1.28-1.2,1.77-4.54,4.29-9.08,8.59-13.73,12.76a4.07,4.07,0,0,1-3.08.8c-4.47-.87-8.89-2-13.48-3,1.75-4.2,3.68-8.25,5.17-12.47,2.34-6.63,4.44-13.35,6.51-20.08a4.58,4.58,0,0,0-.42-2.82C867.91,579,865,572,862,565.1a25.75,25.75,0,0,1-2.53-10.31,14.91,14.91,0,0,0-.57-2.55c-1.36,6.6-2.59,12.43-3.73,18.28a3.57,3.57,0,0,0,.33,2.15c3.7,7.2,2.17,14.72,1.47,22.45-4.08.46-8.1.94-12.13,1.37-8.92,1-17.85,1.94-26.78,2.83a4.28,4.28,0,0,1-2.68-.7c-1.86-1.39-3.55-3-5.8-5,1.56-1.83,2.86-3.85,4.62-5.3,3.22-2.63,6.91-4.69,10-7.41,4.37-3.81,8.45-8,12.52-12.1.45-.46.34-1.83,0-2.61-2.54-6.58-5.33-13.07-7.73-19.69a39.61,39.61,0,0,1-2.39-10.07c-.91-11.45-1.49-22.92-2.19-34.39-.5-8.14-1.51-16.29-1.35-24.42.19-9.46,1.47-18.9,2.18-28.36.48-6.34.69-12.71,1.24-19.05.41-4.71,1.23-9.39,1.73-14.09a11.61,11.61,0,0,0-.58-3.16,8.84,8.84,0,0,1-.24-1.68q.26-12.24.59-24.49A20.34,20.34,0,0,1,828.64,383.78Zm9.68-3.08c.57-3.92,1.13-7.54,1.61-11.16.05-.4-.27-1.21-.5-1.24-2.27-.3-2-2-1.91-3.49.07-1.72.56-3.45.4-5.13a95.43,95.43,0,0,0-1.46-9.64c-.38-1.89-.57-4.14-3.46-4.45,0,7.33-.17,14.56.1,21.78.09,2.47.63,5.17,3.14,6.79.42.27.5,1.06.74,1.62a10.18,10.18,0,0,0-3.05.65,2.3,2.3,0,0,0-.27,2A44.92,44.92,0,0,0,838.32,380.7Zm30,9.79a26.82,26.82,0,0,0,.48-3.58,2.42,2.42,0,0,0-.86-1.28c-1.89.91-4.71-.1-5.71,2.79-.14.41-1.5.73-2.14.55-2-.53-3.84-1.32-5.75-2-3-1.08-6-1.85-9.09.75C852.94,390.5,860.38,392.54,868.29,390.49Zm-12.51,15.07a5.43,5.43,0,0,0,2.08,1,14.78,14.78,0,0,0,3.58-.43,29.24,29.24,0,0,0-1-2.9c-.19-.42-.67-.72-1-1.07-2.18-2.12-2.9-2.11-5.18-.17a4.45,4.45,0,0,1-2.12,1c-1.41.21-3.11.2-3,2.08s1.87,2.1,3.35,1.91A15.67,15.67,0,0,0,855.78,405.56Zm-16.42-42,.81.06c.66-5.13,1.31-10.26,2-15.55-2.42.09-2.62,1.51-2.66,3.05,0,2.41-.11,4.81-.14,7.21C839.34,360,839.36,361.78,839.36,363.52Zm5.72,41.27c-1.88-.61-3.65-1-4.45,1.21-.19.53.87,1.53,1.45,2.5ZM825.92,464.4l.67,0c.17-2.26.34-4.52.53-7.19C824.8,459.06,824.68,460.24,825.92,464.4Zm2.19-18.22c-2.45,1.76-2.54,3.36-.63,6.92Zm1-11.51-1.29-.11-.36,5.78,1.17.09Z" transform="translate(-0.5 -0.5)"/>
      <path d="M837.35,323c-.64-2.47-1.2-4.58-1.73-6.69s-1-4.16-1.68-7l-3.56,9.52c-.19-1.32-.33-1.9-.35-2.48-.2-5.24-.52-10.48-.5-15.72,0-1.7.9-3.38,1.32-5.09a3.72,3.72,0,0,0-.13-2.54c.94-.94,2.21-1.73,2.75-2.87,3.29-6.89,8.23-10.56,16.23-9.18a59.19,59.19,0,0,0,11.13,1.24c4.47-.09,6.63,2.92,9.1,5.63,3.18,3.47,4.13,7.91,5.12,12.33a7.92,7.92,0,0,0,1.31,2.86c1.07,1.45,2.35,2.75,3.35,4.4l-4-2-4.44,7.92,7.33.83a6,6,0,0,0-1.4.9c-1,1.17-1.79,1.1-2.87,0-1.8-1.76-2.71-1.56-3.92.66-.62,1.16-1.18,2.35-1.85,3.48-.22.37-.71.58-1.48,1.19l1.3-6.62-.55-.12c-1.4,1.64-2.82,3.26-4.19,4.93-1.56,1.88-4.22,2.81-4.68,5.71-.15,1-.44.82-1.55.08a7.64,7.64,0,0,0-2.54-.61c3.77-4.41.73-8.89.2-13.38l-.86.05q.66,5.68,1.31,11.37l-.6.13c-.14-.45-.31-.89-.42-1.34-.84-3.31-1.6-6.63-2.56-9.9-.21-.69-1.11-1.26-1.81-1.7-.36-.23-1,0-1.47-.08-3.61-.64-3.89-.41-4.15,3.34-.08,1.11-.21,2.23-.31,3.35l-.87.06q-1.16-8.39-2.3-16.78l-.59.07c.34,3.11.67,6.23,1,9.45-2.39-.08-3.35-1.07-2.81-3.35l1.21.07c-.34-2.5-.66-4.9-1.06-7.79-1.3,3.22-2.39,5.92-1.29,9.09C839,310.74,838.87,318.63,837.35,323Zm31.27-11.91c2.29-1,2.76-2.94,2.27-5.05-.18-.8-1.33-1.95-2-1.91-1.12.06-2.64.51-2.35,2.34,0,.12.16.22.13.17h2c0,1.6,0,3.05,0,4.5l-2.7.31c.2-1.16.36-2.08.53-3l-.7-.15c-.34,1.32-.68,2.64-1,4l.8.7Zm-21.07-13.26-1,.35-.67,6.75,3.59-.66C848.83,302.08,848.19,300,847.55,297.84Zm21.19,2.27a8,8,0,0,0-9.19-.24C862.55,301.67,865.44,300.45,868.74,300.11Z" transform="translate(-0.5 -0.5)"/>
      <path d="M488.36,362.24c-1.82-.16-2-3.95-4.51-2.12-.86-2.74-1.73-5.5-2.61-8.32,2.21-1.24,4.18-1.28,5.88,1.09,1.1,1.54,2.49,2.88,3.7,4.35s1,2.8-1,3.78A8.76,8.76,0,0,0,488.36,362.24Z" transform="translate(-0.5 -0.5)"/>
      <path d="M879.73,332.39l-2.87-2.59c2,0,3.74-1.7,5.28.82Z" transform="translate(-0.5 -0.5)"/>
      <path d="M848.59,321.45c-1.28,1.64-2.73,1.19-4.12.48a1.26,1.26,0,0,1-.28-1.19,1.87,1.87,0,0,1,1.42-.65A21.85,21.85,0,0,1,848.59,321.45Z" transform="translate(-0.5 -0.5)"/>
    </g>
  </g>
</svg>
