<svg id="face" xmlns="http://www.w3.org/2000/svg" viewBox="0 0 500 500">
  <defs>
    <style>
      #face {
        fill: #171f29;
        <!--
        fill: #2c3e50;
        -->
      }
      .cls-1 {
        fill: none;
      }
    </style>
  </defs>
  <title>profile</title>
  <g>
    <path class="cls-1" d="M273.36,278.49,229.21,318C230.73,306.83,263,278.61,273.36,278.49Zm-24.42-62c.16-.53.33-1.06.49-1.59L292.34,223l.25,1.72a30.53,30.53,0,0,1-4.36.25c-7-.6-14.06-.71-20.86-2.16C261.07,221.48,255.07,218.67,248.94,216.51Zm88.44,192.72c-11.22-1.23-26-1.4-37.83-13.34,0,0,32.7,10.38,47.51,4.13Zm58.07-74.62a70.51,70.51,0,0,1-1.33,7.9c-.3,1.56-2.74,5.23-4.11,7.62.42-12.12.14-14.62.14-14.62a24.8,24.8,0,0,0-3.33-1.53l2.12-11.47c-.47-3.75-2.26-10.46-3.12-15.24,1.68,1.19,1.88,1.81,2.05,2.22,1.64,3.88,1.64,3.88,4.6,15.06.51,1.94,1.76,4.63,2.55,7.05A4.42,4.42,0,0,1,395.45,334.61ZM409,253.76c.25-.57.49-1.15.74-1.73l4.53,5.81c-13,.31-23.31-3.79-31.67-12.67C391.18,249.4,400.23,251.13,409,253.76ZM374.48,344l4.33,1.17-4.32,1.14a2,2,0,0,0,.15.74c2,3.27,1,6.43.69,10-.52,6.69-3.59,9.28-9.21,11.63-4,1.66-6.94,5.69-10.7,8.14a13.48,13.48,0,0,1-7,2c-5.58,0-11.18-.48-16.75-1-.89-.08-1.77-1.12-2.5-1.86a8.24,8.24,0,0,1-1.09-2l-.84,2.27c-4.53-.77-10.87,0-13.83-2.77-5.49-5.14-14.06-3.37-18.55-9.88-.77-1.11-4-.65-6.16-.62-1.26,0-2.77,1.21-3.73.82-8.06-3.3-16-6.84-24-10.31l.47-1.19,4.43-1c2,4.46,5.46,5.76,10.32,4.15,1-.32,3.05.21,3.39.94,2.48,5.24,6.32,3.43,10.09,2.26.76-.24,1.49-.56,2.48-.93,2.75,4.81,6.7,7,12.33,5.89,4.44,5.28,10.65,6.83,16.09,3.57,6.31,7.67,14.83,3.35,22.51,3.47,3.64.06,7.79-9.5,6.4-13.18-.12-.34-.83-.81-1.06-.71-3.34,1.41-5-1.68-7.39-2.66-.7-.29-2.34.67-2.54.37-3.84-5.72-8-3.09-11.75-.82l-18.47-11.61-1.18,3.6c-4.31-.31-8.58-4.71-13.89-1.53-5.88-5.34-6.08-5.33-13.32-.83-.69.43-2.28.6-2.63.18-4.58-5.3-7.64-3.06-9.8,1.85-3.53.16-3.3-7.6-7.6-3.31-1.95,2-4.52,5.63,1.34,8.45l-1.8.72a92.67,92.67,0,0,1-8.51-5,93.79,93.79,0,0,1-9.83-8.3c-1.13-1.1-1.42-3.06-2.09-4.62,1.13-.46,2.28-.9,3.39-1.39,3-1.31,5.95-2.64,8.88-3.94a29.71,29.71,0,0,0,5.81.91c4.57-.1,9.19-1.12,13.7-.74,6.28.52,12.5,1.92,18.72,3.08,3,.56,5.92,1.45,8.89,2.14,9.8,2.27,19.62,4.45,29.39,6.82,2.38.57,4.6,1.79,6.93,2.61a3,3,0,0,0,1.88-.1c4.6-1.53,9.13-3.29,13.78-4.59,1.34-.37,3.2.26,4.53,1,4.65,2.48,9,5.55,13.83,7.6C370.21,347.34,372.83,345.56,374.48,344Zm-4.37-138.48a28,28,0,0,1,1.85,2.79,31.37,31.37,0,0,1,1.06,3.17c-4-.76-.63,10.12-7.89,4.56C368.42,214.71,371.08,209.86,370.11,205.55ZM321.92,294.1a69.06,69.06,0,0,1,17.5,7.94c5.68,3.55,12.78,6.85,20.16,5.72,2.54-.39,4.65-3.17,7.09-4.63a12.7,12.7,0,0,1,3.67-.95c.22,1.61.76,3.26.57,4.81s-1.17,3-1.75,4.5c-1.14,3-2.35,6-3.35,9-1.83,5.57-8.32,8.68-14.43,9.88-8.58,1.68-14.84-2.8-21.42-5.33-1.3-7.68-9.08-12.43-8.73-20.68-9.24-2.83-18.31-6.71-24.4-15.18l.8-1.27a42,42,0,0,0,5.62,2.12C309.46,291.46,315.82,292.32,321.92,294.1Zm-68.85-99.69c6.38-1.13,12.69-2.71,19.49-3l-1.86,2.28,14,2-3.74-3.5c14.58,2.78,23.81,11,29.19,23.76l-.86,1.48c-6.84-3.17-13.67-6.37-20.54-9.49-1.15-.52-2.87-1.35-3.65-.89-4.33,2.56-8.19.3-12.25-.62a64,64,0,0,0-9.65-1.41c-6.31-.45-12.8-1.71-18.89-.7-6.48,1.07-12.31,0-18.34-1.43-.56-.13-1-.69-1.53-1.06l-.06-1.42C235.73,206,243.42,196.12,253.07,194.41Z" transform="translate(0 0)"/>
    <path d="M0,500H101.34L77.91,474.79l-12.71-3.4C90.76,420.14,105.93,366.07,106,366c.57-3.69,1-7.42,1.61-11.09,1.22-7.31,2.15-14.67,3.6-21.93a73.06,73.06,0,0,1,4.17-14.25c1-2.25,2-5.7,6.14-5.07,1.33.2,2.88-1.07,4.23-1.62l1.85,3.13c3.24-10.36.7-19.29-3.48-28.82-1.84,1-4.08,1.42-5,2.76-4.07,6.19-11.07,6.65-16.91,7.53-8.67,1.32-22-8.63-25.17-17.18-3.74-10.17-7.56-20.35-10.57-30.75-1.88-6.5-2.9-13.44.19-20.59,1.19,2,1.86,3.75,3,5s3,3,3.89,2.68c4.72-1.74,5.13,1.48,5.82,4.57.58-.46,1.21-1.28,1.54-1.17,3,1,6.91,7.23,6.84,10.49-.18,8.73.36,17.3,5.23,25,1.73,2.73,3.59,3,5.53.42-5.52-3.79-5.42-11.27.43-16.67v11.64l4-5.36c2.72,1.16,5.18,2.34,7.73,3.28a115.08,115.08,0,0,0,11.87,4c3.33.84,10.31,3.56,13.58,3,2.73-.45,1.78-4.78,4.33-6.35.18.37.35.75.53,1.12l1-5.34c.89,1.56,1.27,2.21,1.35,2.35a29.81,29.81,0,0,0,2.52-5.27c1.17-4.38,6.25-7,5.28-12.36a13.58,13.58,0,0,1,.67-5.42c1-3.74,1.46-7.69,3.12-11.14C161,220,168.6,210,174.23,202.15c0,0,4-2.39,13.37-2.24,7.34.11,9.12-.34,14.69-.6,1.7-2.82,7.85-5.31,9.27-6.18,4.89-3,10.11-5.38,15.1-8.19,1.94-1.1,4.67-2.37,5.21-4.12,1.91-6.19,7.14-8.09,12.1-9.65,6.8-2.13,14-3,20.93-4.72,1.65-.42,2.93-2.28,5-3.95.32.17,2.61,1.77,2.92,1.45,2.46-2.55,4.15-.8,6.48.25,3.15,1.42,6.7,2,10.25,2.9,1.1-2.76,2.11-5.26,3.2-8,1.49,1.33,2.95,2.64,3.39,3-.7,2.83-2.06,5.18-1.38,6.33.85,1.45,3.36,1.92,5.82,3.15-.71-1.7-1-2.48-1.37-3.26l1.17-.62,2,3.43h8c1.77-3.31-.42-5.77-2.52-8.23-4.33-5-11.06-4.6-16.45-5.69-7.24-1.46-15.19.17-22.77,1-4.06.45-7.88-1.74-8.84-5.85-1.38-5.86,2-10.32,4.87-14.32,6.37-8.88,11-18.58,15.53-28.41.91-2,2.9-3.41,3.84-5.35,1.87-3.86,2.58-8.54,5.17-11.75,5.59-6.91,7-16.73,15.27-21.72.6-.37.66-1.64,1-2.49l3.19,1.26c.32-1.13.34-2.37.95-3.15,2.54-3.27,5.71-6.13,7.8-9.64,2.5-4.22,3-4.76,7.79-2.8.17.06.59-.61.81-.55,1.86.45,4.24.45,5.46,1.62,3.26,3.12,6,6.76,9.66,11-.65-3.37-1.07-5.6-1.49-7.82l1.73-.7c6.43,9.86,13.49,19.37,19.09,29.68,5.08,9.35,8.59,19.56,12.64,29.45.28.68-.67,1.86-1.15,3.06l24.63,50.74c6.39,5.19,2.65,4.75,2.91,6.4-.92.32-5.06-1.11-6-.79l-4.68,3.41c-4,4-5.07,4.81-6.17,6.15s2.92,5.07,2.92,5.07c2.41.17,5,2,6.23,2.35,0,0,.29-.76,2.21-.37,1.28.25,2.84,1.57,4.47,1.91,4.13.87,10.8,2.64,10.8,2.64l1.88,6c3,.9,6.08,11.64,6,5.87,0-.85,6.67,6.85,6.7,7.39.06,1.37,0,2.75,0,4.13h.77l1-2.31c.36,4.67.71,9.06,1.1,14.05l-11.36-10.64-.51.44,7.39,11.06-1.21,1c-7.06-6.77-14.93-12.61-24.55-13.85-8.48-1.1-21.31,2.06-25.32,11a4.91,4.91,0,0,0,1.17.58c6.16,1.35,12.4,2.42,18.47,4.07,5.59,1.53,11.15,5,15.74-2.6.28,2.72.48,4.58.67,6.44l-3.37.31c3.31,1.81,7.1,3.79,10.8,5.93,4.19,2.42,2.52,4.13-.72,5.33,2.13,4.25,4.42,1.76,7.27.77,6-2.1,8.85.34,8.86,6.74,0,4.33.25,8.68-.05,13-.63,8.83-1.59,17.64-2.35,26.47-.09,1-.14,2-.18,3l-15.24,23.4c-.18.19-3.09,5.55-3.21,6-.7,2.55-2.56,6.1-3.63,8.51-1.91,4.31-4.09,8.5-6.29,12.67-3.62,6.88-6.5,14.35-11.2,20.4a261.09,261.09,0,0,0-27.74,44.18C354.93,427,349.46,437.3,344,447.66c-.29.57-.87,1.51-1.64,2.69a12.23,12.23,0,0,1-7.15,3.12s-19.53,3.6-51.64.89c-16.18-1.37-34.78-10.63-55.86-24.22a256.57,256.57,0,0,1-30.14-22.91l-3.38-3.29a131.8,131.8,0,0,0-13-4.77s-8.43-4.81-8.48-3.28c-.13,4.55,6.57,22.26,6.57,22.26a20.31,20.31,0,0,0,6.15,4.85c4.71,3.84,9.33,3.29,21.45,14.93,4.05,3.88,10.59,10.78,15.15,14.51,5.24,4.3,5.56,3.28,10.42,7.27,6.13,5,11.95,12.64,17.51,18.24l5.78,2.7L249.7,500H500V344a314.87,314.87,0,0,0-64.24-61c.08-.35.16-.71.25-1.06,2-8.06,3.56-16,3.56-24.46,0-3.76-1.51-8.47,2.27-12.08,1.07-1,3-4.09-.7-5.59-.32-.13,0-1.76,0-3l3.74.86c2-2.93,3.56-5.33,5-7.5,2.72,1.61,5,2.94,7.23,4.26.59-.67.45-.52,1-1.2-1.47-1.8-3.25-3.43-4.34-5.43a29.67,29.67,0,0,1-1.93-5.87l9.69-.77c.1-.84.08-.68.19-1.52a35.88,35.88,0,0,1-5-1.73A64.94,64.94,0,0,1,449,213.3a3,3,0,0,1-.44-2.89,42.08,42.08,0,0,1,4.43-4.64l-1.62-.19c-.79-4.06-1.92-8.1-2.27-12.2-.39-4.63,0-9.33-.13-14-.14-4.14-.55-8.28-.92-12.41-.23-2.58,5.57-9,9.38-10.48-.8-2.74-1.6-5.45-2.51-8.53,1.07.24,1.54.33,2,.45s.66.17.8.22c-5.65-14.14-3.7-26.85,7-38.36-1.19.27-2,1.11-2.91,1.25a13.9,13.9,0,0,1-5.38,0c-.6-.15-1.32-2.9-.94-3.21l-2.72-7.17c-2.5-5.46-4.67-11-7.48-16.17-3.73-6.86-8.66-13.1-11.82-20.24a178.8,178.8,0,0,0-13.56-24.24,20.3,20.3,0,0,1-2.24-6.63c-.77-3.49-1.24-7.06-1.84-10.59h-1.09c-.45,3-.9,6.06-1.49,10.07-2.58-2.79-4.93-5.3-7.25-7.83C396.29,14.85,383.62,8.12,372,0H129c-2,1.49-4.12,4.39-5.88,4.17-3.09-.39-5.15.45-7.75,1.68-2.32,1.1-5.36.58-8.06,1-3.43.47-6.83,1.11-11.21,1.84,4.25,5.81-1.29,12.44,5,17.84-2.25,2.21-4.84,4.74-7.44,7.27A22.33,22.33,0,0,0,92,35.31C86.32,42,80.63,48.63,75.13,55.42c-2.63,3.26-4.85,6.85-7.31,10.26-7.27,10.08-9,21.91-11.35,33.73a112.44,112.44,0,0,0-1.75,32.38c.65,6.6-1.35,13.43-2.13,20.16-.56,4.9-.87,9.83-1.67,14.68-.33,2-2.19,3.71-2.44,5.67-.4,3.18,0,6.47,0,9.71-.13,7.36,0,14.74-.61,22.06-.55,6.63-5.48,9.7-11.25,11.73-3.16,1.12-6.25,2.47-9.29,3.9a3.74,3.74,0,0,0,.24,2.36c2.85.56,5.81,1.41,8.62,1.12,2.09-.22,4-2,6.2-3.18,4,4,3.93,9.3,4.48,14.4.21,1.95,0,4.38,1.05,5.73.8,1,2.41,5,4.24,10.28A351.39,351.39,0,0,0,0,280.25V500Z" transform="translate(0 0)"/>
    <path d="M457.71,148.64h0C457.84,148.67,457.82,148.67,457.71,148.64Z" transform="translate(0 0)"/>
    <path d="M176.6,421.35c.51.15,1,.3,1.45.46C177.42,421.6,176.91,421.44,176.6,421.35Z" transform="translate(0 0)"/>
    <path d="M368.64,346.67c-4.82-2.05-9.18-5.12-13.83-7.6-1.33-.71-3.19-1.34-4.53-1-4.65,1.3-9.18,3.06-13.78,4.59a3,3,0,0,1-1.88.1c-2.33-.82-4.55-2-6.93-2.61-9.77-2.37-19.59-4.55-29.39-6.82-3-.69-5.89-1.58-8.89-2.14-6.22-1.16-12.44-2.56-18.72-3.08-4.51-.38-9.13.64-13.7.74a29.71,29.71,0,0,1-5.81-.91c-2.93,1.3-5.9,2.63-8.88,3.94-1.11.49-2.26.93-3.39,1.39.67,1.56,1,3.52,2.09,4.62a93.79,93.79,0,0,0,9.83,8.3,92.67,92.67,0,0,0,8.51,5l1.8-.72c-5.86-2.82-3.29-6.49-1.34-8.45,4.3-4.29,4.07,3.47,7.6,3.31,2.16-4.91,5.22-7.15,9.8-1.85.35.42,1.94.25,2.63-.18,7.24-4.5,7.44-4.51,13.32.83,5.31-3.18,9.58,1.22,13.89,1.53l1.18-3.6,18.47,11.61c3.72-2.27,7.91-4.9,11.75.82.2.3,1.84-.66,2.54-.37,2.43,1,4,4.07,7.39,2.66.23-.1.94.37,1.06.71,1.39,3.68-2.76,13.24-6.4,13.18-7.68-.12-16.2,4.2-22.51-3.47-5.44,3.26-11.65,1.71-16.09-3.57-5.63,1.11-9.58-1.08-12.33-5.89-1,.37-1.72.69-2.48.93-3.77,1.17-7.61,3-10.09-2.26-.34-.73-2.43-1.26-3.39-.94-4.86,1.61-8.35.31-10.32-4.15l-4.43,1-.47,1.19c8,3.47,16,7,24,10.31,1,.39,2.47-.81,3.73-.82,2.11,0,5.39-.49,6.16.62,4.49,6.51,13.06,4.74,18.55,9.88,3,2.79,9.3,2,13.83,2.77l.84-2.27a8.24,8.24,0,0,0,1.09,2c.73.74,1.61,1.78,2.5,1.86,5.57.48,11.17,1,16.75,1a13.48,13.48,0,0,0,7-2c3.76-2.45,6.71-6.48,10.7-8.14,5.62-2.35,8.69-4.94,9.21-11.63.28-3.58,1.35-6.74-.69-10a2,2,0,0,1-.15-.74l4.32-1.14L374.48,344C372.83,345.56,370.21,347.34,368.64,346.67Z" transform="translate(0 0)"/>
    <path d="M297.63,287.91l-.8,1.27c6.09,8.47,15.16,12.35,24.4,15.18-.35,8.25,7.43,13,8.73,20.68,6.58,2.53,12.84,7,21.42,5.33,6.11-1.2,12.6-4.31,14.43-9.88,1-3,2.21-6,3.35-9,.58-1.5,1.55-2.95,1.75-4.5s-.35-3.2-.57-4.81a12.7,12.7,0,0,0-3.67.95c-2.44,1.46-4.55,4.24-7.09,4.63-7.38,1.13-14.48-2.17-20.16-5.72a69.06,69.06,0,0,0-17.5-7.94c-6.1-1.78-12.46-2.64-18.67-4.07A42,42,0,0,1,297.63,287.91Z" transform="translate(0 0)"/>
    <path d="M226,202.91c6,1.4,11.86,2.5,18.34,1.43,6.09-1,12.58.25,18.89.7a64,64,0,0,1,9.65,1.41c4.06.92,7.92,3.18,12.25.62.78-.46,2.5.37,3.65.89,6.87,3.12,13.7,6.32,20.54,9.49l.86-1.48c-5.38-12.74-14.61-21-29.19-23.76l3.74,3.5-14-2,1.86-2.28c-6.8.31-13.11,1.89-19.49,3-9.65,1.71-17.34,11.54-28.7,6l.06,1.42C224.94,202.22,225.4,202.78,226,202.91Z" transform="translate(0 0)"/>
    <path d="M229.21,318l44.15-39.46C263,278.61,230.73,306.83,229.21,318Z" transform="translate(0 0)"/>
    <path d="M392.47,324.55c-3-11.18-3-11.18-4.6-15.06-.17-.41-.37-1-2.05-2.22.86,4.78,2.65,11.49,3.12,15.24L386.82,334a24.8,24.8,0,0,1,3.33,1.53s.28,2.5-.14,14.62c1.37-2.39,3.81-6.06,4.11-7.62a70.51,70.51,0,0,0,1.33-7.9,4.42,4.42,0,0,0-.43-3C394.23,329.18,393,326.49,392.47,324.55Z" transform="translate(0 0)"/>
    <path d="M292.59,224.73l-.25-1.72-42.91-8.09c-.16.53-.33,1.06-.49,1.59,6.13,2.16,12.13,5,18.43,6.31,6.8,1.45,13.89,1.56,20.86,2.16A30.53,30.53,0,0,0,292.59,224.73Z" transform="translate(0 0)"/>
    <path d="M414.3,257.84,409.77,252c-.25.58-.49,1.16-.74,1.73-8.8-2.63-17.85-4.36-26.4-8.59C391,254.05,401.34,258.15,414.3,257.84Z" transform="translate(0 0)"/>
    <path d="M373,211.51a31.37,31.37,0,0,0-1.06-3.17,28,28,0,0,0-1.85-2.79c1,4.31-1.69,9.16-5,10.52C372.39,221.63,369,210.75,373,211.51Z" transform="translate(0 0)"/>
    <path d="M297.55,395.89c7.21,7.27,12.61,7.81,26.44,12.62,4.88,1.7,10-.76,14.39-.28l7.68-8.21C331.25,406.27,297.55,395.89,297.55,395.89Z" transform="translate(0 0)"/>
  </g>
</svg>
