<?xml version="1.0" standalone="no"?>
<!DOCTYPE svg PUBLIC "-//W3C//DTD SVG 20010904//EN"
 "http://www.w3.org/TR/2001/REC-SVG-20010904/DTD/svg10.dtd">
<svg version="1.0" xmlns="http://www.w3.org/2000/svg"
 width="700.000000pt" height="700.000000pt" viewBox="0 0 700.000000 700.000000"
 preserveAspectRatio="xMidYMid meet">
<metadata>
Created by potrace 1.11, written by Peter Selinger 2001-2013
</metadata>
<g transform="translate(0.000000,700.000000) scale(0.100000,-0.100000)"
fill="#000000" stroke="none">
<path d="M320 6993 c0 -3 20 -40 44 -82 24 -42 54 -94 66 -116 13 -22 31 -53
41 -70 10 -16 24 -41 32 -55 8 -14 82 -144 166 -289 84 -144 164 -284 178
-310 14 -25 29 -50 33 -56 4 -5 17 -27 29 -47 28 -51 42 -74 166 -288 59 -102
117 -203 130 -225 12 -22 46 -80 75 -130 29 -49 64 -110 78 -135 21 -38 359
-625 394 -685 55 -93 706 -1220 726 -1255 14 -25 89 -155 167 -290 78 -135
222 -384 320 -555 98 -170 186 -322 196 -337 11 -15 19 -29 19 -32 0 -2 62
-112 138 -243 77 -131 150 -258 164 -283 23 -39 103 -178 128 -220 17 -29 262
-452 279 -484 27 -46 311 -540 394 -683 l71 -123 1164 0 c989 0 1163 2 1159
14 -3 8 -166 292 -363 632 -196 341 -482 835 -634 1099 -152 264 -291 504
-308 533 -18 29 -32 55 -32 58 0 3 -8 18 -19 32 -10 15 -34 54 -52 88 -28 50
-206 359 -239 414 -5 8 -24 41 -42 74 -18 32 -45 79 -60 105 -15 25 -39 66
-53 91 -32 57 -59 103 -124 215 -29 50 -63 108 -76 130 -12 22 -46 81 -75 130
-60 103 -81 140 -111 193 -32 56 -355 616 -411 710 -26 45 -48 87 -48 92 0 6
-4 10 -10 10 -5 0 -10 4 -10 9 0 9 -618 1083 -759 1321 -11 19 -24 42 -28 50
-4 8 -20 37 -37 65 -17 27 -40 67 -51 88 -11 20 -126 220 -255 442 l-234 405
-1163 0 c-640 0 -1163 -3 -1163 -7z"/>
</g>
</svg>
