<svg xmlns="http://www.w3.org/2000/svg" viewBox="0 0 755.15 726.17">
  <defs>
    <style>
      #squall-quistis,
      #serif-alpha {
        fill: #171f29;
        <!--
        fill: #2c3e50;
        -->
      }
      .cls-1 {
        opacity: 0.75;
      }
    </style>
  </defs>
  <title>business</title>
  <g id="squall-quistis">
    <g>
      <path d="M.5,518H201V430.09l-.84-.06c-1.53,5.56-2.83,11.19-4.68,16.64a24.28,24.28,0,0,0-.29,14.61A136.31,136.31,0,0,1,197.76,476a2.63,2.63,0,0,1-1,2.19c-5.62,3.07-11.3,6-17.55,9.28-2.61-5.5-5.42-11.11-7.95-16.85a83.58,83.58,0,0,1-3-9,7.51,7.51,0,0,1-.42-2.42c.13-6.5.28-13,.51-19.5a12.38,12.38,0,0,1,.8-3.62c2.11-6,4.28-11.89,6.51-18.05l-3.25-.69c.36-3,.5-6.13,1.14-9.1,1.71-7.9,1-15.74-.21-23.57-2.28-15-2.56-30.19-3.38-45.33-1-19.21-2.19-38.42-3.34-57.63-.85-14.22-1.78-28.44-2.68-42.65-.11-1.82-.28-3.62-.43-5.53h-5.17c.38-.7.81-1.45,1.2-2.22l7.22-14.25.78.29q-1.34,7.5-2.66,15h4.27c3.14-7.47,4.59-15.36,5.88-23.32.66-4.1,3.47-7,7-9,.27-.17.69-.09,1-.13,0,.43.19.94,0,1.26-1.33,2.45-2.82,4.81-4,7.3a11.85,11.85,0,0,0-1,4c-.58,5.9-1,11.8-1.58,17.7-.11,1.23.23,2.35,1.52,2.23.72-.06,1.5-1.05,2-1.8,1-1.5.52-4.22,3.72-3.76.44.06,1.27-1.87,1.75-3,.59-1.33.89-2.78,1.54-4.07.24-.47,1.13-.58,1.68-.93s1.16-.6,1.32-1.06c.9-2.68,1.67-5.41,2.5-8.12.22-.73.47-1.45.75-2.32,3.23,3.3,2.35,6.84,1.36,10.5,12.57-11.36,25.72-21.95,35.63-35.93-.82-.59-1.36-1.27-2-1.39-4.23-.8-4.66-5.4-7.64-7.61l-.7,4.44-.65.15c-2.62-4.88-2.44-10.62-4.14-15.79-1.77-5.36-2.82-10.95-4.33-17-3.09,8.87-6,17.18-8.89,25.49l-.37-.11c.51-3.21,1.11-6.4,1.51-9.62.43-3.51.59-7.06,1.06-10.56.16-1.19,1.29-2.29,1.31-3.44a35.35,35.35,0,0,0-.54-7.7c-.85-4.22-2.07-8.36-3.22-12.89l-20.69,13.22-.64-.69a17.8,17.8,0,0,0,2.08-1.43c5.41-4.82,10.74-9.73,16.21-14.49a3,3,0,0,0,1-3.84c-.45-1.31-.87-3.22-.26-4.21,3.26-5.34,2.72-10.84,1-16.33C198.72,93,199,88.18,202,83.66a1.73,1.73,0,0,0,.1-.24C208,70.75,208,70.78,219.51,62.54c3.42-2.45,6.63-5.18,10-7.69a22.81,22.81,0,0,1,12-4.58c12.13-.86,24.28-1.44,36.43-2.06a3.51,3.51,0,0,1,2.35,1q11,10.76,21.82,21.67a10.9,10.9,0,0,1,2.31,3.77c1.59,4.29,3.16,8.59,4.41,13a18.45,18.45,0,0,0,5.38,8.73c5.91,5.51,7.08,8,9.63,18.33l-7.6-8.34c-3.11,1.59-2.06,4.44-2.26,7.4l-.9-2.27-.8-.12-1.19,4c-1.82.2-2.43,1.09-1.73,3.26a18.79,18.79,0,0,1,.57,5.63c0,2.64-4.78,4.83-6.92,3.69.5-3.49,1-6.79,1.44-10.08l-.48-.56c-.66.51-1.82,1-1.91,1.55-.57,4.14-.94,8.31-1.32,12.47a4.16,4.16,0,0,0,.37,1.39l2.94-1.41.69.77c-.55.7-1.06,2-1.65,2-3,.23-2.69,2.29-2.62,4.28,0,.49.06,1,.09,1.49l4.32-1.48.58.64c-.56,2-1.06,4-1.71,5.94a6,6,0,0,0,1.85,5.94c1.19,1,3.27,2.29,3.14,3.19-.45,3-1.14,6.36-4.28,7.85-1.84.88-2.24,2-1.76,4.41,3.37.53,7,1,10.66,1.73a16.61,16.61,0,0,1,3.18,1.49,5.18,5.18,0,0,0,1.77.44,23,23,0,0,1,4.58.39c-4.92,2.22-10.73-.23-15.73,3.28l3.66,2.16a44.43,44.43,0,0,0-4.44,2.05,10,10,0,0,0-3.05,2.62c-1.9,2.73-3.55,5.64-5.37,8.43a2.31,2.31,0,0,1-1.44,1c-2.36.18-4.73.2-7.09.28-1.61.05-2.93.13-3,2.43s-1.29,4.28-1.33,6.43c-.09,5,.34,10,.33,14.94a19.66,19.66,0,0,1-1,6.24c-2.35,6.94-4.95,13.8-7.4,20.7-1.08,3.05-.32,4.1,3.18,4.49,3.2-10,2.82-20.94,8.13-30.45.22,2.22.52,4.43.63,6.65a62.68,62.68,0,0,1,0,7c-.15,2.28-.88,4.55-.85,6.81.07,4.11.8,8.21.73,12.31-.08,4.37,2.9,5.1,5.47,5.86.56-4.18,1.09-8.42,1.73-12.63.15-1,.89-2,.94-3a10,10,0,0,0-.45-4.6c-1.58-3.24-1.54-4.59,1.72-7.88,0,3.57-.14,6.55.05,9.51.1,1.46.87,2.87,1.19,4.34.71,3.34,1.31,6.71,2,10.06a8.62,8.62,0,0,0,.77,2.05c1.16,2.34,1.06,4.44-1.14,6.16,2.88,2.09,2.83,2,5.38-.35,3.38-3.15,6.81-6.26,10.31-9.27,1.64-1.42,1.36-3.12,1-4.79-.55-2.85-.61-3,1.45-6.16l3,5.63c2.48-2.15,4.88-4.19,7.23-6.28,4.09-3.64,8.12-7.33,12.22-11,2.58-2.29,5.13-4.64,7.88-6.74a61.32,61.32,0,0,1,6.45-4c2.59-1.5,2.7-2,1.61-4.87-2.1-5.54-4.09-11.13-6.1-16.7-.1-.27,0-.62.53-1.19l10.95,18.1,10.57-5.42a5,5,0,0,0,.53.48c9.74,6.8,14.82,16.66,19.49,27.3,7.77,17.7,12.48,36.32,18.35,54.59.91,2.85,1.55,5.81,2.62,8.59,2.64,6.79,3.2,13.85,3.39,21,.5,18.82,1.56,37.64,1.73,56.46.12,12.48-.82,25-1.43,37.44q-.75,15.36-1.89,30.68a19.32,19.32,0,0,1-1.88,7.09c-3.91,7.81-8.17,15.45-12.12,23.24a9.73,9.73,0,0,0-1,5.16c1.14,10.68,2.51,21.34,3.74,32a8.08,8.08,0,0,1-.32,2.92c-.52,2-1.17,4-1.86,6.26H525v46.53H614.5V729H.5ZM251.7,134.26c-.22-.13-.64-.26-.64-.41-.08-1.66,0-3.34-.14-5-.24-2.84-.6-5.67-.92-8.51-.15-1.21-.38-2.42-.5-3.63-.15-1.54-.28-3.08-.32-4.62,0-2.1.19-4.08-2.77-4.73-1.82-.4-3.38-1.89-5.13-2.71-1.18-.55-2.7-1.4-3.71-1.05a33.31,33.31,0,0,0-6.28,3.41c-.84.5-1.39,1.63-2.25,1.89-2.07.65-2.28,1.51-.87,3a13.47,13.47,0,0,1,1.61,2.16c.25.42.44,1.36.3,1.44-2.12,1.19-.43,2.21,0,3.36.93,2.3,3.49,4,2.72,7l-1.69-.31,2.94,5.59-.75.73c-1.09-.73-2.6-1.22-3.19-2.24-2.22-3.83-2.83-4.07-6.27-1.11l-2.08-7.17-1,.32c.88,3.19,3,6.7,2.33,9.47-1,3.8,2.13,7,.66,10.1-1.3,2.77-.67,5.82-1.58,8.57l-.64-.11-2.4-10.32a9.15,9.15,0,0,0-.57,2.5c.32,2.84.82,5.66,1.14,8.5.25,2.17.83,4,3.43,4.06a8.85,8.85,0,0,0,3.16-.59,4.42,4.42,0,0,1,5.92,2.41c1.13,2.25,2.63,4.32,3.87,6.52.89,1.59,2.33,3.28,2.31,4.92,0,5.76.76,11.22,3.58,16.32a14.94,14.94,0,0,1,.88,3.08L238,183.63c-1.49,4.15-4.41,7.42-3.24,11.8.05.2-.08.45-.1.67a26.62,26.62,0,0,0-.41,4.76c.28,3.47.81,6.92,1.24,10.37l-.92-.3a37.57,37.57,0,0,0-4.23,2.58c-1.21,1-1.62,4.84-.64,5.3,4.14,1.9,5,5.73,5.87,9.56a2.94,2.94,0,0,0,4,2.29c2.52-.84,4.89-1.27,7.34.23.4.25,1.41-.18,2-.56,3.33-2.2,6.47-4.72,9.95-6.66,2.05-1.14,3.65-2.59,3-4.62-.55-1.63-1.8-4.19-4.74-2.63-.28.15-1-.16-1.29-.45-1.62-1.44-.43-2.18.77-3,2.45-1.65,4.85-3.37,7.29-5a3.54,3.54,0,0,1,1.48-.82c4.15-.29,5.82-3.82,8.16-6.35,1.37-1.49,2.14-3.54,3.2-5.32,1.19-2,2.41-4,3.62-6l-.56-.53-8.61,2c3-2.8,5.69-4.81,7.74-7.33a12,12,0,0,0,2.41-9.92l-3.94,2.4-.44-.69a41.11,41.11,0,0,0,3.89-3.92c.93-1.2,2.22-2.83,2-4.08-1.07-7.27-2.45-14.5-3.88-21.71-.64-3.23-1.64-6.4-2.4-9.31-2.93.4-5.5.88-8.09,1-1.55.11-2.14.7-1.95,2.14.55,4.13,1.23,8.24,1.7,12.38.41,3.62.59,7.27.87,10.9l-1.08.28c-.83-2.33-1.79-4.62-2.46-7-.53-1.86-.66-3.83-1-5.75-.48-2.46-1-4.92-1.52-7.37a4.22,4.22,0,0,0-.55-1.6c-1.53-2-.86-5.34-3.88-6.45-.09,0,0-.47-.06-.72-.17-3-.32-5.93-.51-8.89-.05-.74-.25-1.47-.37-2.2a3.73,3.73,0,0,0-1.09,2.56c.09,3,.25,5.93.51,8.88a3.44,3.44,0,0,0,1,2.09c2.58,2.21,3.59,5.56,2.38,9.47-.4-1.23-.65-2-.92-2.86-.52-1.54,0-3.43-2.15-4.39a5.22,5.22,0,0,1-2.73-3.23c-.78-4.34-1.11-8.77-1.62-13.16-.08-.61-.2-1.21-.3-1.81l-.74,0-.3,13.57Zm12.78,107.23-.9-.38c-.34-3.6,4.92-5.88,2.79-10.3-.94,1.23-1.64,2.27-2.47,3.19q-2.76,3-5.64,6a61.66,61.66,0,0,1-5.57,5.4c-2,1.61-4.4,2.77-6.53,4.27-2.39,1.68-2.93,4.12-3.38,7-.94,5.92-2.82,11.69-4.08,17.57a55.31,55.31,0,0,0-1.08,9c-.11,2.37.84,4.94.21,7.1-.92,3.14.5,4.68,2.6,6.17,3.8,2.69,4.6,6.26,2.25,10.18-.29.48-.35,1.14-.7,1.55-.84,1-1.71,2.46-2.73,2.62a4.08,4.08,0,0,1-3.31-1.72,57.6,57.6,0,0,1-3.9-8.62,4.59,4.59,0,0,1,.14-3.65c1.9-2.71,1.26-5.47,1.1-8.39-.28-5.23-.3-10.48-.1-15.71.13-3.33.87-6.64,1.32-10,.42-3.07.93-6.14,1.19-9.24a9,9,0,0,0-.5-4.46c-.92-1.87-2.56-3.37-3.68-5.17-2-3.26-3.88-6.62-5.81-9.94-1.67-2.89-3.21-5.81-3.24-9.3a7.6,7.6,0,0,0-.67-2.18l-.72-.21-2.19,3.24c-1.21-1.32-2.6-2.93-4.09-4.44-1.13-1.14-2.17-.48-2.72.6a6.51,6.51,0,0,0-.55,2.85c-.05,4.93-.15,9.87,0,14.79s.59,9.54,1,14.3c.2,2.44.72,4.86.9,7.31a96.66,96.66,0,0,1,.49,11.14A79.22,79.22,0,0,1,212.47,283c-1.26,6.86-1,13.83-1.27,20.74-.11,3.35,1.67,6.87,3,10.14.87,2.1,2.53,3.87,4,6H215c.61,1.35,1.06,2.36,1.65,3.68a43.46,43.46,0,0,0-4.49-1,2,2,0,0,0-1.54.85c-.17.28.26,1,.54,1.48.53.82,1.65,1.59,1.64,2.37,0,2.5,1.66,3.34,3.41,4.31,1.33.73,2.6,1.57,4.31,2.63-2.33.57-4.06,1.42-5.72,1.29-1.83-.14-3.58-1.19-5.34-1.83-1.39,3-.33,4.84,1.44,6.51.55.51,1.36,1,1.46,1.65.56,3.31,3.28,4.45,5.67,6,.55.34,1.06.76,1.61,1.1,4.3,2.67,8.54,5.51,13.57,6.67,5.31,1.23,10.66,2.3,16,3.54,3.91.91,7.74,2,11.84.92,3.46-.87,7-1.38,10.53-2,2.89-.52,5.84-.81,8.66-1.57,1.43-.39,2.56-1.78,4-2.37,2.09-.88,4.33-1.38,6.46-2.17a8.57,8.57,0,0,0,1.92-1.37l-.25-.51-29.75-1.23c0-.6-.06-1.09-.07-1.57q-.25-29.7-.51-59.41c0-.81-.34-1.63-.28-2.43.22-3.16,0-6.51.93-9.43,2.38-7.07,5.42-13.92,8.07-20.91,2.53-6.68,4.76-13.49,7.4-20.12.75-1.89-.42-2.71-1.23-3.56-.4-.41-1.88.14-2.84.37-3.93.93-3.92,6.31-8.06,7.18C265.33,239,265,240.59,264.48,241.49Zm-5.16,406.84V608.94H251v-2.86q0-16.12,0-32.24c0-1.42-.15-2.47-2-2.35s-1.53,1.4-1.53,2.53q0,16.11,0,32.24V609c-1.18,0-2,0-2.84,0-2.26-.14-3.23.87-3.18,3.15.08,3.83,0,7.65,0,10.87l2,2.23a9.61,9.61,0,0,1-2.54,1.69,15.57,15.57,0,0,1-3.82.07c.56-1.79,1.26-3.09,1.32-4.42.16-3.74.17-7.5,0-11.24,0-.81-1.2-2.2-1.88-2.23-5-.19-9.93-.1-14.84-.1v39.85h4.87V624.08h4.58c.44.94.83,1.75,1.27,2.68-.27.08-.56.17-.85.24a2.37,2.37,0,0,0-2,3,2.32,2.32,0,0,0,2.76,2c1.25-.06,2.5,0,3.75,0,1.7-.06,1.72.73,1.07,2.1h-9.44c-.29,3.44.12,3.9,3.37,3.91h5.54c-.17.79-.1,1.65-.46,1.88-1.69,1.13-3.5,2.09-5.25,3.12a7,7,0,0,0-2.21,1.5c-.21.31.44,1.35.85,2,1.35,2,2.92,2,4.78.58s4.89-2,5.69-5.3c1.35.45,2.91.56,3.9,1.38,1.73,1.42,3.72,2.61,3.7,5.59-.13,23.74-.07,47.48-.07,71.22v2.9c3.49.32,3.5.32,3.5-2.87v-70.8ZM517.39,522.15H7.52c0,2.93,1.88,2.86,3.83,2.86h506ZM310.72,614.71c-5-1.27-10.32,2-15.58-1.13l5.88-1.66-3.42-3.85c2.76-.19,5.51-.52,8.26-.52,2.14,0,3.12-1.13,3-2.94-.07-1.56-.74-2.91-3-2.66-3.2.36-6.43.34-9.64.57-1.9.13-2.73-.29-2.88-2.54-.33-4.82-1.42-5.38-6-3.9-.13,0-.22.22-.37.39l.52,6.48c-3.06.2-5.69.47-8.33.53-4,.08-4,0-4.26,4,0,.14-.15.28-.38.73l-2.8-.93c-.68,1.63-1.43,3.3-2.09,5-.77,2-1.38,4.07-2.2,6a36.72,36.72,0,0,1-2.83,5.85c-2.68,4.13-3,4.66.53,9,.65-1.06,1.26-2.05,2.15-3.48.08,1.28.16,2,.16,2.83,0,4.5,0,9,0,13.5a3.54,3.54,0,0,0,.69,2.12c1.85,2.14,4.67,1.12,5.63-2l3.67,2c1.77-3,3.58-6,5.3-9,.31-.55.53-1.62.23-1.94-1-1.07-1.88-2.71-3.67-2-.78.31-1.37,1.32-1.85,2.12-1.16,1.95-2.19,4-3.28,5.94l-.54-.34v-8.34c1.21.18,2.57.83,3.23.4,2.82-1.85,5.66-.35,8.66-.91v14.88h4.9c0-4.5,0-8.82,0-13.15,0-1.51.88-3,2.08-2.5,2.4.92,5.44-1,7.36,1.74.12.16.71.16,1,0,1.23-.7,2.43-1.48,4-2.43-.61-.33-1-.41-1.1-.62-1.92-3.19-3.09-6.86-6.26-9.23a1.62,1.62,0,0,1-.28-1.5,2,2,0,0,1,1.32-1.11c3-.26,5.93-.48,8.9-.53C312.5,619.44,312.5,619.5,310.72,614.71Zm2.9,55.54.67,0a6,6,0,0,1-.35.92,3,3,0,0,1-4.69,1.09c-1.16-.95-1.79-2.33-.2-3.69a2,2,0,0,0,.43-1.33c0-3.25.17-6.51-.08-9.74-.07-.89-1.28-2.4-2-2.43-4.88-.22-9.77-.12-14.78-.12,0,.65-.09,1-.09,1.44,0,11.91,0,23.82,0,35.72,0,1.26.3,2.22,1.6,2.27s2.7.15,3-1.67a19.05,19.05,0,0,0,.42-2.88c0-6.72,0-13.44,0-20.27h4.66l1.26,3.16c-1.3.62-3.49-.64-3.42,2s1.94,2.23,3.6,2.24h4.84l.29,1a7,7,0,0,1-2.18,1,52.33,52.33,0,0,1-5.74,0c-1.47-.05-2.35.24-2.35,2s.87,2.07,2.35,2c2.11-.07,4.23,0,6.44,0-.3,5.33-6.08,3.86-7.75,7l2.12,3.48c3.86-.55,6.56-2.73,8.95-5.51a2.53,2.53,0,0,1,2.26-.68,10.44,10.44,0,0,1,3.58,2.51c1.48,1.74,2.82,2.3,4.55.26a5,5,0,0,1,.51,1.11c.44,2.93,1.22,3.52,4.52,3.38,2.86-.12,4.49-1.55,4.5-4.11,0-11.08,0-22.15,0-33.22,0-1.62-.54-2.22-2.17-2.19-4.49.07-9,.09-13.49,0-1.77,0-2.36.75-2.36,2.32,0,2.75-.13,5.51.05,8.24A29.21,29.21,0,0,0,313.62,670.25ZM362.39,479.9c4.75-5.52,5.84-11.3,3.08-17.81-1.33-3.13-2.28-6.43-3.35-9.66-2.16-6.55-5.14-13-6.27-19.7-3.05-18.13-5.54-36.36-7.77-54.61-1.47-12-2.1-24.05-3.11-36.08-.36-4.33-.74-8.67-1.13-13.28L337.11,336a48.06,48.06,0,0,1,.87,5.49c.43,7.39.59,14.81,1.12,22.2.66,9,.87,18.2,2.55,27.06,3.94,20.91,7.3,42,13.34,62.43C357.58,462,359.88,470.82,362.39,479.9Zm245,88.76H251.45l.24,2.21H607.4ZM362,659.45c2.05-.26,4.82-.56,7.56-1a1.92,1.92,0,0,0,1.37-1.06c.34-1.5-2.43-3.91-4-3.61-2.21.44-4.43.87-6.65,1.22a74.51,74.51,0,0,1-7.55,1c-2.34.12-4.73.63-6.63-1.89-1.34-1.76-3.79-.9-4.5,1.15-1.9,5.46-3.67,10.94-7.06,15.77-2,2.87-1.44,4.75,1.4,6.85l2.39-2.67c.06,1.19.14,2,.14,2.73,0,4.58.05,9.17,0,13.75,0,2.1,1.33,2.65,2.95,2.82s2.76-.28,2.63-2.29c0-.4.56-.84.87-1.27,2.62,2.17,3.44,2.22,5.14-.3a39.83,39.83,0,0,0,3.9-7.28c.7-1.74-1-2.28-2.32-2.87s-2-.07-2.65,1.12c-1.25,2.36-2.63,4.65-3.95,7l-.72-.31V679.1c3.89,1.86,7.77-.64,11.76.8.13,3.59.4,7.46.36,11.32,0,2,.61,3.2,2.68,3.26,2.28.07,2.91-1.34,2.88-3.37,0-3.91,0-7.82,0-11.77a8.41,8.41,0,0,1,2.48-1c1.58-.1,3.49-.42,4.71.3,3,1.76,3.33,1.9,5.88-1.19-.83-1.41-1.7-2.88-2.55-4.36-1.63-2.79-3.28-5.53-7.5-3.92l5.08-4.1L365.62,662l-8.06,7.68L355.78,668ZM298.65,404c-3.12-1.51-7-1.31-9.45-4.5a1.77,1.77,0,0,0-1.27-.44c-1.57,2.21-4.94,2.2-6,5.12a21.43,21.43,0,0,1-3.15,5.72c-2.46,3.1-1.07,8,2.89,8.52s8,.45,11.83.63c.71-1.16,1.42-2.23,2-3.34,1-1.81,1.89-3.71,3-5.44a35.94,35.94,0,0,1,3.85-4.83,2.1,2.1,0,0,1,2,.34c1.5,2.21,2.71,4.6,4.21,6.79A4,4,0,0,0,311,414c2.84.56,4.47-1.69,6.35-3.12,4.38-3.33,7-7,4.06-13.3a41,41,0,0,0-7-9.69c-1.3-1.42-3.2-3-5.72-2.4a19.82,19.82,0,0,0-12.41,8.84c-1.43,2.14-.81,2.8.94,3.58C300.33,399.24,300.83,401.14,298.65,404ZM111.4,642c-4.82,0-9.4,0-14,0-2,0-2.93.83-3,2.88s.75,3.15,3,3.14c11.41,0,22.82,0,34.24,0,.64,0,1.66-.24,1.84-.66a6.57,6.57,0,0,0,.81-3.73c-.18-.71-1.82-1.48-2.82-1.51-4.62-.16-9.25-.07-13.86-.07v-8h12.68v-5c-3.51,0-6.83,0-10.16,0-1.52,0-2.51-.67-2.61-2.17-.13-1.87,0-3.77,0-5.84h10.74c4.3,0,4.58-.33,4.06-4.79-4.85-1-10.09,1.14-14.94-1.65V608h-2.17c-3.46,0-3.68.21-3.69,3.61v4.75l-5.88-1.48c.09-1.78.84-4,.1-4.76-1.06-1.06-3.22-1-4.57-1.38a25.57,25.57,0,0,0-1.57,3.79,24.86,24.86,0,0,1-4.66,9.61,3,3,0,0,0,.57,4.33A2.23,2.23,0,0,0,99,626c.94-1.2,1.72-2.52,2.67-3.7.42-.53,1.07-1.19,1.65-1.21,2.7-.13,5.41-.06,8-.06v8.05H97.61V634H111.4Zm-26-23v-5H73c-1.55-2.38,1.58-6.52-3.11-6.86-5.62-.41-2.33,4.54-4.06,7.37-1.62-.54-3.44-1.1-5.18-1.83a19.1,19.1,0,0,1,.7-2.92l-5.3-.87c-.63,1.73-1,3-1.56,4.17a48.92,48.92,0,0,1-3.23,6.77c-.89,1.38-1.14,2.24,0,3.46a6.35,6.35,0,0,1,1,1.69c-1.62,1.31-3.63,2.19-3.64,3.1,0,2.38,2.2,2,3.86,2h6.81c1.24,9.45-3.2,11.48-9.86,14.4,0,.69,0,1.44,0,2.18A2.54,2.54,0,0,0,52.87,649c1.8-.63,3.89-1,5.27-2.14,3.84-3.22,7.23-6.91,7.34-12.38.1-4.44.47-4.82,4.71-4.21,2.09,3.16,1.12,6.66,1.29,10,.09,1.66,0,3.33,0,5,0,1.9.88,2.79,2.78,2.78,3.5,0,7,0,10.5,0a4,4,0,0,0,2-.9c2.81-2.07,3-5.09,2.61-8.15-.1-.71-1.25-1.6-2.07-1.83a16.07,16.07,0,0,0-3.91-.08v6a18.57,18.57,0,0,1-4.46-.09c-.93-.25-2.29-1.28-2.35-2-.24-3.54-.11-7.1-.11-10.92H89.31v-3.73c-5.68-1-11.45,1.12-16.64-1.45V619Zm-78,103.93V525.1H4.63V722.89Zm332.08-98.67c-1.56,1-3.21,1.63-4.21,2.82a4.51,4.51,0,0,0-.49,3.56c.17.63,1.57,1.22,2.48,1.34a44.94,44.94,0,0,0,5.35.06v-4.74l4.79,5.37,3.43-4.08-11.5-13.36c1.92-3.76,4.25-8,6.26-12.43.92-2-1.09-4.72-3.34-4.74q-11.37-.07-22.75,0a2.33,2.33,0,0,0-1.81.86c-1.25,2.58.15,4.6,3.05,4.6h18.5a38.73,38.73,0,0,1-1.67,3.84c-2.83,4.95-6.16,9.6-10.75,13a88.08,88.08,0,0,1-10.59,6.24c-1.35.75-1.52,1.74-.92,2.81a25,25,0,0,0,2.47,3.14c1.32-.56,2.38-1.43,3.39-1.37a73,73,0,0,1,7.46,1.25c0-2.53-.67-4.77.15-6.07,1.42-2.25,3.76-3.91,5.72-5.83l4.87,3.55C339.49,624.21,339.59,624.46,339.42,624.22ZM527.35,661l.26.75c-2.66,2-5.38,3.84-8,5.89-3.08,2.45-6,5.05-9.07,7.57-1.09.92-1.75,2-.43,3.09,1.06.84,1.58,3.39,3.87,1.48A24.44,24.44,0,0,1,532.74,674c4.47.43,8.27,4.5,5.21,9.16a8.8,8.8,0,0,1-5.11,3.21c-3.5.75-7.17.75-10.75,1.16-.71.08-1.79.45-2,1-.7,1.93,1.24,4.51,3.34,4.48a38.57,38.57,0,0,0,7.14-.52c5.15-1.09,10.28-2.05,12.76-7.94,2.69-6.4-1.16-14.06-8.18-15-3.26-.42-6.58-.4-10.19-.6,4.07-2.67,8.13-5.3,12.12-8,.56-.38,1.28-1.48,1.11-1.8-.94-1.69-1.89-3.59-4.24-3.61-5.83,0-11.66,0-17.49,0a2.42,2.42,0,0,0-1.84.82c-1.27,2.45.11,4.62,2.83,4.64Zm-324-39v10.14c-4.72-.41-9-.37-12.27,3.82-2,2.59-2,4.59,0,7.19,2.54,3.29,5.58,4.55,9.57,3.91a3.13,3.13,0,0,1,.75,0c3.66.26,5.66-1.47,7.13-4.74.36-.8.85-1.54,1.21-2.18l6.76,5.13c.68-1.71,2.24-4.23,1.76-4.71-1.67-1.67-2.7-4.21-5.65-4.64a4.31,4.31,0,0,1-2.93-2.84,110.53,110.53,0,0,1-.14-11.13h7.86V617h-7.46l-1.3-7.84c-5.08-.26-5.11-.23-5.11,4.33v3.66H190.62V622ZM455.15,603.5a8.9,8.9,0,0,1-.68,2.51,113.75,113.75,0,0,1-7.42,10.57,36.48,36.48,0,0,1-14.64,10.24c-1.29.51-2,1.21-.81,2.56a3.6,3.6,0,0,1,.74,1.27c.63,1.91,2,2,3.43,1.21a35.35,35.35,0,0,0,5.19-3.12c3.4-2.59,6.67-5.34,10.53-8.47,3.12,3.11,6.57,6.31,9.71,9.77,2.29,2.53,3.23,2.67,5.13-.2a18.46,18.46,0,0,0,1.17-2.48c-3.49-3-7-6.14-10.55-9.14-2.29-1.92-2.31-2.29-.71-4.79,2-3.07,3.83-6.23,5.5-9.48a3.93,3.93,0,0,0-3.62-5.92q-11.13-.12-22.25,0a3,3,0,0,0-2.11,1.53c-1.08,2.32,0,3.88,2.61,3.89C442.53,603.51,448.68,603.5,455.15,603.5ZM50,574l8.31,8.22c.16.17.24.57.39.58,1.19.11,1.71.62,2,1.87a2.89,2.89,0,0,0,2.6.94c3.65-2.27,3.7-3.6.6-6.63a5.91,5.91,0,0,0-.48-.52c-2.75-2.13-4.43-5.41-7.87-6.86-1.35-.58-1.51-2.07-.58-3.66,2-3.4,3.76-6.93,5.51-10.46,1.57-3.17.11-5.46-3.38-5.48H32.65v5H54.88c-5.25,11.4-12.73,19.86-24.66,24.38.52,1.56,1,3.06,1.67,5C39.61,584.56,44.72,579.34,50,574Zm21.6,10.82H102.5c0-10.24,0-20.31,0-30.38,0-1.84-1.14-2.45-2.85-2.45Q87,552,74.4,552c-2,0-2.9.88-2.92,2.91s.76,3.15,3,3.12c4.33-.06,8.66,0,13,0h9.87v22.06H71.62ZM356.29,614c4.75,0,9.41,0,14.06,0,1.62,0,2.26.55,2.17,2.18-.28,5-2.6,10.05-8.31,12.19-1.51.57-2.46,1.15-1.62,2.63s1.72,3.27,3.76,2.29a33.21,33.21,0,0,0,6.64-4.09c4-3.29,5.05-8.09,5.44-12.94.16-2,1-2.3,2.63-2.26,3.75.07,7.49-.05,11.23,0,1.53,0,2-.65,2.21-2,.33-2.69-.44-3.55-3.28-3.55-10.23,0-20.47,0-30.7,0-4.67,0-4.63-1.13-4.48,4.76A3.33,3.33,0,0,0,356.29,614Zm51.46,71.51c2,1.13,3.88,2.08,5.65,3.19,2.61,1.63,2.41-1.52,3.67-2.19a3.41,3.41,0,0,0-.75-2.27,40.07,40.07,0,0,0-6-3.2c-1.92-.83-3.08-1.84-2.83-4.19.23-2.14-.07-4.34.08-6.49s-1-2.44-2.74-2.4-3,0-2.82,2.31,0,4.75,0,7.21a13.63,13.63,0,0,0-11.38,1.72c-3,1.89-4.07,6.77-2.25,9.39,2.79,4,6.88,5.08,11.34,4.32A9.28,9.28,0,0,0,407.75,685.51ZM473,666a39,39,0,0,1-1.06,4.62c-2.3,6.25-4.7,12.46-7,18.71a2.28,2.28,0,0,0,0,1.76,3.27,3.27,0,0,0,5.61-.24,11.65,11.65,0,0,0,1-2c2.25-6.76,4.55-13.5,6.67-20.3.53-1.68,1.3-2.21,3-2.11,2.41.15,4.84-.09,7.24.08,2.17.16,2.72-.72,2.67-2.74,0-1.86-.23-3-2.56-2.85-2.63.2-5.27,0-7.95,0a16.42,16.42,0,0,1,0-2.57c.63-3.29.47-3.64-3.61-4-.55-.05-1.33,2-1.92,3.06-.17.33,0,.84-.06,1.24-.31,1.38-.86,2.42-2.62,2.29s-3.67,0-5.5,0c-1.42,0-2.44.14-2.38,2,0,1.65.2,3,2.33,3ZM169.5,550.09v8.72q0,12.12,0,24.23c0,2,2.33,4.55,3.55,3.86,2.62-1.49,5.16-3.13,7.67-4.8,4.92-3.26,7-8.63,9.64-13.51.21-.39-.36-1.47-.85-1.94a37.61,37.61,0,0,0-3.38-2.62,3.71,3.71,0,0,0-.61.89c-.41,1.24-.49,2.69-1.18,3.74-2.6,4-4.73,8.42-9.91,10.3V550.09Zm254,107.15c0,2.53-.13,5,0,7.5.34,5.73-1.08,11.57,1,17.16a41.53,41.53,0,0,0,3.57,8.21c2,3.07,4.87,3.11,7.26.85s3.78-5.28,5.15-8.26c1-2.06.18-3.28-1.58-4.2-.7-.37-1.43-.68-2.08-1-1.14,2.31-2.16,4.5-3.31,6.62-.3.56-1,.9-1.51,1.34a12.08,12.08,0,0,1-1.11-1.7c-2.85-6.81-2.41-14-2.44-21.16,0-4.66,0-4.66-4.42-5.25Zm-13-39.88c0,4.86.09,9.42,0,14-.07,2.4,1.39,2.13,2.93,2.18s2.69-.12,2.65-2.22c-.12-5.15.11-10.32-.1-15.47-.11-2.66,1.17-4.12,3.16-5.34.48-.3,1-.51,1.48-.85,4-3,4.14-5.58.45-7.33a2.38,2.38,0,0,0-.56-.09,51.45,51.45,0,0,1-21.61,14.63c-2.13.75-2,2.14-1.08,3.61s2,2,3.76,1.07C404.37,620.05,407.33,618.82,410.5,617.36Zm-25.37,47.83a10.38,10.38,0,0,1-.55,2.46c-1.74,3.49-3.48,7-5.4,10.38-1.1,1.94-.64,3.22,1.06,4.38,1.9,1.3,3,.08,3.71-1.37,2.15-4.25,4.32-8.5,6.13-12.9,1-2.38,2.14-3.63,4.81-3.17,1.13.19,2.33-.05,3.48,0,1.92.17,2.2-.88,2.16-2.45s0-2.64-2-2.62a39.48,39.48,0,0,1-5.25-.63c.41-1,.72-1.61,1-2.29.41-1.12.74-2.68-.81-2.71S390,651.83,389,655c-.31,1-.68,2-1,3-.44,1.39-1.15,2.24-2.84,2.08s-3.61,0-5.38,0C379.13,664.66,379.13,664.66,385.13,665.19Zm180.92,29.29c4,0,7.9.1,11.75-.05,1.49,0,2.2-1.22,2.2-2.74,0-9.16,0-18.32,0-27.48,0-2.27-1.36-2.78-3.44-2.77-2.24,0-2.06,1.35-2.06,2.82,0,7.57,0,15.15,0,22.73,0,2-.63,2.68-2.59,2.54s-3.92,0-5.9,0ZM35.5,613.92c2.44,0,4.74.57,6.53-.14,2.48-1,1.28-3.58,1.41-5.62H30.66v32.69c4.69.39,4.84.25,4.84-4.17ZM278.5,659c2.4,0,4.41-.12,6.4,0s2.59-.76,2.63-2.58-.55-3-2.67-3c-2.92.07-5.84.15-8.75,0-2.17-.13-2.67.73-2.65,2.74.09,9,.07,18,0,27,0,1.87.22,2.89,2.54,2.9s2.56-1.06,2.52-2.91c-.09-3.58,0-7.16,0-10.74ZM152.87,587.41c1.63-1.72,2.81-3.2,4.22-4.41,3.19-2.73,6-6,6.27-10.13.49-7.18.14-14.42.14-21.72h-4.81c-.85,6.28.47,12.47-1,18.67-.87,3.63-1.76,6.79-4.7,9.24-1.33,1.11-3.14,2.3-2.42,4.48A22.48,22.48,0,0,0,152.87,587.41Zm-8,59.27c-.48-1.83-1.31-3.49-1.27-5.12.19-8.51.6-17,1-25.53a2.15,2.15,0,0,1,.25-.93c1.73-3.22.68-5.11-2.84-5.1H140c-.52,5-1.45,9.72-1.41,14.44.07,7.81-1.18,15.73,1.23,23.86Zm36.42-37.31a13.1,13.1,0,0,0-.72,3.14c-.07,10.65,0,21.3,0,32v2.38c4.84.4,5,.26,5-4.16V617.47a9.4,9.4,0,0,1,.07-2c.38-1.72.85-3.42,1.28-5.13ZM108.6,570.8h36.76v-4.64H108.6Zm176.29-94.65v41.68h8.39C290.46,503.81,287.68,490,284.89,476.15ZM266.74,417c-4.07-1.38-7.7-2.76-11.73-2.51-1.87.12-6.87,3.41-7.51,5.12a2.44,2.44,0,0,0-.07,1.11,27.89,27.89,0,0,0,.64,3.87c1.13,3.94,4.13,6.33,7.69,6.24C258.27,422.63,259,422.73,266.74,417ZM549.5,673.91h.5c0,2.24,0,4.49,0,6.74,0,2.08,1.28,2.38,3,2.37s3-.22,3-2.33c.14-7.62.29-15.24.51-22.86.05-1.69-.45-2.53-2.25-2.34a10,10,0,0,1-2.25,0c-2-.25-2.6.57-2.56,2.55C549.58,663.33,549.5,668.62,549.5,673.91Zm-95.57,12a20.51,20.51,0,0,1,3.59-.8c1.77-.07,2-1.18,2-2.48a18.15,18.15,0,0,0-.55-4.62c-1.89-5.91-3.9-11.79-5.93-17.65-.79-2.26-2.09-2.57-4.61-1.51-2.16.9-1.19,2.17-.72,3.61,1.52,4.69,3,9.4,4.31,14.16C452.79,679.58,453.27,682.67,453.93,685.87ZM173,646a8.22,8.22,0,0,0,1.19-2.17,4.79,4.79,0,0,0-.18-2.74,2.33,2.33,0,0,0-1.93-1c-2.11.16-4.2.87-6.29.83a58.79,58.79,0,0,1-8.54-1c-2.09-.36-3.07-3.11-2.09-5.09.23-.48.24-1.53-.05-1.73a14.41,14.41,0,0,0-3.8-2c-.27-.09-1.07,1.23-1.52,2-1,1.69,0,7.36,1.09,8.94,2.32,3.46,6.12,3.35,9.39,3.82C164.45,646.45,168.76,646,173,646Zm201.22-49c-4,0-8,0-12,0-.76,0-1.94.47-2.16,1-1,2.64.23,4.4,3.09,4.41,7.66,0,15.32,0,23,0,2,0,2.87-.95,2.74-2.62-.1-1.45-.29-3.09-2.68-3C382.25,597.14,378.25,597,374.25,597ZM281.13,440.34c.63.6.82.92,1.1,1,5.33,2.19,10.66,4.38,16,6.46.54.21,1.88-.15,1.92-.4a3.73,3.73,0,0,0-.29-2.68c-1.87-2.16-4-4.07-6-6.14-.59-.62-1.44-1.54-1.32-2.17.52-2.85-1.36-4.46-2.93-6.73ZM481.3,680.42c-1.84,2.3-2.48,4.7-1.37,7.24a7.34,7.34,0,0,0,6.21,4.26,108.6,108.6,0,0,0,12.11.52c1.19,0,3.16-.4,3.41-1.11.5-1.42.08-3.18,0-4.19-5.11-.23-9.53-.29-13.93-.68-2.89-.25-3.16-.91-2.34-3.73ZM268.65,111.7c-.78,6.7-1.55,13.4-2.37,20.46l8.54-3.21c-.3-2.36-.54-4.37-.83-6.38s-.79-4-1-6C272.73,113.1,271.49,111.6,268.65,111.7ZM172.31,618.9v-4.7H151.64v4.7Zm71-258.88-.17.48c-1,0-2-.06-3,0-2.2.15-2.61.81-1.68,2.82.78,1.68,1.43,3.56,2.67,4.84a32.41,32.41,0,0,0,6,4.59c.57.36,1.73,0,2.49-.31.2-.08,0-1.28-.11-1.95-.15-1.13-.32-2.25-.53-3.37-.33-1.81-.22-4-1.2-5.33C247,360.71,244.87,360.58,243.33,360Zm251,315c1.49,0,2.58-.08,3.65,0,1.76.15,2.6-.38,2.54-2.34s-.38-3.31-2.71-3.18c-3.21.18-6.43.26-9.63.53-1.6.14-3.16.69-4.75.93-2.14.32-1.53,2-1.35,3.1a2.6,2.6,0,0,0,2,1.37C487.68,675.41,491.22,675.15,494.36,675Zm-76.17-7.61c-.27-.47-.37-.83-.6-1-3.3-2.69-6.6-5.36-9.95-8a1.5,1.5,0,0,0-1.26,0c-2.47,1.25-2.44,3.13-.07,5.16,2.6,2.25,5.12,4.6,7.7,6.89.26.23.85.55.92.47C416.05,669.79,417.1,668.59,418.19,667.39Zm-132-508,.53.08c1.11-3.38,2-6.85,3.39-10.12a16,16,0,0,0,1-10.34,99.14,99.14,0,0,1-1.34-10.38h-.44Zm6.45,476.83,7.23,10.65c1.62-1.14,3.14-2.2,4.63-3.26-.76-.86-1.42-1.51-2-2.24-1.69-2.24-3.3-4.53-5-6.73a1.79,1.79,0,0,0-1.62-.5A30.53,30.53,0,0,0,292.65,636.21ZM368.37,679c-.83.24-1.38.37-1.91.56-2.39.88-2.63,1.9-1.21,4a72,72,0,0,1,4.07,6.64c.73,1.41,1.49,1.58,2.69.8.48-.31.91-.81,1.42-.93,1.76-.39,2-1.06.9-2.54C372.28,684.76,370.39,681.88,368.37,679Zm181.13,7c0,2,0,3.6,0,5.25,0,.52.34,1.46.58,1.47a23.13,23.13,0,0,0,5.64,0c.42-.07.69-2,.72-3.07.09-3.63,0-3.63-3.64-3.63Zm-52.63-31c.93,1.73,1.67,3.07,2.37,4.44,1.87,3.7,2.41,3.82,6.05.91l-4.91-7.52Zm-6,1.31,4.33,7.5c4.46-1.11,4.52-1.22,2.3-5.13a17.2,17.2,0,0,0-1.31-1.77C494.31,654.36,493.81,654.28,490.9,656.36ZM307.63,632h5.68c.64-5.85-.06-7-2.64-7S307,625.51,307.63,632Zm-43.5-268.82c-2.81-.34-4.61-3.68-7-.51-1,1.33.24,3.38,3.48,5.81ZM242,427.92c-1.84.84-1.84.84-2.6,3.84a3.31,3.31,0,0,0,2.39,3.73c1.55.19,3-1.1,2.55-2.33C243.65,431.44,242.82,429.79,242,427.92ZM228.4,160.69c-1-2.39-4-4.21-7.72-5l.86,5Zm-13.54,274a40,40,0,0,0-4.05-3.13c-.28-.16-1.6.62-1.71,1.13-.38,1.7,1.43,4.33,2.91,4.17C212.81,436.79,213.52,435.78,214.86,434.71ZM325,380.6c2.17-.41,4,.83,4.93-1.41.78-2,.05-3.49-1.79-5C327.15,376.29,326.23,378.15,325,380.6Zm6.89-41-11,6.08a9.83,9.83,0,0,0,4.79-.87C328.14,343.51,332.12,343.73,331.91,339.64ZM370.78,506.8l-.57.48q1.49,5.31,3,10.61l.64-.15c-.45-3.16-.82-6.34-1.41-9.49C372.33,507.69,371.35,507.28,370.78,506.8ZM222.42,165.55l-2.69-4.15v7.74Zm18.7,340.18-.91-.48c-.54.67-1.53,1.34-1.53,2,0,.94.76,1.88,1.19,2.82l.55-.17Zm-36.81-161-4.91-5.28C200,342.77,203.15,342.68,204.31,344.76ZM200,333.06c.16,3.89.68,4.52,3.34,4.79ZM279.62,55.32l.64-1.26a25.61,25.61,0,0,0-2.8-1.45,8.68,8.68,0,0,0-.92,1.44Z" transform="translate(-0.5 -2.83)"/>
      <path d="M630,729c-2.41-9-1.09-18-1-27.07,0-3.18.46-6.18,2.58-8.63,4-4.66,4.15-9.78,3.26-15.69-2.93-19.42-5.24-38.94-7.85-58.4q-3.85-28.59-7.82-57.15a20.36,20.36,0,0,0-.34-2.73,3.1,3.1,0,0,1,1.55-3.79c1.58-1,3.34-2.07,2.74-4.59,1.2,5,2.6,9.78,6.44,13.46,1.21,1.16,1.92,2.83,3,4.18a3.47,3.47,0,0,0,1.88,1.35c2.44.31,4.92.38,7.38.56a6.73,6.73,0,0,1,2.18.29c3.46,1.54,3.36.58,5-2s4-5.21,5.82-7.9c3.43-5,4.11-10.46,3.22-16.35-.57-3.81-.71-7.69-1.09-11.54-.63-6.53-1.25-13.07-2-19.59-.31-2.72.09-3.63,3.75-6.49.07.13.24.31.2.38-1.73,3.14-1.29,5.94.57,9,3.34,5.57,6.2,11.41,9.28,17.18,4,0,7.9.06,11.81,0a3.33,3.33,0,0,0,2.27-1.14,150.57,150.57,0,0,0,9-12.82c1.24-2.09,1.23-4.92,1.85-7.7,2.21,2.06,3,3.88,1.88,6.74-5,12.5-9.81,25.1-14.73,37.64-.53,1.35-.76,2.39.45,3.54a3.34,3.34,0,0,1,.59,2.3c-.43,11.82-.44,23.68-1.53,35.44-.73,7.83-3,15.51-4.59,23.25-1.11,5.36-2.29,10.71-3.44,16.07H663.2c0,.67-.11,1.31-.1,2,.31,16.32.53,32.64,1,49,.11,3.61,1.39,7.17,1.84,10.8,1.26,10.16,2.36,20.34,3.53,30.51Z" transform="translate(-0.5 -2.83)"/>
      <path d="M623.52,37l5-2.46h7.9c0-.32.05-.63.07-.94-1.1-.14-2.19-.36-3.29-.4s-2.1.12-3.14.19c3.33-2.38,6.94-1.6,10.6-1.06,1.71.25,4.07,1.38,4.72-1.7l-.07.07a4,4,0,0,0,1.31-.59c2-2.11,3.74-4.67,6.08-6.32,3.75-2.62,6.61-7.21,12.61-5.39,3.63,1.11,7.65.92,11.5,1.34.48,0,1.13.13,1.37.44,3.62,4.75,9.62,3.59,14.28,5.76.27.13,1.32-.61,1.46-1.1,1.58-5.71,3.2-11.42,4.5-17.2.52-2.36,1.44-4.07,2.94-4.76a21,21,0,0,1,3.44,1.39c.38.24.5,1.09.5,1.66a16,16,0,0,1-.4,2.51c2.11-.19,3.92-.16,3.69,2.32l2.07.62a16.3,16.3,0,0,1,3.16-1.77A26.71,26.71,0,0,1,718.54,9L715.6,6.46l.15-.4c1.73.73,3.67,1.17,5.12,2.25a29.11,29.11,0,0,1,5.29,5.29,4.17,4.17,0,0,1,.41,3.38c-.19.59-1.72.74-3,1.2,0,0,.07.51.14,1.13a2.33,2.33,0,0,1-.63-.27,22.34,22.34,0,0,1-3-3c-1.82-2.53-4.69-2.67-7.27-3.39-.53-.15-1.69.7-2,1.36-1.06,2.09-1.9,4.31-2.76,6.5-.13.34,0,1.09.12,1.16,2.43.91,1.33,2.74.92,4.11-2,6.67-1,13.36-.41,20.06.39,4.65.9,9.28,1.23,13.94a7.71,7.71,0,0,1-.47,3.84c-1.45,2.82-.52,5.63-.38,8.44.09,1.81.51,3.61.45,5.4a3.63,3.63,0,0,1-1.4,2.13c-4.29,3.69-8.63,7.32-13,11-1.51-1.21-3.42-1.92-5.07-.24-.71.73-2.56,1.85-.85,3.43l3.54-2.78c1.48.82,2.64,1.38,3.7,2.09a3.47,3.47,0,0,1,1,1.4c1.53,3.08,2.92,6.24,4.56,9.27,3.13,5.81,7.64,10.18,13.16,14,11.06,7.55,21.73,15.68,32.46,23.72a53.58,53.58,0,0,1,6.59,6.46,3,3,0,0,1,.44,2.23c-1,6.75-2.4,13.46-3,20.25a95.23,95.23,0,0,0,.18,14.91c1.55,23.52,3.82,47,3.62,70.6-.27,30.75.06,61.5.14,92.25v6.88L737.29,359c6,2.45,12.1,1.08,18.28,1.54v9.59c-5.45-.57-10.27,1.13-15.09,3.25,4.13,2.35,10,3.68,15.16,1.74,0,1,0,1.85,0,2.72s-.07,1.63-.11,2.51c-8.12,1.61-16.1,2.58-24.18.37a58.54,58.54,0,0,0-7.74-1.21c-2.06-.26-3.41-1-3.12-3.43a35.09,35.09,0,0,0,0-4.23l-.62-.08-15.63,97.64-.69-.09c-.52-3.24,2.29-6.46.1-9.85-1.31.87-2.94,1.49-3.86,2.66-1.32,1.68-2.6,1.16-4.26.93-5.92-.82-11.88-1.36-17.81-2.11a3.8,3.8,0,0,1-2.24-1.25c-1.94-2.35-4.65-3.34-7.38-4-1.21-.31-2.71.54-4,.86-.27,6.7-.52,13.12-.78,19.54h-.2c0-4.47,0-8.94,0-13.41,0-1.84.07-3.67.2-5.5s.2-3.22-2.35-3.35c-.71,0-1.32-1.86-2.23-3.24H654.5v19.33h-.32V452.56c-3.54-1.74-6.21-1.78-8.23.92-2.34,3.11-5.1,1.5-7.66,1.44a114,114,0,0,1-12.79-1,54.14,54.14,0,0,1-7.17-2c-.75-.21-2-.64-2.22-.38a6,6,0,0,0-1.06,3,15.51,15.51,0,0,0,.62,3.51l-.79.12c-4.67-39.16-9.33-78.32-14.07-118.06-2.61,3.17-5.27,2.64-8.28,1.39-4.65-1.93-9.49-3.43-14.19-5.24a2.24,2.24,0,0,1-1-1.87c.49-5.47.6-11.05,1.82-16.37,1.9-8.32,1.63-16.81,2.69-25.19,2.58-20.23,4.37-40.57,7-60.79,2.11-15.92,2.48-31.87,2.55-47.86q.12-27.63,0-55.24a2.71,2.71,0,0,1,2-3.07c11.14-4.38,22.23-8.89,33.31-13.45a2.69,2.69,0,0,0,1.2-2c.15-2.56.06-5.13.06-7.81l4.11-.5c2.1,2.78,1.56,3.95-.86,10.38l-.51-7.08c0,2.62-2.61,4.38-1.59,7.66.89,2.87-.06,6.37-.38,9.57-.35,3.49-1,7-1.31,10.46a4.94,4.94,0,0,0,1.24,3.1l1.42-5.72.33,0q-.82,6.67-1.63,13.36l.84.16c1.8-8.43,3.61-16.86,5.44-25.43a9.49,9.49,0,0,1-2.13-.48c-.44-.19-1.1-.94-1-1.17,1.16-2.88,2.45-5.71,3.79-8.76l-1.56-1.71.48-.48,7.94,4-.29.7h-5.7c1.16,2.39,2.23,4.69,3.4,6.94a1.69,1.69,0,0,0,1.26.67,69.66,69.66,0,0,0,9.48-.17c2.31-.31,3.53-.2,4.77,2.2,2.68,5.18,6,10.06,9,15.07l1-.35c-.54-4.54-1.08-9.08-1.65-13.82l-1.59,1.34c-.8-2.12-1.52-4-2.32-6.16l3.58-1.38-1.35-20.94c-4-.37-5.95.34-6.1,2.21a16.31,16.31,0,0,1-3-.05,3.68,3.68,0,0,1-1.44-1c1.17-1.75-.49-1.45-1.26-1.84-3.37-1.74-6.72-3.51-10-5.23,5.74-2.12,9.11,2.56,13.31,4.9,1.31.73,7.1.64,8.14-.41.21-.22.48-.6.43-.83-.82-3.48,1.05-6,2.88-8.59,1.32-1.9,2.37-2.89,4.28-.63a14.11,14.11,0,0,0,1.35-3.27,14.78,14.78,0,0,0-.2-3.92c-.15-1.15-1.59-1.83-.43-3.55.91-1.35-3.66-5.39-5.77-5.18.33,1,.65,2,1,2.91C662.53,72,662.53,72,663,76.08L660,72l1.61-2.18c-3.17-.28-6.46.24-8.92-1a70.43,70.43,0,0,0-10.77-4.07c-1.35-.4-2.32-2.64-3.08-4.23-1.53-3.17-4.53-4.3-7.33-5.73-1.36-.69-2.82-1.18-4.45-1.85l-3.21,7.67-.49-.17V57.7l-1.16,2V51.13l1.15,5c1.09-1.7,2.32-3.09,1-5.28-.45-.77.52-2.86,1.42-3.8,1.45-1.5,1.6-3.17.53-4.39-.78-.9-2.59-.89-4.25-1.38.06-1,.14-2.35.22-3.75,0,3.69,0,3.64,3.6,3a6.82,6.82,0,0,1,2.33.43c.82.18,1.64.4,2.6.64V37Zm39.78-7.3,2.49-2.53-.43-.55a12.85,12.85,0,0,1-1.37.18c-1.79,0-4,.72-5.31-.06-2.85-1.68-4.5.29-6.41,1.37s-1.27,3.1-1.08,5c1.39-.3,2.68-.49,3.91-.85,2.77-.82,5.52-1.73,8.27-2.59l-7,6.3a3.62,3.62,0,0,0,2.35.51c2.21-.45,3.47.63,2.74,2.7A51.3,51.3,0,0,1,658.6,45c5.88,1.11,10.8-2,16.4-3.69-2.45-.88-4.35,2.5-6.52.27,1-2.11,4.28-2.4,3.89-5.6l-7.23,1.14-.14-.6q2.52-2.88,5-5.77l-.45-.62ZM719,206.5c-.19.53-.4,1-.56,1.58-2.85,9.38-5.6,18.79-8.56,28.13a15.67,15.67,0,0,0-.09,9.53q4.54,15.3,9,30.62c.41,1.37.83,2.74,1.25,4.11C720.71,255.74,722,231.11,719,206.5Zm-15.67-47.88c-1.49,2.17-3.2,4-1.56,6.69.6,1,0,2.74,0,4.14-.08,2.9-.89,6,0,8.64,1,3.15,0,5.61-.79,8.38-.84-1.95-1.32-4-2.05-5.89a2.61,2.61,0,0,0-1.76-1.48,3.17,3.17,0,0,0-2,1.16c-1.7,1.81-1.76,3.82-.7,6,.25.53-.22,1.41-.39,2.12-.54,2.22-1.16,4.44.92,6.29.07.07,0,.32,0,.52l-2,.61c.3,1.85,1.27,1.72,2.57,1.45,1-.21,2.47-.38,3,.16,1.83,1.86,3.31,4,2.21,7-2.48-2.44-5.51-2.18-7.79.75,1.41,1.43,4.8,2.58,1.74,5.25-2,1.75-3.59-.08-4.9-1.36-.95.33-1.94,1.06-2.55.82-2.14-.87-2.21.63-2.79,2,2.39.89,4.61,1.78,6.88,2.53.4.13,1.07-.26,1.52-.56,1.36-.91,2.55-2.15,4-2.78a7,7,0,0,0,4.2-4.11,2.81,2.81,0,0,1,1.55-1.44c2.87-.94,4-3.71,1.86-5.71s-2.25-4.44-3.12-6.76a1.56,1.56,0,0,1-.05-1.08c1.34-2.78,2.77-5.52,4.08-8.31.21-.44-.09-1.1-.09-1.66,0-2.39,0-4.77,0-7.77l2.47,3.27c.69-2.31,1.82-4.19,1.62-5.91-.32-2.78-1.52-5.47-2.34-8.19l-.66,0c-.47,1-1,1.89-1.71,3.39C704.16,163.72,703.76,161.17,703.36,158.62Zm-33.61-17.24c-2.19,8.16-3.58,45-1.94,52.34,1.09-8,2.19-16.06,3.29-24.15l.33,0,.18,3.94c.44-1.87.75-3.22,1.18-5.07v9.81a80.83,80.83,0,0,0,2.67-9.75,22.1,22.1,0,0,0,.49-5.38c-.21-5.67,2.53-11.11,1.11-16.9-.42-1.73-.07-3.65-.1-5.48,0-.11-.18-.22-.28-.33-.14.25-.29.49-.55.95-.55-2.22-1-4.21-1.55-6.2h-.86q-.68,10.29-1.37,20.59l-.58-.05Zm-47,31.23c.38,2.95.79,5.76,1.1,8.58a8.34,8.34,0,0,1,0,3.45,13.9,13.9,0,0,1-2.32,4c-1.5,1.9-1.27,3.88-.45,5.8.35.82,1.58,1.24,2.11,2,1.35,2.09,2.44,4.35,3.81,6.43,1.59,2.41,3.11,5.22,6.83,3.11.32-.18.85.07,1.23-.05a17.21,17.21,0,0,0,1.86-.85c-.57-.7-1-1.82-1.73-2-1.43-.42-3.13-1.93-4.5.28a1.22,1.22,0,0,1-1.16.07,13.29,13.29,0,0,1-2.29-3.14c-.19-.41.67-1.32,1.12-2a18.34,18.34,0,0,1,1.2-1.4c-3.26-3.56-4-3.82-5.92-2.38-.75-2.82.22-5,2.75-6.49l3.85,1.55,1.44-.64c-4.07-1.47-2.25-3.42-1.71-5.3a11.15,11.15,0,0,0,0-1.74c.17-1.88.38-3.75.57-5.62q.31-3.11.62-6.21l-1-.16c-2.65,2-2.82,4.72-1.53,7.88l-.86.34C626.16,176.34,624.49,174.5,622.79,172.61Zm65.3-85.9c.83-3,2.17-5.77,0-8.76a23.75,23.75,0,0,1-3.4-7.19c-.76-2.6-1.67-4.69-4.53-5.4-2.4-.61-4.77-1.33-7.52-2.1,9,6.23,10,14.78,8.7,24.13,5.47-.33,5-5,6.73-8ZM620.85,222.27c-1.57,3.73-3,24.63-2,28.69,1.23-2.67,2.35-5.14,3.49-7.6,1.54-3.31,3.2-6.34,1.24-10.36C622,229.81,621.74,226,620.85,222.27ZM678.43,48.92c1.77-.61,2.94-1.33,4.13-1.36,3.55-.09,5.84-2.1,8.16-4.73-1.59-.9-2.78-1.72-3.8.53a3.74,3.74,0,0,1-2.15,1.6c-2.3.77-4.68,1.27-7,2-.77.25-1.85.79-2,1.39s.75,1.4,1.3,2.3L667,53.81c6.08,3.47,9.81,2.8,14.84-2.19Zm25-13.27c0-.13.13-.3.09-.44-.84-2.77-6.51-5.94-9.15-5.08a1.22,1.22,0,0,0-.73.87,1.63,1.63,0,0,0,.65,1.07c1.89,1.4,2.12,3.29,1.57,5.64,2-.51,3.23,3.62,5.52.63,1-1.36,1-2.67-.87-3.59l.47-.46Zm-33,29.9c3.84,4.51,6.06,9.35,5.52,15.2C679.7,74.54,677,67.24,670.35,65.55Zm-7.21,193.22c-1.16-.49-2.66-.74-3.61-1.6a22.89,22.89,0,0,1-3-4.12c-1.68-2.49-3.34-5-5-7.5l-.65.42c2.27,4,4.59,7.93,6.82,11.93C659.53,261.24,660.88,261.4,663.14,258.77Zm-1.95-89.57.31.11a6.42,6.42,0,0,1,0,1.24,2.23,2.23,0,0,0,2,2.77c.52.07,1.54-1.36,1.85-2.27a7.52,7.52,0,0,0,.09-3.21c-.17-1.51-2.09-2.6-3.13-1.66C661.62,166.83,661.55,168.17,661.19,169.2Zm35.07,51.46c-2.28-.31-5,.58-5-2.84a2.36,2.36,0,0,0-1.79-.47c-.78.42-2,1.6-1.88,1.87.48.95,1.39,2.22,2.26,2.33C691.87,221.79,694.21,223.89,696.26,220.66Zm-74.77-54.45c.8-.34,1.67-.49,1.72-.76.52-3.36.92-6.73,1.43-10.7C620.54,158.22,621.7,162.17,621.49,166.21ZM691,100.88l-3.33-2.11c-1.37,2.93-1.13,4.18,2.86,3.74,2-.22,5.5-3.09,5.87-5a12.51,12.51,0,0,0,0-2.45l-.77-.2C695.69,98.08,694,99.94,691,100.88Zm6.82,66.61-1.5-.1c-.42,1.78-1.28,3.62-1.08,5.33a2.75,2.75,0,0,0,3.45,2.55C698.43,172.64,698.15,170.07,697.86,167.49Zm11.51,23.32c-1.74-.26-4.47,1.25-4.84,2.73s.28,2.45,1.65,2.35a3.82,3.82,0,0,0,2.72-1.52C709.44,193.4,709.25,192,709.37,190.81Zm-81.82,21.37c.5,3.06,2.71,2.27,4.45,2.29,1.91,0,2.22-1.38,2.43-3.07l-3.65-1.66-.6,3.1Zm56.15-92.85.69.18a17.31,17.31,0,0,0,.59-2.07c.12-.73-.2-1.78.19-2.17,2.76-2.74,1.53-6.12,1.86-9.24l-.73-.14Q685,112.61,683.7,119.33Zm-63.47,66.06c1.72-2.23,1.06-3.8-2.43-5.77C617.29,183,618,184.56,620.23,185.39Zm83.34-123a12.74,12.74,0,0,0-2.64-2.09,4.4,4.4,0,0,0-2.52.16c-.18,0-.33,1.07-.14,1.48C698.89,63.27,702.25,63.59,703.57,62.39ZM698.1,214.18l-2.59,2.41c.74.6,1.48,1.66,2.23,1.66s1.68-.94,2.13-1.7C700,216.29,699,215.31,698.1,214.18Zm-69.21-54.06-1-.15-2.13,9.45,1.14.24Zm-2.24,50.07c.64-1.05,1.37-1.84,1.22-2.11a10.64,10.64,0,0,0-1.93-2.05c-.46.46-1.4,1.13-1.3,1.35A16.7,16.7,0,0,0,626.65,210.19ZM703,48.77l1.27-.2-1-5.6-1,.18ZM632.25,159.18l-.72-.16-1.22,7,1,.15Zm-2.6-10.1c-.3,2.58-.52,4.49-.8,7C630.94,153.72,631,151.79,629.65,149.08Z" transform="translate(-0.5 -2.83)"/>
      <path d="M342.33,151c-3.72-2.17-7.57-.8-11.14.69-3.09,1.29-5.71,1.82-9.67.2l14.33-6.55,10.88,8.27-.2.42-1.3-.53c-1.37.62-2.32,1.35-3.32,1.43a3.7,3.7,0,0,0-3.49,2.07,9.57,9.57,0,0,1-3.14,3.28c-1,.63-2.51,1.38-3.17-.76.78-2.06,2.06-3.54,4.72-3.05a1.69,1.69,0,0,0,1.32-.45C339.55,154.44,340.86,152.78,342.33,151Z" transform="translate(-0.5 -2.83)"/>
      <path d="M374.6,184c.57,1.45,3.46,1.61,2,4.23-.07.13.59.57.7.94.49,1.55.77,3.18,1.38,4.68.78,1.93,1.81,3.76,2.85,5.87l-1.06.75a69.35,69.35,0,0,1-4.36-7.83,65.72,65.72,0,0,1-2.2-8.41Z" transform="translate(-0.5 -2.83)"/>
      <path d="M633.6,83.18c.94-.16,2-.68,2.79-.43,4.25,1.33,8.45,2.85,12.67,4.31l-.21.66-15.29-3.25C633.57,84,633.59,83.61,633.6,83.18Z" transform="translate(-0.5 -2.83)"/>
      <path d="M623.65,66l4.18,11.28c-.92-.45-1.48-.56-1.5-.75C626,74,624.15,72.38,623,70.36s-1.41-2-2.8-.24l-.44-.48Z" transform="translate(-0.5 -2.83)"/>
      <path d="M645.39,30.58l-6.58-1.52c2.17-2.28,3.92-.07,5.06-.08L648,26.39l.29.34-3,3.92Z" transform="translate(-0.5 -2.83)"/>
      <path d="M197.42,210c-.66-3.33-.89-6.61,2.29-8.78Z" transform="translate(-0.5 -2.83)"/>
      <path d="M163.63,210.34l-3.21,6.88-.84-.39c1-2.3,2.07-4.61,3.11-6.91Z" transform="translate(-0.5 -2.83)"/>
      <path d="M269.76,191.78c-4.22,1.75-8.77,4-13.55,5.43-1.64.49-4.26-.52-5.76-1.7-2.62-2.08-4.73-4.82-7.12-7.35,2.56-3,2.65-6.07,1.31-9.52-.75-1.92-.77-4.13-1.21-6.75,1.49,1.41,2.59,2.6,3.83,3.6,3.71,3,7.43,5.9,11.26,8.7.63.46,1.86.28,2.78.16a48.44,48.44,0,0,0,4.78-.89,6.38,6.38,0,0,0,2-.83c2.06-1.32,4.07-2.71,6.1-4.07l.59.47c-.86,1.17-1.79,2.3-2.55,3.53a39.63,39.63,0,0,0-3.12,5.71C268.78,189.07,269.44,190.27,269.76,191.78Zm-17.6-1.47c1.67,2.28,2.94,2.51,5.42,1Z" transform="translate(-0.5 -2.83)"/>
      <path d="M249.57,136.56c-5.71,3.89-14.15,3.16-20.83-1.69C235.44,129.24,246.31,131.68,249.57,136.56Z" transform="translate(-0.5 -2.83)"/>
      <path d="M249.78,170.13c.79-.29,1.37-.71,1.64-.57,3.38,1.81,6.19-.81,9.28-1.13s6.26-.94,9.39-1.34c.37-.05.81.4,1.43.74A28.45,28.45,0,0,0,268.7,170a20.85,20.85,0,0,0-2.05,2.61c-.23.33-.3.88-.6,1-1.94,1-3.84,2.27-5.92,2.74-1.84.42-4.2.84-4.91-2.24-.17-.75-1.67-1.16-2.53-1.78S250.92,171,249.78,170.13Zm15.89,1.18c-1.46-1.51-8.27.07-9.4,2.51Z" transform="translate(-0.5 -2.83)"/>
      <path d="M257,163.17l7.66-3,.34.6c-.24.36-.4.85-.73,1a32.83,32.83,0,0,1-4.34,2.12,10.39,10.39,0,0,1-2.81.2Z" transform="translate(-0.5 -2.83)"/>
      <path d="M251.66,134.31l3,5.29c-2.35.28-3.38-1.74-2.92-5.33C251.7,134.26,251.66,134.31,251.66,134.31Z" transform="translate(-0.5 -2.83)"/>
      <path d="M251,624.11h3.5c0,6,.06,11.86-.09,17.73,0,.73-1.17,1.43-1.8,2.15-.53-.68-1.57-1.41-1.5-2,.15-1.41-1.22-3.25,1.08-4.33.37-.17-.16-2.38-.39-3.63-.09-.45-.75-.82-.76-1.24C251,630,251,627.13,251,624.11Z" transform="translate(-0.5 -2.83)"/>
      <path d="M242.34,632.09h5.21c-.22.7-.22,1.54-.61,1.81C245.94,634.56,243.78,633.72,242.34,632.09Z" transform="translate(-0.5 -2.83)"/>
      <path d="M226.62,619.23h6.76v.5h-6.76Z" transform="translate(-0.5 -2.83)"/>
      <path d="M226.62,614.23h6.76l0,.48h-6.77Z" transform="translate(-0.5 -2.83)"/>
      <path d="M273.66,620.53l9.15,7.69-.41.64h-8.74Z" transform="translate(-0.5 -2.83)"/>
      <path d="M276.66,609.15l11.71-.72.13.8c-1.59,1.81-4.23-.1-5.94,1.15C280.23,612.09,278.53,610.24,276.66,609.15Z" transform="translate(-0.5 -2.83)"/>
      <path d="M273,616.77c3.59-3,7.11-1.2,10.34-1.78l.09.83Z" transform="translate(-0.5 -2.83)"/>
      <path d="M284.22,622.12l5.51-1.34C286.93,624.66,286.77,624.7,284.22,622.12Z" transform="translate(-0.5 -2.83)"/>
      <path d="M319.29,672.45c.12-1,.21-1.85.32-2.8H325c0,6,0,11.92,0,17.87,0,1.4-.74,1.8-1.9,1-2.24-1.57-4.44-3.21-6.65-4.82l.12-.68c1.66,0,3.33-.06,5,0s2-.66,2-2.11-.52-2-1.92-1.92c-2.07,0-4.16.1-6.22,0a6.36,6.36,0,0,1-2.12-1l.31-.93c1.87,0,3.75,0,5.61,0,1.4,0,3.13.45,3.31-1.83S321.25,672.36,319.29,672.45Z" transform="translate(-0.5 -2.83)"/>
      <path d="M297.61,660.11c.66-1.4,4.61-1.65,7.39,0Z" transform="translate(-0.5 -2.83)"/>
      <path d="M324.87,659.38c-1.17,1.43-4.72,1.63-7.34,0Z" transform="translate(-0.5 -2.83)"/>
      <path d="M324.88,664.84h-6.76l0-.5h6.77Z" transform="translate(-0.5 -2.83)"/>
      <path d="M297.62,664.18h6.27v.5h-6.27Z" transform="translate(-0.5 -2.83)"/>
      <path d="M353.51,674.09a24.7,24.7,0,0,1-3.08.39c-6.43,0-6.59,0-6.36-6.32.11-2.92,1-5.8,1.67-9.3,3.09,3.62,6.28,1.49,9.52,1.81a20,20,0,0,1-2.34,3.06c-.44.4-1.68.61-2,.3-2.28-2.07-3.14-.14-4,1.38-1,1.77.66,2.63,1.61,3.53,1.64,1.53,3.48,2.84,5.23,4.25Z" transform="translate(-0.5 -2.83)"/>
      <path d="M364.23,669.94l2.35,3.88h-5.92Z" transform="translate(-0.5 -2.83)"/>
      <path d="M54.3,625.11c.85-1.43,1.37-2.33,1.93-3.21s1.15-1.76,1.85-2.81H66.5c0,1.39,0,2.69,0,4,.06,2-.83,3.07-2.87,2.92C60.64,625.75,57.64,625.43,54.3,625.11Z" transform="translate(-0.5 -2.83)"/>
      <path d="M195.56,641.13v-4h7.67c1.16,2.42-.7,4-2.16,4.56S197.47,641.4,195.56,641.13Z" transform="translate(-0.5 -2.83)"/>
      <path d="M398,682.5c1.38.23,3.94-.72,3.43,2.36-.16,1-1.48,2-2.51,2.54a4.22,4.22,0,0,1-2.93,0c-1.29-.42-3.46-.65-2.79-2.62.34-1,2.14-1.57,3.33-2.24C396.8,682.35,397.31,682.5,398,682.5Z" transform="translate(-0.5 -2.83)"/>
    </g>
  </g>
  <g id="serif-alpha">
    <g>
      <path class="cls-1" d="M244,729V564.67H614.5V729Zm48.5-74c0,12.79,0,25.26,0,37.74,0,1.73,1.26,1.79,2.38,1.7,2-.16,2.62-1.58,2.62-3.38V669.58h4.68l1.23,3.2a4.15,4.15,0,0,1-.7.2c-1.28.07-2.85-.32-2.71,1.86.12,1.91,1.34,2.22,2.92,2.17,1.82,0,3.64,0,5.46,0l.35.8c-.67.4-1.31,1.08-2,1.14a50.41,50.41,0,0,1-5.5,0c-1.48,0-2.81-.15-2.78,2.08s1.31,1.95,2.68,1.93h6.19c-.49,5.23-5.93,3.94-7.84,6.9l2.15,3.54c3.89-.62,6.62-2.75,9-5.59a2.47,2.47,0,0,1,2.29-.57,12.3,12.3,0,0,1,3.75,2.7c1.47,1.65,2.72,2.06,4.18,0,.28.4.56.64.62.93.67,3.3,1.39,3.84,4.87,3.55,2.78-.23,4.18-1.69,4.18-4.44,0-10.9,0-21.81,0-32.72,0-1.67-.44-2.41-2.25-2.37q-6.75.15-13.49,0c-1.83,0-2.28.89-2.29,2.4,0,2.49-.14,5,.05,7.49a59.45,59.45,0,0,0,1.28,6.51c-.81,1.7-2.34,2.44-4.43,1-1.57-1.06-1.81-2.59-.12-4,.19-.16.21-.61.21-.93,0-3.33.09-6.66,0-10-.05-1.33-.56-2.52-2.39-2.49C302.32,655.05,297.59,655,292.5,655Zm314.9-86.34H251.45l.24,2.22H607.4ZM338.5,675v3c0,4.58,0,9.17,0,13.75,0,2.12,1.44,2.57,3.05,2.72,1.45.13,2.62-.26,2.51-2.16,0-.44.47-.91.73-1.39,3.09,2.25,3.7,2.17,5.72-1,1.43-2.26,2.66-4.65,3.94-6.91a11.55,11.55,0,0,0-1-1.58c-1.42-1.57-3.69-1.47-4.44,0-1.21,2.41-2.58,4.74-3.88,7.11l-.77-.28v-9.17c3.93,1.77,7.84-.59,11.53.69a10.34,10.34,0,0,1,.57,2.27c.07,3.26,0,6.52.09,9.78a3,3,0,0,0,1.09,2.14c2.19,1.39,4.31.16,4.34-2.47.06-4.07,0-8.15,0-12.18a9.1,9.1,0,0,1,2.38-.93c1.58-.11,3.48-.54,4.71.14,3.29,1.84,3.59,2,6-1.23-1.08-1.73-2.16-3.55-3.33-5.31-2.33-3.51-2.49-3.56-6.11-2.53-.11,0-.27-.1-.69-.28l5-4.27L365.64,662l-8,7.58-1.71-1.71,6.06-8.4c2.17-.27,4.94-.57,7.68-1a1.79,1.79,0,0,0,1.26-1.15c.21-1.61-2.47-3.76-4.06-3.45-2.13.42-4.27.82-6.42,1.16a56.7,56.7,0,0,1-7.3.93c-2.38.05-4.91.88-6.92-1.78-1.47-1.95-3.88-1.14-4.65,1.16-1.83,5.49-3.72,10.92-7,15.78-1.93,2.84-1.46,4.43,1.32,6.84ZM287.62,603c-3.69.17-6.9.42-10.11.42-2.36,0-2.54,1.29-2.56,3.18s.69,2.5,2.5,2.38c3.61-.24,7.23-.37,10.67-.54.43.8.73,1.36,1,1.93,1.54,3,.61,5.39-2.26,5.57-3.63.23-7.26.45-10.89.48-1.75,0-2.63.4-2.53,2.36.09,1.74.2,3.3,2.44,3.16,4-.25,8-.53,12-1,2.24-.25,3.31.35,3.56,2.58.19,1.62.34,3.25.52,4.88.55,5.26.55,5.26,5.91,5,.14,0,.27-.15.83-.48-.52-3.43-1-7.05-1.63-10.65-.23-1.38-.08-2.26,1.6-2.32,2.89-.11,5.76-.42,8.65-.47,5-.08,5,0,3.53-4.67,0-.12-.24-.19-.56-.44-3.6.19-7.39.52-11.18.51-1.21,0-3.08-.63-3.48-1.51-.7-1.51-.48-3.45-.67-5.45,2,0,3.73.07,5.46,0s3.6-.45,5.39-.41c2.15.05,3.12-1.12,3-2.92-.07-1.56-.73-2.93-3-2.67-3.19.36-6.43.35-9.64.56-1.86.13-2.75-.23-2.89-2.51-.31-4.8-1.42-5.37-6-3.93-.13,0-.22.23-.44.46C287.18,598.5,287.38,600.6,287.62,603Zm240.26,58a12.21,12.21,0,0,1-1.23,1.45c-2.75,2.16-5.54,4.27-8.28,6.44s-5.3,4.14-7.76,6.41c-.6.55-.94,2.45-.56,2.78,1.05.92,1.56,3.69,4,1.67A24.51,24.51,0,0,1,532.77,674c4.18.41,7.79,3.86,5.57,8.85-1.06,2.38-3.27,3.23-5.52,3.57-3.56.55-7.18.68-10.76,1.1-.7.08-1.78.48-1.94,1A3.67,3.67,0,0,0,523.5,693a36.82,36.82,0,0,0,7.13-.53c5.15-1.1,10.27-2.07,12.74-8,2.64-6.28-1.15-14-8-14.93-3.33-.45-6.73-.43-10.4-.63,4.08-2.67,8.14-5.3,12.15-8a4,4,0,0,0,1.2-1.59c-1.32-1.34-2.68-3.54-4.17-3.65-5.88-.42-11.81-.19-17.72-.13a2.38,2.38,0,0,0-1.82.85c-1.24,2.5.11,4.59,2.87,4.61ZM247.5,722.8c3.49.36,3.5.36,3.5-2.82V574.6c0-.58.2-1.29-.06-1.72s-1.07-1.27-1.64-1.28a2.62,2.62,0,0,0-1.73,1.19c-.27.4-.07,1.13-.07,1.72V722.8ZM467.64,628c-.68-.73-1.11-1.24-1.6-1.69q-4.74-4.27-9.5-8.51c-1.34-1.2-2.12-2.13-.62-4.11a67.37,67.37,0,0,0,5.86-9.82c1.55-3-.46-5.83-4-5.85-7.17,0-14.33,0-21.5,0a2.4,2.4,0,0,0-2.74,2.18c-.48,2.26.47,3.35,2.94,3.36h19.3c-1.36,2.36-2.41,4.13-3.43,5.92a39.46,39.46,0,0,1-19.58,17.22c-.68.28-1.58,1-1.67,1.54-.34,2.34,2.89,4.59,5,3.49a36.75,36.75,0,0,0,5.15-3.18c3.33-2.53,6.54-5.21,9.7-7.74l12.73,11.85Zm-128.32-12.8c1.95-3.86,4.27-8.13,6.27-12.55.91-2-1.22-4.61-3.53-4.62-7.5,0-15,0-22.5,0-2.24,0-2.07,1.3-2.07,2.78s-.17,2.83,2.07,2.78c5.41-.1,10.83,0,16.25,0h3.38c-.66,1.53-1.05,2.68-1.64,3.73-2.83,5.06-6.21,9.76-10.88,13.22-3.28,2.42-7.09,4.12-10.54,6.32a2.74,2.74,0,0,0-.89,2.52,16.86,16.86,0,0,0,2.58,3.34c5.56-2.92,10.67-5.84,14.69-10.35,2.18-2.44,2.54-2.23,5-.1,3.56,3.11,7.28,6.05,10.93,9.06-.34.41-.67.83-1,1.24l3.41-3.9ZM356.11,614c4.8,0,9.44.06,14.08,0,1.71,0,2.44.5,2.33,2.28-.31,4.91-2.71,10.1-8.59,12.28-.64.23-1.51,1.07-1.49,1.6a3.29,3.29,0,0,0,4.69,2.86c7.53-3.11,10.87-9,11.32-16.84.11-1.87.86-2.2,2.46-2.17,3.82.07,7.65-.05,11.48,0,1.43,0,1.9-.65,2.09-1.82.46-2.69-.38-3.7-3.1-3.71H360.92C355.81,608.5,355.81,608.5,356.11,614ZM402,677.45a13.88,13.88,0,0,0-10.26,1.12,7.77,7.77,0,0,0-4.24,7.2c.15,2.17,3.15,5.93,5.3,6.64,6.83,2.25,12.3-.22,15.09-6.82a48.59,48.59,0,0,1,5.22,3c2.73,2,2.9-1,3.91-2,1.32-1.23-.06-2-1.06-2.58-2-1.07-4.09-2-6.09-3.07-1.46-.79-2.64-1.7-2.43-3.78.25-2.39,0-4.83.08-7.24S406,668.05,404.6,668s-2.71-.12-2.62,2C402.08,672.43,402,674.91,402,677.45Zm67.35,15.77c1.4-3.11,3-6.05,4.06-9.15,1.85-5.27,3.48-10.62,5-16,.41-1.44,1.12-1.6,2.29-1.59,2.67,0,5.34-.11,8,0,2.25.13,2.34-1.09,2.35-2.79s-.11-2.92-2.36-2.79c-2.69.16-5.41,0-8.11,0a14.73,14.73,0,0,1,0-2.62c.61-3.13.13-3.86-3.67-4-.61,0-1.29,2-1.9,3.15-.11.2,0,.5,0,.75-.16,1.8-.85,2.91-3,2.73-1.73-.15-3.5,0-5.24,0-1.48-.06-2.38.26-2.33,2s.29,3,2.38,3,4,0,6.74,0c-2.62,7.08-4.94,13.81-7.62,20.4C464,691.26,463.81,691.23,469.35,693.22ZM437,677.48c-1.29,2.44-2.46,4.73-3.71,7-.23.42-.81,1-1.15.94s-.9-.64-1.07-1.1a19.88,19.88,0,0,1-1.49-4.88q-.72-8.49-1-17c-.16-4.45,0-4.46-4.4-5a5,5,0,0,1-.63-.19c0,2.46-.13,4.87,0,7.27.36,5.8-1.11,11.73,1,17.4a41.79,41.79,0,0,0,3.57,8.21c2.09,3.25,5.31,3.39,7.33.69a89.5,89.5,0,0,0,5-8c1.21-2.06.21-3.39-1.72-4.29C438.18,678.16,437.61,677.82,437,677.48ZM410.5,617.37c0,4.86.09,9.42,0,14-.07,2.42,1.43,2.11,3,2.17s2.67-.16,2.63-2.24c-.12-5.15.11-10.32-.1-15.46-.12-2.68,1.2-4.11,3.17-5.34.49-.3,1-.51,1.48-.85,4-3,4.13-5.57.42-7.33a2,2,0,0,0-.55-.07,51.64,51.64,0,0,1-21.61,14.63c-2.12.75-2,2.15-1.06,3.61a2.57,2.57,0,0,0,3.77,1.06C404.39,620.05,407.34,618.82,410.5,617.37ZM379.42,660c.12,1.67-.28,3.84.41,4.26,1.38.86,3.35.77,5.23,1.09a7.45,7.45,0,0,1-.35,2.15c-1.73,3.49-3.48,7-5.38,10.39-1.21,2.17-1.08,3.26.95,4.54s3-.12,3.76-1.67c2.08-4.19,4.31-8.33,6-12.67,1-2.46,2.23-3.52,4.85-3.12,1.22.18,2.49,0,3.73,0,1.94.1,1.85-1.18,1.84-2.49s.16-2.52-1.8-2.56c-1.73,0-3.47-.39-5.5-.64.53-1.17,1.22-2,1.17-2.77a4.93,4.93,0,0,0-1.2-2.37c-1.37.5-3.24-2.17-4.18.59-.36,1.07-.67,2.16-1,3.24s-1,2.16-2.62,2C383.53,659.88,381.7,660,379.42,660Zm186.63,34.48c4,0,7.9.1,11.75-.05,1.49,0,2.2-1.22,2.2-2.74,0-9.16,0-18.32,0-27.48,0-2.26-1.35-2.78-3.44-2.77s-2.06,1.35-2.06,2.82c0,7.57,0,15.15,0,22.73,0,2-.63,2.68-2.59,2.54s-3.92,0-5.9,0ZM278.5,659c2.44,0,4.6-.1,6.74,0s2.23-1.15,2.27-2.67-.32-2.85-2.24-2.85c-3.34,0-6.67-.1-10,.07a2.48,2.48,0,0,0-1.69,1.72c-.11,9.66-.1,19.32,0,29a2.11,2.11,0,0,0,1.07,1.62c2.62.91,3.88-.06,3.88-2.82ZM556,660.84h.5a16.72,16.72,0,0,1,0-2.24c.3-2.32-.49-3.5-3-3.1a5,5,0,0,1-1.5,0c-2-.26-2.65.54-2.56,2.54.26,6,.37,11.91.52,17.86,0,1.5.06,3,0,4.5-.08,2.13,1.09,2.65,3,2.64s3.06-.41,3-2.58C556,673.91,556,667.37,556,660.84Zm-102.19,24.9c1.05-.12,2-.15,2.92-.35,2.82-.65,3.08-1.18,2.42-4.09-.43-1.89-.61-3.86-1.17-5.71-1.63-5.31-3.26-10.64-5.17-15.86-.83-2.26-2.77-1.58-4.53-.85-1.47.6-1.54,1.51-.94,2.75C451,669.15,452.27,677.33,453.81,685.74ZM374.48,597c-4.08,0-8.16,0-12.23,0-.75,0-1.92.49-2.14,1-1,2.66.25,4.39,3.11,4.4,7.66,0,15.32,0,23,0,2,0,2.85-1,2.73-2.63-.11-1.46-.33-3.07-2.71-2.95C382.32,597.14,378.4,597,374.48,597Zm106.83,83.42c-1.86,2.27-2.47,4.67-1.39,7.22a7.34,7.34,0,0,0,6.19,4.28,102,102,0,0,0,11.86.52c1.28,0,3.35-.33,3.67-1.1.58-1.37.1-3.18.08-4.2-5.1-.23-9.52-.29-13.91-.68-2.93-.26-3.19-.92-2.36-3.72Zm13-5.42c1.59,0,2.6-.08,3.59,0,1.89.19,2.72-.4,2.65-2.48s-.6-3.19-2.84-3c-3.21.2-6.43.27-9.63.54-1.52.13-3,.71-4.51.91-2.31.3-1.6,2.07-1.44,3.25.07.52,1.39,1.25,2.13,1.25C487.81,675.4,491.36,675.15,494.31,675ZM407,658c-.24.16-.49.35-.77.51-2.39,1.41-2.29,3.15.14,5.19,2.58,2.17,5,4.48,7.59,6.66a1.62,1.62,0,0,0,1.5,0c.6-.39,1-1.14,1.53-1.61,1.29-1.06,1.21-2,0-3-1.82-1.55-3.49-3.28-5.36-4.77A51.33,51.33,0,0,0,407,658Zm-43.17,23.44c2,3.21,3.74,5.68,5.13,8.32,1,1.87,2,2.18,3.61.93a4.89,4.89,0,0,1,1.26-.66c1.24-.46,1.45-1.13.67-2.23-2.1-2.93-4.14-5.9-6.41-9.14ZM549.5,686c0,1.94,0,3.6,0,5.24,0,.53.34,1.46.57,1.48a23.21,23.21,0,0,0,5.65,0c.41-.07.69-2,.72-3.06.09-3.64,0-3.64-3.64-3.64Zm-52.6-30.88c.93,1.71,1.78,3.18,2.55,4.69,1.71,3.35,2.6,3.48,5.81.46l-5-7.46ZM495.32,664a7.27,7.27,0,0,1,1.16-.49c2.77-.67,3-1.11,1.69-3.61a25.6,25.6,0,0,0-2-3.06c-1.78-2.5-2.54-2.57-5.22-.47Z" transform="translate(-0.5 -2.83)"/>
      <path d="M324.62,689.55l-8.23-5.89.24-.66c1.62,0,3.24-.06,4.86,0s2-.57,2-2.06-.67-2-2.12-2a56.8,56.8,0,0,1-6,0,6.9,6.9,0,0,1-2.16-1l.3-1c1.86,0,3.72,0,5.58,0,1.39,0,3.12.43,3.34-1.79s-1.16-2.85-3.16-2.74c.09-.93.17-1.77.27-2.79h5Z" transform="translate(-0.5 -2.83)"/>
      <path d="M297.58,660.13c.74-1.44,4.72-1.66,7.39,0Z" transform="translate(-0.5 -2.83)"/>
      <path d="M318.18,659.33h6.62C323.93,660.75,320.59,661.07,318.18,659.33Z" transform="translate(-0.5 -2.83)"/>
      <path d="M324.87,664.75h-6.75v-.5h6.76Z" transform="translate(-0.5 -2.83)"/>
      <path d="M303.88,664.76h-6.26l0-.46h6.27Z" transform="translate(-0.5 -2.83)"/>
      <path d="M346.36,659.46c2.55,3.06,5.67.88,8.88,1.17a17.54,17.54,0,0,1-2.24,3,2.34,2.34,0,0,1-2.2.28c-2-1.63-2.66-.25-3.74,1.17-1.48,1.94.39,2.85,1.16,3.66a45.71,45.71,0,0,0,5.5,4.32l-.17.91a16.65,16.65,0,0,1-2.76.49c-6.79.08-6.67,0-6.84-6.71A15.78,15.78,0,0,1,346.36,659.46Z" transform="translate(-0.5 -2.83)"/>
      <path d="M366.62,673.89h-6l3.64-3.93Z" transform="translate(-0.5 -2.83)"/>
      <path d="M397.88,682.5c3.19,0,4.1.55,3.52,2.5a4.37,4.37,0,0,1-2.42,2.37,4.87,4.87,0,0,1-3.38-.15c-1-.45-1.74-1.58-2.59-2.4a34.33,34.33,0,0,1,3.14-2.28C396.59,682.29,397.29,682.5,397.88,682.5Z" transform="translate(-0.5 -2.83)"/>
    </g>
  </g>
</svg>
