<svg xmlns="http://www.w3.org/2000/svg" viewBox="0 0 1139.31 809.27">
  <defs>
    <style>
      #talk2wall_0 {
        fill: #171f29;
        <!--
        fill: #2c3e50;
        -->
      }
      #talk2wall_1 {
        fill: #171f29;
        <!--
        fill: #2c3e50;
        -->
        opacity: 0.75;
      }
      .cls-1 {
        opacity: 0;
      }
    </style>
  </defs>
  <title>talk2wall</title>
  <g id="talk2wall_0">
    <g>
      <path class="cls-1" d="M643.39,702.84l-.15-.16c.65,1.7,1.39,3.38,1.93,5.11a11.25,11.25,0,0,1,.88,4.3c-1.95,17.36-4.21,34.69-6,52.07-1.41,13.57-2.31,27.19-3.39,40.8a26.19,26.19,0,0,0,.27,3.94H740.36a35.32,35.32,0,0,0-6.52-13.39c-1.81-2.47-1.87-5-.86-7.83,3,.81,2.27,4.1,4.36,5.43.16-2.9-.22-5.71.59-8.13s2.8-4.28,4.63-6.91l6,30.54,1.29-.15c-.17-2-.19-4.06-.54-6.05-2.71-15.39-5.55-30.77-8.21-46.17a30.31,30.31,0,0,0-4.27-10.55c-5.58-9.28-11.26-18.5-16.53-28-5.61-10.07-10.23-20.48-9.75-32.51.14-3.53.5-6.55,3.17-9,2.24-2.06,2.87-4.63,2.83-7.66-.09-6,.14-12,.26-18q.75-37.74,1.5-75.47a13,13,0,0,0-.14-3.48q-2.71-10.9-5.63-21.75a4.92,4.92,0,0,0-1.74-2.87c-2.8-1.6-5.8-2.87-8.72-4.27a34.69,34.69,0,0,0,3.73,8.32c3.67,6.7,7.73,13.25,8.83,21a25.68,25.68,0,0,1,0,3.51,6.25,6.25,0,0,1-2.89-2.65c-5-9.56-9.6-19.4-15.16-28.63-4.76-7.88-6-16.26-6.37-25.08-.19-4.07-.84-8.13-1.31-12.49-9.16.25-17.26,3.07-26.44,6.21,2.86-3.52,4.89-5.82,8.61-6.26s7.45-1.56,11.15-2.37c2.8-6.91,9.95-10,14.77-16.81-6.76,1.87-12.54,2.24-18.61.28,2.27-3.86,4.7-8,7.72-13.17v4.82l5.39-5.72,4.45,1a22.37,22.37,0,0,0,0-4.34c-2.17-10.77-4.38-21.52-6.73-32.25-.5-2.28-2.43-4.48-2.29-6.62s2.36-4,3.21-6.11c1.56-4,2.79-8.08,4.23-12.33l7.31,2.62c1.9-1.41,3.92-2.92,6-4.5-6.53-6.57-13.94-6.74-22.09-5.7.33,5.3.65,10.51,1,15.67-5.49,1.36-3,6.52-4.88,9.41l-3.19-.18c.14,3.3,5,4.2,2.95,8.59-1.45-3.91-4.46-3.46-7.35-3.34l.12.12c-.15-1.39-.29-2.78-.42-4l-11.32-5.16.17-.76L672,425c-.88-2.29-3.45-2.3-5.65-2.78-3.9-.83-7.91-1.2-11.73-2.28A15.14,15.14,0,0,0,644,421c-4.26,1.84-8.6,3.47-12.94,5.13a3.86,3.86,0,0,1-2.35.33c-3.58-1.2-3.64-1.42-5.16-.64a6.94,6.94,0,0,1-7.08-.08,4.87,4.87,0,0,0-6,.58c-4,3.42-8.2,6.7-12.63,10.29L603.34,447l7.14-4.27c.62,1.1,1,1.89,1.61,2.89.45-1.68.81-3.05,1.17-4.4,2.24-.18,3,.84,3.15,2.6.22,2.26,0,4.74.91,6.74,1.69,3.83,1.63,7.68,1.3,11.64-.06.76-.24,2.11-.57,2.18-3.37.66-2.77,3.43-2.65,5.45.23,3.79,1,7.55,1.55,11.32.87,5.73,2.32,11.44,2.53,17.19.25,7.12-.49,14.27-.86,21.4-.25,4.81-.69,9.61-.89,14.42-.08,1.8-.61,3.77.67,5.74,1.1-4.92,2.13-9.47,3.15-14h.73c.51,1.84,1,3.68,1.7,6.11l2.5-4.1c-.47,4.69-.88,8.72-1.29,12.75l.87.18c1.22-3.82,2.44-7.65,3.64-11.45l5.69,1.93c.14,2.12.28,4.09.41,6.06,1-1.51,1.09-3.48,2.06-4.76s2.81-1.78,5.07-3.1c1.71-8.5,3.59-17.84,5.6-27.81,3.78,4.73,10,6.8,9.8,14-1.22,1.86-2.54,4.18-4.15,6.27q-6.51,8.5-13.25,16.82c-3.95,4.85-6,9.92-2.87,16a1.72,1.72,0,0,1,.09.72c-3.43,6.37-9.57,3.82-14.78,4.38-2.16,7.19-3.49,14.41-8,20.93.66-4.86,1.27-9.27,1.87-13.68l-.47-.07-2.32,6.08c-2.14-6.74,1.89-12.12.88-18.5-1.57,1.73-2.66,2.9-3.71,4.1-2.73,3.14-5,6.9-8.26,9.32-5.29,3.92-7.76,9.3-10,15.05-.42,1.09-1,2.12-1.36,3.22a7.28,7.28,0,0,1-5.46,5.2c-3.77,1.09-7.42,2.64-11.45,4.11.08,15.3,5.39,29.44,6.55,44.19s3.81,29.11,5.17,44.23L582,681.75c-8.23,3.71-10,11.94-14.51,18.27,3.3,4.29,6.34,7.74,11.81,9.55,6.13,2,10.4,1.17,14.5-3.32,2.52-2.77,5.63-3.64,9.42-3.21,5.08.58,10.22.62,15.43.9a34.4,34.4,0,0,1,1.78-4.52c.51-.91,1.37-2.07,2.25-2.25,5.33-1.1,10.72-1.95,16-2.86ZM298.78,553.25h0c3.5-2.87,2.51-6.54,2.26-10.54-2.2,1.86-4.35,3-5.6,4.86-2.63,3.8-6.18,5.7-10.48,6.89-3,.84-6.12,5-5.88,7.81.4,4.56-1.72,7.5-5.29,9.92a21.11,21.11,0,0,0-4.12,4.06c-4.64,5.56-8.76,11.8-16.76,12.51-4.19-2.27-5.78-5.65-5.87-10.22a13.54,13.54,0,0,0-2.23-6.82c-1.93-3-2.56-5.63-.33-8.36a6.78,6.78,0,0,0,1.9-5.37c-.27-2.36-.9-4.89-.34-7.09,1.18-4.64,3-9.11,4.63-13.65.77-2.2,2.37-3.17,4.83-2.63L253.71,521l-10.89,2.08c.48,1.12.77,1.72,1,2.34.73,1.92.93,4.69,2.31,5.53s3.92-.24,6.26-.52c.13,3.08-1.93,4.84-3.82,6.57-4.64,4.27-9.45,8.38-14.08,12.68a137.11,137.11,0,0,1-25.57,18.92c-1.4.79-2.8,2.08-3.9-.28-.92,1.53-1.41,3.24-2.52,3.92-.86.52-2.51-.24-4-.46-2.1,5.79-7.51,7.65-12.88,11.24,1.3-9.83,3.87-18.29,4.22-27.09-2.34,2.64-2.76,5.93-3.55,9.09-1.4,5.63-2.71,11.3-4.28,16.89-.75,2.64-2.39,4.87-2.75,7.82-1.23,10.07-3,20.08-4.41,30.13-1.27,8.89-3.14,17.78-3.43,26.72q-1,31.71-.68,63.47c.16,14.08-1.45,27.88-3.8,41.69-2.29,13.45-4.32,27-6.36,40.44-.84,5.58-.33,11.13.64,16.92h6c24,0,48,.08,72-.07,6,0,12.09,1.26,17.85-2.14,3.41-2,7.19-.15,10.59,1.05,4.56,1.62,9.11,1.22,13.91.86-.42-2.15-1.43-4.21-1-6,.45-1.9,2.77-3.35,3.27-5.25,1.43-5.45,5.43-8.28,9.59-11.39,3.52-2.64,4.28-3.16,6.33.4,1.76,3,4.28,3.61,7.37,3.87,1.32-5-3.49-2.32-4.78-4.71.13-.93-.17-2.78.62-3.72,3.91-4.63,7.19-10,13.95-11.41,2.76-.57,5.1-.57,6.88,1.42,4.66,5.2,9.23,10.6,10.62,17.7.62,3.17,1.22,6.89-1.55,9.43-4.38,4-9.21,7.49-15.64,7.66-2.37-3.26-1.19-8.18-5.33-10.41-4.86,2.68-4.33,7.82-5.84,12.32h52.89c1.44-12.32-3.67-88.95-6.18-94.19-2.73,2.59-5.09,6-8.35,7.58-3.45,1.63-7.76,1.39-11.68,2.05-3.24.54-6.46,1.21-9.69,1.83l-.23-1,19.61-5.25c-6.75-1.36-13.37,1.14-20.27-.11,1.71-2.46,5-1.67,6.44-4.46-1.83-.17-3.28-.37-4.73-.44s-3,0-4.55,0l-.09-.8,33.25-8.56c1.21,1.49,2.06,2.54,2.9,3.59l.74-.3c-.17-1.7-.34-3.4-.54-5.37,3-2,6-4.14,9-6.19s6-3.94,9.63-6.37c.22,4.46.33,7.92.58,11.36,1.5,21.09,3.39,42.16,4.39,63.28.48,9.93-.75,19.94-1.21,29.91-.21,4.43-.43,8.85-.66,13.41h68c1.19-5.66,2.58-11,3.39-16.4,2.74-18.1,5.29-36.23,7.85-54.35.63-4.43,1.71-8.93,1.45-13.33-1.3-21.44-2.93-42.86-4.6-64.27a29.34,29.34,0,0,0-2.1-9.12c-11.63-27.08-23.68-54-35-81.19-3-7.24-7-11.93-14.55-13.91-3.41-.89-7.06-1.87-9.06-5-3.86.32-7.36,1.69-11.2.4.63-5-1.32-8.83-5.06-13,.29,5.51,4.67,9,3.91,14.11a76.21,76.21,0,0,1-8.48,1.29,16.07,16.07,0,0,0-8.73,3.22c-6.11,4.31-12.16,8.72-18.29,13-2.67,1.87-5.48,3.56-8.08,5.23l-2.5-2.56-1.17-.24c1.81,5.25-1.72,6.93-4.74,9-3.3,2.24-6.71,4.34-9.83,6.82-2.21,1.76-4,1.6-6.33.32-3.19-1.78-6.54-3.29-9.89-4.75-3.89-1.7-4.32-1.67-3.85-5.67.61-5.25,1.84-10.44,2.93-15.63.74-3.51,1.69-7,1-10.46ZM0,0V167.2H558.69v60c7.35,1.13,577.26.78,580.62-.25V0ZM243.75,482.37c-.77-1.52-1.78-2.75-2-4.12a86.37,86.37,0,0,1-1-8.8c-.11-1.47-.55-3.06.71-4.93l1.83,3.58v-2.67c0-4.62-.49-9.3,2-13.6,1.31-2.32.67-4.78.2-7.23a38.5,38.5,0,0,1-.91-6.89c0-5.42,3.59-9.19,8.91-8.84,4.22.28,8.39,1.36,12.83,2.12.39,9.29.76,18.2,1.14,27.37-6.47-1-12-4.36-18.49-3.41l7.15,2.54-8.79,4.43c1.87,3.4,4.44,4.19,7.46,4.2s5.55-.31,8-2.09c1.65-1.19,3.65-1.88,6.18-3.13-.38-7.2-1.2-14.9.14-22.57,1.76,2.35.94,5,1.15,7.47.3,3.5-.17,7.5,1.42,10.31s3.84,5.49,5.32,8.58c-.38-3.06.66-6.56-3-8.38a1.77,1.77,0,0,1-.59-1.32c-.16-4.69-.34-9.39.75-14.1a8.52,8.52,0,0,1,1.12,4c.44,4.26-1.46,8.95,2.24,12.63,1.27,6.95,2.56,13.89,3.78,20.85.53,3,.77,6.07,3.28,8.6-.3-7.83-.6-15.65-.92-24.26a60.47,60.47,0,0,0,7.19,1.88,57.34,57.34,0,0,0,7.25.07q1.88,17.69,3.74,35.22H303c.44-3.84.9-7.68,1.33-11.52.46-4.13.81-8.27,1.35-12.38a89.11,89.11,0,0,1,1.9-11.79c1-3.81.22-8.08,2.93-11.55a12.62,12.62,0,0,1,.8,4.25c.35,11,.58,21.93,1.05,32.9a15.66,15.66,0,0,1-2.85,10.29,37.87,37.87,0,0,0-3.6,6c-.41.89-.42,2.75.13,3.16,3.09,2.26,1,4.82.4,7.29v-5.81c-1.91,1.66-2.89,2.83-2.56,5a23.7,23.7,0,0,1,.39,7.85c-.69,3.69-.8,7.79-5,10.07-1.59.86-2.5,3-3.83,4.68h7.14c2.37-3.81,5.41-6.82,10.81-5.35a3.46,3.46,0,0,0,2.77-.56c3.67-3.15,7.21-6.45,10.89-9.8l-8.32-2.79c-1.55-3.64-.32-5.81,2.38-7.6,1.84-1.23,3.46-2.78,5.51-4.47l-6-2.27c.56-4.6,1.61-9,1.5-13.41s2.44-8.63,1.23-13.15c3.26-1.06,3.26-1.06,3.61-3.56l-2.67,1.28c.09-9.27.25-18,5.33-25.72a6,6,0,0,1,9.65-.75c.95,1.16,1.84,2.37,2.76,3.55q3.76,4.86,7.55,9.7c-.18-6.49-1.5-12.5-2.11-18.57s-2.69-11.19-8-14.66c-.69-.45-1.19-1.18-1.85-1.67-3.68-2.69-5.92-6.1-6.07-10.83a7.15,7.15,0,0,0-1.65-4c-6.8-8.18-13.65-16.32-20.65-24.33a30.68,30.68,0,0,0-5.75-4.59c-6.32-4.42-13.7-5.65-21.06-7.11a16.24,16.24,0,0,0-9.22.71c-4.05,1.48-8.16,3.57-12.34,3.79-5.57.29-9.77,2.72-14,5.7-3,2.11-6.2,3.94-9.08,6.19a18,18,0,0,0-4.58,5c-3.46,6.07-6.91,12.18-9.84,18.52a30.87,30.87,0,0,1-12.64,14.27c-4.16,2.44-8,5.47-12,8.24l.56.89,20.36-10.84a19.26,19.26,0,0,1-2.34,7.21,11,11,0,0,0-1.18,7.65c.89,4.73,1.48,9.54,2,14.34.79,7.73,2.93,15.41,1.19,23.28a37.19,37.19,0,0,0-.57,3.95c-.51,4.71-1,9.43-1.5,14.14,3.77-7.35,5.25-15.41,8.65-23.75,3.5,15,3.75,29.45,7.32,43.36,1.8-2.59,1.7-5.3.89-7.93-1.09-3.53-.8-7-.26-11.21l3,3.88c-.81-10.3-1.56-19.81-2.31-29.32l1-.12c2.17,5.49,2.26,11.44,3.15,17.5C241.57,489.77,239.5,484.54,243.75,482.37Zm44.78,20.68-.23-1c-7.49-.58-15.08-3.08-22.6,1.09.55.6.88,1.28,1.21,1.28,6.37,0,12.75-.05,19.12-.22C286.88,504.19,287.7,503.45,288.53,503.05Zm43.31-35.12c-.6-3.2,2.84-6.78-1.12-9.36-3.58,1.49-.06,3.23-.35,5-2.74,1.26-3.11,3.62-2.84,6.59Zm-61.22,24.36c5.2,3.61,5.36,3.61,12.8-.9ZM282.4,507c-4.22,0-7.52-.89-11,.67C275.75,510.62,277.91,510.56,282.4,507Zm326.87-28.76c.24,2.11.42,3.66.63,5.49l3.43-.26C612.83,480,612.83,480,609.27,478.22ZM362.12,499.64l-.6-1.32c-2.44,1.75-6,1.14-7.71,4.42ZM603.47,476c2.76-.67,2.28-2.66,2.66-4.09.08-.28-.74-1.12-1.2-1.17a1.7,1.7,0,0,0-1.39.94A33.82,33.82,0,0,0,603.47,476Zm105-58.33c-1.82,2.41-1.82,2.41,1.26,4.66ZM615.52,514.6c-.2-2.75-.62-3.71-3.35-3.07ZM329.37,477.94l.87,1,2.12-2.1-.52-.58Z"/>
      <path d="M0,0H1139.31V227c-3.36,1-573.27,1.38-580.62.25v-60H0ZM396.53,97.91H378.76c.13,1.62.22,2.79.33,4.21,2.89,0,5.39-.15,7.87,0,2.25.17,4.77-.88,7.77,1.66-4.89,0-8.7-.12-12.49.1-.83,0-2.34,1.41-2.25,1.93.2,1.07,1.23,2.77,2,2.81,3.63.2,7.9,1.09,10.78-.45,4-2.15,7.54-1,11.53-1.15v4.88l-6.63.55c-.38,3-.82,5.41-1,7.87a65.37,65.37,0,0,0,0,7c.14,3.61,2.07,4.89,5.15,3.14,3.64-2.08,7-1.95,10.71-.19,1.3.62,3,.46,4.26.63.43-.93.68-1.22.69-1.52.08-3.16.16-6.33.16-9.49,0-7.22,0-7.22-7-8.11v-5c1.86,0,3.49.06,5.13,0,3.74-.16,3.91-.48,2.6-4.72l-8-.61c.09-2,.16-3.57.23-5.26,2.34-.7,4.35-1.3,6.74-2l-2.58-3.7L395.83,94l.6,4ZM7.58,7c1.82-.07,3.65-.21,5.47-.21H1124a37,37,0,0,0,5.48-.14c.71-.11,1.27-1.17,2.23-2.12a11.71,11.71,0,0,0-2.24-.67q-559,0-1118-.05a29.69,29.69,0,0,0-3,.23c-.14,0-.28.18-.4.29s-.21.24-.4.45c0,.73,0,1.56,0,2.39L4.58,6.94V161.12C6,159.61,7,159,7.17,158.27a22.25,22.25,0,0,0,.13-4.48q0-70.41,0-140.83C7.32,11,7.49,9,7.58,7Zm203,122c.4.25.55.41.69.41l37.42.31c1.6,0,2.81-.79,2.41-2.34a3.75,3.75,0,0,0-2.42-2.45c-3.47-.31-7-.13-10.48-.2-1.51,0-3-.23-4.53-.35V123.3a30.59,30.59,0,0,1,3.55-.49c2.83-.08,5.68.11,8.49-.13a3.27,3.27,0,0,0,2.35-1.84c.39-1.46-.62-2.5-2.2-2.65-1-.09-2-.07-3-.07-3,0-6,0-9.76,0,2.15-4.11-4.9-2.8-3.53-6.65h7.18c.4,1.9.73,3.46,1.05,5,4,.11,4,.11,5.13-5.32,1.5,0,3.13,0,4.75,0,1.42,0,2.78-.25,2.76-2.08s-1.19-2.17-2.69-2.23c-1.69-.07-3.36-.24-5-.37,0-.44,0-.88,0-1.33l4.56-.31c1.58-.11,3.57.48,3.89-2s-1.34-2.65-3.14-2.81c-.51,0-1-.57-1.35-.81.22-2.35,5.09-2.57,1.87-5.91-1.3-.06-2.9.2-4.23-.29s-2-2.06-3.25-2.46c-1-.34-3.16,0-3.42.62-1,2.38-2.9,2.17-4.6,1.89-2-.33-3.9-1.67-5.89-1.79-4.76-.27-9.55-.08-14.65-.08-.66,6.75.39,13.12-2.07,19.17-.74,1.83.61,3.92,3.41,3.42a5.41,5.41,0,0,1,.93-.2c2,4.54,6,1.85,9,2.55,1.1.25,2.23.39,3.36.58l-.13,1.16-13.42.55c-.64,3,0,4.46,2.77,4.39s5.66-.05,8.49,0a9.21,9.21,0,0,1,2.33.72l-.11.92-16.71.83C210.52,127,210.58,128.12,210.62,129Zm436.73-86.6-8.72-.82V36.25l6.76-2.1-2.68-3.6c-5.6.93-10.65,1.78-15.71,2.58-1.43.22-2.94.65-2.53,2.29a3.9,3.9,0,0,0,2.66,2.24c1.56.28,3.25-.18,5.18-.35v4.41h-7.26c-.67-1.54-1.16-2.68-1.69-3.91-5.68,0-11.12-.25-16.55.2.33,3.88.32,4,2.67,4.07,3.5.11,7,0,10.5.09a8.27,8.27,0,0,1,2.33.8l-.15,1H608.57c.12,4.11.13,4.51,1.65,4.58,3.64.16,7.87,1.13,10.81-.34,4-2,7.54-1.14,11.63-1.1-.11,2-.19,3.56-.29,5.39l-7,.56c0,5.23-.09,10.19,0,15.15.07,2.47,2,3.78,4.07,2.53,4.3-2.61,8.3-2.29,12.52,0,.81.45,2.13,0,3.34-.1V53.08l-6.7-.69V46.71h8.76Zm37.74,21.32c-8.18-.39-15.45,1.14-22.77-1.43,1.37-4.37,4.48-5.23,7.86-6,1.2,5,1.24,5.07,6.3,4V53.9l11.57-3.43c-1.36-5.06-1.69-5.22-6-3.69-2,.71-4,1.21-6.14,1.82-2.48-4.34-6.44-5-10.72-5.51a8,8,0,0,1,4.2-1.91c4-.19,8-.09,12-.06,2,0,3.26-.61,3.18-2.83-.08-1.94-1.28-2.51-3-2.5q-4.24,0-8.48,0a8.07,8.07,0,0,1-1.57-.39c.07-1.3.13-2.53.19-3.77-2.14-.68-4.33-1-5.22.83-1.77,3.72-4.81,3.46-8,3.38-1.61,0-3.22,0-5.25,0,.2,2.11.33,3.52.47,5l7,.88-9,10.65,3,3.42c7.83-6.67,10.81-7.79,15.39-5.46-1.67,1-3.12,1.64-4.4,2.56-2.52,1.81-5.31,3.42-7.32,5.7-2.73,3.12-1.65,7.3,2.19,8.93a24.23,24.23,0,0,0,7.71,1.62c3.81.26,7.65.1,11.48,0,1.78,0,3.55-.2,5.88-.34C685.39,66.73,685.23,65.21,685.09,63.76ZM920,63a23.12,23.12,0,0,0-1.35-2.49c-3.54-5-7.84-6.64-12.8-4.69-3.06,1.19-5.22,4-5.2,6.63,0,2.31,2.67,5.63,5.56,6.42,6.69,1.82,13.29,1.27,19.17-2.43,4.5-2.82,6.07-7.44,5-12.64-.9-4.62-4.27-7-8.6-8-2.66-.6-5.42-.78-9.22-1.3l12.75-8.4c-1.28-3.42-3.18-4.57-6.32-4.43-5.49.24-11,0-16.48.09-3.9.07-4.19.62-3,5.38h14.07c.09.28.18.56.28.84l-19.31,14.2,3.64,4.13c1.48-1,2.61-1.67,3.65-2.46,5-3.73,10.64-4.5,16.55-4,3.6.3,6.35,2.8,6.81,5.64C925.81,59,924.41,61.09,920,63Zm-55.7,6.81V64.69c0-4-.09-8,0-12,0-1.43.19-3.22,1-4.19a75.81,75.81,0,0,1,8.49-8.32c1.19-1,3.16-1,5.06-1.59,1.18,4.69.33,8.58-.13,12.5A69,69,0,0,0,878,62.91a4.85,4.85,0,0,0,4.85,4.83c3.51.12,6-1.76,7.77-4.59,1.45-2.35.3-4.28-1.27-6.08l-5.06,4.61-1-.53c.22-3.58.32-7.17.68-10.74.29-2.78,1.16-5.52,1.31-8.3.36-6.9-5.62-10.91-11.64-7.8-2.19,1.12-4,2.87-6.08,4.28-.86.59-1.8,1-3.49,2v-10c-5.11-.55-5.09-.54-5.41,3.64-.09,1.09-.31,2.17-.47,3.24l-6.89.65c.18,1.66.31,2.9.46,4.26l6.6.73c1.72,7.77-5.62,11-7.8,17L852.89,65c1.9-2.62,3.37-4.65,5.47-7.53.23,4.77.4,8.46.59,12.35ZM724.81,129.2c1.5-.56,2.61-.88,3.64-1.38a37.09,37.09,0,0,0,3.48-1.94C740,121,742.37,106.94,735.75,99c-6-7.13-18.7-8.44-26.87-2.66-9.26,6.55-10,17.6-6.61,25.76a9.53,9.53,0,0,0,2,2.83c2.78,2.85,6.54,3.1,9.16.13a29.27,29.27,0,0,0,5.72-8.58c2.21-5.81,3.63-11.93,5.38-17.94,5.46,1,8.84,4.21,9.6,10.12,1.15,8.92-4,13.47-12.63,15.49Zm-387-16.75,6,.74c-.07,1.55-.16,2.71-.18,3.88-.1,7,3.23,11.68,10.17,12.32a29.72,29.72,0,0,0,10.77-.78c6.89-2,9.73-8.63,7-15-1.07-2.51-1.47-2.63-5.07-1.48a18.13,18.13,0,0,0,.11,1.93c1.32,8.1-.41,10.11-8.72,10.08-.33,0-.67,0-1,0-7.07-.21-9.39-4.23-6.19-11.33H360c1.55,0,3.21,0,3.21-2.14,0-1.88-1.31-2.51-3-2.51H351c.35-2.3.61-4,.94-6.22h13.38c-.19-1.66-.31-2.73-.42-3.72-4.09-1.18-8.32.83-11.62-1.49-.09-1.9-.17-3.48-.27-5.29h-4.69c-.82,2.2-1.55,4.18-2.44,6.56h-8.26v4l8.09.45c-.27,2.13-.47,3.81-.67,5.42-2.73.26-4.86.47-7,.69-.14,0-.26.18-.52.38a14.33,14.33,0,0,0-.16,1.84A10,10,0,0,0,337.8,112.45Zm213.53-.63c-7.12.51-9.87,1.32-12.52,3.53-4.32,3.57-4.2,8.77.29,12.13,6.4,4.79,14.48,2.47,17.33-5,.22-.58.55-1.11,1-2L569,127.15c.95-1.81,1.74-3.32,2.72-5.21l-14.78-8.31v-9.84H563a36.89,36.89,0,0,0,5.47-.14,3,3,0,0,0,2-1.8,2.92,2.92,0,0,0-.82-2.54,5.4,5.4,0,0,0-2.85-.5c-3.25-.11-6.51-.15-9.8-.22-.23-2.83-.42-5.09-.61-7.48h-5Zm-35.49-14.7c.17.38.34.76.52,1.14-6.3,4.74-12.67,9.41-18,15.7l3.32,3.15a60.29,60.29,0,0,1,5.29-3.48c5.06-2.63,10.25-4.74,16.12-2.64,3.54,1.27,4.52,2.45,4.54,5.64s-1.34,5.43-4.67,6.22a89.59,89.59,0,0,1-9.85,1.27c-1.25.16-2.49.38-3.67.57-.36,2.88.12,5.06,3,5,5.3-.1,10.66-.4,15.38-3.3,6.4-3.93,7.19-11.62,1.92-16.94a11.86,11.86,0,0,0-8.47-3.64c-2.06,0-4.13,0-6.2,0l-.21-.82,12.36-9c-1.06-2.23-2.14-3.82-4.48-3.84-6.3,0-12.59,0-19.06,0v5Zm261,24.62L763,113.8v-10c3.43,0,6.56.07,9.69,0,3.82-.11,3.87-.24,2.74-5.21H763c-.7-7.79-.7-7.79-5.48-7.2-.64,7,.32,14.08-.59,21.44-2.19,0-3.84,0-5.49,0a11.28,11.28,0,0,0-8,3.5c-2,2-2.55,6.34-1,8.73,2.54,3.95,6.42,5.14,10.82,4.7,3.78-.37,7.17-1.54,8.38-5.83a22.62,22.62,0,0,1,1.71-3.45l11.25,6.79a28.17,28.17,0,0,0,1.42-2.49C776.27,124,776.43,123.21,776.86,121.74ZM62.09,68.92l4-4.9L54,51.44l7.5-13.75c-1.39-3.22-3.29-4-5.91-3.94-4.66.13-9.33,0-14,0H33v5.28H54.17C49.59,51.29,41.05,58.62,29.66,63.9l3.07,4.54C39.8,65.7,44.77,61,49.78,56,53.87,60.33,57.74,64.37,62.09,68.92Zm9.14-7.18c.19,2.26.31,3.66.42,5,8.2.87,27,.58,30.95-.56,0-9.65,0-19.43,0-29.21,0-2.46-1.73-2.86-3.78-2.85-7.82,0-15.64,0-23.45,0-4.15,0-4.48.71-3,5.82H97V61.74Zm732.54,7.44c1.8-4.56,1.8-4.56-1.85-5.65a51.74,51.74,0,0,1-5.21-1.66c-4.05-1.71-5.63-4.21-5.38-8.55a12.54,12.54,0,0,1,7.24-11.13c3.21-1.54,6.88-2.15,10.39-3s3.76-1.09,2-5.41c-11.24.49-22.64,1-34,1.51-.29,0-.56.3-1.22.67.08,1.19.18,2.55.27,3.93,5.94.62,11.51-.93,17.11.41-5,5.8-9.86,11.26-6.16,19.32C790.19,66.7,796.19,69.07,803.77,69.18Zm237.1-29.25c-8.28,8.88-9,14.88-6.06,20.48,3.16,6,9.2,9.08,16.52,8.33,1.7-4.1,1.68-4.14-2-5.25-1.59-.48-3.21-.88-4.76-1.48-5-1.91-6.85-5.44-5.71-10.6,1.25-5.62,6.85-10.6,13-11.56,2.27-.35,4.54-.68,7-1.05v-5c-11.55.46-22.78.83-34,1.41-3.11.16-2.3,2.44-1.91,4.72Zm-319,26.39c.2,3.42.8,4.32,3.1,4.74,4,.75,6.3-1.13,6.33-5.41.07-10.33,0-20.66,0-31a20,20,0,0,0-.67-3.53H716.36c-1.7,0-3,.63-3,2.55-.05,3.61,0,7.23,0,11.43h12.26c.3,7,.57,13.35.85,19.87ZM313.79,99.87c-4.74,5.87-9.75,11.28-6.48,19.19,3.17,7.67,9.43,10.09,17.63,10.17.24-1.61.46-3.12.71-4.79a79.78,79.78,0,0,1-8.47-2.66c-5.13-2.25-6.71-6.62-4.74-11.88,2.21-5.89,6.79-8.74,12.62-10,2.38-.51,4.8-.81,7.61-1.28l-.49-4.21c-4,.14-7.42.29-10.86.36-7.63.14-15.27.23-22.9.38a8.08,8.08,0,0,0-1.84.52v4.19ZM475,99.94c-7.92,9.38-9.12,14.89-5.15,21.65,3.18,5.44,9.46,8.15,16.49,6.91.07-1.33.15-2.74.22-4.12-3.17-1-6.1-1.65-8.81-2.81a8,8,0,0,1-4.85-9.36c1.86-6.64,6.2-10.79,13-12.18,2.41-.49,4.85-.81,7.73-1.28-.15-1.72-.28-3.2-.35-4-6.47,0-12.26,0-18,.09s-11.58.35-17.58.53v4.61ZM174.38,97.79c-.64,5.32-1.08,10.08-1.83,14.79-.47,3,.66,4.35,3.63,4.8,3.44-3.86,8.13-5.58,12.93-7,3.81-1.12,8.09,1.07,9,4.29,1,3.6-1,7.17-5.1,8.32a48.53,48.53,0,0,1-7.84,1.1c-1.72.19-3.45.23-5.79.38l1.89,4.9c5.24,1.22,12.21-.67,16.33-2.73,4.68-2.34,7-7.69,6-13.12-.87-4.43-4.86-7.45-10.36-7.71-3.69-.18-7.3.13-10.66,2a22,22,0,0,1-3.9,1.2c.35-3.83.64-7,1-10.5ZM720.64,69.2c0-5.07,0-9.88,0-14.68,0-2-.41-4.11,2.49-4.62.42-.07.87-1.23.88-1.89,0-.37-.83-1-1.36-1.08a14.82,14.82,0,0,0-3-.14c-5.15,0-10.3-.09-15.44,0-1.64,0-4.14-1-4.51,1.56-.12.82,2.08,2,3.72,3.42-1.68,3.62,2.86,9.23-3.56,12,1.14,3.23,1.15,3.37,3.84,3.23,3.61-.18,7.2-.6,11.3-1C714.88,70.22,717.17,70.22,720.64,69.2ZM449,109.9a26.44,26.44,0,0,1-1.54,4.5,38.45,38.45,0,0,1-4.81,7.45c-3,3.19-7.05,2.87-10.71,1.58-3.4-1.2-3.36-4.53-3.34-7.62,0-7,0-14,0-21a13.14,13.14,0,0,0-.66-2.7l-4.49.45c0,9.26-.22,18.07.09,26.86.16,4.7,3,7.93,7.53,9.58,6.64,2.42,14.77-.43,18.7-6.69a54.24,54.24,0,0,0,2.85-5.25C454.46,113.26,453.9,112,449,109.9ZM693.59,70.82c4.52-.06,4.62-.06,4.69-3.5.09-5,0-10,0-15,0-2.26.14-4.53.22-7l10.79-.5V31.45H693.59ZM823.83,49.93,847,35.46l-3.31-4c-8.09,5-15.69,9.76-23.4,14.35-1.8,1.07-3.5,1.88-3.6,4.27-.1,2.55,2,3.26,3.61,4.29,4.08,2.56,8.25,5,12.3,7.59s7.91,5.31,12.26,8.25l2.92-5.17ZM174.6,61.17c-.13-2.32-.28-3.75-.28-5.19,0-6.15,0-12.31,0-18.46a9.93,9.93,0,0,0-.14-3.46,4.07,4.07,0,0,0-2.23-2.14A2.13,2.13,0,0,0,169,33.78a23.77,23.77,0,0,0-.37,3.94c0,8,.11,16-.07,24-.07,3.19.88,5.45,3.94,6.94,8.95-3.55,14.76-10.05,17.85-19.5l-4.31-3.87C183.87,51.89,180.78,57.06,174.6,61.17Zm-72.66,62.6a18.57,18.57,0,0,0,1,3.65,2.39,2.39,0,0,0,2,1.13c4.64-1.13,9.47-1.89,13.76-3.82,5.84-2.64,8-8.24,6.82-14.57a11.78,11.78,0,0,0-10.21-8.91c-7.33-.75-14.25,1.76-21.7,2.64.21,2,.36,3.44.55,5.27,2.2-.33,4-.67,5.73-.86,4.92-.53,9.84-1.28,14.77-1.4,3.67-.09,5.68,2.45,5.7,6.1a8.28,8.28,0,0,1-6.54,8.33C110,122.35,106.09,122.93,101.94,123.77Zm900.91-78.65c1.89,3.61,1.72,6.92,1.15,10.22-.89,5.08-4.22,8.44-8.79,11.07l3,4c6.26-3,10.66-6.94,11.16-14.18.24-3.56.93-7.1,1.43-10.75l6.71-.73c.49-6.17-5.14-2.54-7.19-5.12,0-1.09.06-2.58,0-4.07-.2-4.31-1-4.84-5.77-3.57-.16,2.7-.33,5.46-.54,8.77H990.46c.13,1.78.22,2.95.33,4.38ZM139.17,102.33a44.82,44.82,0,0,1-1,4.94c-1.92,5.64-3.93,11.25-5.94,16.86-1.47,4.1-1.39,4.26,3.74,5.3,4.15-8.18,6.5-17.1,9.23-26.22,1.82-.14,3.6-.35,5.4-.41,2.32-.07,4.67.13,7-.11.93-.09,2.35-.9,2.53-1.64a2.44,2.44,0,0,0-2.3-3.15c-1.81-.18-3.65-.07-5.47-.12s-3.49-.16-5.37-.24v-6L142.72,91l-2.55,6.57-8.8.5.38,3.91ZM944.65,42.39c-1.07,9.37-5.54,17.08-8.26,25.62l4.72,1.84c5.09-8.51,6.72-18,10-27.07,3.17,0,6,.08,8.79,0,3.56-.13,3.79-.63,2.47-4.74l-9.62-.61c0-6.4,0-6.4-4.83-5.85-.17.57-.39,1.18-.54,1.82-1,4.21-1.07,4.28-5.15,4.41-1.77.05-3.53.15-5.53.24.14,1.59.23,2.66.33,3.84ZM48.52,98.07l.62,3.84,7.45.48c-1.19,9.16-5.34,17-8.31,25.64l5.08,1.81c4.28-8.81,6.73-17.73,9.44-27.06,3,0,6,0,9,0,1.86,0,3.42-.29,3.46-2.53s-1.66-2.46-3.45-2.5c-2.39-.06-4.78-.25-7.35-.4V91.45l-4.36-.32c-.88,2.34-1.62,4.32-2.4,6.42Zm569.85-3.93c0,7.54-.45,14.7.18,21.76.32,3.61,2.22,7.22,4,10.5,1.9,3.47,4.92,3.66,7.74,1s4.11-6.27,5.29-10.19l-4-3-4.45,8.27c-3.34-2.79-3.14-6.16-3.38-9.12-.43-5.28-.26-10.61-.47-15.91C623.13,94.24,622.76,94.06,618.37,94.14Zm125-32-1.51-.23c-.73-3.17-1.81-6.3-2.09-9.51-.44-5-.26-10-.45-15-.13-3.49-.6-3.72-5-2.79,0,6.42-.45,12.94.16,19.36a34.14,34.14,0,0,0,3.73,11.74c2.24,4.47,5.36,4.7,8.65,1a25.94,25.94,0,0,0,3.9-6.3c1.56-3.34,1.21-3.85-2.94-5.8ZM659.74,94c0,7.66-.44,15,.18,22.22.32,3.63,2.2,7.29,4,10.56,1.7,3,4.64,3.24,7.07.72a27.3,27.3,0,0,0,4.45-6.51c2-3.91,1.63-4.47-2.71-6.4-2,2.21-2.12,5.79-5.81,7.82-.85-3.67-2-6.79-2.23-10-.44-5-.27-10-.44-15C664.17,94.08,664.11,94.08,659.74,94Zm-74.1,31.86-8,.49v4.54c4.57.13,8.8.69,13.08-.42a10.12,10.12,0,0,0,.49-2.1c0-8.82,0-17.63,0-26.44a12.29,12.29,0,0,0-.07-1.49c-.27-1.9-1.58-2.37-3.24-2.32s-2.35,1-2.34,2.57,0,3.33,0,5Zm205.72.27a41.77,41.77,0,0,0-6.56.11,3.08,3.08,0,0,0-1.94,2.27c0,.81,1.11,2.35,1.78,2.38,3.9.12,7.87.81,11.92-.51.12-10.8.1-21.34,0-32.34l-5.24.51Zm-190-91.27V30.42H588.59V62.28c4.36.37,4.64.25,4.69-3.44.09-6.31,0-12.63,0-18.94,0-1.43.22-2.87.36-4.5Zm-443-1.45c0,2.22,0,4.17,0,6.13-.06,3.32,0,6.65-.29,10-.48,6.11-3.42,11-8.53,15l3.47,4.18a48,48,0,0,1,4.21-4c4.38-3.27,6-8,6.35-13,.4-5.46.09-11,0-16.46a6.85,6.85,0,0,0-.77-2ZM607.65,56.17c0,4.51-.11,8.14,0,11.75.12,3,2.23,4.35,4.63,2.57,2-1.5,4-1.23,6-1.37l4.89-.36c0-3.61.18-6.89-.12-10.12a3.55,3.55,0,0,0-2.48-2.36C616.56,56,612.46,56.17,607.65,56.17Zm374-5.35h0q0,7.47,0,14.94c0,2,1.06,3.07,3.1,3,2.21-.11,2.67-1.55,2.53-3.45-.23-3.12-.64-6.25-.61-9.37.08-6.62.43-13.23.6-19.85.05-1.77.41-3.88-2.27-4.2-1.92-.22-3.1,1.22-3.35,4-.07.82,0,1.65,0,2.48Zm-836.1-2.77H108.76c.08,1.64.14,3,.21,4.43h36.35C145.39,51,145.46,49.7,145.54,48.05Zm110.13,81.29c4.62-.21,4.78-.51,4.4-4.38a102.56,102.56,0,0,1,1-28.1c.72-4-.16-4.88-5.26-4.18C255.23,104.85,253.89,117.08,255.67,129.34Zm138.59-.92v-12c-5.09-.32-9.8-.64-14.37.19-1,5.85-.81,10.74.45,14.39Zm-363.73-6c2.71.64,4.17.19,4.11-2.43,0-1.32,0-2.65,0-4V95.66l8.91-.94-.31-4.21H30.53ZM764.58,62.06c5.67-.42,5.66-.42,4.81-5.3-.11-.65,0-1.33-.11-2a57,57,0,0,0-7-20.28L757.72,36c1.52,4.54,3.08,8.52,4.16,12.63C763,52.94,763.65,57.34,764.58,62.06Zm-123,34.08c1.44,4.65,2.87,8.71,3.92,12.85,1.1,4.29,1.83,8.67,2.82,13.46l5.23-1.13c-.13-9.67-3.07-18.12-7.23-26.67Zm41.51-.29c2.41,9.12,4.68,17.68,6.94,26.23,4.63-.46,5.39-.91,5-3.63-1.27-8.19-3.28-16.15-7.61-23.75ZM267.75,113.21c-4.49,5.74-2.74,12.21,3.92,13.57,4.79,1,9.85.86,14.79,1,3.58.06,4.11-1.07,3-5-3.16,0-6.28.08-9.4,0a22.78,22.78,0,0,1-5.35-.66c-3.87-1.08-4.07-1.56-3.6-5.59.05-.47,0-1,0-1.7ZM565.35,167c-3.25.5-2.69,2.46-2.69,3.94,0,15.14,0,30.29,0,45.43,0,.66-.18,1.46.12,2a16.24,16.24,0,0,0,2.59,2.47Zm-417.5-49.9c-3.5,6.18-1.7,10.66,4.56,11.46,5,.63,10.19.13,15.41.13v-4.95c-4.1,0-7.74.16-11.36-.06-2.32-.15-5.15.1-5.16-3.81C151.3,119.06,149.25,118.21,147.85,117.14Zm805-59.45c-2.61,5.86-.94,10.15,4.78,10.87,5.14.64,10.43.13,16,.13-.1-1.85-.19-3.42-.27-4.94-5.63-.23-10.93.84-16.28-1.24C957.34,59.66,956.3,57.76,952.89,57.69ZM65.16,117.58c-3.06,5.74-1.7,9.72,4.1,10.94,5.3,1.11,10.73.81,16.41.29l-.32-5c-4.27,0-8.09.22-11.86-.1-1.57-.13-4.4-1.48-4.35-2.13C69.36,118.22,67,118.32,65.16,117.58ZM268,100.94c7,.26,13.62.27,20.67,0-.17-2.07-.28-3.45-.4-4.88H268Zm-89.53-6.06,18.27,5.44,2-4.92c-5.47-1.51-10.53-2.92-15.61-4.3C180.48,90.37,179,91.51,178.46,94.88ZM84,106.22c-5.37.25-10.12.31-14.82.77-2.91.29-3.36,1.35-2.88,4.58H84Zm82.35-.12c-5.37.37-10.42.54-15.43,1.13-2.33.27-3.26,2-2.17,4.3h17.84C166.5,109.51,166.44,108.1,166.35,106.1ZM954.81,51.9c1,.08,1.81.22,2.62.2,4-.09,8-.24,11.93-.31,1.89,0,3.25-.57,3.25-2.79s-1-3-3.66-2.85c-3.94.27-7.87.66-11.79,1.09C954.6,47.52,953.77,49,954.81,51.9Zm-561,44.17c.83-3.33.15-4.87-2.55-4.92a71.72,71.72,0,0,0-8.92.12c-.93.1-1.71,1.52-2.56,2.33.87.82,1.7,2.29,2.62,2.35C386.12,96.22,389.89,96.07,393.78,96.07ZM615.14,36v0a36.89,36.89,0,0,0,5.47-.09c.72-.11,1.84-1.23,1.8-1.82-.06-1-.88-2.64-1.47-2.68a79.59,79.59,0,0,0-10.92,0c-.6,0-1.46,1.64-1.52,2.56a2.62,2.62,0,0,0,1.68,1.94A28.26,28.26,0,0,0,615.14,36ZM393.56,114.08l1-1.13c-.64-.9-1.19-2.51-1.92-2.59a72,72,0,0,0-10.38-.36c-.79,0-1.55,1.31-2.32,2,.76.69,1.49,1.93,2.29,2C386,114.19,389.78,114.08,393.56,114.08ZM615.28,50.15v0a31,31,0,0,0-4.92.08c-.71.11-1.79,1.09-1.8,1.7s1,1.91,1.56,1.95a96.4,96.4,0,0,0,10.34.08,2.75,2.75,0,0,0,1.84-1.77c.29-1.39-.73-2-2.09-2.06C618.57,50.13,616.92,50.15,615.28,50.15ZM329.62,112.36c-2.74-7.09-3.5-7.71-8-6.45l4.39,7.85Zm718.56-66.74,4.83,8.21,3.23-1.44C1054.49,45.91,1053.14,44.67,1048.18,45.62ZM963.12,32.73c1,1.92,1.79,3.54,2.67,5.1,1.5,2.63,1.52,2.61,4.83.76C969.14,32.58,967.09,30.8,963.12,32.73ZM79,99.84c3.87-.71,4.28-1.19,3-3.73a13.67,13.67,0,0,0-2.82-4c-.59-.53-2.08-.46-3-.13-.39.15-.65,1.78-.34,2.46A56,56,0,0,0,79,99.84Zm975.32-56c1.43,2.71,2.79,5.3,4,7.71,3.42-.78,3.61-2.3,2.53-4.55C1059.16,43.41,1058.13,42.77,1054.32,43.84ZM331.55,111.58c3.59-2,3.68-2.66,1.46-6.29-1.71-2.8-2.29-2.92-5.31-1C328.91,106.61,330.14,108.92,331.55,111.58ZM973.31,39.43c1.31-1.26,3.18-2.56,3-3a26.14,26.14,0,0,0-3.81-6.16c-.3-.36-2.09.51-3.62.93ZM89.08,96.88A70.67,70.67,0,0,0,85,90.81a2.65,2.65,0,0,0-2.56-.33,2.62,2.62,0,0,0-.56,2.44c.87,2,2.07,4,3.29,6.21Z"/>
      <path d="M298.78,553.25l3.58-1c.66,3.48-.29,7-1,10.46-1.09,5.19-2.32,10.38-2.93,15.63-.47,4,0,4,3.85,5.67,3.35,1.46,6.7,3,9.89,4.75,2.32,1.28,4.12,1.44,6.33-.32,3.12-2.48,6.53-4.58,9.83-6.82,3-2,6.55-3.73,4.74-9l1.17.24,2.5,2.56c2.6-1.67,5.41-3.36,8.08-5.23,6.13-4.3,12.18-8.71,18.29-13a16.07,16.07,0,0,1,8.73-3.22,76.21,76.21,0,0,0,8.48-1.29c.76-5.14-3.62-8.6-3.91-14.11,3.74,4.14,5.69,8,5.06,13,3.84,1.29,7.34-.08,11.2-.4,2,3.16,5.65,4.14,9.06,5,7.56,2,11.55,6.67,14.55,13.91,11.29,27.21,23.34,54.11,35,81.19a29.34,29.34,0,0,1,2.1,9.12c1.67,21.41,3.3,42.83,4.6,64.27.26,4.4-.82,8.9-1.45,13.33-2.56,18.12-5.11,36.25-7.85,54.35-.81,5.41-2.2,10.74-3.39,16.4h-68c.23-4.56.45-9,.66-13.41.46-10,1.69-20,1.21-29.91-1-21.12-2.89-42.19-4.39-63.28-.25-3.44-.36-6.9-.58-11.36-3.67,2.43-6.67,4.38-9.63,6.37s-6,4.14-9,6.19c.2,2,.37,3.67.54,5.37l-.74.3c-.84-1-1.69-2.1-2.9-3.59L319.17,714l.09.8c1.52,0,3-.06,4.55,0s2.9.27,4.73.44c-1.44,2.79-4.73,2-6.44,4.46,6.9,1.25,13.52-1.25,20.27.11l-19.61,5.25.23,1c3.23-.62,6.45-1.29,9.69-1.83,3.92-.66,8.23-.42,11.68-2.05,3.26-1.54,5.62-5,8.35-7.58,2.51,5.24,7.62,81.87,6.18,94.19H306c1.51-4.5,1-9.64,5.84-12.32,4.14,2.23,3,7.15,5.33,10.41,6.43-.17,11.26-3.63,15.64-7.66,2.77-2.54,2.17-6.26,1.55-9.43-1.39-7.1-6-12.5-10.62-17.7-1.78-2-4.12-2-6.88-1.42-6.76,1.4-10,6.78-13.95,11.41-.79.94-.49,2.79-.62,3.72,1.29,2.39,6.1-.24,4.78,4.71-3.09-.26-5.61-.83-7.37-3.87-2.05-3.56-2.81-3-6.33-.4-4.16,3.11-8.16,5.94-9.59,11.39-.5,1.9-2.82,3.35-3.27,5.25-.41,1.74.6,3.8,1,6-4.8.36-9.35.76-13.91-.86-3.4-1.2-7.18-3.07-10.59-1.05-5.76,3.4-11.87,2.11-17.85,2.14-24,.15-48,.07-72,.07h-6c-1-5.79-1.48-11.34-.64-16.92,2-13.49,4.07-27,6.36-40.44,2.35-13.81,4-27.61,3.8-41.69q-.34-31.73.68-63.47c.29-8.94,2.16-17.83,3.43-26.72,1.44-10,3.18-20.06,4.41-30.13.36-3,2-5.18,2.75-7.82,1.57-5.59,2.88-11.26,4.28-16.89.79-3.16,1.21-6.45,3.55-9.09-.35,8.8-2.92,17.26-4.22,27.09,5.37-3.59,10.78-5.45,12.88-11.24,1.48.22,3.13,1,4,.46,1.11-.68,1.6-2.39,2.52-3.92,1.1,2.36,2.5,1.07,3.9.28a137.11,137.11,0,0,0,25.57-18.92c4.63-4.3,9.44-8.41,14.08-12.68,1.89-1.73,4-3.49,3.82-6.57-2.34.28-4.89,1.36-6.26.52s-1.58-3.61-2.31-5.53c-.23-.62-.52-1.22-1-2.34L253.71,521l1.81,13.59c-2.46-.54-4.06.43-4.83,2.63-1.59,4.54-3.45,9-4.63,13.65-.56,2.2.07,4.73.34,7.09a6.78,6.78,0,0,1-1.9,5.37c-2.23,2.73-1.6,5.4.33,8.36a13.54,13.54,0,0,1,2.23,6.82c.09,4.57,1.68,8,5.87,10.22,8-.71,12.12-7,16.76-12.51a21.11,21.11,0,0,1,4.12-4.06c3.57-2.42,5.69-5.36,5.29-9.92-.24-2.85,2.84-7,5.88-7.81,4.3-1.19,7.85-3.09,10.48-6.89,1.25-1.81,3.4-3,5.6-4.86.25,4,1.24,7.67-2.25,10.54a11.91,11.91,0,0,1-.72,2.33c-4.91,9.08-9.38,18.43-16.38,26.52.22-2.11.42-4.05.62-6l-1.12-.46c-1.95,2-4.07,3.78-5.81,5.91-4.95,6-10.25,11.6-16.88,15.89a10.52,10.52,0,0,0-5.2,7.57c-.3,2.27-1.41,4.42-2.08,6.65-2.87,9.52-6.94,18.79-6,29.11a6.69,6.69,0,0,1-.35,3c-1.41,3.62-.29,6.47,2.49,8.84a9.88,9.88,0,0,1,3.41,5.28c1.38,5.17-1.76,8.93-3.72,12.95-1,2.1-3.53,1.63-4.76-.6-.89-1.59-1.39-3.38-2.14-5-1.8-4-2.21-7.82-.36-12a15.55,15.55,0,0,0,.94-10.22,22.67,22.67,0,0,1-.52-9.29c1.86-9.59,4.08-19.13,6.49-28.61a9.75,9.75,0,0,0-1.82-9.18c-4.64-6.15-7.81-13.07-8.25-20.93a5.48,5.48,0,0,0-2.4-4.61c-1.71.57-3.07,1.41-4.44,1.44-4.62.08-5.81.87-6.44,5.29a55.51,55.51,0,0,0-.72,7.92c0,14-2,27.8-3.08,41.7-1,12.75-1.87,25.52-3.57,38.17a46.82,46.82,0,0,0,1.53,19.66,8.25,8.25,0,0,1-.08,4.67c-.73,2.17-2.16,4.09-3.07,6.22a8.35,8.35,0,0,0-1,4.2c.54,3.39,1.53,6.71,2.34,10.06a45,45,0,0,0-5.95,1.22c-3.25,1.1-3.2,1.23-5.06-2.5-.52,4.15-1.08,8-1.47,12-.11,1-.06,2.6.55,3,1.38.95,2.68.22,3.44-1l-3.42-4.86c4.7-2.37,6.36-1.77,7.56,2.26.42,1.43.79,2.88,1.08,4.34a4.25,4.25,0,0,0,4,3.73c1.93.29,3.74,1.26,5.63,1.83a62.36,62.36,0,0,0,8.57,2.38c5.24.78,10.53,1.25,15.82,1.69s10.67,1.36,15.89.87c9.74-.91,19.4-2.66,29.09-4.13,2.44-.37,4.87-.72,6.07-3.6.38-.92,2.1-1.38,3.3-1.84,2.3-.89,4.67-1.62,6.94-2.39-.45-4.22.79-5.82,6.76-8.52l-47-2.14a17.26,17.26,0,0,1-.27-2.36c.71-12.44,1.46-24.87,2.17-37.31.17-2.82.33-5.64.38-8.47.13-7,.28-14,.24-21s-.36-14.29-.44-21.43a9.45,9.45,0,0,1,.93-3.33q8.13-20.35,16.32-40.73l5,1.6c.4-.45.74-.66.82-.94,2.22-7.49,4.45-15,6.57-22.48C299.49,554.92,299,554,298.78,553.25ZM239.91,741.47a17,17,0,0,0,6.49,12c2.81,2.27,5.78,3.21,8.8,1-.56-4.23-1.07-8.3-1.65-12.35-.3-2.09-1.53-3.35-3.71-3.24C246.37,739,242.9,739.29,239.91,741.47Zm25.71,10.68a47.13,47.13,0,0,0,3.81-5.19,41,41,0,0,0,2.16-5.63c-1.86-1.09-3.17-1.79-4.41-2.6a2.86,2.86,0,0,0-4,.27c-1.33,1.26-1.88,2.55-1.07,4.38C263.33,746.16,264.38,749,265.62,752.15Zm77.21,8c-1.76,2.59-4.14,4.73-4.42,8.27a26.64,26.64,0,0,0,2.79,1.2,13,13,0,0,0,2.32.32C346.43,765.48,346.35,764.36,342.83,760.11ZM209.14,729.76c-3.52-2.44-3.85-2.54-6.85-2.41C203.67,731.07,206.83,729.31,209.14,729.76Z"/>
      <path d="M674.07,435.61c2.89-.12,5.9-.57,7.35,3.34,2.1-4.39-2.81-5.29-2.95-8.59l3.19.18c1.89-2.89-.61-8.05,4.88-9.41-.32-5.16-.64-10.37-1-15.67,8.15-1,15.56-.87,22.09,5.7-2.1,1.58-4.12,3.09-6,4.5L694.33,413c-1.44,4.25-2.67,8.36-4.23,12.33-.85,2.15-3.06,4-3.21,6.11s1.79,4.34,2.29,6.62c2.35,10.73,4.56,21.48,6.73,32.25a22.37,22.37,0,0,1,0,4.34l-4.45-1-5.39,5.72v-4.82c-3,5.16-5.45,9.31-7.72,13.17,6.07,2,11.85,1.59,18.61-.28-4.82,6.82-12,9.9-14.77,16.81-3.7.81-7.39,1.92-11.15,2.37s-5.75,2.74-8.61,6.26c9.18-3.14,17.28-6,26.44-6.21.47,4.36,1.12,8.42,1.31,12.49.42,8.82,1.61,17.2,6.37,25.08,5.56,9.23,10.12,19.07,15.16,28.63a6.25,6.25,0,0,0,2.89,2.65,25.68,25.68,0,0,0,0-3.51c-1.1-7.78-5.16-14.33-8.83-21a34.69,34.69,0,0,1-3.73-8.32c2.92,1.4,5.92,2.67,8.72,4.27a4.92,4.92,0,0,1,1.74,2.87q2.93,10.85,5.63,21.75a13,13,0,0,1,.14,3.48q-.74,37.74-1.5,75.47c-.12,6-.35,12-.26,18,0,3-.59,5.6-2.83,7.66-2.67,2.45-3,5.47-3.17,9-.48,12,4.14,22.44,9.75,32.51,5.27,9.46,11,18.68,16.53,28a30.31,30.31,0,0,1,4.27,10.55c2.66,15.4,5.5,30.78,8.21,46.17.35,2,.37,4,.54,6.05l-1.29.15-6-30.54c-1.83,2.63-3.84,4.57-4.63,6.91s-.43,5.23-.59,8.13c-2.09-1.33-1.34-4.62-4.36-5.43-1,2.88-1,5.36.86,7.83a35.32,35.32,0,0,1,6.52,13.39H636.92a26.19,26.19,0,0,1-.27-3.94c1.08-13.61,2-27.23,3.39-40.8,1.8-17.38,4.06-34.71,6-52.07a11.25,11.25,0,0,0-.88-4.3c-.54-1.73-1.28-3.41-1.93-5.1a23.72,23.72,0,0,1,3.27,2.16c2.38,2.2,4.91,4.11,5.34,7.94a31.66,31.66,0,0,0,3.1,9.85c1.26,2.65,2.83,5.44,6.46,6.48,1-5.57-.87-10.57-1.69-15.63-.37-2.24-1.94-3.92-4.08-5.29-3.67-2.35-7-5.25-10.88-8.24-.49,1-.93,1.95-1.37,2.88l-4.78-8.53c-5.25.91-10.64,1.76-16,2.86-.88.18-1.74,1.34-2.25,2.25a34.4,34.4,0,0,0-1.78,4.52c-5.21-.28-10.35-.32-15.43-.9-3.79-.43-6.9.44-9.42,3.21-4.1,4.49-8.37,5.35-14.5,3.32-5.47-1.81-8.51-5.26-11.81-9.55,4.48-6.33,6.28-14.56,14.51-18.27l4.88,2.28c-1.36-15.12-4-29.61-5.17-44.23s-6.47-28.89-6.55-44.19c4-1.47,7.68-3,11.45-4.11a7.28,7.28,0,0,0,5.46-5.2c.34-1.1.94-2.13,1.36-3.22,2.21-5.75,4.68-11.13,10-15.05,3.26-2.42,5.53-6.18,8.26-9.32,1-1.2,2.14-2.37,3.71-4.1,1,6.38-3,11.76-.88,18.5l2.32-6.08.47.07c-.6,4.41-1.21,8.82-1.87,13.68,4.51-6.52,5.84-13.74,8-20.93,5.21-.56,11.35,2,14.78-4.38a1.72,1.72,0,0,0-.09-.72c-3.1-6.07-1.08-11.14,2.87-16q6.75-8.29,13.25-16.82c1.61-2.09,2.93-4.41,4.15-6.27.15-7.2-6-9.27-9.8-14-2,10-3.89,19.31-5.6,27.81-2.26,1.32-4.13,1.86-5.07,3.1s-1,3.25-2.06,4.76c-.13-2-.27-3.94-.41-6.06l-5.69-1.93c-1.2,3.8-2.42,7.63-3.64,11.45l-.87-.18c.41-4,.82-8.06,1.29-12.75L624,532c-.68-2.43-1.19-4.27-1.7-6.11h-.73c-1,4.54-2,9.09-3.15,14-1.28-2-.75-3.94-.67-5.74.2-4.81.64-9.61.89-14.42.37-7.13,1.11-14.28.86-21.4-.21-5.75-1.66-11.46-2.53-17.19-.57-3.77-1.32-7.53-1.55-11.32-.12-2-.72-4.79,2.65-5.45.33-.07.51-1.42.57-2.18.33-4,.39-7.81-1.3-11.64-.88-2-.69-4.48-.91-6.74-.17-1.76-.91-2.78-3.15-2.6-.36,1.35-.72,2.72-1.17,4.4-.56-1-1-1.79-1.61-2.89L603.34,447l-5.53-10.37c4.43-3.59,8.59-6.87,12.63-10.29a4.87,4.87,0,0,1,6-.58,6.94,6.94,0,0,0,7.08.08c1.52-.78,1.58-.56,5.16.64a3.86,3.86,0,0,0,2.35-.33c4.34-1.66,8.68-3.29,12.94-5.13a15.14,15.14,0,0,1,10.62-1.06c3.82,1.08,7.83,1.45,11.73,2.28,2.2.48,4.77.49,5.65,2.78l-9.34.87-.17.76,11.32,5.16c.13,1.18.27,2.57.43,4l-8.07.41c3.1,3.82,6.07,7.5,9.07,11.16,1.09,1.32,2.31,2.36,4.4,1.05C679.43,443.35,676.62,439.54,674.07,435.61Zm.52,174.17c2.85-2.31,4.26-5.84,4.69-9.9.21-2,.69-3.92.88-5.89.33-3.28,1.38-6.78.61-9.81A222.84,222.84,0,0,0,673.14,560c-1.76-4.61-4.57-8.87-7.27-13.05-.85-1.29-3.5-2.9-4.34-2.47-4,2.08-8.93,3.09-11.33,8.54,4.56,7,9.37,14.22,13.88,21.57a65.86,65.86,0,0,1,4.31,9.47,4.34,4.34,0,0,1-.63,4.61c-2.74,3.67-4.25,8.13-7.76,11.4-2.36,2.2-1.82,5.27,2.23,5.88S670.27,608.38,674.59,609.78ZM644.44,476.55c-2.48-12.44-7.43-23-10.9-34.62-.85,1.12-1.2,1.59-1.57,2.09-1.32-2.72-3.5-3.32-6.54-3,1.54,10.14,3,19.83,4.47,29.47,1.89-.64,4.05-.72,4.73-1.76,1-1.54,1-3.77,1.38-5.69.2-.9.49-1.78.73-2.66a63.73,63.73,0,0,1,.74,11.3,54.23,54.23,0,0,0,.4,5.41c0,.33.59.59,1.06,1l1.62-3.35Zm-20.92-41c3.16,2.53,6.88,2.62,10.68,2.33.41,0,1.17-.38,1.16-.57-.08-2.68,3.16-2.07,3.83-3.59-.46-1.31-.8-2.3-1.22-3.51,5-.92,10.21.35,14.51-2.74-2.39-3.62-5.52-5-7.18-2.86-2.3,3-5.32,2.78-8.28,3.43-1.39.31-3.7.79-3.87,1.57-.69,3.18-3,3-5.2,3.18C626.11,433,624.25,433.05,623.52,435.53Zm-.68,27c.72-.6,1.14-.78,1.17-1a48.37,48.37,0,0,0-.89-18.14c-.24-1-1.75-1.74-2.68-2.59l-.94.62C620.69,448.3,619.86,455.55,622.84,462.51ZM648.67,498c.67-2.87.64-2.84-.3-3.94-.7-.81-2-1.82-1.82-2.54.54-3-.91-6.19,1.28-9.06,1.17-1.52,0-2.89-2.06-4.29-.83,3.81-1.54,7-2.29,10.47l-2.56.82c1.2,1.72,2.51,3.08,3.18,4.71A5.47,5.47,0,0,0,648.67,498Zm-9.37.85c-.57.64-1.38,1.13-1.54,1.77-1.85,7.41-3.61,14.85-5.47,22.61,3.61-.83,4.13-3.65,3.61-5.51-.58-2,.4-3,1-4.44C638.72,508.78,642.78,504.63,639.3,498.87ZM607.06,622.08l1.13.15q3.06-9.35,6.11-18.7l-1.26-.46-3,8.38-2.29-1.55C603.29,614.05,607.16,618.08,607.06,622.08ZM665.81,453c-2-4.06-4.22-6.11-7.06-6.7a3.81,3.81,0,0,0-4.31,1.76C658,450.58,661.26,453,665.81,453Zm-4.08,320.86c3.77,2.91,7.95,3.2,12.24,2.77.06-.33.11-.66.16-1Zm-2.93-330.8c4,4.35,4.14,4.45,8.71,5C664.63,444.24,663.54,443.58,658.8,443.05ZM642,803.48c2.49-3.68,1.51-7.76,1-11.8C641,795.39,641.21,799.37,642,803.48ZM721.43,784a13.67,13.67,0,0,0,1.39,12.43Q722.12,790.24,721.43,784Zm-8.54-11.82c-1.84,4.13-1.78,4.49,0,6.73Z"/>
      <path d="M243.75,482.37c-4.25,2.17-2.18,7.4-5,10.76-.89-6.06-1-12-3.15-17.5l-1,.12c.75,9.51,1.5,19,2.31,29.32l-3-3.88c-.54,4.24-.83,7.68.26,11.21.81,2.63.91,5.34-.89,7.93C229.71,506.42,229.46,492,226,477c-3.4,8.34-4.88,16.4-8.65,23.75.5-4.71,1-9.43,1.5-14.14a37.19,37.19,0,0,1,.57-3.95c1.74-7.87-.4-15.55-1.19-23.28-.49-4.8-1.08-9.61-2-14.34a11,11,0,0,1,1.18-7.65,19.26,19.26,0,0,0,2.34-7.21L199.38,441l-.56-.89c4-2.77,7.79-5.8,12-8.24a30.87,30.87,0,0,0,12.64-14.27c2.93-6.34,6.38-12.45,9.84-18.52a18,18,0,0,1,4.58-5c2.88-2.25,6.09-4.08,9.08-6.19,4.23-3,8.43-5.41,14-5.7,4.18-.22,8.29-2.31,12.34-3.79a16.24,16.24,0,0,1,9.22-.71c7.36,1.46,14.74,2.69,21.06,7.11a30.68,30.68,0,0,1,5.75,4.59c7,8,13.85,16.15,20.65,24.33a7.15,7.15,0,0,1,1.65,4c.15,4.73,2.39,8.14,6.07,10.83.66.49,1.16,1.22,1.85,1.67,5.3,3.47,7.37,8.51,8,14.66s1.93,12.08,2.11,18.57q-3.78-4.85-7.55-9.7c-.92-1.18-1.81-2.39-2.76-3.55a6,6,0,0,0-9.65.75c-5.08,7.75-5.24,16.45-5.33,25.72L327,475.3c-.35,2.5-.35,2.5-3.61,3.56,1.21,4.52-1.34,8.66-1.23,13.15s-.94,8.81-1.5,13.41l6,2.27c-2,1.69-3.67,3.24-5.51,4.47-2.7,1.79-3.93,4-2.38,7.6l8.32,2.79c-3.68,3.35-7.22,6.65-10.89,9.8a3.46,3.46,0,0,1-2.77.56c-5.4-1.47-8.44,1.54-10.81,5.35h-7.14c1.33-1.7,2.24-3.82,3.83-4.68,4.16-2.28,4.27-6.38,5-10.07a23.7,23.7,0,0,0-.39-7.85c-.33-2.17.65-3.34,2.56-5v5.81c.56-2.47,2.69-5-.4-7.29-.55-.41-.54-2.27-.13-3.16a37.87,37.87,0,0,1,3.6-6,15.66,15.66,0,0,0,2.85-10.29c-.47-11-.7-21.94-1.05-32.9a12.62,12.62,0,0,0-.8-4.25c-2.71,3.47-1.91,7.74-2.93,11.55a89.11,89.11,0,0,0-1.9,11.79c-.54,4.11-.89,8.25-1.35,12.38-.43,3.84-.89,7.68-1.33,11.52h-1.12q-1.87-17.57-3.74-35.22a57.34,57.34,0,0,1-7.25-.07,60.47,60.47,0,0,1-7.19-1.88c.32,8.61.62,16.43.92,24.26-2.51-2.53-2.75-5.6-3.28-8.6-1.22-7-2.51-13.9-3.78-20.85-3.7-3.68-1.8-8.37-2.24-12.63a8.52,8.52,0,0,0-1.12-4c-1.09,4.71-.91,9.41-.75,14.1a1.77,1.77,0,0,0,.59,1.32c3.62,1.82,2.58,5.32,3,8.38-1.48-3.09-3.71-5.75-5.32-8.58s-1.12-6.81-1.42-10.31c-.21-2.49.61-5.12-1.15-7.47-1.34,7.67-.52,15.37-.14,22.57-2.53,1.25-4.53,1.94-6.18,3.13-2.47,1.78-5.15,2.11-8,2.09s-5.59-.8-7.46-4.2l8.79-4.43L248.94,455c6.47-.95,12,2.42,18.49,3.41-.38-9.17-.75-18.08-1.14-27.37-4.44-.76-8.61-1.84-12.83-2.12-5.32-.35-9,3.42-8.91,8.84a38.5,38.5,0,0,0,.91,6.89c.47,2.45,1.11,4.91-.2,7.23-2.45,4.3-1.92,9-2,13.6v2.67l-1.83-3.58c-1.26,1.87-.82,3.46-.71,4.93a86.37,86.37,0,0,0,1,8.8C242,479.62,243,480.85,243.75,482.37Zm39.42-25.61,13-5.54c-1.63-8.17-3.25-16.22-4.89-24.4-1.26.14-2.52-.05-2.77.37a13.74,13.74,0,0,0-1.79,4.45c-1.07,5.85-2,11.72-2.89,17.6C283.52,451.33,283.45,453.46,283.17,456.76Z"/>
      <path d="M288.53,503.05c-.83.4-1.65,1.14-2.5,1.16-6.37.17-12.75.21-19.12.22-.33,0-.66-.68-1.21-1.28,7.52-4.17,15.11-1.67,22.6-1.09Z"/>
      <path d="M331.84,467.93l-4.31,2.22c-.27-3,.1-5.33,2.84-6.59.29-1.76-3.23-3.5.35-5C334.68,461.15,331.24,464.73,331.84,467.93Z"/>
      <path d="M270.62,492.29l12.8-.9C276,495.9,275.82,495.9,270.62,492.29Z"/>
      <path d="M282.4,507c-4.49,3.58-6.65,3.64-11,.67C274.88,506.09,278.18,507,282.4,507Z"/>
      <path d="M609.27,478.22c3.56,1.8,3.56,1.8,4.06,5.23l-3.43.26C609.69,481.88,609.51,480.33,609.27,478.22Z"/>
      <path d="M362.12,499.64l-8.31,3.1c1.74-3.28,5.27-2.67,7.71-4.42Z"/>
      <path d="M603.47,476a33.82,33.82,0,0,1,.07-4.32,1.7,1.7,0,0,1,1.39-.94c.46,0,1.28.89,1.2,1.17C605.75,473.33,606.23,475.32,603.47,476Z"/>
      <path d="M708.43,417.66l1.26,4.66C706.61,420.07,706.61,420.07,708.43,417.66Z"/>
      <path d="M615.52,514.6l-3.35-3.07C614.9,510.89,615.32,511.85,615.52,514.6Z"/>
      <path d="M329.37,477.94l2.47-1.65.52.58-2.12,2.1Z"/>
      <path class="cls-1" d="M7.75,7.16V4.77c.19-.21.28-.34.4-.45s.26-.27.4-.29a29.69,29.69,0,0,1,3-.23q559,0,1118,.05a11.71,11.71,0,0,1,2.24.67c-1,1-1.52,2-2.23,2.12a37,37,0,0,1-5.48.14H13.05c-1.82,0-3.65.14-5.47.21Z"/>
      <path class="cls-1" d="M210.62,129c0-.92-.1-2-.18-3.74l16.71-.83.11-.92a9.21,9.21,0,0,0-2.33-.72q-4.25-.14-8.49,0c-2.82.07-3.41-1.37-2.77-4.39l13.42-.55.13-1.16c-1.13-.19-2.26-.33-3.36-.58-3-.7-7.06,2-9-2.55a5.41,5.41,0,0,0-.93.2c-2.8.5-4.15-1.59-3.41-3.42,2.46-6,1.41-12.42,2.07-19.17,5.1,0,9.89-.19,14.65.08,2,.12,3.88,1.46,5.89,1.79,1.7.28,3.6.49,4.6-1.89.26-.62,2.41-1,3.42-.62,1.22.4,2,2,3.25,2.46s2.93.23,4.23.29c3.22,3.34-1.65,3.56-1.87,5.91.37.24.84.77,1.35.81,1.8.16,3.46.43,3.14,2.81s-2.31,1.86-3.89,2l-4.56.31c0,.45,0,.89,0,1.33,1.68.13,3.35.3,5,.37,1.5.06,2.67.51,2.69,2.23s-1.34,2.06-2.76,2.08c-1.62,0-3.25,0-4.75,0-1.14,5.43-1.14,5.43-5.13,5.32-.32-1.49-.65-3-1.05-5h-7.18c-1.37,3.85,5.68,2.54,3.53,6.65,3.79,0,6.78,0,9.76,0,1,0,2,0,3,.07,1.58.15,2.59,1.19,2.2,2.65a3.27,3.27,0,0,1-2.35,1.84c-2.81.24-5.66,0-8.49.13a30.59,30.59,0,0,0-3.55.49v1.12c1.51.12,3,.32,4.53.35,3.5.07,7-.11,10.48.2a3.75,3.75,0,0,1,2.42,2.45c.4,1.55-.81,2.36-2.41,2.34l-37.42-.31C211.17,129.45,211,129.29,210.62,129Zm6.9-26c4.62,1.48,8,1.33,11.19-.35C224.59,101.93,221,101.7,217.52,103.07Zm6.2-5.39c-2.12-3.36-3.66-3.35-6.3,0Zm12.82,8c-2.35-1-4.71-1.33-8.18.1C231.85,107.17,234.17,107.05,236.54,105.7ZM225,109.26c-2.52-.48-4.08-1-5.21.65.61,2.13,2.18,2.22,3.59,1.89C223.93,111.66,224.25,110.45,225,109.26Zm12.57-12.38c.69,3,1.69,3.54,3.16,2.8.4-.21.46-1.09.68-1.65Zm-5,2.8c.29-1.72-.36-2.64-2.05-2.45-.39,0-1.07.92-1,1.28C229.89,100.29,231.14,100.17,232.53,99.68Z"/>
      <path class="cls-1" d="M396.43,98l-.6-4,18.88-3.56,2.58,3.7c-2.39.73-4.4,1.33-6.74,2-.07,1.69-.14,3.3-.23,5.26l8,.61c1.31,4.24,1.14,4.56-2.6,4.72-1.64.07-3.27,0-5.13,0v5c7,.89,7.05.89,7,8.11,0,3.16-.08,6.33-.16,9.49,0,.3-.26.59-.69,1.52-1.29-.17-3,0-4.26-.63-3.67-1.76-7.07-1.89-10.71.19-3.08,1.75-5,.47-5.15-3.14a65.37,65.37,0,0,1,0-7c.17-2.46.61-4.91,1-7.87l6.63-.55v-4.88c-4,.18-7.5-1-11.53,1.15-2.88,1.54-7.15.65-10.78.45-.77,0-1.8-1.74-2-2.81-.09-.52,1.42-1.89,2.25-1.93,3.79-.22,7.6-.1,12.49-.1-3-2.54-5.52-1.49-7.77-1.66-2.48-.19-5,0-7.87,0-.11-1.42-.2-2.59-.33-4.21h17.77v3.53h8.14c-.24-1.6-.42-2.81-.6-4.06Zm6.22,25.78h9.68c-.15-2.38-.28-4.4-.41-6.35h-9.27Z"/>
      <path class="cls-1" d="M647.35,42.44v4.27h-8.76v5.68l6.7.69V70.72c-1.21.06-2.53.55-3.34.1-4.22-2.34-8.22-2.66-12.52,0-2.06,1.25-4-.06-4.07-2.53-.13-5,0-9.92,0-15.15l7-.56c.1-1.83.18-3.43.29-5.39-4.09,0-7.6-.92-11.63,1.1-2.94,1.47-7.17.5-10.81.34-1.52-.07-1.53-.47-1.65-4.58h13.59l.15-1a8.27,8.27,0,0,0-2.33-.8c-3.5-.1-7,0-10.5-.09-2.35-.07-2.34-.19-2.67-4.07,5.43-.45,10.87-.15,16.55-.2.53,1.23,1,2.37,1.69,3.91h7.26V37.31c-1.93.17-3.62.63-5.18.35a3.9,3.9,0,0,1-2.66-2.24c-.41-1.64,1.1-2.07,2.53-2.29,5.06-.8,10.11-1.65,15.71-2.58l2.68,3.6-6.76,2.1v5.37Zm-7.3,15h-9.13v6.28a11.8,11.8,0,0,0,9.13.47Z"/>
      <path class="cls-1" d="M685.09,63.76c.14,1.45.3,3,.5,5-2.33.14-4.1.32-5.88.34-3.83.05-7.67.21-11.48,0a24.23,24.23,0,0,1-7.71-1.62c-3.84-1.63-4.92-5.81-2.19-8.93,2-2.28,4.8-3.89,7.32-5.7,1.28-.92,2.73-1.6,4.4-2.56-4.58-2.33-7.56-1.21-15.39,5.46l-3-3.42,9-10.65-7-.88c-.14-1.45-.27-2.86-.47-5,2,0,3.64,0,5.25,0,3.16.08,6.2.34,8-3.38.89-1.85,3.08-1.51,5.22-.83-.06,1.24-.12,2.47-.19,3.77a8.07,8.07,0,0,0,1.57.39q4.23.06,8.48,0c1.73,0,2.93.56,3,2.5.08,2.22-1.23,2.84-3.18,2.83-4,0-8-.13-12,.06a8,8,0,0,0-4.2,1.91c4.28.53,8.24,1.17,10.72,5.51,2.09-.61,4.15-1.11,6.14-1.82,4.3-1.53,4.63-1.37,6,3.69L676.48,53.9v6.41c-5.06,1.12-5.1,1.1-6.3-4-3.38.74-6.49,1.6-7.86,6C669.64,64.9,676.91,63.37,685.09,63.76Z"/>
      <path class="cls-1" d="M920,63c4.4-1.92,5.8-4,5.25-7.47-.46-2.84-3.21-5.34-6.81-5.64-5.91-.5-11.6.27-16.55,4-1,.79-2.17,1.47-3.65,2.46l-3.64-4.13L913.92,38c-.1-.28-.19-.56-.28-.84H899.57c-1.2-4.76-.91-5.31,3-5.38,5.49-.09,11,.15,16.48-.09,3.14-.14,5,1,6.32,4.43l-12.75,8.4c3.8.52,6.56.7,9.22,1.3,4.33,1,7.7,3.34,8.6,8,1,5.2-.54,9.82-5,12.64-5.88,3.7-12.48,4.25-19.17,2.43-2.89-.79-5.54-4.11-5.56-6.42,0-2.64,2.14-5.44,5.2-6.63,5-1.95,9.26-.27,12.8,4.69A23.12,23.12,0,0,1,920,63Zm-5.57.85c-1.07-2.7-2.55-4.3-5.32-4-1.68.16-2.79.91-2.58,3.12C908.83,64.34,911.16,65.71,914.44,63.86Z"/>
      <path class="cls-1" d="M864.31,69.82H859c-.19-3.89-.36-7.58-.59-12.35-2.1,2.88-3.57,4.91-5.47,7.53l-2.36-4.89c2.18-6,9.52-9.18,7.8-17l-6.6-.73c-.15-1.36-.28-2.6-.46-4.26l6.89-.65c.16-1.07.38-2.15.47-3.24.32-4.18.3-4.19,5.41-3.64v10c1.69-1,2.63-1.42,3.49-2,2-1.41,3.89-3.16,6.08-4.28,6-3.11,12,.9,11.64,7.8-.15,2.78-1,5.52-1.31,8.3-.36,3.57-.46,7.16-.68,10.74l1,.53,5.06-4.61c1.57,1.8,2.72,3.73,1.27,6.08-1.75,2.83-4.26,4.71-7.77,4.59A4.85,4.85,0,0,1,878,62.91a69,69,0,0,1,.79-11.81c.46-3.92,1.31-7.81.13-12.5-1.9.56-3.87.6-5.06,1.59a75.81,75.81,0,0,0-8.49,8.32c-.85,1-1,2.76-1,4.19-.13,4,0,8,0,12Z"/>
      <path class="cls-1" d="M724.81,129.2l-3.29-5c8.63-2,13.78-6.57,12.63-15.49-.76-5.91-4.14-9.07-9.6-10.12-1.75,6-3.17,12.13-5.38,17.94a29.27,29.27,0,0,1-5.72,8.58c-2.62,3-6.38,2.72-9.16-.13a9.53,9.53,0,0,1-2-2.83c-3.43-8.16-2.65-19.21,6.61-25.76,8.17-5.78,20.89-4.47,26.87,2.66,6.62,7.9,4.27,22-3.82,26.84a37.09,37.09,0,0,1-3.48,1.94C727.42,128.32,726.31,128.64,724.81,129.2Zm-6.68-31.06c-9.69,2-14.88,11-11.7,19.52.47,1.25,1.6,3,2.55,3.12s2.76-1.28,3.25-2.42c1.89-4.39,3.56-8.9,5-13.46C717.9,102.82,717.84,100.51,718.13,98.14Z"/>
      <path class="cls-1" d="M337.8,112.45a10,10,0,0,1-.42-1.75,14.33,14.33,0,0,1,.16-1.84c.26-.2.38-.37.52-.38,2.12-.22,4.25-.43,7-.69.2-1.61.4-3.29.67-5.42l-8.09-.45V98h8.26c.89-2.38,1.62-4.36,2.44-6.56H353c.1,1.81.18,3.39.27,5.29,3.3,2.32,7.53.31,11.62,1.49.11,1,.23,2.06.42,3.72H351.94c-.33,2.21-.59,3.92-.94,6.22h9.18c1.71,0,3,.63,3,2.51,0,2.13-1.66,2.14-3.21,2.14h-9.28c-3.2,7.1-.88,11.12,6.19,11.33.33,0,.67,0,1,0,8.31,0,10-2,8.72-10.08a18.13,18.13,0,0,1-.11-1.93c3.6-1.15,4-1,5.07,1.48,2.73,6.4-.11,13.06-7,15a29.72,29.72,0,0,1-10.77.78c-6.94-.64-10.27-5.37-10.17-12.32,0-1.17.11-2.33.18-3.88Z"/>
      <path class="cls-1" d="M551.33,111.82V91.1h5c.19,2.39.38,4.65.61,7.48,3.29.07,6.55.11,9.8.22a5.4,5.4,0,0,1,2.85.5,2.92,2.92,0,0,1,.82,2.54,3,3,0,0,1-2,1.8,36.89,36.89,0,0,1-5.47.14H556.9v9.84l14.78,8.31c-1,1.89-1.77,3.4-2.72,5.21l-11.51-6.67c-.47.93-.8,1.46-1,2-2.85,7.43-10.93,9.75-17.33,5-4.49-3.36-4.61-8.56-.29-12.13C541.46,113.14,544.21,112.33,551.33,111.82Zm-.09,7.34c-2.81-2.19-5.51-1.58-8.07-.37-.82.39-1.84,1.84-1.66,2.51a3.94,3.94,0,0,0,2.35,2.52,34.19,34.19,0,0,0,6.25.11Z"/>
      <path class="cls-1" d="M515.84,97.12H503.69v-5c6.47,0,12.76,0,19.06,0,2.34,0,3.42,1.61,4.48,3.84l-12.36,9,.21.82c2.07,0,4.14,0,6.2,0a11.86,11.86,0,0,1,8.47,3.64c5.27,5.32,4.48,13-1.92,16.94-4.72,2.9-10.08,3.2-15.38,3.3-2.89.06-3.37-2.12-3-5,1.18-.19,2.42-.41,3.67-.57a89.59,89.59,0,0,0,9.85-1.27c3.33-.79,4.68-3,4.67-6.22s-1-4.37-4.54-5.64c-5.87-2.1-11.06,0-16.12,2.64a60.29,60.29,0,0,0-5.29,3.48L498.36,114c5.33-6.29,11.7-11,18-15.7C516.18,97.88,516,97.5,515.84,97.12Z"/>
      <path class="cls-1" d="M776.86,121.74c-.43,1.47-.59,2.28-.9,3a28.17,28.17,0,0,1-1.42,2.49l-11.25-6.79a22.62,22.62,0,0,0-1.71,3.45c-1.21,4.29-4.6,5.46-8.38,5.83-4.4.44-8.28-.75-10.82-4.7-1.53-2.39-1-6.7,1-8.73a11.28,11.28,0,0,1,8-3.5c1.65,0,3.3,0,5.49,0,.91-7.36,0-14.49.59-21.44,4.78-.59,4.78-.59,5.48,7.2h12.4c1.13,5,1.08,5.1-2.74,5.21-3.13.08-6.26,0-9.69,0v10Zm-19.72-3.1a9.48,9.48,0,0,0-8.82.4c-2,1.1-2.14,3.32,0,4.17a11.69,11.69,0,0,0,6.2.57C757,123.31,756.38,120.76,757.14,118.64Z"/>
      <path class="cls-1" d="M7.58,7c-.09,2-.26,4-.26,6q0,70.42,0,140.83a22.25,22.25,0,0,1-.13,4.48C7,159,6,159.61,4.58,161.12V6.94l3.17.22Z"/>
      <path class="cls-1" d="M62.09,68.92C57.74,64.37,53.87,60.33,49.78,56c-5,5-10,9.66-17.05,12.4L29.66,63.9c11.39-5.28,19.93-12.61,24.51-24.84H33V33.78h8.59c4.66,0,9.33.1,14,0,2.62-.08,4.52.72,5.91,3.94L54,51.44,66.06,64Z"/>
      <path class="cls-1" d="M71.23,61.74H97V40H72.32c-1.45-5.11-1.12-5.77,3-5.82,7.81-.08,15.63,0,23.45,0,2,0,3.77.39,3.78,2.85,0,9.78,0,19.56,0,29.21-4,1.14-22.75,1.43-30.95.56C71.54,65.4,71.42,64,71.23,61.74Z"/>
      <path class="cls-1" d="M803.77,69.18c-7.58-.11-13.58-2.48-16.83-9.57-3.7-8.06,1.14-13.52,6.16-19.32-5.6-1.34-11.17.21-17.11-.41-.09-1.38-.19-2.74-.27-3.93.66-.37.93-.65,1.22-.67,11.4-.52,22.8-1,34-1.51,1.74,4.32,1.59,4.52-2,5.41s-7.18,1.47-10.39,3a12.54,12.54,0,0,0-7.24,11.13c-.25,4.34,1.33,6.84,5.38,8.55a51.74,51.74,0,0,0,5.21,1.66C805.57,64.62,805.57,64.62,803.77,69.18Z"/>
      <path class="cls-1" d="M1040.87,39.93h-17.81c-.39-2.28-1.2-4.56,1.91-4.72,11.23-.58,22.46-1,34-1.41v5c-2.5.37-4.77.7-7,1.05-6.19,1-11.79,5.94-13,11.56-1.14,5.16.73,8.69,5.71,10.6,1.55.6,3.17,1,4.76,1.48,3.64,1.11,3.66,1.15,2,5.25-7.32.75-13.36-2.3-16.52-8.33C1031.88,54.81,1032.59,48.81,1040.87,39.93Z"/>
      <path class="cls-1" d="M721.85,66.32,726.46,65c-.28-6.52-.55-12.89-.85-19.87H713.35c0-4.2,0-7.82,0-11.43,0-1.92,1.3-2.54,3-2.55H730.6a20,20,0,0,1,.67,3.53c.05,10.33.08,20.66,0,31,0,4.28-2.34,6.16-6.33,5.41C722.65,70.64,722.05,69.74,721.85,66.32Zm-1.07-26.06,0,.63,3.32-.18,0-.45Z"/>
      <path class="cls-1" d="M313.79,99.87H296.58V95.68a8.08,8.08,0,0,1,1.84-.52c7.63-.15,15.27-.24,22.9-.38,3.44-.07,6.87-.22,10.86-.36l.49,4.21c-2.81.47-5.23.77-7.61,1.28-5.83,1.25-10.41,4.1-12.62,10-2,5.26-.39,9.63,4.74,11.88a79.78,79.78,0,0,0,8.47,2.66c-.25,1.67-.47,3.18-.71,4.79-8.2-.08-14.46-2.5-17.63-10.17C304,111.15,309.05,105.74,313.79,99.87Z"/>
      <path class="cls-1" d="M475,99.94H457.65V95.33c6-.18,11.79-.43,17.58-.53s11.57-.06,18-.09c.07.84.2,2.32.35,4-2.88.47-5.32.79-7.73,1.28-6.82,1.39-11.16,5.54-13,12.18a8,8,0,0,0,4.85,9.36c2.71,1.16,5.64,1.82,8.81,2.81-.07,1.38-.15,2.79-.22,4.12-7,1.24-13.31-1.47-16.49-6.91C465.85,114.83,467.05,109.32,475,99.94Z"/>
      <path class="cls-1" d="M174.38,97.79l5.21.68c-.31,3.46-.6,6.67-1,10.5a22,22,0,0,0,3.9-1.2c3.36-1.82,7-2.13,10.66-2,5.5.26,9.49,3.28,10.36,7.71,1.07,5.43-1.29,10.78-6,13.12-4.12,2.06-11.09,3.95-16.33,2.73l-1.89-4.9c2.34-.15,4.07-.19,5.79-.38A48.53,48.53,0,0,0,193,123c4.1-1.15,6.1-4.72,5.1-8.32-.9-3.22-5.18-5.41-9-4.29-4.8,1.41-9.49,3.13-12.93,7-3-.45-4.1-1.83-3.63-4.8C173.3,107.87,173.74,103.11,174.38,97.79Z"/>
      <path class="cls-1" d="M720.64,69.2c-3.47,1-5.76,1-5.61-3.07-4.1.35-7.69.77-11.3,1-2.69.14-2.7,0-3.84-3.23,6.42-2.81,1.88-8.42,3.56-12-1.64-1.44-3.84-2.6-3.72-3.42.37-2.56,2.87-1.52,4.51-1.56,5.14-.13,10.29,0,15.44,0a14.82,14.82,0,0,1,3,.14c.53.11,1.36.71,1.36,1.08,0,.66-.46,1.82-.88,1.89-2.9.51-2.49,2.66-2.49,4.62C720.63,59.32,720.64,64.13,720.64,69.2Zm-6.35-7.53,0-1.48c-1.89.25-3.89-.9-6.61,1.81Zm.09-5.2c0-.43,0-.86,0-1.29l-5.42.24c0,.35,0,.7,0,1Zm-5.38-6,0,1c1.85.37,3.69.63,5.39-1Z"/>
      <path class="cls-1" d="M449,109.9c4.87,2.13,5.43,3.36,3.58,7.19a54.24,54.24,0,0,1-2.85,5.25c-3.93,6.26-12.06,9.11-18.7,6.69-4.52-1.65-7.37-4.88-7.53-9.58-.31-8.79-.09-17.6-.09-26.86l4.49-.45a13.14,13.14,0,0,1,.66,2.7c.05,7,.08,14,0,21,0,3.09-.06,6.42,3.34,7.62,3.66,1.29,7.74,1.61,10.71-1.58a38.45,38.45,0,0,0,4.81-7.45A26.44,26.44,0,0,0,449,109.9Z"/>
      <path class="cls-1" d="M693.59,70.82V31.45h15.74V44.87l-10.79.5c-.08,2.46-.21,4.73-.22,7,0,5,0,10,0,15C698.21,70.76,698.11,70.76,693.59,70.82Zm6.19-30.54v.33h3.28l0-.33Z"/>
      <path class="cls-1" d="M823.83,49.93l23.91,15.14-2.92,5.17c-4.35-2.94-8.25-5.68-12.26-8.25s-8.22-5-12.3-7.59c-1.63-1-3.71-1.74-3.61-4.29.1-2.39,1.8-3.2,3.6-4.27,7.71-4.59,15.31-9.36,23.4-14.35l3.31,4Z"/>
      <path class="cls-1" d="M174.6,61.17c6.18-4.11,9.27-9.28,11.46-15.92l4.31,3.87c-3.09,9.45-8.9,15.95-17.85,19.5-3.06-1.49-4-3.75-3.94-6.94.18-8,0-16,.07-24a23.77,23.77,0,0,1,.37-3.94,2.13,2.13,0,0,1,2.91-1.86,4.07,4.07,0,0,1,2.23,2.14,9.93,9.93,0,0,1,.14,3.46c0,6.15,0,12.31,0,18.46C174.32,57.42,174.47,58.85,174.6,61.17Z"/>
      <path class="cls-1" d="M101.94,123.77c4.15-.84,8-1.42,11.82-2.44A8.28,8.28,0,0,0,120.3,113c0-3.65-2-6.19-5.7-6.1-4.93.12-9.85.87-14.77,1.4-1.77.19-3.53.53-5.73.86-.19-1.83-.34-3.22-.55-5.27,7.45-.88,14.37-3.39,21.7-2.64a11.78,11.78,0,0,1,10.21,8.91c1.23,6.33-1,11.93-6.82,14.57-4.29,1.93-9.12,2.69-13.76,3.82a2.39,2.39,0,0,1-2-1.13A18.57,18.57,0,0,1,101.94,123.77Z"/>
      <path class="cls-1" d="M1002.85,45.12H990.79c-.11-1.43-.2-2.6-.33-4.38H1004c.21-3.31.38-6.07.54-8.77,4.73-1.27,5.57-.74,5.77,3.57.07,1.49,0,3,0,4.07,2.05,2.58,7.68-1,7.19,5.12l-6.71.73c-.5,3.65-1.19,7.19-1.43,10.75-.5,7.24-4.9,11.16-11.16,14.18l-3-4c4.57-2.63,7.9-6,8.79-11.07C1004.57,52,1004.74,48.73,1002.85,45.12Z"/>
      <path class="cls-1" d="M139.17,102.33l-7.42-.37-.38-3.91,8.8-.5L142.72,91l4.21.53v6c1.88.08,3.62.19,5.37.24s3.66-.06,5.47.12a2.44,2.44,0,0,1,2.3,3.15c-.18.74-1.6,1.55-2.53,1.64-2.3.24-4.65,0-7,.11-1.8.06-3.58.27-5.4.41-2.73,9.12-5.08,18-9.23,26.22-5.13-1-5.21-1.2-3.74-5.3,2-5.61,4-11.22,5.94-16.86A44.82,44.82,0,0,0,139.17,102.33Z"/>
      <path class="cls-1" d="M944.65,42.39,937,41.87c-.1-1.18-.19-2.25-.33-3.84,2-.09,3.76-.19,5.53-.24,4.08-.13,4.17-.2,5.15-4.41.15-.64.37-1.25.54-1.82,4.83-.55,4.83-.55,4.83,5.85l9.62.61c1.32,4.11,1.09,4.61-2.47,4.74-2.81.1-5.62,0-8.79,0-3.26,9-4.89,18.56-10,27.07L936.39,68C939.11,59.47,943.58,51.76,944.65,42.39Z"/>
      <path class="cls-1" d="M48.52,98.07l9.14-.52c.78-2.1,1.52-4.08,2.4-6.42l4.36.32v5.92c2.57.15,5,.34,7.35.4,1.79,0,3.48.14,3.45,2.5s-1.6,2.57-3.46,2.53c-3-.06-5.92,0-9,0-2.71,9.33-5.16,18.25-9.44,27.06L48.28,128c3-8.65,7.12-16.48,8.31-25.64l-7.45-.48Z"/>
      <path class="cls-1" d="M618.37,94.14c4.39-.08,4.76.1,4.9,3.31.21,5.3,0,10.63.47,15.91.24,3,0,6.33,3.38,9.12l4.45-8.27,4,3c-1.18,3.92-2.45,7.46-5.29,10.19s-5.84,2.5-7.74-1c-1.8-3.28-3.7-6.89-4-10.5C617.92,108.84,618.37,101.68,618.37,94.14Z"/>
      <path class="cls-1" d="M743.33,62.11l4.49-7.5c4.15,2,4.5,2.46,2.94,5.8a25.94,25.94,0,0,1-3.9,6.3c-3.29,3.7-6.41,3.47-8.65-1A34.14,34.14,0,0,1,734.48,54c-.61-6.42-.16-12.94-.16-19.36,4.36-.93,4.83-.7,5,2.79.19,5,0,10,.45,15,.28,3.21,1.36,6.34,2.09,9.51Z"/>
      <path class="cls-1" d="M659.74,94c4.37,0,4.43,0,4.55,3.47.17,5,0,10,.44,15,.28,3.2,1.38,6.32,2.23,10,3.69-2,3.83-5.61,5.81-7.82,4.34,1.93,4.69,2.49,2.71,6.4a27.3,27.3,0,0,1-4.45,6.51c-2.43,2.52-5.37,2.32-7.07-.72-1.84-3.27-3.72-6.93-4-10.56C659.3,109,659.74,101.69,659.74,94Z"/>
      <path class="cls-1" d="M585.64,125.89V105.71c0-1.66,0-3.33,0-5s.69-2.52,2.34-2.57,3,.42,3.24,2.32a12.29,12.29,0,0,1,.07,1.49c0,8.81,0,17.62,0,26.44a10.12,10.12,0,0,1-.49,2.1c-4.28,1.11-8.51.55-13.08.42v-4.54Z"/>
      <path class="cls-1" d="M791.36,126.16V98.58l5.24-.51c.06,11,.08,21.54,0,32.34-4,1.32-8,.63-11.92.51-.67,0-1.81-1.57-1.78-2.38a3.08,3.08,0,0,1,1.94-2.27A41.77,41.77,0,0,1,791.36,126.16Z"/>
      <path class="cls-1" d="M601.33,34.89l-7.65.51c-.14,1.63-.35,3.07-.36,4.5,0,6.31,0,12.63,0,18.94,0,3.69-.33,3.81-4.69,3.44V30.42h12.74Z"/>
      <path class="cls-1" d="M158.3,33.44l4.46-.24a6.85,6.85,0,0,1,.77,2c.06,5.49.37,11,0,16.46-.37,5-2,9.75-6.35,13a48,48,0,0,0-4.21,4l-3.47-4.18c5.11-4,8.05-8.9,8.53-15,.27-3.31.23-6.64.29-10C158.33,37.61,158.3,35.66,158.3,33.44Z"/>
      <path class="cls-1" d="M607.65,56.17c4.81,0,8.91-.15,13,.11a3.55,3.55,0,0,1,2.48,2.36c.3,3.23.12,6.51.12,10.12l-4.89.36c-2.07.14-4-.13-6,1.37-2.4,1.78-4.51.43-4.63-2.57C607.54,64.31,607.65,60.68,607.65,56.17Zm6.22,4.06c-1.26,3.06,0,4.25,2.35,4.34.66,0,1.94-1.32,1.94-2C618.18,59.41,615.86,60.25,613.87,60.23Z"/>
      <path class="cls-1" d="M981.64,50.82V38.37c0-.83,0-1.66,0-2.48.25-2.81,1.43-4.25,3.35-4,2.68.32,2.32,2.43,2.27,4.2-.17,6.62-.52,13.23-.6,19.85,0,3.12.38,6.25.61,9.37.14,1.9-.32,3.34-2.53,3.45-2,.1-3.1-.92-3.1-3q0-7.47,0-14.94Z"/>
      <path class="cls-1" d="M145.54,48.05c-.08,1.65-.15,2.9-.22,4.43H109c-.07-1.43-.13-2.79-.21-4.43Z"/>
      <path class="cls-1" d="M255.67,129.34c-1.78-12.26-.44-24.49.1-36.66,5.1-.7,6,.14,5.26,4.18a102.56,102.56,0,0,0-1,28.1C260.45,128.83,260.29,129.13,255.67,129.34Z"/>
      <path class="cls-1" d="M394.26,128.42,380.34,131c-1.26-3.65-1.42-8.54-.45-14.39,4.57-.83,9.28-.51,14.37-.19Zm-4.27-4.6c.6-3-.76-3.93-3.22-3.64s-2.19,1.83-1.86,3.64Z"/>
      <path class="cls-1" d="M30.53,122.42V90.51H43.24l.31,4.21-8.91.94V116c0,1.33,0,2.66,0,4C34.7,122.61,33.24,123.06,30.53,122.42Z"/>
      <path class="cls-1" d="M764.58,62.06c-.93-4.72-1.58-9.12-2.7-13.4-1.08-4.11-2.64-8.09-4.16-12.63l4.6-1.53a57,57,0,0,1,7,20.28c.09.65,0,1.33.11,2C770.24,61.64,770.25,61.64,764.58,62.06Z"/>
      <path class="cls-1" d="M641.63,96.14l4.74-1.49c4.16,8.55,7.1,17,7.23,26.67l-5.23,1.13c-1-4.79-1.72-9.17-2.82-13.46C644.5,104.85,643.07,100.79,641.63,96.14Z"/>
      <path class="cls-1" d="M683.14,95.85l4.3-1.15c4.33,7.6,6.34,15.56,7.61,23.75.42,2.72-.34,3.17-5,3.63C687.82,113.53,685.55,105,683.14,95.85Z"/>
      <path class="cls-1" d="M267.75,113.21l3.31,1.6c0,.74.05,1.23,0,1.7-.47,4-.27,4.51,3.6,5.59a22.78,22.78,0,0,0,5.35.66c3.12.1,6.24,0,9.4,0,1.16,3.88.63,5-3,5-4.94-.09-10,0-14.79-1C265,125.42,263.26,119,267.75,113.21Z"/>
      <path class="cls-1" d="M565.35,167v53.8a16.24,16.24,0,0,1-2.59-2.47c-.3-.5-.12-1.3-.12-2,0-15.14,0-30.29,0-45.43C562.66,169.5,562.1,167.54,565.35,167Z"/>
      <path class="cls-1" d="M147.85,117.14c1.4,1.07,3.45,1.92,3.45,2.77,0,3.91,2.84,3.66,5.16,3.81,3.62.22,7.26.06,11.36.06v4.95c-5.22,0-10.39.5-15.41-.13C146.15,127.8,144.35,123.32,147.85,117.14Z"/>
      <path class="cls-1" d="M952.89,57.69c3.41.07,4.45,2,4.2,4.82,5.35,2.08,10.65,1,16.28,1.24.08,1.52.17,3.09.27,4.94-5.54,0-10.83.51-16-.13C952,67.84,950.28,63.55,952.89,57.69Z"/>
      <path class="cls-1" d="M65.16,117.58c1.87.74,4.2.64,4,4,0,.65,2.78,2,4.35,2.13,3.77.32,7.59.1,11.86.1l.32,5c-5.68.52-11.11.82-16.41-.29C63.46,127.3,62.1,123.32,65.16,117.58Z"/>
      <path class="cls-1" d="M268,100.94V96.08h20.27c.12,1.43.23,2.81.4,4.88C281.61,101.21,275,101.2,268,100.94Z"/>
      <path class="cls-1" d="M178.46,94.88c.57-3.37,2-4.51,4.68-3.78,5.08,1.38,10.14,2.79,15.61,4.3l-2,4.92Z"/>
      <path class="cls-1" d="M84,106.22v5.35H66.3c-.48-3.23,0-4.29,2.88-4.58C73.88,106.53,78.63,106.47,84,106.22Z"/>
      <path class="cls-1" d="M166.35,106.1c.09,2,.15,3.41.24,5.43H148.75c-1.09-2.31-.16-4,2.17-4.3C155.93,106.64,161,106.47,166.35,106.1Z"/>
      <path class="cls-1" d="M954.81,51.9c-1-2.9-.21-4.38,2.35-4.66,3.92-.43,7.85-.82,11.79-1.09,2.68-.18,3.65.7,3.66,2.85s-1.36,2.75-3.25,2.79c-4,.07-8,.22-11.93.31C956.62,52.12,955.81,52,954.81,51.9Z"/>
      <path class="cls-1" d="M393.78,96.07c-3.89,0-7.66.15-11.41-.12-.92-.06-1.75-1.53-2.62-2.35.85-.81,1.63-2.23,2.56-2.33a71.72,71.72,0,0,1,8.92-.12C393.93,91.2,394.61,92.74,393.78,96.07Z"/>
      <path class="cls-1" d="M615.14,36a28.26,28.26,0,0,1-5-.09A2.62,2.62,0,0,1,608.5,34c.06-.92.92-2.52,1.52-2.56a79.59,79.59,0,0,1,10.92,0c.59,0,1.41,1.71,1.47,2.68,0,.59-1.08,1.71-1.8,1.82a36.89,36.89,0,0,1-5.47.09Z"/>
      <path class="cls-1" d="M393.56,114.08c-3.78,0-7.56.11-11.33-.1-.8,0-1.53-1.28-2.29-2,.77-.7,1.53-2,2.32-2a72,72,0,0,1,10.38.36c.73.08,1.28,1.69,1.92,2.59Z"/>
      <path class="cls-1" d="M615.28,50.15c1.64,0,3.29,0,4.93,0,1.36,0,2.38.67,2.09,2.06A2.75,2.75,0,0,1,620.46,54a96.4,96.4,0,0,1-10.34-.08c-.6,0-1.58-1.29-1.56-1.95s1.09-1.59,1.8-1.7a31,31,0,0,1,4.92-.08Z"/>
      <path class="cls-1" d="M329.62,112.36l-3.57,1.4-4.39-7.85C326.12,104.65,326.88,105.27,329.62,112.36Z"/>
      <path class="cls-1" d="M1048.18,45.62c5-.95,6.31.29,8.06,6.77L1053,53.83Z"/>
      <path class="cls-1" d="M963.12,32.73c4-1.93,6-.15,7.5,5.86-3.31,1.85-3.33,1.87-4.83-.76C964.91,36.27,964.12,34.65,963.12,32.73Z"/>
      <path class="cls-1" d="M79,99.84a56,56,0,0,1-3.14-5.39c-.31-.68,0-2.31.34-2.46.88-.33,2.37-.4,3,.13a13.67,13.67,0,0,1,2.82,4C83.28,98.65,82.87,99.13,79,99.84Z"/>
      <path class="cls-1" d="M1054.32,43.84c3.81-1.07,4.84-.43,6.58,3.16,1.08,2.25.89,3.77-2.53,4.55C1057.11,49.14,1055.75,46.55,1054.32,43.84Z"/>
      <path class="cls-1" d="M331.55,111.58c-1.41-2.66-2.64-5-3.85-7.27,3-1.94,3.6-1.82,5.31,1C335.23,108.92,335.14,109.53,331.55,111.58Z"/>
      <path class="cls-1" d="M973.31,39.43l-4.43-8.21c1.53-.42,3.32-1.29,3.62-.93a26.14,26.14,0,0,1,3.81,6.16C976.49,36.87,974.62,38.17,973.31,39.43Z"/>
      <path class="cls-1" d="M89.08,96.88l-4,2.25C83.9,96.89,82.7,95,81.83,92.92a2.62,2.62,0,0,1,.56-2.44,2.65,2.65,0,0,1,2.56.33A70.67,70.67,0,0,1,89.08,96.88Z"/>
      <path class="cls-1" d="M298.78,553.25c.19.78.71,1.67.52,2.35-2.12,7.51-4.35,15-6.57,22.48-.08.28-.42.49-.82.94l-5-1.6q-8.18,20.4-16.32,40.73a9.45,9.45,0,0,0-.93,3.33c.08,7.14.4,14.29.44,21.43s-.11,14-.24,21c-.05,2.83-.21,5.65-.38,8.47-.71,12.44-1.46,24.87-2.17,37.31a17.26,17.26,0,0,0,.27,2.36l47,2.14c-6,2.7-7.21,4.3-6.76,8.52-2.27.77-4.64,1.5-6.94,2.39-1.2.46-2.92.92-3.3,1.84-1.2,2.88-3.63,3.23-6.07,3.6-9.69,1.47-19.35,3.22-29.09,4.13-5.22.49-10.6-.43-15.89-.87s-10.58-.91-15.82-1.69a62.36,62.36,0,0,1-8.57-2.38c-1.89-.57-3.7-1.54-5.63-1.83a4.25,4.25,0,0,1-4-3.73c-.29-1.46-.66-2.91-1.08-4.34-1.2-4-2.86-4.63-7.56-2.26l3.42,4.86c-.76,1.17-2.06,1.9-3.44,1-.61-.42-.66-2-.55-3,.39-3.91.95-7.81,1.47-12,1.86,3.73,1.81,3.6,5.06,2.5a45,45,0,0,1,5.95-1.22c-.81-3.35-1.8-6.67-2.34-10.06a8.35,8.35,0,0,1,1-4.2c.91-2.13,2.34-4,3.07-6.22a8.25,8.25,0,0,0,.08-4.67A46.82,46.82,0,0,1,216,664.82c1.7-12.65,2.6-25.42,3.57-38.17,1.07-13.9,3.12-27.72,3.08-41.7a55.51,55.51,0,0,1,.72-7.92c.63-4.42,1.82-5.21,6.44-5.29,1.37,0,2.73-.87,4.44-1.44a5.48,5.48,0,0,1,2.4,4.61c.44,7.86,3.61,14.78,8.25,20.93a9.75,9.75,0,0,1,1.82,9.18c-2.41,9.48-4.63,19-6.49,28.61a22.67,22.67,0,0,0,.52,9.29,15.55,15.55,0,0,1-.94,10.22c-1.85,4.2-1.44,8.05.36,12,.75,1.66,1.25,3.45,2.14,5,1.23,2.23,3.74,2.7,4.76.6,2-4,5.1-7.78,3.72-12.95a9.88,9.88,0,0,0-3.41-5.28c-2.78-2.37-3.9-5.22-2.49-8.84a6.69,6.69,0,0,0,.35-3c-1-10.32,3.1-19.59,6-29.11.67-2.23,1.78-4.38,2.08-6.65a10.52,10.52,0,0,1,5.2-7.57c6.63-4.29,11.93-9.86,16.88-15.89,1.74-2.13,3.86-3.95,5.81-5.91l1.12.46c-.2,1.93-.4,3.87-.62,6,7-8.09,11.47-17.44,16.38-26.52a11.91,11.91,0,0,0,.72-2.33Z"/>
      <path class="cls-1" d="M239.91,741.47c3-2.18,6.46-2.47,9.93-2.64,2.18-.11,3.41,1.15,3.71,3.24.58,4,1.09,8.12,1.65,12.35-3,2.25-6,1.31-8.8-1A17,17,0,0,1,239.91,741.47Z"/>
      <path class="cls-1" d="M265.62,752.15c-1.24-3.13-2.29-6-3.51-8.77-.81-1.83-.26-3.12,1.07-4.38a2.86,2.86,0,0,1,4-.27c1.24.81,2.55,1.51,4.41,2.6a41,41,0,0,1-2.16,5.63A47.13,47.13,0,0,1,265.62,752.15Z"/>
      <path class="cls-1" d="M342.83,760.11c3.52,4.25,3.6,5.37.69,9.79a13,13,0,0,1-2.32-.32,26.64,26.64,0,0,1-2.79-1.2C338.69,764.84,341.07,762.7,342.83,760.11Z"/>
      <path class="cls-1" d="M209.14,729.76c-2.31-.45-5.47,1.31-6.85-2.41C205.29,727.22,205.62,727.32,209.14,729.76Z"/>
      <path class="cls-1" d="M674.59,609.78c-4.32-1.4-8.25-3.24-12.36-3.86s-4.59-3.68-2.23-5.88c3.51-3.27,5-7.73,7.76-11.4a4.34,4.34,0,0,0,.63-4.61,65.86,65.86,0,0,0-4.31-9.47c-4.51-7.35-9.32-14.52-13.88-21.57,2.4-5.45,7.34-6.46,11.33-8.54.84-.43,3.49,1.18,4.34,2.47,2.7,4.18,5.51,8.44,7.27,13.05a222.84,222.84,0,0,1,7.63,24.21c.77,3-.28,6.53-.61,9.81-.19,2-.67,3.92-.88,5.89C678.85,603.94,677.44,607.47,674.59,609.78Z"/>
      <path class="cls-1" d="M644.44,476.55l-3.88-1.76-1.62,3.35c-.47-.42-1-.68-1.06-1a54.23,54.23,0,0,1-.4-5.41,63.73,63.73,0,0,0-.74-11.3c-.24.88-.53,1.76-.73,2.66-.43,1.92-.37,4.15-1.38,5.69-.68,1-2.84,1.12-4.73,1.76-1.46-9.64-2.93-19.33-4.47-29.47,3-.36,5.22.24,6.54,3,.37-.5.72-1,1.57-2.09C637,453.54,642,464.11,644.44,476.55Z"/>
      <path class="cls-1" d="M643.39,702.84c.44-.93.88-1.86,1.37-2.88,3.89,3,7.21,5.89,10.88,8.24,2.14,1.37,3.71,3,4.08,5.29.82,5.06,2.72,10.06,1.69,15.63-3.63-1-5.2-3.83-6.46-6.48a31.66,31.66,0,0,1-3.1-9.85c-.43-3.83-3-5.74-5.34-7.94a23.72,23.72,0,0,0-3.27-2.16S643.39,702.84,643.39,702.84Z"/>
      <path class="cls-1" d="M623.52,435.53c.73-2.48,2.59-2.56,4.43-2.76,2.19-.23,4.51,0,5.2-3.18.17-.78,2.48-1.26,3.87-1.57,3-.65,6-.42,8.28-3.43,1.66-2.16,4.79-.76,7.18,2.86-4.3,3.09-9.46,1.82-14.51,2.74.42,1.21.76,2.2,1.22,3.51-.67,1.52-3.91.91-3.83,3.59,0,.19-.75.54-1.16.57C630.4,438.15,626.68,438.06,623.52,435.53Z"/>
      <path class="cls-1" d="M674.07,435.61c2.55,3.93,5.36,7.74,5.53,12.75-2.09,1.31-3.31.27-4.4-1.05-3-3.66-6-7.34-9.07-11.16l8.07-.41Z"/>
      <path class="cls-1" d="M622.84,462.51c-3-7-2.15-14.21-3.34-21.13l.94-.62c.93.85,2.44,1.57,2.68,2.59a48.37,48.37,0,0,1,.89,18.14C624,461.73,623.56,461.91,622.84,462.51Z"/>
      <path class="cls-1" d="M648.67,498a5.47,5.47,0,0,1-4.57-3.83c-.67-1.63-2-3-3.18-4.71l2.56-.82c.75-3.44,1.46-6.66,2.29-10.47,2.09,1.4,3.23,2.77,2.06,4.29-2.19,2.87-.74,6.07-1.28,9.06-.13.72,1.12,1.73,1.82,2.54C649.31,495.18,649.34,495.15,648.67,498Z"/>
      <path class="cls-1" d="M639.3,498.87c3.48,5.76-.58,9.91-2.41,14.43-.59,1.45-1.57,2.39-1,4.44.52,1.86,0,4.68-3.61,5.51,1.86-7.76,3.62-15.2,5.47-22.61C637.92,500,638.73,499.51,639.3,498.87Z"/>
      <path class="cls-1" d="M607.06,622.08c.1-4-3.77-8,.73-12.18l2.29,1.55,3-8.38,1.26.46q-3,9.35-6.11,18.7Z"/>
      <path class="cls-1" d="M665.81,453c-4.55,0-7.79-2.41-11.37-4.94a3.81,3.81,0,0,1,4.31-1.76C661.59,446.88,663.8,448.93,665.81,453Z"/>
      <path class="cls-1" d="M661.73,773.85l12.4,1.78c0,.33-.1.66-.16,1C669.68,777.05,665.5,776.76,661.73,773.85Z"/>
      <path class="cls-1" d="M658.8,443.05c4.74.53,5.83,1.19,8.71,5C662.94,447.5,662.76,447.4,658.8,443.05Z"/>
      <path class="cls-1" d="M642,803.48c-.82-4.11-1-8.09,1-11.8C643.54,795.72,644.52,799.8,642,803.48Z"/>
      <path class="cls-1" d="M721.43,784q.69,6.21,1.39,12.43A13.67,13.67,0,0,1,721.43,784Z"/>
      <path class="cls-1" d="M712.89,772.2v6.73C711.11,776.69,711.05,776.33,712.89,772.2Z"/>
      <path class="cls-1" d="M283.17,456.76c.28-3.3.35-5.43.67-7.52.89-5.88,1.82-11.75,2.89-17.6a13.74,13.74,0,0,1,1.79-4.45c.25-.42,1.51-.23,2.77-.37,1.64,8.18,3.26,16.23,4.89,24.4Z"/>
      <path d="M217.52,103.07c3.5-1.37,7.07-1.14,11.19-.35C225.5,104.4,222.14,104.55,217.52,103.07Z"/>
      <path d="M223.72,97.68h-6.3C220.06,94.33,221.6,94.32,223.72,97.68Z"/>
      <path d="M236.54,105.7c-2.37,1.35-4.69,1.47-8.18.1C231.83,104.37,234.19,104.65,236.54,105.7Z"/>
      <path d="M225,109.26c-.72,1.19-1,2.4-1.62,2.54-1.41.33-3,.24-3.59-1.89C220.89,108.31,222.45,108.78,225,109.26Z"/>
      <path d="M237.54,96.88,241.38,98c-.22.56-.28,1.44-.68,1.65C239.23,100.42,238.23,99.85,237.54,96.88Z"/>
      <path d="M232.53,99.68c-1.39.49-2.64.61-3-1.17-.08-.36.6-1.24,1-1.28C232.17,97,232.82,98,232.53,99.68Z"/>
      <path d="M402.65,123.79v-6.35h9.27c.13,2,.26,4,.41,6.35Z"/>
      <path d="M396.43,98l7.64-.63c.18,1.25.36,2.46.6,4.06h-8.14V97.91Z"/>
      <path d="M640.05,57.4v6.75a11.8,11.8,0,0,1-9.13-.47V57.4Z"/>
      <path d="M914.44,63.86c-3.28,1.85-5.61.48-7.9-.91-.21-2.21.9-3,2.58-3.12C911.89,59.56,913.37,61.16,914.44,63.86Z"/>
      <path d="M718.13,98.14c-.29,2.37-.23,4.68-.89,6.76-1.45,4.56-3.12,9.07-5,13.46-.49,1.14-2.21,2.52-3.25,2.42s-2.08-1.87-2.55-3.12C703.25,109.11,708.44,100.18,718.13,98.14Z"/>
      <path d="M551.24,119.16l-1.13,4.77a34.19,34.19,0,0,1-6.25-.11,3.94,3.94,0,0,1-2.35-2.52c-.18-.67.84-2.12,1.66-2.51C545.73,117.58,548.43,117,551.24,119.16Z"/>
      <path d="M757.14,118.64c-.76,2.12-.15,4.67-2.62,5.14a11.69,11.69,0,0,1-6.2-.57c-2.14-.85-2-3.07,0-4.17A9.48,9.48,0,0,1,757.14,118.64Z"/>
      <path d="M720.78,40.26H724l0,.45-3.32.18Z"/>
      <path d="M714.29,61.67l-6.64.33c2.72-2.71,4.72-1.56,6.61-1.81Z"/>
      <path d="M714.38,56.47h-5.45c0-.35,0-.7,0-1l5.42-.24C714.34,55.61,714.36,56,714.38,56.47Z"/>
      <path d="M709,50.46h5.35c-1.7,1.66-3.54,1.4-5.39,1Z"/>
      <path d="M699.78,40.28H703l0,.33h-3.28Z"/>
      <path d="M613.87,60.23c2,0,4.31-.82,4.29,2.29,0,.73-1.28,2.07-1.94,2C613.92,64.48,612.61,63.29,613.87,60.23Z"/>
      <path d="M390,123.82h-5.08c-.33-1.81-.54-3.36,1.86-3.64S390.59,120.81,390,123.82Z"/>
    </g>
  </g>
  <g id="talk2wall_1">
    <path d="M577.68,7.61h46.78c0,1-.08,2-.08,3V155.91H599.57c-.31,0-.06-57.1-.06-78.3H577.68C577.68,76.6,577.71,21.46,577.68,7.61Z"/>
  </g>
</svg>
