<svg xmlns="http://www.w3.org/2000/svg" viewBox="0 0 1140 809.5">
  <defs>
    <style>
      #squall-quistis,
      #dialogues-alpha {
        fill: #171f29;
        <!--
        fill: #2c3e50;
        -->
      }
      .cls-1 {
        opacity: 0.75;
      }
    </style>
  </defs>
  <title>talk2wall</title>
  <g id="squall-quistis">
    <g>
      <path d="M1140.5,228H559.59v-60.5H.5V0h1140ZM8.6,6.85H563.38v92H557.5c0-1.72-.12-3.3,0-4.85.2-2.19-.39-3.12-2.85-3.09s-2.76.91-2.72,3c.12,5.42,0,10.84,0,16.25,0,.86-.09,1.72-.1,1.85-3.59.73-6.82.89-9.64,2.06-5.91,2.46-7.5,7.08-4,12.46,1.72,2.66,7.47,4.2,11.63,3.39a8.62,8.62,0,0,0,6.78-5.3,42.29,42.29,0,0,0,1.28-4.18c1.23.8,2.14,1.76,3.22,2,2.12.48,2.39,1.73,2.38,3.6q-.06,45.75,0,91.5v2.86h3.08V125.62l2.65,1.78c3.87-3.61,3.71-4.81-.73-7.45-.77-.46-1.88-1.24-1.9-1.9-.17-4.64-.09-9.28-.09-13.82,2-.71,4.84.87,5-2.6.17-3.84-3.11-2.13-4.8-2.83v-92h565.15V4.14H8.6ZM228.7,124l-.45.72c-4.95.25-9.9.56-14.86.71-1.6,0-2.43.33-2.45,2.2s.76,2.37,2.54,2.36c12-.06,24-.09,36,0,2.27,0,2.73-.89,2.56-2.81-.17-2.09-1.63-2.23-3.18-2.23-4.9,0-9.81,0-14.71,0l-.32-.83c.74-.39,1.47-1.09,2.22-1.11,3.66-.12,7.33-.1,11,0,1.55,0,2.05-.61,2-2.09-.05-1.82-1-2.46-2.68-2.44-4.06,0-8.13,0-12.32,0,.34-3.1-1.18-4.27-3.86-4.08v-2.92c2.05,0,3.93.06,5.8,0,1.51-.06,2.18.53,2,2.05,0,.58,0,1.16,0,1.75-.09,1.76,1.1,1.77,2.33,1.72s2.54.37,2.7-1.64c.31-3.86.39-3.86,4.42-3.86.59,0,1.3.21,1.72,0,.86-.52,2.1-1.24,2.2-2a2,2,0,0,0-2.31-2.47,30.59,30.59,0,0,1-4.49,0c-.52,0-1-.61-1.49-.93.48-.34.95-.93,1.46-1,1.65-.12,3.33-.07,5,0,1.32,0,2.52.07,2.5-1.85,0-1.57-.05-2.88-2.16-2.73-.73,0-1.48-.06-3.05-.14.84-1.2,1.32-2.59,2-2.67,1.94-.23,2-1.54,1.6-2.66-.23-.67-1.43-1.22-2.28-1.4-1.12-.24-2.33,0-3.48-.1-.56-.07-1.51-.58-1.51-.89,0-1.92-1.07-2.11-2.6-2.1s-2.66.13-2.61,2.06c0,.31-.74,1-1,.89-2.45-.68-5.61,1.88-7.47-1.61-.15-.27-.91-.29-1.38-.29-4.33,0-8.67,0-13,0-1.69,0-2.14.7-2.1,2.25.08,2.91.1,5.83,0,8.74a11.67,11.67,0,0,1-.83,3.72c-1.86,4.73-1.63,6.08,1.77,8.64l1.8-2c.58,3.63.58,3.63,4.26,3.63h8.43l.28.92a10.05,10.05,0,0,1-2.84,1c-3.24.13-6.49.09-9.74,0-1.45,0-2.2.42-2.1,2,.08,1.42.21,2.6,2.13,2.55,3.41-.08,6.83-.08,10.24,0A7,7,0,0,1,228.7,124Zm182.47-11.53V107c2.25,0,4.32-.09,6.39,0,1.82.1,2.48-.51,2.5-2.4s-.75-2.67-2.59-2.64c-2.13,0-4.25,0-6.42,0V96.55l6.82-2c-.68-3.21-2.3-4.14-5.25-3.5-4.44,1-8.94,1.68-13.44,2.35-1.36.2-2.7.37-2.58,1.94.11,1.4.56,3,2.72,2.62,1.29-.23,2.62-.18,3.89-.44a1.65,1.65,0,0,1,2.24,1.54,17.74,17.74,0,0,1,0,2.74h-8.31c-.31-3.25-.29-3.32-3.46-4a17.87,17.87,0,0,0-3.51,0H379.69v4.62c4.67,0,9.16,0,13.65,0,1.42,0,2.08.33,1.53,1.52-4.07,0-8,.07-11.86,0a2.19,2.19,0,0,0-2.45,2.42c-.05,1.5.56,2.69,2.48,2.63,2.91-.08,5.84-.14,8.74,0,2,.12,3.12-.62,3.39-2,2.88,0,5.51-.08,8.14.06.7,0,1.87.67,2,1.19a22,22,0,0,1,.1,4.26,33,33,0,0,0-5.35.08c-.75.14-1.88,1.14-1.93,1.81q-.51,6.81-.52,13.64c0,1.13.64,3,1.36,3.22,1.34.39,3.3,1.12,4.3-1.09.18-.4,1.11-.6,1.71-.64,1.41-.09,2.83,0,4.24,0,1.6,0,3.09-.2,4.41,1.38.59.7,2.54.67,3.68.34.62-.18,1.15-1.71,1.18-2.65.12-4.16.06-8.32.05-12.48,0-3-1.17-3.92-4.17-3.6A30.3,30.3,0,0,1,411.17,112.49ZM633.38,53c-1.68,0-3.25.1-4.8,0-1.92-.16-2.69.45-2.62,2.5.14,4.33.08,8.67,0,13,0,1.38.17,2.68,1.68,2.79a10.6,10.6,0,0,0,3.59-.81c.69-.21,1.29-.84,2-.91a37.44,37.44,0,0,1,4.24,0c1.58,0,3.08-.22,4.42,1.32.6.68,2.5.59,3.64.26.53-.15.91-1.69.93-2.61.09-4.33,0-8.66.07-13,0-1.78-.43-2.52-2.37-2.52-5.36,0-5.36-.08-5.1-5.35,0-.14.14-.28.33-.61,2.29,0,4.69-.07,7.09,0,1.77.07,2-.84,2-2.32s-.45-2.24-2.13-2.25c-2.43,0-4.85-.29-7.32-.45V36.54l7.45-2.09c-.72-.81-1.54-1.38-1.84-2.15-.8-2-2.1-1.71-3.77-1.33-4.19,1-8.44,1.66-12.65,2.53a36.69,36.69,0,0,0-3.66,1.14c.62,2.57,1.59,3.74,3.8,3.37,1.64-.28,3.31-.34,5-.49.32,5.26.3,5.31-4.56,4.94a33.15,33.15,0,0,1-3.78-.73l.54-.45c-.67-1.1-1.31-3.11-2-3.15-5.29-.27-10.6-.14-15.87-.14-.4,4.49-.4,4.49,3.66,4.49h12.16c-.09.78-.15,1.36-.17,1.5-4.14,0-8,.05-11.9,0-1.58,0-2.53.25-2.46,2.16s.5,2.9,2.51,2.87c2.84,0,5.68.14,8.49-.07a16.44,16.44,0,0,0,4-1.4l-.2-.45h9.58Zm43.86,1c3.09-.82,6.34-1.74,9.62-2.5,1.32-.31,2.77-.62,1.95-2.23-.67-1.33-.62-4-3.53-3s-5.67,1.81-8.56,2.72c-2.67-4.57-6.51-6-11.62-4.46a5.15,5.15,0,0,1,5.56-3.17c3.65.24,7.33.06,11,.06,3.1,0,3.89-.57,3.83-2.81-.06-2.51-1.64-2.82-3.71-2.72-2.58.13-5.17,0-7.75,0-.77,0-1.55-.16-2.51-.26.59-1.37,1-2.4,1.47-3.41-2.15-1.36-5.18-1.33-5.92.51-1.41,3.46-4,3.34-6.87,3.18-1.25-.06-2.51.08-3.75,0-1.81-.15-2.58.47-2.49,2.39.08,1.76.26,3.18,2.5,3.14,1.46,0,2.93,0,4.39,0l.43.62c-2.28,2.73-4.22,5.9-7,8-2.14,1.67-1.82,2.69-.59,4.28a15.58,15.58,0,0,0,1.8,1.71c.61-.58,1.07-1.06,1.57-1.48,3.4-2.88,6.91-5.57,11.64-5.61.65,0,1.3.59,1.94.91a5.94,5.94,0,0,1-1.26,1.52c-2.81,1.73-5.75,3.26-8.51,5.07-3.62,2.39-4.51,6.5-1.7,9.61A9.5,9.5,0,0,0,665,68.86c5.43.51,10.92.46,16.38.62a14.3,14.3,0,0,0,3,0c2.12-.4,2.5-2.1,2.06-3.78-.29-1.13-.72-2-2.84-1.91a169.83,169.83,0,0,1-18.87-.36c-1.32-.07-2.25-1.3-1-2.88,1.93-2.44,4.6-3.4,7.49-4,.9,4.73,1.46,5.61,4.2,4.94C680.08,60.25,676.31,56.64,677.24,54ZM915.32,37.48l.11.49c-6.07,4.36-12.12,8.75-18.2,13.08-1.55,1.1-1.51,2.35-.34,3.49,1,.91,1.59,3,3.71,1.16,5.11-4.53,11.28-6,18-5.71,2.92.12,6.62,2.5,7.34,4.68a7.18,7.18,0,0,1-2.78,7.87c-1.11.8-2.34,2-3.23-.66-1.53-4.57-7.44-7.93-12.59-6-1.47.57-3.27,1.17-4.11,2.34-4,5.54-.46,9.68,4.17,11A23.39,23.39,0,0,0,925.85,67c5.94-3.47,8.24-13.27,2.13-18.3-2.94-2.43-6.36-3.15-10-3.23-1.4,0-2.8-.27-4.2-.41v-.71c3.68-2.26,7.37-4.49,11-6.8A2.63,2.63,0,0,0,925.94,36c.15-1.49-2.4-4-4-4-6.58,0-13.16,0-19.74,0-2.28,0-2.69,1.17-2.77,3.13-.09,2.17.93,2.46,2.73,2.42C906.56,37.42,910.94,37.48,915.32,37.48ZM725.05,98.58c4.64.26,8.84,3.77,9.77,9.82,1.39,9.13-3.43,14.3-12.24,15.87,1.59,5.24,2.83,5.8,7.29,3.55a9.2,9.2,0,0,0,1.51-.83c1.72-1.33,3.86-2.41,5-4.14,1.54-2.37,2.3-5.25,3.4-7.91,2-4.79.66-9.57-1.7-13.39-6.28-10.13-19.54-10.87-28.1-5.07-5.39,3.65-9.19,8.85-8.49,16.1a33.32,33.32,0,0,1,0,4.24c-.11,3.74,1.63,6.67,4.23,9.07a6.21,6.21,0,0,0,8.43-.15A27.55,27.55,0,0,0,721.37,114C723,109.05,723.82,103.88,725.05,98.58ZM859,57.67l.54.24c0,3.41,0,6.82,0,10.23,0,2.25,1.3,2.36,3.07,2.39s2.51-.53,2.48-2.42c-.11-5.33,0-10.66,0-16a4.44,4.44,0,0,1,.31-2.15A29.4,29.4,0,0,1,876.6,39.2c2-1,3.83.06,3.84,2.23a84.57,84.57,0,0,1-.53,9.14c-.37,3.64-1.22,7.26-1.34,10.91-.19,5.67,4.37,8.23,9.38,5.52,4.49-2.43,5.38-6.92,2-10-1.84,1.66-2.49,4.73-6.09,4.93.29-3.9.49-7.66.87-11.39.32-3.16,1.06-6.28,1.22-9.44.21-3.94-3.72-8-7.58-7.55a17.23,17.23,0,0,0-6.69,2.58c-2.25,1.35-4.15,3.27-6.67,5.31,0-3.33-.09-6,0-8.6.09-1.86-.58-2.5-2.44-2.45s-3.16.08-3.1,2.35c0,1.71,0,3.41,0,5.19-2.07,0-3.74.08-5.39,0s-2.07.67-2.16,2.22c-.13,2.19.59,3.1,2.82,2.82A11.72,11.72,0,0,1,858,43c.52.08,1.36.63,1.39,1,.17,2.27.44,4.56-1.25,6.55-1.94,2.28-3.74,4.68-5.53,7.08s-1.26,5.1,1.49,7.21ZM353.53,97.77a24.06,24.06,0,0,0,.42-4c-.05-.76-.67-2.12-1-2.12-1.46,0-3.58,0-4.23.86-1,1.36-1,3.47-1.49,5.52h-9v4.49c2.06,0,4,0,5.87,0,1.53,0,2.74.16,2.46,2.11-.24,1.66.3,3.88-2.51,3.91-2,0-3.93,0-5.87,0-.26,4.49-.26,4.49,3.79,4.5a5.59,5.59,0,0,1,2,.08,1.79,1.79,0,0,1,.89,1.34c0,1.56-.34,3.13-.23,4.67.39,5.49,3.25,9.79,9,10.35,3.56.35,7.3.64,10.73-.11a11.72,11.72,0,0,0,8.42-6.84c1.58-3.41.33-6.28-.4-9.25-.45-1.84-2.49-2.08-4.19-1.67-1.88.44-.74,1.79-.58,2.8.1.64.24,1.27.39,1.9.94,4.08-.71,6.87-4.82,7.71a23.15,23.15,0,0,1-5.87.48c-6.83-.34-7.95-3.81-6.92-9.54.28-1.52,1-2,2.55-2,3.08.11,6.16,0,9.24,0,1.37,0,2-.48,1.95-1.9,0-1.72-.67-2.64-2.48-2.63-3.31,0-6.61,0-10,0,.37-2.16.71-4,1.06-6.06h13.23V97.77Zm410,6.21c3.72,0,7.2-.06,10.67,0,1.82,0,2.93-.14,2.92-2.5s-1-2.61-2.87-2.56c-3.54.1-7.08,0-10.73,0,0-2.11.09-3.86,0-5.6-.14-2.16-1.59-2.46-3.48-2.45s-2,1.18-2,2.62c0,5,0,10,0,15s.53,4.22-4.35,4.54a21,21,0,0,0-7.43,2,7.33,7.33,0,0,0-2.46,11c3.11,4.16,6.88,4.4,12.14,3.73a7.61,7.61,0,0,0,6-4.08,42.31,42.31,0,0,0,1.9-5.31c3.23,2.08,6.38,4.1,9.52,6.15,1,.64,1.86,1.47,2.88,0,1.56-2.18,1.75-4.22.26-5.08-3.58-2.08-7.25-4-10.82-6.06-.82-.48-2-1.32-2-2.06C763.37,110.33,763.5,107.27,763.5,104Zm-261.1,13.6c1.7-1.23,3.15-2.44,4.74-3.41a23.27,23.27,0,0,1,14.4-3.58,9.11,9.11,0,0,1,5.62,2.52c3.15,3.69,1.24,9.18-4.07,10.29-3.59.74-7.34.7-11,1.12a3.18,3.18,0,0,0-2.23,1.08c-.88,1.75.93,4.36,3,4.35a28.9,28.9,0,0,0,6.38-.53c3.35-.79,6.87-1.49,9.86-3.08,4.18-2.23,6.38-9.61,4.36-13-2.85-4.75-6.89-7.59-12.66-7.37-2,.07-4,.19-6.3.31.63-.57,1-1,1.46-1.3,3.29-2.37,6.62-4.69,9.89-7.1,2.45-1.81,2.43-3,0-4.84a3.15,3.15,0,0,0-1.79-.55c-3.62-.05-7.23,0-10.85,0h-8.89c-.66,5-.66,5,4,5h9.59a11.15,11.15,0,0,1-1.3,1.68c-2.95,2.33-6,4.58-8.9,7-2,1.67-3.84,3.65-5.93,5.25-2.93,2.26-3,2.55-.5,5.06C501.55,116.78,501.92,117.12,502.4,117.58ZM98,62c-7.34,0-14.4,0-21.46,0-4.7,0-4.64-1.12-4.5,4.75a2.48,2.48,0,0,0,.33.73c9.75,0,19.49,0,29.23,0,1.66,0,1.88-1.07,1.89-2.27,0-9.33,0-18.66,0-28,0-1.62-.59-2.79-2.64-2.78-8.75.07-17.5.06-26.24,0-2.39,0-2.56,1.4-2.63,3.26-.09,2.06.94,2.29,2.61,2.28,7-.06,14,0,21,0,1.57,0,2.5.24,2.47,2.15C98,48.6,98,55.1,98,62Zm-30.7,2.3C63.38,60.62,59.91,57.17,56.19,54c-2-1.67-1.57-2.82-.35-4.7a90.57,90.57,0,0,0,5.62-10.22A3.68,3.68,0,0,0,58.05,34c-7.5,0-15,0-22.49,0-2.25,0-2.07,1.32-2.07,2.79s-.15,2.82,2.08,2.78c5.67-.11,11.33,0,17,0,.78,0,1.56.09,2.73.16-1.43,2.6-2.59,4.9-3.92,7.1A40.2,40.2,0,0,1,32.27,63a1.82,1.82,0,0,0-1.08,2.76,23.51,23.51,0,0,0,2.59,3.32c3.14-2,6.18-3.6,8.9-5.66s5.18-4.6,7.54-6.72l13.14,11.9ZM8,160.37v-1.65Q8,84.11,8,9.49c0-2.16-.71-2.92-2.91-2.32v153.2ZM804.6,69.68c.31-.75.59-1.42.88-2.08,1-2.38.52-3-2.05-3.67a37.61,37.61,0,0,1-7.12-2.43c-2.34-1.13-4.15-3-4.31-5.83-.47-8.33,5.21-13.45,12.14-15.16a54.88,54.88,0,0,1,6.78-1,2.12,2.12,0,0,0,2-3c-.27-.95-1.38-2.38-2.06-2.35-7.78.3-15.55.91-23.32,1.29-3.63.18-7.27,0-10.83,0v4.75h17.92c-5.48,5.21-10.22,10.71-7.32,18.7C790.12,66.73,796.7,69.25,804.6,69.68Zm237.69-29.91c-5.48,5.73-10.4,11.15-7.44,19.31s9.68,10,17.24,10.63c.33-.81.61-1.48.89-2.15.9-2.12.28-3.08-1.91-3.62-2.44-.61-4.8-1.52-7.19-2.28a5.78,5.78,0,0,1-3.92-4.17c-1.55-5,.57-10.18,4.56-13.54,3.76-3.16,8.26-4,12.9-4.49.83-.1,2.25-.36,2.33-.76a14.09,14.09,0,0,0,0-4.15c0-.22-.83-.52-1.26-.5-3,.1-5.92.3-8.88.43-7.9.34-15.8.73-23.7,1-1.87.05-2.42.64-2.44,2.47s.51,2.73,2.55,2.6C1031.2,40.19,1036.41,40,1042.29,39.77ZM722.71,66.09c-.4,3.47.58,5.17,3,5.39,4,.37,6.27-1,6.28-4,0-11.33,0-22.66,0-34,0-1.31-.35-2-1.82-2-4.66,0-9.33-.08-14,.11a3,3,0,0,0-2.1,2.05c-.23,3.23-.12,6.49-.09,9.74,0,1.45.66,2.21,2.29,2.14,2.66-.11,5.34.1,8-.07,1.85-.12,2.43.91,2.47,2.32.16,4.6.2,9.2.23,13.8C727,65.83,727,65.83,722.71,66.09Zm-397.4,63.66a11.19,11.19,0,0,0,.66-1.34c1.12-3.15.76-3.79-2.44-4.68-2.09-.58-4.38-.87-6.19-1.94s-3.67-2.66-4.21-4.43c-2.63-8.51,4.17-15,11.17-16.83,2.35-.62,4.86-.62,7.25-1.12a2.7,2.7,0,0,0,1.83-1.6,5.94,5.94,0,0,0-.65-3.2c-.13-.27-1.45,0-2.23.09s-1.61.26-2.41.27q-15,.28-29.89.53a4.6,4.6,0,0,0-1.06.23v4.72c5.95.29,11.82-1.28,18,0-6.54,5.28-9,12.23-8,16.29C309.5,126,316.38,129.27,325.31,129.75Zm132.8-29.52h18.12c-5.59,5.37-9.71,11.19-7,18.94,2.76,8,9.74,10,17.44,10.56a12,12,0,0,0,.82-2.55c.16-1.66.42-3.21-2.29-3.33-2.11-.09-4.19-1.15-6.26-1.87a7.5,7.5,0,0,1-5.35-7.38c.31-5.55,3.11-9.6,7.94-12.41,3.39-2,7.14-2.08,10.81-2.74.77-.14,2-.66,2.07-1.09a20.44,20.44,0,0,0-.29-4c-3.08.22-5.57.51-8.08.57-9.12.23-18.24.38-27.36.58-.14,0-.28.13-.53.25Zm-279,9.87c.54-3.38.83-6.07,1.44-8.68.71-3-1.61-2.85-3.28-3.33s-2.07.69-2.24,2c-.64,4.93-1.45,9.85-1.85,14.8-.06.78,1.55,1.79,2.52,2.52a1.67,1.67,0,0,0,1.61-.08c3.26-3.84,7.94-5,12.33-6.72,2.35-.9,7.29.71,8.45,2.51,2.17,3.34,1.08,9.18-4.38,10.24-3.6.69-7.33.7-11,1.1a3.05,3.05,0,0,0-2.06.88c-.73,1.21,1.55,4.5,3,4.6a31,31,0,0,0,15-3.06c4.5-2,7.49-9.55,5.63-14-2-4.65-5.62-6.71-10.53-7C188.6,105.67,184.08,107.41,179.07,110.1ZM724.81,50.53c.33-3.54.32-3.6-2.86-3.53-2.8.07-5.59.43-8.38.42-3.79,0-7.58-.38-11.37-.35-.73,0-1.45,1.17-2.17,1.8.66.54,1.3,1.48,2,1.53,1.53.11,2,.69,2,2.16a48,48,0,0,0,0,6.23c.24,2.7-.17,4.76-3.41,4.81.06,3.57.36,3.91,3.56,3.86,1,0,2.1-.31,3.16-.39,2.83-.24,5.67-.44,8.51-.65a5.59,5.59,0,0,1,.12,1.1c-.4,2.66,1.36,2.39,3.11,2.5,2.14.14,2.48-.87,2.44-2.69-.09-4.49.08-9-.08-13.48C721.37,51.42,721.78,49.87,724.81,50.53Zm-274.75,59c-.46,1.29-.75,2.17-1.07,3-1.79,5-3.44,10.17-9.52,11.74-6.23,1.61-10-1.2-10-7.55,0-7.16,0-14.32,0-21.47,0-1.87-.47-2.82-2.65-2.84s-2.89.81-2.88,2.87c0,7.65-.05,15.31,0,23,.05,3.86,1.47,7.39,4.71,9.55,6.48,4.32,16.46,2.48,21.13-4.08a48.76,48.76,0,0,0,4-7c1.41-2.91.74-4.38-2.33-6A12.5,12.5,0,0,1,450.06,109.5Zm260.44-64c0-4.29,0-8.19,0-12.1,0-1.39-.54-1.93-1.92-1.91q-6.36.06-12.73,0c-1.42,0-1.88.61-1.87,2,0,12.06,0,24.13.08,36.19a2.53,2.53,0,0,0,1.63,1.78c2.47.43,3.29-.39,3.3-2.94,0-6.82.07-13.65,0-20.46,0-2,.62-2.65,2.59-2.55C704.43,45.59,707.33,45.48,710.5,45.48Zm114,4.75c7.79-4.85,15.44-9.59,23.34-14.5l-3.54-4.26c-2.84,1.92-5.28,3.7-7.85,5.27-5.41,3.31-10.8,6.64-16.35,9.7-3,1.63-3.65,5-1,6.93,1.69,1.23,3.56,2.22,5.32,3.36,5.71,3.68,11.5,7.23,17.06,11.12,4.21,2.94,4.32,3.07,6.56-1.65.07-.15.18-.29.51-.82ZM1011,41c0-2.49,0-4.64,0-6.8,0-2.73-1.88-2.71-3.94-2.74-2.25,0-2.08,1.34-2.06,2.8s0,3.16,0,4.74-.6,2.05-2.08,2c-3.24-.06-6.49.06-9.73,0-1.82-.06-2.26.72-2.25,2.38s.57,2.22,2.19,2.18c3.08-.09,6.16,0,9.24,0,1.21,0,2,.19,2.16,1.69a24.76,24.76,0,0,1-.34,9.87,13.11,13.11,0,0,1-6.72,8.51c-.53.31-1.11,1.66-.91,1.91.9,1.1,2.47,3,3.08,2.78a16.23,16.23,0,0,0,9.59-9.05c1.25-3.15,1.49-6.8,1.69-10.25.3-5.25.12-5.3,5.41-5.43,1.37,0,2.22-.28,2.17-1.92S1018,41,1016.27,41,1013,41,1011,41ZM146.13,103.43c1.45-.12,3.39-.37,5.33-.43,2.5-.08,5-.11,7.49,0,2,.09,2.4-1.11,2-2.51-.37-1.2-.74-2.71-2.75-2.56-2.4.18-4.83,0-7.24,0-3.74,0-3.76-.12-3.09-3.79.14-.81-.42-2.44-.93-2.56-1.8-.43-4.09-1.21-4.44,2-.08.64-.37,1.24-.46,1.87-.26,1.68-.91,2.69-2.89,2.56-2.3-.16-4.61,0-7,0v4.58h8.61c-2.87,7.94-5.54,15.4-8.27,22.84-.57,1.57-1.14,2.95,1,3.85,1.89.81,3.46,1,4.31-1.31,1-2.88,2.11-5.74,3.08-8.64C142.61,114.17,144.29,109,146.13,103.43Zm-43.52,20.31c.76,5.2.75,5.19,5.55,4.27.41-.08.84,0,1.25,0,4.5-.71,8.91-1.43,12.58-4.64,5-4.35,5.39-8.93,3.88-14.4-1.23-4.47-6.47-7.75-11.88-7.37-6.48.45-12.92,1.49-19.49,2.29,0,1.33,0,2.23,0,3.14-.09,2.1.65,2.91,2.83,2.12a18.19,18.19,0,0,1,4.42-1.08c4.59-.43,9.19-.92,13.79-.93a6,6,0,0,1,4.31,2.28c3,4.44.68,9.88-4.36,12a33.72,33.72,0,0,1-7,1.58C106.51,123.31,104.56,123.49,102.61,123.74ZM175,61.47V60c0-8.33,0-16.65,0-25,0-1.86-.44-3.05-2.6-3s-2.91.74-2.91,4q0,13.74,0,27.5c0,4.33,2.92,6.16,6.62,4.15a36.55,36.55,0,0,0,3.57-2.13,29.85,29.85,0,0,0,9.88-12c1.82-3.9,2-4.14-1.12-6.81-1.21-1-2-1-2.47.67a21.71,21.71,0,0,1-1.86,4.75C181.92,55.81,179.44,59.35,175,61.47ZM58,102.54c-1.77,5.5-3.32,10.53-5,15.51-.88,2.6-2,5.13-3.06,7.65-.7,1.6-.81,2.88,1.12,3.56,1.61.56,3.35,1.55,4-1.23.16-.68.72-1.26,1-1.93,2.33-7,4.78-13.93,6.85-21,.54-1.86,1.39-2.14,2.88-2.14,2.76,0,5.52,0,8.28,0,1.82,0,2-1.14,2-2.43s-.06-2.69-2-2.61-4.16.05-6.24,0c-2.68,0-2.88-.49-2.44-3.13.17-1-.06-2.77-.73-3.2-1.79-1.14-3.69-.2-4.51,1.8a6.48,6.48,0,0,0-.5,1.87c-.16,2-1.16,2.85-3.25,2.71s-4.42,0-6.57,0v4.56ZM951.7,43c3.32,0,6.57-.11,9.81,0,2,.1,2.56-.68,2.55-2.61s-.56-2.57-2.45-2.46a63.86,63.86,0,0,1-6.49,0c-2-.09-2.69-1.16-1.84-3,.74-1.58,1-2.91-1-3.48-3-.87-3.78-.41-4.26,2a8.11,8.11,0,0,0,0,1c-.24,2.65-1.13,3.49-3.7,3.5-2.21,0-4.43,0-6.61,0v4.69h8.15c-.34,1.24-.54,2.17-.86,3q-3.54,10.1-7.13,20.16c-.44,1.23-.87,2.44.74,3.1s3.25,2,4.36-.42a95.06,95.06,0,0,0,4-9.65C948.66,53.69,950.11,48.37,951.7,43ZM748.53,54.54c-1.3,2.39-2.55,4.66-3.77,7-1,1.83-1.82,1.15-2.27-.24A31.68,31.68,0,0,1,740.58,54c-.42-5.28-.46-10.59-.56-15.89-.08-4.13-.7-4.66-5.11-3.75.67,8.09-1.12,16.34,1.16,24.38a38.81,38.81,0,0,0,3.6,8.47c1.63,2.9,4.6,3,7.09.79,2.65-2.31,3.92-5.37,5.31-8.45.92-2.06,0-3.11-1.52-4A21.14,21.14,0,0,0,748.53,54.54Zm-116.2,59.64c-1,2.07-1.82,3.84-2.77,5.53a25.42,25.42,0,0,1-2,2.74c-.69-1-1.44-2-2.07-3.12a3.78,3.78,0,0,1-.45-1.62c-.36-6.5-.76-13-1-19.51-.15-4.18-.67-4.7-5-3.88,0,5.52.12,11.08,0,16.64a25.66,25.66,0,0,0,4.32,15.69c2.25,3.31,5.16,4.08,7.62,1S635,121.34,637,118ZM660.5,94.05c0,7.1-.07,13.89,0,20.68a23.2,23.2,0,0,0,4.28,12.75c1.77,2.63,4.74,2.81,6.94.42a27.8,27.8,0,0,0,4-5.52c2.47-4.57,2.37-4.62-1.72-7.74a3.17,3.17,0,0,1-.43-.61c-1.11,2.33-2.09,4.56-3.24,6.7a8,8,0,0,1-1.8,1.72,7.62,7.62,0,0,1-1.51-2.06A53.29,53.29,0,0,1,665,104.85q0-3.73,0-7.49c0-3.39-.07-3.45-3.53-3.37C661.07,94,660.67,94,660.5,94.05Zm-74,32.43c-2.46,0-4.54.07-6.61,0s-1.85,1.34-1.9,2.69.17,2.41,2,2.36c3-.1,6-.11,9,0,2.25.08,3.1-.8,3.08-3.06q-.1-13.47,0-26.93c0-2.26-.84-3-3.07-3.11-2.39-.09-2.52,1.12-2.48,2.92.07,3.49,0,7,0,10.47Zm205.5,0c-2.31,0-4.3.1-6.27,0s-2.18,1-2.23,2.45.55,2.57,2.25,2.57c3.16,0,6.32,0,9.47,0,1.58,0,2.33-.62,2.31-2.37q-.1-14.1,0-28.18c0-1.8-.48-2.54-2.39-2.49-2.95.09-3.13.16-3.14,3.3ZM153.74,69.19c1.48-1.55,2.57-3.21,4.09-4.17,2.86-1.82,4.1-4.56,5.19-7.49,2.71-7.29,1.14-14.88,1.39-22.34.08-2.4-2.17-1.57-3.59-1.7s-1.85.66-1.83,2c0,4.07.17,8.15,0,12.22-.27,5.58-1.59,10.83-6.11,14.68-.88.75-1.83,1.43-2.91,2.27ZM589.17,30.48V62.86c4.83.33,4.83.33,4.83-4.36,0-6.84.07-13.67,0-20.5,0-2,.61-2.73,2.59-2.54,1.32.13,2.66-.05,4,0,1.83.12,2-1,2-2.37s.17-2.72-1.94-2.67C596.84,30.54,593.1,30.48,589.17,30.48ZM31.11,122.89c4.39.22,4.39.22,4.39-3.86,0-6.92.09-13.84,0-20.75-.05-2.3.9-2.9,2.91-2.81a19.7,19.7,0,0,0,4.48-.08,2.58,2.58,0,0,0,1.57-1.84c.12-1.06.77-2.9-1.14-3-4-.19-8.09-.06-12.16-.06ZM388,116.48c-1.84,0-3.67,0-5.5,0s-2.56.81-2.54,2.58c0,3.16-.08,6.33.06,9.49.05,1,.56,2.47,1.17,2.65,1.15.34,3.26.34,3.66-.32,1.09-1.79,2.53-1.35,4-1.38,1.59,0,3.17-.05,4.75,0,1.4.06,2-.53,1.92-1.92-.05-2.83-.15-5.67,0-8.5.14-2.2-.78-2.77-2.77-2.61C391.2,116.58,389.61,116.48,388,116.48Zm228.12-60c-1.92,0-3.83.05-5.75,0-1.39,0-1.93.54-1.91,1.93,0,3.5-.07,7,.07,10.49,0,.84.65,2.2,1.24,2.35,1.07.28,2.87.24,3.4-.43,1.08-1.36,2.25-1.37,3.65-1.34,1.58,0,3.17-.08,4.75,0,1.74.13,2.39-.7,2.4-2.29,0-2.75,0-5.5,0-8.25,0-1.8-.87-2.54-2.61-2.5S617.9,56.48,616.15,56.48ZM982.5,50.91V66.64c0,2.06,1.29,2.4,3,2.35s2.75-.42,2.52-2.4a46.76,46.76,0,0,1-.48-5.89c.1-8.63.32-17.25.46-25.88,0-2.3-1.31-3.6-3.17-2.7a4.92,4.92,0,0,0-2.22,3.56C982.35,40.74,982.5,45.83,982.5,50.91ZM109.59,53c11.59,0,22.91,0,34.23,0,1.79,0,2.75-.25,2.75-2.41s-.73-2.67-2.76-2.66c-10.74.09-21.49,0-32.23.05-.64,0-1.28.09-2,.14Zm147.16,39.5c-.28,2.36-.64,4.31-.72,6.27-.24,5.79-.46,11.59-.49,17.39,0,3.88.4,7.75.42,11.62,0,2.25,1.09,2.49,2.84,2.08,1.52-.35,2.58-1,2.21-2.86a17.39,17.39,0,0,1-.48-3.64q.17-12,.5-24.08a5,5,0,0,1,.69-1.76c1.36-2.92.09-5-3-5Zm433.66,30.21c.8-.08,1.5-.11,2.19-.22,3-.47,3.58-1.29,2.94-4.42-.35-1.75-.8-3.48-1-5.24-.65-5.89-3.15-11.15-5.4-16.52-1.15-2.75-3-.67-4.4-.54s-1.21,1.62-.72,3c1.45,4,2.86,8,4,12.15C689,114.76,689.62,118.75,690.41,122.69Zm72.86-88.32a18.79,18.79,0,0,1-2.06,1c-3.14,1-2.9.9-1.8,4,1.58,4.42,2.88,8.94,4.05,13.49.84,3.27,1.26,6.64,1.91,10.15,1.81-.55,3.52-.72,4.8-1.55,2-1.3.16-2.87-.15-4.35-.88-4.22-1.42-8.52-2.6-12.64C766.44,41.05,764.74,37.87,763.27,34.37ZM647.54,94.66a18.17,18.17,0,0,1-2.06.78c-3.25.66-3.31,1-2.32,4q2.4,7.22,4.33,14.58c.6,2.28.66,4.69,1,7a4,4,0,0,0,.61,1.69,14.8,14.8,0,0,0,4.64-1c.58-.29.81-1.93.67-2.88a79.1,79.1,0,0,0-2-10C651,104.08,649.24,99.5,647.54,94.66ZM290.73,123c-5.16,0-9.6.09-14.05,0a8.18,8.18,0,0,1-3.65-1.23c-1.88-1.11-1.9-2.94-1.21-4.78.8-2.17-.87-2.66-2.22-3a2.82,2.82,0,0,0-2.51.79c-3.09,5.8,0,12,6.52,12.72a132.78,132.78,0,0,0,13.83.51c1,0,2.64-.48,3-1.21C291,125.53,290.68,124,290.73,123Zm-142.42-5.43c-3.25,6-1.15,11,4.87,11.43,4,.29,7.92.42,11.89.5,4.18.09,4.17,0,3.94-4.1-.08-1.47-.39-1.76-2.1-1.67a107.79,107.79,0,0,1-13.08-.31c-.63,0-1.81-1.72-1.62-2.09.92-1.87-.49-2.16-1.52-2.73C150,118.18,149.23,117.92,148.31,117.53Zm-82.62-.06c-.56,1.46-1.45,2.9-1.62,4.42-.39,3.28,2.54,6.71,6.2,7,4.77.41,9.58.46,14.38.49.61,0,1.5-1,1.78-1.66a4.3,4.3,0,0,0,0-2.7,2.15,2.15,0,0,0-1.6-1.14c-4.45-.21-8.91-.2-13.35-.52-.65,0-1.89-1.73-1.7-2.19.71-1.72-.45-2-1.45-2.56C67.54,118.23,66.71,117.92,65.69,117.47ZM953.56,57.25c-.55,2-1.52,3.81-1.43,5.58a6.82,6.82,0,0,0,6.15,6.09c4.77.37,9.56.43,14.35.5.61,0,1.74-.71,1.75-1.13a24.14,24.14,0,0,0-.48-4.54s-.68.1-1,.09c-4.53-.12-9.06-.17-13.59-.42-1.21-.07-2-.86-1.6-2.46a2.54,2.54,0,0,0-.91-2A18.89,18.89,0,0,0,953.56,57.25ZM279,96c-2.82,0-5.64,0-8.46,0-1.26,0-2.19.25-2.05,1.75s-.76,3.6,1.63,3.68c5.89.18,11.79.17,17.67,0,2.4-.07,1.55-2.22,1.68-3.64s-.7-1.82-2-1.8C284.67,96,281.85,96,279,96ZM179,95.1l18.62,5.54,2-4.45c-.28-.22-.45-.45-.67-.52-4.48-1.4-8.94-2.94-13.48-4.12S180.55,90.68,179,95.1ZM161.36,112c1.66,0,2.83-.09,4,0,2.42.22,2.11-1.41,2.17-2.93s-.16-2.77-2.24-2.61c-3.29.25-6.6.28-9.89.55-1.68.15-3.33.66-5,.95-2.12.36-1.43,2.05-1.27,3.16.08.54,1.36,1.3,2.09,1.29C154.76,112.39,158.31,112.13,161.36,112ZM74.48,107.1l-.09-.52c-2.06.44-4.1,1-6.18,1.28-2.25.29-1.71,1.88-1.68,3.19,0,1.84,1.51,1.44,2.59,1.41,4.63-.12,9.26-.41,13.89-.44,2.31,0,1.95-1.46,2-2.86s0-2.89-2.15-2.69C80.07,106.73,77.28,106.9,74.48,107.1ZM959,52.48V52c3.88,0,7.75,0,11.62,0,2,0,2.88-.69,2.88-2.75s-.84-2.92-2.84-2.77c-4.4.35-8.81.69-13.22,1.06-.3,0-.6.39-.89.38-2.41-.11-1.42,1.69-1.56,2.79-.18,1.48.73,1.86,2,1.78C957.69,52.45,958.36,52.48,959,52.48Zm-342.78-21h-5c-1.55,0-2.4.58-2.32,2.35s.65,2.65,2.45,2.64h9.69c1.63,0,2.51-.77,2.38-2.4s-.6-2.72-2.52-2.62C619.39,31.55,617.82,31.48,616.25,31.48ZM388,91.48c-1.49,0-3,0-4.49,0-1.69-.06-3,.27-3,2.35s1.23,2.69,3.08,2.67c2.9,0,5.81,0,8.72,0,1.5,0,2.76-.13,2.73-2.21s-.82-2.9-2.83-2.8C390.8,91.54,389.38,91.48,388,91.48Zm-.12,23c1.74,0,3.48-.06,5.22,0s2-.72,2-2.13-.57-1.89-1.94-1.92-2.91-.42-4.37-.42a36.31,36.31,0,0,0-6.35.41c-.71.13-1.23,1.33-1.84,2,.79.66,1.49,1.74,2.37,1.91A26.31,26.31,0,0,0,387.85,114.48Zm234.94-64c-3.89,0-7.62,0-11.34,0-1.3,0-2.58-.09-2.46,1.83.11,1.71,1.11,2.2,2.65,2.18,2.82,0,5.63,0,8.45,0C623.24,54.48,623.76,53.76,622.79,50.48Zm434.89,1.84a63.71,63.71,0,0,0-4-6.3c-1.51-1.88-3.26-1.5-4.56.55.88,1.31,2.05,2.49,2.52,3.9C1052.72,53.74,1054.37,54.83,1057.68,52.32Zm-85.21-13.7c-1.94-2.62-3.47-4.9-5.27-6.94-.3-.34-1.89.15-2.63.64-.34.23-.31,1.49,0,2.09a33.91,33.91,0,0,0,2.83,5.11,2.49,2.49,0,0,0,2.1.66A13,13,0,0,0,972.47,38.62ZM80.08,100.76c1.15-1.17,4.24-.14,3.3-3A18.52,18.52,0,0,0,79.52,92c-.39-.44-2.09,0-3,.43-.31.15-.3,1.65,0,2.3C77.52,96.65,78.73,98.49,80.08,100.76Zm250.39,11.87c-1.56-5.88-4-8-8.16-6.7,1.35,2.57,2.65,5.11,4.07,7.58.17.29,1,.37,1.5.25A18.92,18.92,0,0,0,330.47,112.63ZM977.89,37.26,973.56,30c-4,1.14-4,1.23-2.33,4.46.3.58.55,1.18.84,1.76C973.8,39.68,974,39.74,977.89,37.26ZM85.09,90c-1.18.6-3.66.26-2.94,2.48.81,2.48,2.49,4.68,3.78,7,3.56-1.7,4-2.91,2.24-5.54C87.26,92.6,86.16,91.38,85.09,90ZM1054.77,43.6c1.66,3.23,3,5.84,4.56,8.91,1.25-1.1,3.16-2.31,3-2.74a24.74,24.74,0,0,0-3.56-6.52C1058.38,42.74,1056.44,43.42,1054.77,43.6ZM336.1,109.76a60.79,60.79,0,0,0-3.81-6.09c-.43-.54-1.9-.42-2.87-.3-.35,0-1,1.1-.84,1.38,1.25,2.51,2.64,5,4.08,7.56Z" transform="translate(-0.5 0.02)"/>
      <path d="M161.5,809.48c-.14-2.32-.1-4.67-.44-7-1-6.5.69-12.76,1.65-19.06,2.75-18.1,5.65-36.18,8.46-54.28a21.72,21.72,0,0,0,.18-3.23c.17-22.58.52-45.16.4-67.74-.06-11,1.38-21.74,3-32.52,2-13.09,3.79-26.2,5.87-39.27.31-1.93,2.07-3.59,2.6-5.52,1.42-5.26,2.45-10.62,3.81-15.9a52.17,52.17,0,0,1,3.56-9.73c-.13,9.39-3,18.33-4.15,27.8,2.51-.93,4.71-1.66,5.87-4.06a2.13,2.13,0,0,1,1.57-1c2.43,0,3.43-1.45,4.11-3.5a26.37,26.37,0,0,1,1.79-3.47l2,2.41c3.69-.92,2.87-4.69,4.62-6.89v4.1c3.94-2.29,7.58-4.24,11.06-6.46,6.79-4.34,12.76-9.72,18.7-15.13,4.27-3.88,8.67-7.62,12.94-11.5,2.17-2,4.31-4,4.41-7.49-1.79.58-3.37,1.15-5,1.6s-2.65,0-3-1.78c-.49-2.28-1.1-4.53-1.67-6.84L255,521.25v3.62c0,2-.36,3.87.87,5.84.8,1.27.44,3.27.62,5.12L253.08,534c-1.25,3.06-2.48,5.9-3.56,8.8-1,2.58-1.62,5.28-2.63,7.84-.76,1.9-.45,3.36.52,4.12a37.73,37.73,0,0,1-.07,5.41,5.58,5.58,0,0,1-1.53,2.66c-3.06,3.29-2.92,6.52.27,9.51a5.76,5.76,0,0,1,1.34,3.1c.48,2.74.59,5.55,1.16,8.26.2,1,1.21,1.81,2,2.55s5.95,2,6.82,1.66c1.6-.65,3.45-1.19,4.61-2.35,3.47-3.49,7.49-6.49,9.64-11.22.57-1.25,2.64-1.78,4-2.72,3.2-2.32,5-5.22,4-9.38-.47-1.95,4.15-7.29,6.6-7.78a14.58,14.58,0,0,0,9.51-5.94,26.59,26.59,0,0,1,2.78-2.6c1.16-1.21,2.23-2.52,3.21-3.63a16.75,16.75,0,0,1-1.87,12.06c-3.65,6.5-7.11,13.11-10.65,19.67-.23.42-.42,1.05-.78,1.21-3.17,1.33-4,4.31-5.08,7.09-.09.2-.36.33-1.16.38a24,24,0,0,0,.48-2.64c.11-1.33.1-2.67.14-4a14.42,14.42,0,0,0-3.11,2c-2.94,3.25-5.64,6.73-8.61,10a54.55,54.55,0,0,1-6,5.36c-2,1.61-4.21,3-6.3,4.53-3.09,2.27-4.22,5.54-5.19,9.13-2,7.45-4.52,14.76-6.67,22.18a36.4,36.4,0,0,0-.91,6.29c-.37,3.67-.45,7.39-1,11-.57,3.47,2.09,5,3.86,6.81a10.07,10.07,0,0,1,2.25,11.31c-.77,1.68-1.17,3.57-2.17,5.1a6.93,6.93,0,0,1-3.31,2.53c-.57.2-2.1-.84-2.42-1.63a108.8,108.8,0,0,1-3.65-10.56c-.74-2.61.42-5,1.44-7.44,1.85-4.4.82-8.89,0-13.3-.89-4.67.26-9.07,1.33-13.5,1.4-5.77,2.79-11.53,4.21-17.29.34-1.34.76-2.66,1.16-4,1-3.35.38-6-2.2-8.7-2.2-2.33-3.65-5.54-4.87-8.59-1.74-4.35-3.51-8.73-3.22-13.67.07-1.25-1.43-2.6-2.25-4a8,8,0,0,1-2,1.67,5.92,5.92,0,0,1-3.26.48c-2.37-.52-4.44.33-4.82,2.64-.65,3.85-1.17,7.74-1.51,11.64-.75,8.35-1.36,16.72-2,25.08-.21,2.72-.29,5.44-.53,8.15-.8,8.76-1.67,17.5-2.46,26.25-.55,6.17-1,12.35-1.54,18.52a31.89,31.89,0,0,1-.51,4.39c-1.42,6.16.75,11.74,2.41,17.47.36,1.26-.52,3-1.13,4.4-1.14,2.65-2.67,5.14-3.66,7.84-.34.92.46,2.27.78,3.42.17.62.78,1.49.56,1.8-2.08,3,.83,4.12,2.15,6-.28.2-.49.47-.75.53-2.8.69-5.87.1-8.48,1.88-.18.13-1.5-.88-1.78-1.57a7.86,7.86,0,0,1-.08-2.75l-.74,0c-.42,2.84-.86,5.67-1.25,8.51-.22,1.62-.43,3.26-.51,4.89a19.08,19.08,0,0,0,.27,2.9c1-.11,2.08-.15,3.09-.35.42-.08.77-.52,1.35-.92l-2.86-2.45c-1.37-1.18-1.17-2.9.41-3.59,3-1.31,5.58.43,6.24,4.18a18.69,18.69,0,0,0,1.19,4.94,5.56,5.56,0,0,0,2.83,2.27c1.93.79,4.18.91,6,1.9,4.32,2.38,9,2.74,13.73,3.16,7.28.65,14.56,1.46,21.86,1.9a59.27,59.27,0,0,0,10.12-.54c4.38-.48,8.74-1.22,13.11-1.86,4.61-.68,9.23-1.27,13.8-2.15,1.05-.21,2.58-1.38,2.68-2.25.24-2,1.66-2.09,2.85-2.54,2-.76,4-1.27,6-1.93,3-1,2.95-1,1-3.34,3-4.51,7.1-5.77,12.36-4.89,3.17.53,6.49.1,9.75.1l.26.68L322,719.73l.12.87,22.71-1.38c-1.88,2.73-5,1.25-7.32,2.17s-5,1.41-7.47,2.13-5.11,1.62-7.71,2.28-5,1.06-7.54,1.57l.13.65c3-.58,6-1.22,9-1.74,5.63-1,11.26-1.95,16.91-2.77,2.89-.42,5.44-1,7.49-3.5,2.41-2.9,5.32-5.37,7.94-8.1a2.57,2.57,0,0,0,.65-1.93c-.06-.36-1.07-.55-1.85-.9-.22-.91-.5-2.1-.92-3.84-4.33,1.4-8.61,3-13,4.14-5.79,1.43-11.81,2-17.47,3.79a29.55,29.55,0,0,1-10.37,1.27c-4.2-.17-8.39-.62-12.58-.94-.25,0-.5,0-.75,0-7.06-.16-14.11-.28-21.17-.52-3.53-.12-7.05-.47-10.73-.72.2-4.2.39-8.39.61-12.57,0-.81.28-1.62.32-2.43.35-7.69.72-15.37,1-23,.37-9.94.8-19.87,1-29.81a170.13,170.13,0,0,0-.53-17.64c-.41-4.64,1.1-8.71,2.65-12.8,2.16-5.68,4.6-11.25,6.89-16.87q3-7.47,6-15c.62-1.58,1.08-3.22,1.6-4.8l5.46,2.37c3.89-9.29,4.51-19.39,10-28a5.91,5.91,0,0,1,.41,2.08c-.83,4.73-1.84,9.43-2.64,14.16-.71,4.27-1.21,8.57-1.83,12.86-.25,1.78.9,2.5,2.24,3.11,4.22,1.92,8.47,3.77,12.64,5.78a3.92,3.92,0,0,0,4.67-.35c3.83-2.91,7.88-5.53,11.83-8.29a18.1,18.1,0,0,0,3.1-2.36,4.48,4.48,0,0,0,.64-2.32c.08-.56-.2-1.18-.07-1.72a6.51,6.51,0,0,1,.89-1.57,7.44,7.44,0,0,1,1.47,1.31c.25.36.15.95.24,1.76a56.24,56.24,0,0,0,5.37-2.94c5.9-4.1,11.71-8.32,17.58-12.47,1.84-1.31,4-2.3,5.58-3.84,3-2.82,6.73-2.12,10.17-2.85,2-.43,4-.71,6.62-1.16-1.85-4.82-3.59-9.36-5.32-13.9l.92-.36c1.84,3.66,5.47,6.49,4.54,11.44-.16.86.61,1.91.93,2.8l11.1-1.43c-.09.2-.17.41-.26.61a16.55,16.55,0,0,0,3.21,2.34c4.59,1.95,9.28,3.67,13.87,5.64a4.81,4.81,0,0,1,2.35,2.25q20.07,46,39.92,92c.95,2.2.91,4.87,1.09,7.33,1.28,17.28,2.48,34.56,3.72,51.85.14,2,.19,4,.48,6,1.38,9.54-1.32,18.7-2.55,28q-3,22.65-6.42,45.24c-.86,5.67-2.34,11.24-3.54,16.85H378c.25-5.31.49-10.63.76-15.94.42-8.32,1.57-16.67,1.15-24.94-1.17-23-3-46.05-4.56-69.07-.18-2.63-.41-5.25-.64-8.24-1,.62-1.69,1-2.35,1.47q-6.41,4.35-12.79,8.73c-3.57,2.43-3.66,2.46-2.36,6.63.62,2,.84,3.65-1.19,4.94-1.47.94-1.49,2.3-1.3,3.93.72,6,1.5,11.91,1.83,17.89,1.1,19.88,2,39.77,3,59.66.25,5,.63,10,.95,14.94H296c2.33-.17,4.67-.43,7-.48,3.78-.08,3.79,0,4.8-3.61.14-.47.11-1,.21-1.46.68-3.24,1.75-6.2,5.83-7.67,1.09,3.18,2.2,6.1,3.08,9.08.53,1.81,1.2,2.11,3.16,1.78,3.7-.63,6.49-2.81,9.61-4.48,4.78-2.56,7.05-7.44,5.66-12.54-1.87-6.87-5.94-12.45-10.68-17.53a6.5,6.5,0,0,0-5-1.92,19.8,19.8,0,0,0-8.23,3.32,47.54,47.54,0,0,0-8,8.54c-.73.93-.42,2.87-.15,4.26.08.39,1.69.51,2.61.7.4.08,1-.15,1.22.06.54.48,1.27,1.15,1.26,1.74a2.2,2.2,0,0,1-1.32,1.63c-1.64.36-5.28-1.95-6.11-3.53a5.4,5.4,0,0,0-1.57-2.16c-1.12-.69-2.62-2.28-3.76-.44-1.5,2.45-3.73,3.7-6.08,5a8.07,8.07,0,0,0-2.6,3c-1.19,2-1.76,4.53-3.3,6.15-2.72,2.86-3.31,4.13-1.8,7.71.31.74.61,1.48.87,2.09l3.29.77H267.5l3.06-.77a54.47,54.47,0,0,0-10.14-2.14,12,12,0,0,0-4.71,1c-.9.32-1.21,1.12-.21,1.86Zm95.43-55.18a19.49,19.49,0,0,1-2.46-11c.1-3-1.6-4.67-4.58-4.31a47.46,47.46,0,0,0-7.62,1.64c-.7.2-1.75,1.43-1.63,2,1,4.18,2.66,8,6.12,10.86C250.39,756.46,253.1,756.74,256.93,754.3Zm9.26-.54c.83-1.59,1.3-3.38,2.44-4.52a11.76,11.76,0,0,0,3.57-7.74c-1.31-.81-2.64-1.58-3.93-2.43-1.73-1.13-3.15-1.09-4.69.51s-1.28,3.06-.44,4.69a14,14,0,0,1,1.34,2.32C265.14,748.91,265.61,751.27,266.19,753.76ZM343.64,760c-1.33,2.06-2.73,4-3.94,6.14-.53.93-1.59,2.1.19,3,2.67,1.43,4.76,1.35,5.64-.31C347.08,765.94,346.44,762.78,343.64,760ZM213.22,731l.12-.43-9.71-4c-.23.75-.49,1.63-.85,2.81Z" transform="translate(-0.5 0.02)"/>
      <path d="M675.84,428.35l6.57,3.06c.53-2.47,1.2-4.84,1.5-7.26s1.57-2.62,3.09-2.07c0-3.27.42-6.7-.14-10-.43-2.54-1.15-4.89-.08-7.25a15.38,15.38,0,0,0,3,.58c2.8,0,5.59-.23,8.39-.34a1.92,1.92,0,0,1,.93.24c2.84,1.56,5.68,3.12,8.49,4.75.37.22.54.79,1,1.49L702.19,416l-7-2.76c-2,6-4,11.77-6.06,17.85l-1.47-1.25v3.92l.45-.37c.45.63,1.18,1.21,1.33,1.9,1.43,6.92,2.7,13.88,4.14,20.8,1,5,2.34,9.87,3.33,14.84a28.25,28.25,0,0,1,.06,5.39c-.82-.94-1.5-1.74-2.41-2.8l-.88,1.92-.39-.07c.07-.85.15-1.69.25-2.85l-6.55,7.3-.67-.31c.74-2.09,1.49-4.19,2.24-6.28L688,473l-10.18,17.53.47.31c.4-.36.82-.71,1.22-1.08,1.12-1,2-2.91,3.88-.82.37.4,1.35.23,2,.36.87.18,1.72.4,2.84.65l10.13-2.26.24.33c-4.07,3.79-8.2,7.52-12.16,11.42-1.11,1.1-1.63,2.76-2.57,4.06a3.62,3.62,0,0,1-1.89,1.43c-3.91.81-8,1.15-11.75,2.3-2.05.62-3.73,2.5-5.53,3.87a4.75,4.75,0,0,0-1.35,1.86c8.57-2.77,17.13-5.63,26.53-6.06.38,4.1.77,8,1.1,12,.37,4.64.74,9.29,1,14,.12,2.2,1.58,3.64,2.51,5.42,3.18,6.07,6,12.31,9.1,18.44,1.67,3.33,3.46,6.6,5.26,9.86s3.7,6.58,5.56,9.87l.73.05a15.9,15.9,0,0,0,.31-3.8c-1.18-8-5.18-14.82-9.15-21.65a81.08,81.08,0,0,1-4.54-8.68c3.5,1.7,7.08,3.29,10.46,5.21.79.45,1,2,1.34,3.12q2.65,10,5.19,20.05a11.33,11.33,0,0,1,.24,3q-.81,48.6-1.6,97.21c0,2.6-1.51,4.22-3,5.77a9.9,9.9,0,0,0-2.88,8.54c.39,3.89.35,7.82.56,11.73a7,7,0,0,0,.53,2.4c3.91,9.18,7.8,18.35,13.24,26.79,4.1,6.37,7.52,13.17,11.73,19.45,3.54,5.27,4.58,11.2,5.63,17.13,2.75,15.56,5.23,31.17,7.82,46.76H637c.48-7.31.79-14.64,1.49-21.93,1.3-13.67,2.76-27.33,4.27-41,1.29-11.66,2.74-23.31,4.08-35a4.31,4.31,0,0,0-.36-2.15c-2-4.47-4.13-8.9-6.12-13.39-.54-1.23-1.19-1.45-2.49-1.19-4.48.9-9,1.8-13.51,2.39a3.49,3.49,0,0,0-3.45,3.14,35.77,35.77,0,0,1-1.34,3.92c-6.17-.3-12.3-.52-18.41-.94a5.8,5.8,0,0,0-4.51,1.53c-2.52,2.17-5.13,4.26-7.82,6.22a3.53,3.53,0,0,1-2.63.43,69.32,69.32,0,0,1-9.55-2.8,13,13,0,0,1-4.55-3.59c-4.91-5.59-4.71-3.23-1-9.89.81-1.45,1.67-2.88,2.52-4.31,3.31-5.61,3.31-5.61,9.21-9.31,1.47.91,3,1.85,4.93,3.07-.68-5.72-1.3-11-1.95-16.24-1.75-14-3.36-28.11-5.36-42.11-1-6.83-2.84-13.51-4-20.31a46.19,46.19,0,0,1-.33-9.19c0-.66,1.08-1.57,1.85-1.87,3.65-1.41,7.4-2.53,11-4a5.83,5.83,0,0,0,2.89-2.67c2.06-4.35,3.83-8.84,5.76-13.26a5.55,5.55,0,0,1,1.52-2.5c5.69-3.63,9.29-9.26,13.64-14.15,1.16-1.3,2.25-2.66,3.37-4l.75.17-3.26,18.27.41.13c.23-.51.46-1,.82-1.78.08,1.26.15,2.28.25,3.83,1.09-3.9,2-7.29,3-10.67l.43.08L615.83,583l.45.11,3.09-9,.51.14-.25,1.4.33.1,4.17-16.25c2.6.34,5.09,1.13,7.43.82,2.11-.28,4.12-1.67,6.06-2.76a22.69,22.69,0,0,0,3.09-2.48c-.15-.18-.29-.36-.44-.53l-1.57.46c-.57-2.34-1.23-4.65-1.64-7a4.22,4.22,0,0,1,.68-2.49c4.09-7.33,9.64-13.58,14.94-20a46.08,46.08,0,0,0,6.47-9.74c.65-1.41-.46-4.12-1.54-5.7-1.34-2-3.53-3.33-5.3-5-.91-.86-1.72-1.84-3-3.23l-5.72,28.84c-.44.18-.6.32-.74.3-3-.47-4.57.56-4.77,3.75a12,12,0,0,1-1.58,4.78c0-1.89,0-3.78,0-5.66s-.49-3-2.7-3.11c-1.07,0-2.11-.88-3.4-1.47L626.24,544l-.55-.09q.91-8.73,1.82-17.47l-.35-.06-1.86,6-.64.13c-.53-2.56-1.07-5.11-1.6-7.67l-.4,0c-.67,2.86-1.33,5.73-2,8.58l-.69-1c.56,3.16-.29,5.67-.57,8.3l-1.1-.16,1.08-18.92c0-.41.09-.82.11-1.23.17-6.14-.16-12.33.62-18.39,1.11-8.68-2-16.64-3.35-24.87-.77-4.52-1.18-8.82.67-13.41l1.76,2.51c.19-3.24.42-5.81.47-8.39a17.19,17.19,0,0,0-1.95-7.76c-.78-1.69-.53-3.9-.55-5.87s-.85-3.21-3.14-3c-.58,2.17-1.22,4.53-1.85,6.89l-.5-.11V442c-1.82,1.59-3,3.47-5.56,3.13l-1.55,3.19c-1.92-3.63-3.75-6.94-5.39-10.33a2.39,2.39,0,0,1,.74-2.06c4.23-3.55,8.42-7.19,12.94-10.34,1-.72,3.47,0,5,.65,2,.93,3.79,1.13,5.76,0s5.34-1.32,6.84-.48l-3.07,1.35.06.31a6,6,0,0,0,1.48-.12c5.3-2,10.69-3.7,15.83-6a15.65,15.65,0,0,1,11.44-.89,48.42,48.42,0,0,0,9.65,1.7c4.56.37,7.59,2.85,10.1,6.33-.54-.3-1.1-.58-1.63-.91-2-1.23-3.67-3.14-6.36-2.53-2,.46-4,1-5.81,1.45a5.12,5.12,0,0,0,.86.53c3.51,1.51,7,3,10.54,4.46.92.37,1.56.35,1.2,1.78-.42,1.6,1.32,3.28,2.66,2.68,2.4-1.06,3,.83,4.07,2.05a11,11,0,0,1,1.09,2l.66-.21c-.43-1.75-.4-3.83-1.38-5.19C680.16,432.24,677.86,430.39,675.84,428.35Zm-1,182.83c1.65-2.27,3.91-4.15,4.52-6.47,1.2-4.63,1.39-9.51,2.2-14.26A18.35,18.35,0,0,0,680.27,580a34.25,34.25,0,0,1-2.19-6.47c-1.9-9.56-6.13-18.11-11.21-26.3-1.69-2.73-3.77-3.2-6.59-1.64-1.72,1-3.48,1.83-5.1,2.92a30.62,30.62,0,0,0-3.24,2.81c-1.85,1.67.3,2.58.84,3.63,2.21,4.25,4.5,8.48,7,12.56,3.39,5.51,8.12,10.25,9.44,16.92.3,1.55,1.09,2.9-.61,4.35-1.26,1.08-2,2.8-2.9,4.28-1.52,2.52-3,5.08-4.6,7.84l-1.47-2.63a23.48,23.48,0,0,1,0,3.91c-.51,2.76.15,3.58,3,3.87,1.58.16,3.52.22,4.59,1.14,1.69,1.46,3.11,2.14,5,.82ZM637.65,459l.61-.07c0,4.34.23,8.69-.08,13a12.82,12.82,0,0,0,1.5,7.68c.69-2.36,1.17-4,1.76-6,.65,1.34,1.13,2.32,1.82,3.72.74-1,1.72-1.74,1.63-2.31a44.52,44.52,0,0,0-1.67-7.09q-3.53-10.82-7.3-21.56a38.82,38.82,0,0,0-2.47-4.85l-.68.27q1.37,5.36,2.75,10.71A88.39,88.39,0,0,1,632,443.6a3.45,3.45,0,0,0-1.82-2c-2.38-.7-4.85-1.09-7.63-1.67,3.41,2.14,3.41,2.14,4,6.18a6.25,6.25,0,0,0,.17.72,60.94,60.94,0,0,1,2.9,18.59c-.05,2,.81,4.08,1.26,6.12l.81-.08c.53-1,1.07-1.91,1.65-2.95l2,2.29C636.16,466.63,636.9,462.84,637.65,459ZM749.29,809c-2.07-10.67-4.11-21.16-6.15-31.66l-.55.07c-.27,1.56-.54,3.12-.8,4.67-.24-.11-.66-.35-.67-.34-.89,1.49-2.23,2.91-2.51,4.52a61.48,61.48,0,0,0-.45,8.39,36.14,36.14,0,0,1-2.49-5.67,2.8,2.8,0,0,0-1.58-1.21c-.21-.07-1,.68-1,1,0,2.61-.44,5.24,2.1,7.38,1.52,1.29,2.36,3.47,3.28,5.36s1.62,4.21,2.57,6.26a2.28,2.28,0,0,0,1.6,1.13C744.84,809.05,747.08,809,749.29,809ZM643.74,702.11a38.78,38.78,0,0,1,3.21,2.62c1.78,1.78,3.81,3.46,5,5.58s1.38,4.5,2,6.78a34.23,34.23,0,0,0,1.61,5.78A24.63,24.63,0,0,0,659,727.7a25.43,25.43,0,0,0,2.84,2.56,28.15,28.15,0,0,0,.87-5.71,27.62,27.62,0,0,0-1.28-7.15c-.87-2.71-1.61-5.84-3.47-7.75-2.54-2.6-6.11-4.2-9.19-6.28a4.07,4.07,0,0,1-1-1.35C646.57,699.94,646,699.89,643.74,702.11ZM623.85,435.63c3.68,3.14,8.15,2.38,12.1,2.75.53-1.09.8-2.33,1.56-3a9.43,9.43,0,0,1,2.9-1.4l-1.86-3a15.19,15.19,0,0,1,2.86-.94c3.33-.41,6.68-.64,10-1.07a8.89,8.89,0,0,0,2.39-1.2c-.74-.87-1.25-1.4-1.68-2a4.09,4.09,0,0,0-7.16.47,2.7,2.7,0,0,1-1.61,1.2c-2.24.45-4.5.78-6.76,1.05-2.6.3-3.45,1.27-3.05,3.67C630.5,433.6,626.33,431.79,623.85,435.63Zm41.65.24c2.54,2.56,5.34,5.22,8,8.05,1.37,1.49,2.3,3.38,3.69,4.84.51.54,1.76.4,2.67.57.13-.8.57-1.7.34-2.39-.66-2-1.58-4-2.42-5.94-.21-.51-.76-1.05-.68-1.48.41-2.24-1.14-2.79-2.69-3C671.3,436.18,668.21,436.06,665.5,435.87Zm-41.67,27.62c.63-.8,1.08-1.11,1.08-1.42,0-4.48,0-9-.12-13.45a32.85,32.85,0,0,0-.77-3.56c-.49-3.61-.6-3.74-4-3.83.48,3.61,1.19,7.27,1.37,10.95A29.53,29.53,0,0,0,623.83,463.49Zm15.47,34.69c-2.2,8.85-4.29,17.23-6.38,25.61l1,.46c.87-1.32,2.09-2.54,2.49-4,.35-1.3-.71-3-.26-4.24a32.13,32.13,0,0,1,3.78-7.11c1.53-2.19,2.43-4.23,1-6.75-.15-.27-.37-.76-.27-.86C642,499.92,640.64,499.43,639.3,498.18Zm5.16-13c0,1.5.47,3.21-.11,3.69-.89.75-2.48.68-3.78.95l-.06.49,3.57,1.06-.71,1.13c.63.4,1.58.83,1.54,1-.65,2.57,1.55,3.28,2.9,4.45a2,2,0,0,0,1.93.26,2.6,2.6,0,0,0,.64-2,14.79,14.79,0,0,0-.55-2.64l-1.35.84c-.48-1-1.33-1.92-1.38-2.91a44.94,44.94,0,0,1,.41-6.12c.09-.86.31-1.7.53-2.85L649,484l.45-.2q-.75-2.69-1.49-5.37l-1.12,0c-.57,2.2-1.15,4.39-1.77,6.78ZM608.13,623.27l.52.05q3.27-10,6.55-20l-.68-.25c-2.78,2.64-2.09,6.82-4.07,10.14l-1.25-3.48c-2.37,1.75-3.4,3.64-2.48,6.5A61.83,61.83,0,0,1,608.13,623.27Zm58.74-169.73c-1.3-5-5.83-7.44-11.64-6.41C656,449.84,662.27,453.38,666.87,453.54ZM643.64,790.73c-1.74,3.4-2.26,12.12-.84,14C644.86,802,645.37,793.52,643.64,790.73Zm33.87-13.83.08-.63-16.66-2.22c0,.33-.09.66-.13,1C666.19,777.07,671.82,777.21,677.51,776.9Zm44.27,5.87-1.17.14,2,16.65.83-.1A70.76,70.76,0,0,0,721.78,782.77ZM659.47,443c1.11,2.88,6.91,6.31,9.89,5.48C666.33,445.92,663.88,443,659.47,443Zm54.42,329.06c-2.55.51-2.48,5.72,0,8.88Z" transform="translate(-0.5 0.02)"/>
      <path d="M268.4,458.91a8.13,8.13,0,0,1-.38-1.66c-.19-6.38-.34-12.76-.53-19.15-.07-2.29-.24-4.57-.37-6.91-5.47-.23-10.27-3.23-15.65-2.18a4.94,4.94,0,0,0-2.19,1c-4.78,4-4.63,9.32-3.15,14.57,1.16,4.1.31,7.58-1.53,11.12A5.2,5.2,0,0,0,244,458c-.06,3.83,0,7.66-.29,11.59q-1-2.93-2.09-5.85l-.54.18c.3,2.84.59,5.67.89,8.51.33,3.1.68,6.19,1,9.29a5.19,5.19,0,0,1-.08,2.46,28.58,28.58,0,0,0-2.29,12.75c-2.72-6.84-1.32-14.7-5-21.25.16,5.24,0,10.52.58,15.7s1.62,10.08.91,15.27c-.46-1.63-.91-3.25-1.52-5.45-.62.9-1.55,1.62-1.49,2.26.36,4,1,8,1.39,11.95a22.82,22.82,0,0,1-.41,4.85c0,.27-.73.73-.76.7-.45-.4-1.08-.81-1.19-1.33-.46-2.07-.81-4.17-1.1-6.27q-2.44-18.11-4.83-36.21l-.64-.06q-4.31,14.18-8.6,28.36l-.51-.06c.4-3.69.78-7.37,1.22-11.05.72-6,1.85-12.06,2.09-18.11.16-4.27-.83-8.59-1.39-12.87-.88-6.77-1.88-13.53-2.72-20.3a6.91,6.91,0,0,1,.57-3.34c1.32-3.11,2.82-6.14,4.54-9.85l-27.29,14.64-.23-.31c.49-.4,1-.83,1.48-1.19,7.24-5.05,14.52-10.05,21.71-15.17a10.72,10.72,0,0,0,3.07-3.46c4.7-8.63,9.23-17.34,13.93-26a10.42,10.42,0,0,1,3.06-3.44q7.89-5.51,16-10.71a7.65,7.65,0,0,1,3.88-1.3c6.79,0,12.65-3.3,18.94-5.05a11.43,11.43,0,0,1,4.79-.36c4.43.7,9,1.19,13.19,2.66,5.83,2,11.72,4.25,15.9,9.29,6.23,7.5,12.3,15.15,18.92,22.29a14.58,14.58,0,0,1,4,9.49,6.37,6.37,0,0,0,2.4,4.68c3.17,2.7,6.11,5.67,9.25,8.41a7.13,7.13,0,0,1,2.53,4.62c1.31,8.22,2.79,16.41,4.2,24.61a12.49,12.49,0,0,1,0,1.62l-13.77-17.76V450c-3.63-2.48-5.38-1.74-7.75,2-4.47,7.12-4.51,15.05-4.89,23a14.45,14.45,0,0,0,.77,3.21,13.13,13.13,0,0,1,.91-2.09,9.53,9.53,0,0,1,1.22-1.15l.62.26-1.19,3.94,6.15-3.28c-.38,1.9-.79,3.52-3.59,3.14a46.2,46.2,0,0,0-6.23-.06l-.2.76,2.43,1.62c-3.12,2.28-2.33,5.88-2.85,9s-.43,6.53-.73,9.79c-.12,1.4-.6,2.77-.82,4.17s.21,2.15,1.83,2.27a24.59,24.59,0,0,1,4.47,1.24c-2.65,2.15-4.83,4.35-7.41,5.88s-1.26,3.68-1.6,5.52c-.07.4,1.84,1.35,2.94,1.73,2.2.76,4.47,1.3,6.36,1.83-3.8,3.42-7.48,6.81-11.29,10.06a3.54,3.54,0,0,1-2.7.43c-4.49-1-7,0-9.66,3.9-.63.93-1.35,1.81-2.3,3.08l-.26-2.57c-1.87.54-3.62,1.06-5.39,1.53-.16,0-.41-.21-.67-.36a59,59,0,0,1,3.72-4.58,23.52,23.52,0,0,1,3.12-2,2.35,2.35,0,0,0,.79-1.28,19.23,19.23,0,0,1,.59-3.11,26.26,26.26,0,0,1,2.14-3.43h-1.36c.23-1.78.45-3.45.65-5.12.05-.42.21-1,0-1.26-1.81-2.62-.87-4.84,1-7.07,2.92,1.81-1.18,4.9,1.39,7.29.37-3,.67-5.4,1-7.85-3.26-1.06-3.6-1.7-1.83-4.9,1.49-2.7,3.25-5.24,4.91-7.84,1.81-2.83,1-6,1-9,0-4.46-.32-8.93-.44-13.4-.2-7-.32-13.93-.55-20.9a8.51,8.51,0,0,0-.82-2.36l-.86,0c-1.26,8.19-2.91,16.35-3.66,24.59C306,483.39,304,500,302.57,501c-.53-5.95-1-11.76-1.59-17.57s-1.28-11.73-2.05-17.58c-.07-.51-1.23-1.41-1.59-1.29-4.32,1.48-8.17-.71-12.89-1.49.34,8.5.68,16.88,1,25.26l-.84.18a62.16,62.16,0,0,1-2.08-6.86c-.56-3-.67-6-1.08-9-.44-3.21-.92-6.41-1.53-9.59a34.79,34.79,0,0,0-1.62-5.77c-.29-.72-1.28-1.17-2.33-2.07,0-2.11.14-4.78,0-7.42-.16-2.42.82-5-1.31-7.32a12.89,12.89,0,0,0-.62,2.67c-.07,3.75-.14,7.5.05,11.24A3.93,3.93,0,0,0,275.8,457c2.41,1.49,1.45,4,2.14,6a9.89,9.89,0,0,1,.06,3.13l-.62.11c-.57-2.13-1.13-4.25-1.73-6.52-2.56-.85-4.72-4.87-4.06-8,.09-.39.49-.94.35-1.11-2.6-3.27-.15-7-1-10.39a15.1,15.1,0,0,0-1-2.24,6.31,6.31,0,0,0-1,2.21c-.09,4.66-.3,9.35.06,14,.16,2.1,1.52,4.11,2.3,6.08l-3.09-1.5Zm28.65-7.35c-.18.53-.06.37-.09.23-1.49-7.91-3-15.83-4.53-23.73a1.75,1.75,0,0,0-1.17-1c-1.88-.43-2.95.39-3.27,2.32-1.14,7.08-2.36,14.14-3.47,21.22-.32,2-.38,4.08-.61,6.56Zm5.16-67.12-.55.83,6.43,4.84.47-.63Zm16.49,17.73-.6.71,5.78,5.34.56-.63Zm-24.39,51.94-.3.87,3.51,2-.15-3Zm24,26.07-.18-.06c-.23,2.5-.45,5-.67,7.51l.85.07Z" transform="translate(-0.5 0.02)"/>
      <path d="M268.32,458.84l1,3-3.63.68c-1.62,2.15-4.35,3.31-7.35,3.88-4.21.79-7.47-.56-10.6-4.18l9.28-4.49-.25-.56a19,19,0,0,1-4.1-1c-1-.5-3.41.66-2.93-2.46l14.27,4,4.43,1.2Z" transform="translate(-0.5 0.02)"/>
      <path d="M290.57,502.65c-2.8,2.05-5,2-7.66,1.69-4.09-.46-8.3.22-12.46.43a6,6,0,0,1-1.69.17,13.19,13.19,0,0,1-2.23-1.1c.67-.61,1.28-1.66,2-1.76a73.08,73.08,0,0,1,11.21-1C283.17,501.15,286.56,502,290.57,502.65Z" transform="translate(-0.5 0.02)"/>
      <path d="M327.7,470.42a25.31,25.31,0,0,1,.83-3.27,16.33,16.33,0,0,1,1.5-2.44c.44-.68.89-1.35,1.34-2l-2.44-1.32,2.56-3.14c2,2.23,2.89,4.29,1.25,6.8-.13.2-.28.52-.21.69,1.52,3.51-2.45,3-3.46,4.67C329,470.61,328.17,470.42,327.7,470.42Z" transform="translate(-0.5 0.02)"/>
      <path d="M269.78,492.62l15.09-1,0,1C280,494.94,275,496.49,269.78,492.62Z" transform="translate(-0.5 0.02)"/>
      <path d="M282.93,508c-2.86,2.82-8.6,2.81-10.86,0C273.62,506.51,281.45,506.53,282.93,508Z" transform="translate(-0.5 0.02)"/>
      <path d="M610.21,477.7c1.36,1.45,2.81,2.85,4,4.41.28.37,0,1.78-.34,1.9a4.19,4.19,0,0,1-2.55,0,2,2,0,0,1-1.11-1.34c-.24-1.44-.25-2.91-.36-4.37Z" transform="translate(-0.5 0.02)"/>
      <path d="M363.51,499.8l-12.76,4.58c3.65-3.75,8.19-4.25,12.29-5.91Z" transform="translate(-0.5 0.02)"/>
      <path d="M604,476.44a20.33,20.33,0,0,1,.08-4.17c.15-.66,1.13-1.13,1.73-1.69.41.69,1.24,1.45,1.14,2.06C606.67,474.23,607,476.46,604,476.44Z" transform="translate(-0.5 0.02)"/>
      <path d="M707.07,419.87l2.35-2.92c.39,2.13.8,4.4,1.21,6.68l-.49.22Z" transform="translate(-0.5 0.02)"/>
      <path d="M614.92,510.79l2.31,4C613.48,512,613.48,512,614.92,510.79Z" transform="translate(-0.5 0.02)"/>
      <path d="M557.56,114.34V104.17h5.78v12.59Z" transform="translate(-0.5 0.02)"/>
      <path d="M547,124.48c-3.84,0-5.54-1.24-4.92-3.73s3.15-1.91,4.8-2.73a3.64,3.64,0,0,1,1.48,0c1.58,0,3.4-.16,3.63,2,.28,2.69-1.06,4.26-3.49,4.5A15,15,0,0,1,547,124.48Z" transform="translate(-0.5 0.02)"/>
      <path d="M230.14,107c.13-2.2-1.33-2.67-3.57-2.54a44.93,44.93,0,0,1-8.95-.39c3.43-2.92,7.61-.78,11.51-1.77.62,3.53,3.26,2.52,5.43,2.74a18.36,18.36,0,0,1,3.36,1,19.6,19.6,0,0,1-3.3.87A41.4,41.4,0,0,1,230.14,107Z" transform="translate(-0.5 0.02)"/>
      <path d="M224.92,98.78c-2.72-.92-5.36,1-7-1.85,1.83-2,3.93-1.63,5.89-1.19C224.23,95.85,224.39,97.31,224.92,98.78Z" transform="translate(-0.5 0.02)"/>
      <path d="M223.29,108.07c1,1.16,1.94,1.8,2.08,2.59.09.49-1.39,1.81-1.57,1.7-1.11-.63-3.49.36-3.19-2C220.7,109.66,222,109.12,223.29,108.07Z" transform="translate(-0.5 0.02)"/>
      <path d="M238.59,97.58h3.76c.41,1.62-.15,2.75-1.72,2.84C238.83,100.52,238.35,99.29,238.59,97.58Z" transform="translate(-0.5 0.02)"/>
      <path d="M230.1,97.23c1.61.4,3.82-.17,3.61,3.1l-3.61-.3Z" transform="translate(-0.5 0.02)"/>
      <path d="M413,124.48c-3,0-5.76.08-8.47-.07-.54,0-1.33-.89-1.46-1.47a13.49,13.49,0,0,1-.05-3.48c.07-1.29.6-2.1,2.14-2a52.16,52.16,0,0,0,5.73,0c1.66-.08,2.22.63,2.13,2.21S413,122.64,413,124.48Z" transform="translate(-0.5 0.02)"/>
      <path d="M640.86,57.48a8.81,8.81,0,0,1,.12.89c.22,7.19-.86,8-8,6.15a9.37,9.37,0,0,0-1.35-.14v-6.9h9.22Z" transform="translate(-0.5 0.02)"/>
      <path d="M915.54,64.12c-2.88,1.93-5.43.41-8-.43A1.84,1.84,0,0,1,907.1,62a4.91,4.91,0,0,1,2.3-1.94,4.49,4.49,0,0,1,4.91,2C914.73,62.68,915.07,63.33,915.54,64.12Z" transform="translate(-0.5 0.02)"/>
      <path d="M718.65,97.84a10.9,10.9,0,0,1,.3,2.57,60.29,60.29,0,0,1-5.82,18.1c-.62,1.22-2.16,2-3.27,3-.94-1.12-2.35-2.1-2.73-3.39C704.41,108.83,708.13,102.21,718.65,97.84Z" transform="translate(-0.5 0.02)"/>
      <path d="M752.46,125a23.69,23.69,0,0,1-4.2-2c-1.46-1.11-.94-2.58.39-3.41a10,10,0,0,1,7.3-1.44c1.43.29,2.26,1.08,1.62,3-.84,2.55-2,4.1-5,3.21Z" transform="translate(-0.5 0.02)"/>
      <path d="M719.85,40.82h6.35v.5h-6.45C719.78,41.16,719.81,41,719.85,40.82Z" transform="translate(-0.5 0.02)"/>
      <path d="M709.28,60.45c2.2.43,4.65-.8,7.11,1.2-2.43.32-4.34.66-6.26.75-.42,0-.88-.85-1.32-1.3Z" transform="translate(-0.5 0.02)"/>
      <path d="M709.08,56.8c1.19-1.82,5.45-1.87,6.93,0Z" transform="translate(-0.5 0.02)"/>
      <path d="M716,51.81h-7C710.43,49.94,714.7,50,716,51.81Z" transform="translate(-0.5 0.02)"/>
      <path d="M705.39,41.25h-6.12l0-.54,6.14-.28Z" transform="translate(-0.5 0.02)"/>
      <path d="M391.32,124.36h-6.05c.32-1.34.25-3.11,1-3.55a4.4,4.4,0,0,1,3.86-.08C390.88,121.17,390.89,122.94,391.32,124.36Z" transform="translate(-0.5 0.02)"/>
      <path d="M614,64.74V60.33c1.63.24,3.29.2,4.64.82.44.21.38,3,.07,3.09A20.75,20.75,0,0,1,614,64.74Z" transform="translate(-0.5 0.02)"/>
    </g>
  </g>
  <g id="dialogues-alpha">
    <g>
      <path class="cls-1" d="M626.5,0v167.5H.5V0Zm-7.59,4.16H8.45l.28,2.54H618.91ZM228.7,124.05l-.48.7c-4.95.24-9.9.55-14.86.69-1.64,0-2.39.4-2.42,2.24s.83,2.34,2.57,2.33c12,0,24-.07,36,0,2,0,2.66-.62,2.56-2.58-.12-2.27-1.62-2.43-3.24-2.44-4.9,0-9.8,0-14.69,0l-.32-.86c.76-.38,1.5-1.06,2.26-1.09,3.66-.11,7.33-.09,11,0,1.57,0,2-.67,2-2.12-.05-1.84-1-2.43-2.71-2.41-4.06,0-8.13,0-12.4,0,.62-3.31-1.27-4.11-3.73-4.12v-2.88c2,0,3.77.09,5.56,0s2.46.61,2.27,2.33c-.06.49,0,1,0,1.5-.08,1.78,1.15,1.73,2.36,1.69s2.53.33,2.67-1.67c.28-3.83.36-3.83,4.2-3.83.59,0,1.17,0,1.75,0,1.46.06,2.55-.5,2.47-2.06-.07-1.37-.61-2.56-2.42-2.46a35.71,35.71,0,0,1-4.74,0c-.43,0-.81-.62-1.21-1,.41-.33.81-.9,1.24-.93,1.74-.11,3.49-.08,5.24-.05,1.34,0,2.49,0,2.48-1.88,0-1.6-.13-2.86-2.19-2.71-.74.06-1.48,0-3.18,0,1-1.35,1.48-2.73,2.15-2.81,2-.25,1.9-1.57,1.58-2.69-.18-.63-1.29-1.22-2.07-1.37-1.21-.23-2.51.06-3.73-.12-.57-.08-1.49-.73-1.51-1.15-.07-1.93-1.31-1.79-2.6-1.8s-2.54-.08-2.57,1.82c0,.4-.95,1.2-1.27,1.11-2.37-.63-5.47,1.85-7.21-1.63-.13-.26-.91-.27-1.39-.28-4.33,0-8.67.05-13,0-1.74,0-2.12.76-2.08,2.28.07,2.91.1,5.83,0,8.74a11.9,11.9,0,0,1-.84,3.71c-1.85,4.82-1.62,6.11,1.8,8.6l2.13-2.31c-.66,3.81,1.21,4.14,3.69,4,2.88-.13,5.77,0,8.66,0l.29.94a10.49,10.49,0,0,1-2.89,1c-3.24.13-6.49.1-9.74,0-1.48,0-2.16.48-2.08,2s.25,2.58,2.17,2.53c3.41-.09,6.83-.09,10.24,0A7.21,7.21,0,0,1,228.7,124.05ZM417.92,94.6c-1-3.48-2.3-4.1-5.39-3.44-4.45,1-9,1.49-13.45,2.38-.93.19-2.43,1.14-2.42,1.71,0,1.31.29,3.1,2.53,2.74a18.07,18.07,0,0,1,4.12-.38A2.91,2.91,0,0,1,405.38,99a7.21,7.21,0,0,1,.08,2.79h-8.57c.57-2.7-.07-4.25-3.05-3.91a31.32,31.32,0,0,1-3.75-.06H379.64v4.66c4.61,0,9.09,0,13.57,0,1.19,0,2.26,0,1.67,1.51-4,0-7.86.08-11.73,0a2.53,2.53,0,1,0,0,5.06c2.91-.12,5.83-.12,8.74,0,1.87.08,3-.56,3.25-2,2.87,0,5.58-.11,8.27.07a2.69,2.69,0,0,1,2,1.53,16.6,16.6,0,0,1,.09,3.91,40.09,40.09,0,0,0-5.57.08,2.62,2.62,0,0,0-1.82,1.68c-.31,4.87-.49,9.76-.51,14.64,0,.85.83,2.33,1.44,2.43a9.72,9.72,0,0,0,3.92-.66c.83-.24,1.55-1,2.38-1.13a30,30,0,0,1,4.24-.05c1.44,0,2.74-.16,3.93,1.33.59.74,2.66.66,3.91.34.56-.15,1-1.75,1.06-2.71.12-4.08.06-8.16.05-12.24,0-3.12-1.19-4.1-4.29-3.72a26.56,26.56,0,0,1-3.09,0V107c2.18,0,4.25-.06,6.31,0,1.66.07,2.62-.21,2.63-2.26s-.73-2.83-2.71-2.77-4.11,0-6.25,0V96.52ZM338,102.48c2.2,0,4.18.09,6.16,0,1.72-.1,2.6.53,2.28,2.27-.29,1.55.27,3.73-2.42,3.75h-5.88c-.42,4.5-.42,4.5,3.64,4.5a5.59,5.59,0,0,1,2,.08,1.76,1.76,0,0,1,1,1.28c0,1.63-.42,3.29-.26,4.9.56,5.61,3.18,9.5,8.9,10.17a34.15,34.15,0,0,0,10.73-.09,11.7,11.7,0,0,0,8.48-6.77c1.59-3.38.4-6.27-.34-9.26-.46-1.84-2.42-2.12-4.15-1.76-1.93.4-.87,1.72-.67,2.74.14.71.31,1.42.46,2.14.83,4-.84,6.75-4.8,7.55a25.13,25.13,0,0,1-5.87.48c-6.73-.27-8.17-3.76-6.92-9.68.32-1.51,1-1.83,2.39-1.8,2.83.07,5.66,0,8.49,0,1.46,0,2.9.2,2.79-2.06-.09-2-1.15-2.5-2.91-2.46-3.16,0-6.31,0-9.57,0,.37-2.11.69-4,1.06-6.1h13.27v-4.6H353.57a24.85,24.85,0,0,0,.38-4.21c-.06-.72-.8-2-1.18-2-1.43.08-3.45.13-4.09,1-1,1.38-1,3.44-1.53,5.46H338Zm213.83,10.33a14.48,14.48,0,0,0-10.62,1.72,9.19,9.19,0,0,0-4.13,4.28c-1.59,4.45-.28,7.14,4,10,4.08,2.73,12.09,1.24,14.7-2.9a37.32,37.32,0,0,0,2.33-5.36c3.17,1.92,6.4,3.62,9.31,5.75,1.53,1.11,2.59,1.12,3.28-.37s2.79-3,.08-4.51c-4.38-2.47-8.75-5-13.16-7.46V104c3.78,0,7.42,0,11.07,0,1.81,0,2.83-.58,2.82-2.55s-1.12-2.51-2.89-2.49c-3.64.06-7.28,0-11.13,0,0-2.07-.12-3.89,0-5.69.19-2.27-1.1-2.33-2.79-2.34s-2.84.11-2.78,2.35c.13,5.58,0,11.16,0,16.74C552,110.9,551.92,111.77,551.87,112.81ZM502,117.92l.71-.54c1.39-1,2.75-2.06,4.19-3a22.86,22.86,0,0,1,14.82-3.77,8.88,8.88,0,0,1,5.54,2.63c3.09,3.72,1,9.2-4.3,10.18-3.62.66-7.35.67-11,1.11-.78.09-1.95.61-2.15,1.2-.71,2.06,1.14,4.27,3.46,4.23a37.59,37.59,0,0,0,14.14-2.48c4.21-1.75,7.15-7.19,6.62-12.43-.31-3-5.56-8.16-9-8.53s-6.77-.38-10.4-.57l13.54-9.72c-1.16-2.23-2.24-4-5-3.82-3.69.2-7.4.07-11.1.07h-7.86c-.31,5-.31,5,4.28,5H518a13,13,0,0,1-1.35,1.62c-3,2.39-6.1,4.7-9.08,7.13-2.43,2-4.75,4.06-7.11,6.1-1.16,1-1.29,2-.18,3.17A22.25,22.25,0,0,1,502,117.92ZM72.16,67.48c10,0,19.8,0,29.61-.1.59,0,1.64-1.35,1.65-2.08.11-9.41.11-18.83,0-28.24,0-1.67-.83-2.64-2.81-2.62-8.58.09-17.16.08-25.74,0-2.14,0-2.89.82-3,2.94S72.77,40,74.74,40c6.91-.09,13.83,0,20.74-.08,2,0,2.61.62,2.56,2.59-.12,4.66,0,9.33,0,14V62H76.87C71.71,62,71.71,62,72.16,67.48Zm-4.89-3.23C63.4,60.64,59.93,57.19,56.21,54c-2-1.65-1.59-2.82-.39-4.7a90.51,90.51,0,0,0,5.63-10.21c1.16-2.45-.85-5.1-3.62-5.12C50.41,34,43,34,35.58,34c-2.22,0-2.11,1.27-2.09,2.76s-.21,2.85,2,2.8c5.5-.1,11,0,16.5,0h3.42c-1.5,2.61-2.77,4.67-3.9,6.79C47.45,54,40.71,58.85,33.25,62.81c-2.7,1.44-3,1.61-1.24,4.16.49.71,1.13,1.32,2.17,2.51L50.76,56.91,63.37,68.69ZM8,160.37v-1.65Q8,84.1,8,9.48c0-2.16-.72-2.91-2.91-2.31v153.2ZM297.13,95.61v4.71h18c-5.2,4.6-9.25,9.64-7.89,16.34,1.9,9.33,9.09,12.63,18.09,13.08.16-.38.45-1,.65-1.56,1-3,.75-3.5-2.24-4.28-1.25-.33-2.57-.49-3.77-.94-4.37-1.66-7.73-3.48-7.51-9.41.2-5.55,6-12.17,11.79-13.06,2.42-.38,4.87-.58,7.27-1.07.72-.15,1.79-1,1.84-1.58a7.58,7.58,0,0,0-.79-3.4c-.08-.18-1.34.14-2.06.24a17.77,17.77,0,0,1-2.16.29q-15.08.28-30.14.52C297.91,95.5,297.59,95.56,297.13,95.61Zm189.72,34.12a24.76,24.76,0,0,0,.57-4.17c0-.53-.81-1.33-1.41-1.52-2.38-.79-4.8-1.45-7.24-2-2.78-.69-5.42-4.33-5.23-7.28a14.63,14.63,0,0,1,7.84-12.47c3.49-2,7.29-2.17,11.05-2.8.71-.12,1.91-.6,1.93-1A28.5,28.5,0,0,0,494,94a29.56,29.56,0,0,1-4.65.93c-10,.23-20.07.37-30.11.54a5.93,5.93,0,0,0-1.06.19v4.55h18c-5.54,5.37-9.74,11.24-7,19S478.89,129.17,486.85,129.73ZM179.11,110.06c.5-3.18.8-5.86,1.38-8.48.63-2.81-1.18-3-3.12-3.46s-2.21.7-2.38,2.11c-.5,4.22-1,8.44-1.48,12.67-.4,3.6-.18,3.87,3.45,5,3.17-4.36,8.25-5.55,13-7.3,2.44-.9,7,.89,8.16,2.67a6.7,6.7,0,0,1-4.51,10.17c-3.44.64-7,.73-10.5,1.06-1.08.1-2.91-.28-2.44,1.42.4,1.43.06,3.91,2.55,4a27.09,27.09,0,0,0,17.44-4.5c3.2-2.2,5-9.35,3.45-12.8-2.13-4.63-5.87-6.46-10.74-6.69S184,107.51,179.11,110.06Zm271-.52c-.47,1.18-.83,1.95-1.09,2.76-1.7,5.18-3.39,10.35-9.55,12s-10-1.21-10-7.56c0-7.16,0-14.32,0-21.47,0-1.88-.49-2.81-2.66-2.83s-2.88.82-2.87,2.88c0,7.65-.05,15.31,0,23,.05,3.86,1.48,7.38,4.72,9.54,6.5,4.33,16.47,2.46,21.12-4.09a48.82,48.82,0,0,0,4-7c1.4-2.92.73-4.37-2.35-6A12,12,0,0,1,450.1,109.54Zm-304-6.16c1.75-.12,3.86-.32,6-.38s4.5-.13,6.73,0c2.06.13,2.64-1,2.16-2.57-.36-1.21-.85-2.65-2.82-2.5-2.4.18-4.82,0-7.23,0-3.71,0-3.66,0-3-3.84.13-.8-.5-2.4-1-2.52-1.8-.39-4.1-1.14-4.4,2a14.65,14.65,0,0,1-.47,2.12c-.35,1.38-.93,2.34-2.68,2.24-2.37-.15-4.76,0-7.11,0v4.64h8.53c-2.78,7.78-5.36,15.1-8,22.39-.62,1.68-1.59,3.23.85,4.26,2.72,1.16,3.21.95,4.53-2.08a37.51,37.51,0,0,0,1.66-3.73C141.84,116.91,143.87,110.34,146.05,103.38Zm-51.55.44v2.84c0,2.83.11,2.93,3,2.35,1.49-.3,3-.84,4.45-1,4.26-.42,8.53-.7,12.79-1,2.93-.23,4.84,1.34,6.14,3.69,1,1.71-.22,6.08-1.41,7.7-2.57,3.48-6.54,3.67-10.18,4.56a55.7,55.7,0,0,1-6.87.82,21.44,21.44,0,0,1,1.07,3.43c.26,1.9,1.47,1.92,2.86,1.65,2.14-.42,4.27-1,6.42-1.34,5.08-.92,9.44-3.07,12.24-7.55a11.77,11.77,0,0,0,.55-11.54c-2.13-4.57-6-7.24-11.2-6.85C107.75,102,101.21,103,94.5,103.82ZM175,61.7c0-9.36,0-18.1,0-26.84,0-2-.65-2.87-2.72-2.91-3-.06-2.74,2.17-2.76,3.91-.09,9.17,0,18.34,0,27.51,0,4.55,2.84,6.33,6.72,4.19a38.48,38.48,0,0,0,3.56-2.13,29.41,29.41,0,0,0,9.83-12.08c1.72-3.76,2-3.7-.91-6.41-1.61-1.5-2.07-1.3-2.73.77A24.76,24.76,0,0,1,175,61.7ZM49.68,98v4.62h8.09c-.92,3.2-1.6,6.13-2.59,8.94-1.73,4.88-3.67,9.68-5.48,14.53-.59,1.56-.18,2.75,1.52,3.29,1.48.47,3,1.28,3.78-1,.25-.76.74-1.43,1-2.18,2.32-7,4.75-13.94,6.83-21,.53-1.81,1.32-2.19,2.85-2.18,2.76,0,5.52-.06,8.28,0,2,.06,2-1.26,2-2.63s-.18-2.48-2-2.41c-2,.09-4,0-6,0-3,0-3.12-.32-2.66-3.32.15-1-.39-2.84-1-3-1.76-.5-4.09-1.2-4.4,2a14.12,14.12,0,0,1-.48,2.12c-.34,1.38-.9,2.37-2.66,2.27C54.51,97.87,52.18,98,49.68,98Zm536.82,28.5c-2.33,0-4.4.09-6.45,0S578,127.5,578,129s.11,2.59,2.09,2.52c3.07-.11,6.15-.08,9.23,0,2.06,0,2.74-.93,2.73-2.89q-.07-13.59,0-27.18c0-2.34-1-2.92-3.16-3-2.48-.11-2.39,1.3-2.38,3C586.52,109.64,586.5,117.87,586.5,126.48ZM153.79,69.15c1.42-1.49,2.51-3.12,4-4.13,4-2.65,5.63-6.69,6.08-11,.62-6.07.44-12.22.61-18.33.06-2.31-1.49-2.21-3.16-2.28-1.93-.08-2.36.73-2.38,2.5-.06,5.21-.12,10.42-.52,15.6a14.81,14.81,0,0,1-4.17,9.4c-1.27,1.29-2.7,2.44-4,3.57a11.48,11.48,0,0,0,1,1.94C152,67.29,152.73,68,153.79,69.15ZM31.1,122.88c4.4.25,4.4.25,4.4-3.81,0-7,.07-14,0-21,0-2,.79-2.65,2.6-2.61a23,23,0,0,0,5-.1c.61-.13,1.24-1.42,1.39-2.27.19-1,.48-2.57-1.36-2.59-4-.06-7.94,0-12,0Zm357.11-6.4c-1.75,0-3.5.07-5.25,0-2.1-.1-3,.73-3,2.9.09,3.08-.07,6.17.08,9.25,0,.93.6,2.44,1.22,2.61,1.15.32,3.26.3,3.66-.37,1-1.69,2.35-1.34,3.72-1.36a39.48,39.48,0,0,0,5-.09c.68-.1,1.73-1,1.76-1.65a85.83,85.83,0,0,0,0-9.49,2.52,2.52,0,0,0-1.72-1.69A41.81,41.81,0,0,0,388.21,116.48ZM109.6,53c11.56,0,22.88,0,34.19,0,2,0,2.8-.48,2.78-2.64s-.93-2.44-2.74-2.43c-10.74.06-21.48,0-32.23,0-.64,0-1.28.08-2,.13Zm147.16,39.5c-.28,2.36-.65,4.38-.73,6.42-.24,5.63-.47,11.26-.49,16.9,0,4.12.34,8.24.44,12.37,0,1.45.68,2,2,1.8,2-.23,3.52-.91,3-3.39a13.82,13.82,0,0,1-.47-2.89q.18-12.3.5-24.58a4.06,4.06,0,0,1,.63-1.54c1.48-3,.22-5.11-3.11-5.09Zm34,30.5c-5.06,0-9.43.21-13.78-.06-4.57-.3-5.68-1.94-5-6.44.33-2.2-1.6-2.3-2.79-2.79-.48-.19-1.83.73-2.18,1.44-3.07,6.26.67,11.8,7.05,12.32,4.43.36,8.89.45,13.34.47,1,0,2.67-.45,3-1.17C291,125.56,290.69,124,290.75,123Zm-142.41-5.42c-4.37,6.59-.76,10,3.84,11.07,5,1.12,10.36.66,15.56.76.41,0,1.06-.9,1.2-1.48a10.81,10.81,0,0,0,.05-2.73c0-1.37-.55-1.57-2-1.51a121.09,121.09,0,0,1-13.06-.3c-.62,0-1.78-1.71-1.59-2.25.53-1.56-.34-1.93-1.34-2.4S149.22,117.94,148.34,117.56Zm-82.45,0c-3.31,5.65-1.47,10.7,4.41,11.34a140.62,140.62,0,0,0,14.38.5c.6,0,1.48-1,1.75-1.69a4.27,4.27,0,0,0,0-2.69,2.16,2.16,0,0,0-1.63-1.11c-4.44-.22-8.9-.23-13.35-.48-1.31-.07-2.27-.79-1.72-2.55.16-.51-.49-1.52-1-1.95A13.91,13.91,0,0,0,65.89,117.56ZM279,96c-2.82,0-5.64,0-8.46,0-1.26,0-2.19.25-2.05,1.76s-.76,3.59,1.63,3.67c5.89.18,11.79.17,17.68,0,2.39-.07,1.55-2.22,1.67-3.64s-.7-1.82-2-1.8C284.67,96,281.84,96,279,96Zm-79.5.28c-.32-.27-.54-.58-.82-.67-4.41-1.38-8.79-2.86-13.25-4s-4.77-1-6.54,3.53l18.69,5.54ZM161.36,112c1.67,0,2.84-.09,4,0,2.42.22,2.1-1.42,2.16-2.94s-.17-2.76-2.25-2.6c-3.29.25-6.6.28-9.89.55-1.68.15-3.33.66-5,.95-2.11.37-1.41,2.06-1.26,3.16.08.54,1.36,1.3,2.1,1.3C154.76,112.39,158.31,112.13,161.36,112ZM74.61,107.1l-.1-.53c-2.13.46-4.25,1-6.41,1.34-2.32.33-1.69,2.07-1.46,3.23.11.58,1.53,1.28,2.35,1.28,4.64,0,9.27-.39,13.9-.39,2.44,0,2-1.51,2.13-3,.1-1.68-.24-2.77-2.28-2.56C80,106.74,77.32,106.89,74.61,107.1ZM387.84,91.48c-1.58,0-3.16,0-4.74,0s-2.57.53-2.59,2.23.81,2.71,2.46,2.75c3.32.09,6.65,0,10,0,1.49,0,2.17-.74,2.09-2.33s-.49-2.61-2.2-2.65S389.5,91.48,387.84,91.48Zm.18,23c1.74,0,3.48,0,5.22,0,1.49.05,1.77-.77,1.78-2s-.4-2-1.84-2-2.92-.42-4.38-.41a38,38,0,0,0-6.58.47c-.66.13-1.68,1.53-1.53,2.09a3.07,3.07,0,0,0,2.12,1.8A33.48,33.48,0,0,0,388,114.48ZM80,100.59c1.35-.85,4.36,0,3.37-3A17.09,17.09,0,0,0,79.58,92c-.42-.47-2.09-.09-3,.32-.33.14-.4,1.66-.08,2.29C77.48,96.59,78.7,98.42,80,100.59Zm250.5,12.09c-1.74-6.1-4.08-8.07-8.27-6.68a60.07,60.07,0,0,1,3.67,6.48c.61,1.47,1.09,1.84,2.45,1A15.29,15.29,0,0,1,330.5,112.68ZM85.91,99.47c3.57-1.66,4-2.87,2.28-5.51-.91-1.34-2-2.56-3.1-3.93-1.16.59-3.65.23-2.94,2.46C82.94,95,84.63,97.17,85.91,99.47ZM336.1,109.76a59.91,59.91,0,0,0-3.8-6.08c-.43-.55-1.91-.43-2.87-.32-.35,0-1,1.11-.85,1.38,1.24,2.51,2.64,5,4.07,7.57Z" transform="translate(-0.5 0.02)"/>
      <path d="M217.41,103.53a9.77,9.77,0,0,1,2.67-1c2.15-.15,4.31-.06,6.47,0,1.39,0,2.9-.38,3.47,1.65.13.45,1.36.75,2.11.81,1.48.13,3,0,4.47.09.46,0,.88.55,1.32.85-.45.36-.89,1-1.36,1-2,.12-4.07,0-6.32,0,0-2.52-1.9-2.65-4.22-2.52-2.78.15-5.57,0-8.36,0Z" transform="translate(-0.5 0.02)"/>
      <path d="M224.8,98.31c-5.84.43-5.84.43-6.76-1.53,1.59-1.84,3.72-1.45,5.67-1.06C224.18,95.81,224.39,97.26,224.8,98.31Z" transform="translate(-0.5 0.02)"/>
      <path d="M223.07,108c1.12,1.28,2,1.94,2.31,2.81.11.31-1.45,1.71-1.67,1.59-1.06-.61-3.28.32-3.1-1.85C220.66,109.8,221.85,109.17,223.07,108Z" transform="translate(-0.5 0.02)"/>
      <path d="M242.38,97.61c.36,1.69-.26,2.8-1.87,2.81s-2.2-1.11-1.91-2.81Z" transform="translate(-0.5 0.02)"/>
      <path d="M230.08,99.94V97.3c1.66.28,3.84-.29,3.55,3.09Z" transform="translate(-0.5 0.02)"/>
      <path d="M412.78,124.48c-2.73,0-5.3,0-7.87,0-1.37,0-2-.52-1.92-1.91,0-.58,0-1.16,0-1.74,0-3.36,0-3.37,3.27-3.37,1.57,0,3.16.06,4.73,0s2.1.59,2,2.07c-.07,1.33,0,2.66,0,4A5.81,5.81,0,0,1,412.78,124.48Z" transform="translate(-0.5 0.02)"/>
      <path d="M547.4,124.73c-1.53-.31-2.88-.29-3.87-.86a3.44,3.44,0,0,1-1.42-2.5,2.87,2.87,0,0,1,1.36-2.27,14.91,14.91,0,0,1,5-1c1.12,0,3,.44,3.21,1.1a5.16,5.16,0,0,1-.5,4.15C550.39,124.25,548.56,124.34,547.4,124.73Z" transform="translate(-0.5 0.02)"/>
      <path d="M391.27,124.36h-6c.37-1.39.34-3.15,1.08-3.59a4.49,4.49,0,0,1,3.87,0C390.93,121.18,390.89,123,391.27,124.36Z" transform="translate(-0.5 0.02)"/>
    </g>
  </g>
</svg>
